<svg width="25" height="24" viewBox="0 0 25 24" fill="none" xmlns="http://www.w3.org/2000/svg">
    <path fill-rule="evenodd" clip-rule="evenodd" d="M2.69435 5.25839C2.625 5.62595 2.625 6.06722 2.625 6.94975V14C2.625 17.7712 2.625 19.6569 3.79657 20.8284C4.96815 22 6.85376 22 10.625 22H14.625C18.3962 22 20.2819 22 21.4534 20.8284C22.625 19.6569 22.625 17.7712 22.625 14V11.7979C22.625 9.16554 22.625 7.84935 21.8555 6.99383C21.7848 6.91514 21.7099 6.84024 21.6312 6.76946C20.7756 6 19.4595 6 16.8271 6H16.4534C15.2997 6 14.7229 6 14.1854 5.84678C13.8901 5.7626 13.6054 5.64471 13.3371 5.49543C12.8487 5.22367 12.4408 4.81578 11.625 4L11.0747 3.44975C10.8013 3.17633 10.6646 3.03961 10.5209 2.92051C9.90152 2.40704 9.14165 2.09229 8.34057 2.01738C8.15476 2 7.96142 2 7.57475 2C6.69222 2 6.25095 2 5.88339 2.06935C4.26531 2.37464 2.99964 3.64031 2.69435 5.25839ZM12.875 10C12.875 9.58579 13.2108 9.25 13.625 9.25H18.625C19.0392 9.25 19.375 9.58579 19.375 10C19.375 10.4142 19.0392 10.75 18.625 10.75H13.625C13.2108 10.75 12.875 10.4142 12.875 10Z" fill="#1A62F5"/>
</svg>
