<svg width="25" height="24" viewBox="0 0 25 24" fill="none" xmlns="http://www.w3.org/2000/svg">
    <path fill-rule="evenodd" clip-rule="evenodd" d="M12.375 22C17.8978 22 22.375 17.5228 22.375 12C22.375 6.47715 17.8978 2 12.375 2C6.85215 2 2.375 6.47715 2.375 12C2.375 13.5997 2.75062 15.1116 3.41846 16.4525C3.59594 16.8088 3.65501 17.2161 3.55212 17.6006L2.95651 19.8267C2.69795 20.793 3.58201 21.677 4.54835 21.4185L6.77439 20.8229C7.15893 20.72 7.56621 20.7791 7.92253 20.9565C9.26337 21.6244 10.7753 22 12.375 22ZM8.375 13.25C7.96079 13.25 7.625 13.5858 7.625 14C7.625 14.4142 7.96079 14.75 8.375 14.75H13.875C14.2892 14.75 14.625 14.4142 14.625 14C14.625 13.5858 14.2892 13.25 13.875 13.25H8.375ZM7.625 10.5C7.625 10.0858 7.96079 9.75 8.375 9.75H16.375C16.7892 9.75 17.125 10.0858 17.125 10.5C17.125 10.9142 16.7892 11.25 16.375 11.25H8.375C7.96079 11.25 7.625 10.9142 7.625 10.5Z" fill="#1A62F5"/>
</svg>
