<svg width="251" height="200" viewBox="0 0 251 200" fill="none" xmlns="http://www.w3.org/2000/svg">
    <path fill-rule="evenodd" clip-rule="evenodd" d="M63.5 134H154.5C155.015 134 155.517 133.944 156 133.839C156.483 133.944 156.985 134 157.5 134H209.5C213.366 134 216.5 130.866 216.5 127C216.5 123.134 213.366 120 209.5 120H203.5C199.634 120 196.5 116.866 196.5 113C196.5 109.134 199.634 106 203.5 106H222.5C226.366 106 229.5 102.866 229.5 99C229.5 95.134 226.366 92 222.5 92H200.5C204.366 92 207.5 88.866 207.5 85C207.5 81.134 204.366 78 200.5 78H136.5C140.366 78 143.5 74.866 143.5 71C143.5 67.134 140.366 64 136.5 64H79.5C75.634 64 72.5 67.134 72.5 71C72.5 74.866 75.634 78 79.5 78H39.5C35.634 78 32.5 81.134 32.5 85C32.5 88.866 35.634 92 39.5 92H64.5C68.366 92 71.5 95.134 71.5 99C71.5 102.866 68.366 106 64.5 106H24.5C20.634 106 17.5 109.134 17.5 113C17.5 116.866 20.634 120 24.5 120H63.5C59.634 120 56.5 123.134 56.5 127C56.5 130.866 59.634 134 63.5 134ZM226.5 134C230.366 134 233.5 130.866 233.5 127C233.5 123.134 230.366 120 226.5 120C222.634 120 219.5 123.134 219.5 127C219.5 130.866 222.634 134 226.5 134Z" fill="#E5E5EA"/>
    <path fill-rule="evenodd" clip-rule="evenodd" d="M89.305 134.713L85.6092 135.238C83.6227 135.52 81.7886 134.139 81.5126 132.153L71.5174 60.2281C71.2414 58.242 72.628 56.403 74.6145 56.1207L145.652 46.0239C147.638 45.7416 149.473 47.1228 149.749 49.1089L150.608 55.2897C150.654 55.6241 153.723 77.8236 159.813 121.888C160.119 124.101 158.593 126.145 156.405 126.454C156.382 126.458 156.358 126.461 156.335 126.464L89.305 134.713Z" fill="#E5E5EA"/>
    <path d="M86.7783 139.123L82.7081 139.695C80.5205 140.002 78.4978 138.478 78.1904 136.291L67.0565 57.0691C66.7491 54.8815 68.2733 52.8588 70.4609 52.5513L148.692 41.5567C150.88 41.2492 152.902 42.7734 153.21 44.961C153.21 44.961 153.922 50.0264 154.167 51.7688" stroke="#1A62F5" stroke-width="2.5" stroke-linecap="round"/>
    <path d="M155 56.3799L155.5 59.5003" stroke="#1A62F5" stroke-width="2.5" stroke-linecap="round"/>
    <path d="M100.323 60.4886C100.482 58.9782 101.835 57.8824 103.345 58.0411L181.913 66.2989C183.423 66.4577 184.519 67.8108 184.36 69.3213L175.998 148.883C175.839 150.394 174.486 151.489 172.976 151.331L94.4083 143.073C92.8978 142.914 91.8021 141.561 91.9608 140.05L100.323 60.4886Z" stroke="#1A62F5" stroke-width="2.5"/>
    <path fill-rule="evenodd" clip-rule="evenodd" d="M110.241 109.878L120.038 103.27C121.672 102.168 123.865 102.42 125.206 103.864L132.379 111.587C132.737 111.973 133.333 112.015 133.742 111.683L149.081 99.2539C150.929 97.7566 153.667 98.1927 154.959 100.19L164.94 115.627L166.373 118.019L165.687 126.144C165.639 126.705 165.139 127.116 164.58 127.054L107.617 120.725C107.075 120.665 106.682 120.182 106.732 119.639L107.487 111.441L110.241 109.878Z" fill="#E5E5EA"/>
    <path d="M108.437 69.3857C108.538 68.4245 109.4 67.7272 110.361 67.8282L173.016 74.4135C173.977 74.5145 174.674 75.3757 174.573 76.3369L169.033 129.047C168.932 130.008 168.071 130.705 167.11 130.604L104.455 124.019C103.494 123.918 102.796 123.057 102.897 122.095L108.437 69.3857Z" stroke="#1A62F5" stroke-width="2.5"/>
    <circle cx="122.533" cy="85.9498" r="6" transform="rotate(6 122.533 85.9498)" fill="#E5E5EA" stroke="#1A62F5" stroke-width="2.5"/>
    <path d="M108.23 111.425C112.167 108.707 120.039 103.27 120.039 103.27C121.673 102.168 123.866 102.42 125.207 103.864L132.38 111.587C132.738 111.972 133.334 112.014 133.743 111.683L149.083 99.2535C150.799 97.8627 153.318 98.1267 154.709 99.8431C154.798 99.954 154.882 100.07 154.96 100.19C154.96 100.19 163.928 114.42 166.024 117.746" stroke="#1A62F5" stroke-width="2.5" stroke-linecap="round"/>
</svg>
