<svg width="20" height="21" viewBox="0 0 20 21" fill="none" xmlns="http://www.w3.org/2000/svg">
<g clip-path="url(#clip0_6002_21495)">
<path d="M11.6668 2.00195V5.44407C11.6668 5.91078 11.6668 6.14414 11.7577 6.3224C11.8376 6.4792 11.965 6.60668 12.1218 6.68658C12.3001 6.7774 12.5335 6.7774 13.0002 6.7774H16.4423M13.3335 10.944H6.66683M13.3335 14.2773H6.66683M8.3335 7.61068H6.66683M11.6668 1.77734H7.3335C5.93336 1.77734 5.2333 1.77734 4.69852 2.04983C4.22811 2.28951 3.84566 2.67196 3.60598 3.14237C3.3335 3.67715 3.3335 4.37721 3.3335 5.77734V14.444C3.3335 15.8441 3.3335 16.5442 3.60598 17.079C3.84566 17.5494 4.22811 17.9318 4.69852 18.1715C5.2333 18.444 5.93336 18.444 7.3335 18.444H12.6668C14.067 18.444 14.767 18.444 15.3018 18.1715C15.7722 17.9318 16.1547 17.5494 16.3943 17.079C16.6668 16.5442 16.6668 15.8441 16.6668 14.444V6.77734L11.6668 1.77734Z" stroke="#414651" stroke-width="2" stroke-linecap="round" stroke-linejoin="round"/>
</g>
<defs>
<clipPath id="clip0_6002_21495">
<rect width="20" height="20" fill="white" transform="translate(0 0.109375)"/>
</clipPath>
</defs>
</svg>
