<svg width="24" height="24" viewBox="0 0 24 24" fill="none" xmlns="http://www.w3.org/2000/svg">
<path d="M4.90909 1.09091C4.90909 0.488417 4.42067 0 3.81818 0C3.21569 0 2.72727 0.488417 2.72727 1.09091V2.72727H1.09091C0.488417 2.72727 0 3.21569 0 3.81818C0 4.42067 0.488417 4.90909 1.09091 4.90909H2.72727V6.54545C2.72727 7.14795 3.21569 7.63636 3.81818 7.63636C4.42067 7.63636 4.90909 7.14795 4.90909 6.54545V4.90909H6.54545C7.14795 4.90909 7.63636 4.42067 7.63636 3.81818C7.63636 3.21569 7.14795 2.72727 6.54545 2.72727H4.90909V1.09091Z" fill="url(#paint0_linear_1348_25784)"/>
<path d="M4.90909 17.4545C4.90909 16.8521 4.42067 16.3636 3.81818 16.3636C3.21569 16.3636 2.72727 16.8521 2.72727 17.4545V19.0909H1.09091C0.488417 19.0909 0 19.5793 0 20.1818C0 20.7843 0.488417 21.2727 1.09091 21.2727H2.72727V22.9091C2.72727 23.5116 3.21569 24 3.81818 24C4.42067 24 4.90909 23.5116 4.90909 22.9091V21.2727H6.54545C7.14795 21.2727 7.63636 20.7843 7.63636 20.1818C7.63636 19.5793 7.14795 19.0909 6.54545 19.0909H4.90909V17.4545Z" fill="url(#paint1_linear_1348_25784)"/>
<path d="M14.1091 1.7902C13.9471 1.3689 13.5423 1.09091 13.0909 1.09091C12.6395 1.09091 12.2348 1.3689 12.0727 1.7902L10.1809 6.70896C9.85317 7.56101 9.75019 7.80654 9.60933 8.00465C9.46799 8.20342 9.29433 8.37708 9.09555 8.51842C8.89745 8.65928 8.65192 8.76226 7.79987 9.08998L2.88111 10.9818C2.45981 11.1438 2.18182 11.5486 2.18182 12C2.18182 12.4514 2.45981 12.8562 2.88111 13.0182L7.79987 14.91C8.65192 15.2377 8.89745 15.3407 9.09555 15.4816C9.29433 15.6229 9.46799 15.7966 9.60933 15.9954C9.75019 16.1935 9.85317 16.439 10.1809 17.291L12.0727 22.2098C12.2348 22.6311 12.6395 22.9091 13.0909 22.9091C13.5423 22.9091 13.9471 22.6311 14.1091 22.2098L16.0009 17.291C16.3286 16.439 16.4316 16.1935 16.5725 15.9954C16.7138 15.7966 16.8875 15.6229 17.0863 15.4816C17.2844 15.3407 17.5299 15.2377 18.3819 14.91L23.3007 13.0182C23.722 12.8562 24 12.4514 24 12C24 11.5486 23.722 11.1438 23.3007 10.9818L18.3819 9.08997C17.5299 8.76226 17.2844 8.65928 17.0863 8.51842C16.8875 8.37708 16.7138 8.20342 16.5725 8.00465C16.4316 7.80654 16.3286 7.56101 16.0009 6.70896L14.1091 1.7902Z" fill="url(#paint2_linear_1348_25784)"/>
<defs>
<linearGradient id="paint0_linear_1348_25784" x1="0" y1="0" x2="24" y2="24" gradientUnits="userSpaceOnUse">
<stop stop-color="#FCCB90"/>
<stop offset="1" stop-color="#D57EEB"/>
</linearGradient>
<linearGradient id="paint1_linear_1348_25784" x1="0" y1="0" x2="24" y2="24" gradientUnits="userSpaceOnUse">
<stop stop-color="#FCCB90"/>
<stop offset="1" stop-color="#D57EEB"/>
</linearGradient>
<linearGradient id="paint2_linear_1348_25784" x1="0" y1="0" x2="24" y2="24" gradientUnits="userSpaceOnUse">
<stop stop-color="#FCCB90"/>
<stop offset="1" stop-color="#D57EEB"/>
</linearGradient>
</defs>
</svg>
