<svg width="34" height="15" viewBox="0 0 34 15" fill="none" xmlns="http://www.w3.org/2000/svg">
<path fill-rule="evenodd" clip-rule="evenodd" d="M6.69626 2.12486C6.3095 2.59406 5.69068 2.96413 5.07186 2.91126C4.99451 2.27686 5.29747 1.6028 5.652 1.18647C6.03877 0.704055 6.7156 0.360418 7.26351 0.333984C7.32797 0.994825 7.07658 1.64245 6.69626 2.12486ZM7.25702 3.03682C6.71185 3.00465 6.21441 3.2049 5.81261 3.36665C5.55404 3.47074 5.33508 3.55888 5.1685 3.55888C4.98157 3.55888 4.75357 3.46602 4.49758 3.36177C4.16215 3.22516 3.77866 3.06897 3.3765 3.07647C2.45472 3.08968 1.5974 3.62496 1.12684 4.47745C0.159932 6.18241 0.875442 8.70682 1.81012 10.0946C2.26779 10.7819 2.8157 11.5352 3.53766 11.5088C3.85527 11.4965 4.08375 11.3971 4.3202 11.2942C4.59242 11.1758 4.87521 11.0528 5.31676 11.0528C5.74301 11.0528 6.01343 11.1726 6.27302 11.2876C6.51985 11.397 6.75688 11.502 7.10876 11.4956C7.8565 11.4824 8.32706 10.8083 8.78473 10.121C9.27863 9.38339 9.49567 8.6635 9.52861 8.55425L9.53247 8.54161C9.53168 8.5408 9.52559 8.53794 9.51484 8.5329L9.51481 8.53289C9.3497 8.4554 8.08777 7.86313 8.07567 6.27493C8.06351 4.94187 9.07661 4.26646 9.23608 4.16014L9.23611 4.16012C9.2458 4.15366 9.25234 4.1493 9.25529 4.14703C8.61069 3.16899 7.60511 3.06325 7.25702 3.03682ZM12.4332 11.4229V1.12038H16.2042C18.1509 1.12038 19.511 2.49492 19.511 4.50388C19.511 6.51283 18.1251 7.90059 16.1526 7.90059H13.9932V11.4229H12.4332ZM13.9931 2.46849H15.7915C17.1452 2.46849 17.9187 3.20863 17.9187 4.51049C17.9187 5.81234 17.1452 6.55909 15.785 6.55909H13.9931V2.46849ZM24.6614 10.1871C24.2489 10.9933 23.34 11.5022 22.3602 11.5022C20.9098 11.5022 19.8978 10.6167 19.8978 9.28176C19.8978 7.96008 20.8776 7.20011 22.689 7.08777L24.6357 6.96882V6.4005C24.6357 5.56123 24.1006 5.10525 23.1466 5.10525C22.3602 5.10525 21.7865 5.52158 21.6705 6.15598H20.2652C20.3104 4.82109 21.5351 3.84966 23.1917 3.84966C24.9773 3.84966 26.1376 4.80787 26.1376 6.29476V11.4229H24.6937V10.1871H24.6614ZM22.7791 10.2796C21.9476 10.2796 21.419 9.86991 21.419 9.24211C21.419 8.59449 21.9282 8.21781 22.9016 8.15833L24.6356 8.04599V8.62753C24.6356 9.59235 23.8362 10.2796 22.7791 10.2796ZM30.9269 11.826C30.3017 13.6301 29.5862 14.2248 28.0649 14.2248C27.9489 14.2248 27.5621 14.2116 27.4719 14.1852V12.9494C27.5685 12.9626 27.807 12.9759 27.9295 12.9759C28.6192 12.9759 29.006 12.6785 29.2445 11.9053L29.3863 11.4493L26.7435 3.94879H28.3743L30.2114 10.0351H30.2437L32.0808 3.94879H33.6665L30.9269 11.826Z" fill="black"/>
</svg>
