<svg width="49" height="48" viewBox="0 0 49 48" fill="none" xmlns="http://www.w3.org/2000/svg">
    <circle cx="24.5" cy="24" r="24" fill="black"/>
    <path fill-rule="evenodd" clip-rule="evenodd" d="M29.286 12.4825C29.286 13.7113 28.7432 14.9402 27.9772 15.8268C27.1631 16.8069 25.7587 17.5379 24.6414 17.5381C24.5138 17.5381 24.386 17.5224 24.3062 17.5069C24.2903 17.4447 24.2583 17.258 24.2583 17.0713C24.2583 15.8268 24.9128 14.598 25.615 13.8202C26.5088 12.8092 27.9931 12.0469 29.2381 12.0002C29.2701 12.1403 29.286 12.3114 29.286 12.4825ZM33.6748 20.2217C33.7058 20.2019 33.7271 20.1883 33.737 20.1807C32.0772 17.8631 29.5553 17.8008 28.8529 17.8006C27.7798 17.8006 26.8192 18.1717 26.0117 18.4837C25.4261 18.7099 24.921 18.9051 24.5117 18.9051C24.0602 18.9051 23.5433 18.7014 22.9664 18.4742C22.2381 18.1873 21.4142 17.8628 20.5057 17.8628C17.4414 17.8628 14.3291 20.3362 14.3291 25.0027C14.3291 27.9115 15.4782 30.9758 16.8987 32.9514C18.1276 34.6313 19.197 36.0002 20.7292 36.0002C21.4558 36.0002 21.9886 35.7798 22.5489 35.5481C23.17 35.2911 23.8249 35.0202 24.8151 35.0202C25.8149 35.0202 26.4127 35.2745 26.9892 35.5199C27.5262 35.7484 28.0449 35.9691 28.8531 35.9691C30.5289 35.9691 31.6302 34.4914 32.6835 33.0136C33.8647 31.3337 34.3595 29.6848 34.3754 29.6071C34.2796 29.576 31.0716 28.316 31.0716 24.7539C31.0716 21.8868 33.2569 20.489 33.6748 20.2217Z" fill="white"/>
</svg>
