<svg width="18" height="14" viewBox="0 0 18 14" fill="none" xmlns="http://www.w3.org/2000/svg">
<path d="M13.8486 6.94629C13.7266 6.94629 13.6143 6.91943 13.5117 6.86572C13.4141 6.81201 13.3188 6.72656 13.2261 6.60938L11.439 4.41211C11.3267 4.26562 11.2705 4.11426 11.2705 3.95801C11.2705 3.79199 11.3242 3.65283 11.4316 3.54053C11.5439 3.42822 11.6807 3.37207 11.8418 3.37207C11.9395 3.37207 12.0298 3.39404 12.1128 3.43799C12.2007 3.47705 12.2886 3.55518 12.3765 3.67236L13.8193 5.53271L16.8662 0.662109C16.998 0.442383 17.1665 0.33252 17.3716 0.33252C17.5229 0.33252 17.6597 0.381348 17.7817 0.479004C17.9038 0.57666 17.9648 0.706055 17.9648 0.867188C17.9648 0.950195 17.9453 1.0332 17.9062 1.11621C17.8721 1.19434 17.833 1.26758 17.7891 1.33594L14.4419 6.60938C14.2954 6.83398 14.0977 6.94629 13.8486 6.94629ZM1.2876 13.2964C0.896973 13.2964 0.589355 13.2085 0.364746 13.0327C0.14502 12.8618 0.0351562 12.625 0.0351562 12.3223C0.0351562 11.8486 0.176758 11.353 0.459961 10.8354C0.743164 10.313 1.15332 9.82471 1.69043 9.37061C2.22754 8.91162 2.87451 8.54053 3.63135 8.25732C4.39307 7.96924 5.24756 7.8252 6.19482 7.8252C7.14697 7.8252 8.00146 7.96924 8.7583 8.25732C9.52002 8.54053 10.167 8.91162 10.6992 9.37061C11.2363 9.82471 11.6465 10.313 11.9297 10.8354C12.2178 11.353 12.3618 11.8486 12.3618 12.3223C12.3618 12.625 12.2495 12.8618 12.0249 13.0327C11.8052 13.2085 11.5 13.2964 11.1094 13.2964H1.2876ZM6.20215 6.51416C5.67969 6.51416 5.19629 6.37256 4.75195 6.08936C4.30762 5.80127 3.94873 5.41553 3.67529 4.93213C3.40674 4.44385 3.27246 3.89697 3.27246 3.2915C3.27246 2.6958 3.40674 2.15869 3.67529 1.68018C3.94873 1.20166 4.30762 0.823242 4.75195 0.544922C5.19629 0.266602 5.67969 0.127441 6.20215 0.127441C6.72461 0.127441 7.20801 0.26416 7.65234 0.537598C8.09668 0.811035 8.45312 1.18701 8.72168 1.66553C8.99512 2.13916 9.13184 2.67627 9.13184 3.27686C9.13184 3.88721 8.99512 4.43652 8.72168 4.9248C8.45312 5.41309 8.09668 5.80127 7.65234 6.08936C7.20801 6.37256 6.72461 6.51416 6.20215 6.51416Z" fill="white"/>
</svg>
