<svg width="24" height="25" viewBox="0 0 24 25" fill="none" xmlns="http://www.w3.org/2000/svg">
<path fill-rule="evenodd" clip-rule="evenodd" d="M0.999878 5.5C0.999878 3.84315 2.34302 2.5 3.99988 2.5H19.9999C21.6567 2.5 22.9999 3.84315 22.9999 5.5C22.9999 7.15686 21.6567 8.5 19.9999 8.5H3.99988C2.34302 8.5 0.999878 7.15686 0.999878 5.5Z" fill="white"/>
<path fill-rule="evenodd" clip-rule="evenodd" d="M3.99988 10.5C3.44759 10.5 2.99988 10.9477 2.99988 11.5V16.7413C2.99987 17.5463 2.99986 18.2106 3.04407 18.7518C3.09 19.3139 3.18856 19.8306 3.43585 20.316C3.81935 21.0686 4.43127 21.6805 5.18392 22.064C5.66925 22.3113 6.18596 22.4099 6.74805 22.4558C7.28924 22.5 7.9536 22.5 8.75855 22.5H15.2412C16.0462 22.5 16.7105 22.5 17.2517 22.4558C17.8138 22.4099 18.3305 22.3113 18.8158 22.064C19.5685 21.6805 20.1804 21.0686 20.5639 20.316C20.8112 19.8306 20.9098 19.3139 20.9557 18.7518C20.9999 18.2106 20.9999 17.5463 20.9999 16.7413V11.5C20.9999 10.9477 20.5522 10.5 19.9999 10.5H3.99988ZM9.99988 13.5C9.44759 13.5 8.99988 13.9477 8.99988 14.5C8.99988 15.0523 9.44759 15.5 9.99988 15.5H13.9999C14.5522 15.5 14.9999 15.0523 14.9999 14.5C14.9999 13.9477 14.5522 13.5 13.9999 13.5H9.99988Z" fill="white"/>
</svg>
