<svg width="20" height="21" viewBox="0 0 20 21" fill="none" xmlns="http://www.w3.org/2000/svg">
<path d="M3.33341 7.16383C3.19674 7.1603 3.09749 7.15239 3.00826 7.13464C2.34711 7.00313 1.83028 6.4863 1.69877 5.82515C1.66675 5.66415 1.66675 5.47055 1.66675 5.08333C1.66675 4.69612 1.66675 4.50251 1.69877 4.34152C1.83028 3.68037 2.34711 3.16354 3.00826 3.03202C3.16926 3 3.36287 3 3.75008 3H16.2501C16.6373 3 16.8309 3 16.9919 3.03202C17.653 3.16354 18.1699 3.68037 18.3014 4.34152C18.3334 4.50251 18.3334 4.69612 18.3334 5.08333C18.3334 5.47055 18.3334 5.66415 18.3014 5.82515C18.1699 6.4863 17.653 7.00313 16.9919 7.13464C16.9027 7.15239 16.8034 7.1603 16.6667 7.16383M8.33342 11.3333H11.6667M3.33341 7.16667H16.6667V14C16.6667 15.4001 16.6667 16.1002 16.3943 16.635C16.1546 17.1054 15.7721 17.4878 15.3017 17.7275C14.7669 18 14.0669 18 12.6667 18H7.33342C5.93328 18 5.23322 18 4.69844 17.7275C4.22803 17.4878 3.84558 17.1054 3.6059 16.635C3.33341 16.1002 3.33341 15.4001 3.33341 14V7.16667Z" stroke="#717680" stroke-width="2" stroke-linecap="round" stroke-linejoin="round"/>
</svg>
