<svg width="19" height="20" viewBox="0 0 19 20" fill="none" xmlns="http://www.w3.org/2000/svg">
<path d="M15.5977 19.1582C16.6784 19.1582 17.502 18.8783 18.0684 18.3184C18.6283 17.765 18.9082 16.9544 18.9082 15.8867V4.02148C18.9082 2.95378 18.6283 2.13997 18.0684 1.58008C17.502 1.02018 16.6784 0.740234 15.5977 0.740234H3.80078C2.72005 0.740234 1.89974 1.02018 1.33984 1.58008C0.773438 2.13997 0.490234 2.95378 0.490234 4.02148V15.8867C0.490234 16.9544 0.773438 17.765 1.33984 18.3184C1.89974 18.8783 2.72005 19.1582 3.80078 19.1582H15.5977ZM15.4219 16.9902H3.97656C3.55339 16.9902 3.22786 16.8828 3 16.668C2.77214 16.4466 2.6582 16.1113 2.6582 15.6621V4.25586C2.6582 3.80664 2.77214 3.47135 3 3.25C3.22786 3.02865 3.55339 2.91797 3.97656 2.91797H15.4219C15.8516 2.91797 16.1803 3.02865 16.4082 3.25C16.6296 3.47135 16.7402 3.80664 16.7402 4.25586V15.6621C16.7402 16.1113 16.6296 16.4466 16.4082 16.668C16.1803 16.8828 15.8516 16.9902 15.4219 16.9902ZM6.65234 12.5762C6.91927 12.5762 7.13086 12.4915 7.28711 12.3223C7.44336 12.1465 7.52148 11.9154 7.52148 11.6289V10.1641L7.38477 8.8457L8.63477 10.2227L11.916 13.5039C12.1178 13.7057 12.362 13.8066 12.6484 13.8066C12.9154 13.8066 13.14 13.7188 13.3223 13.543C13.5046 13.3672 13.5957 13.1361 13.5957 12.8496C13.5957 12.5957 13.4948 12.3646 13.293 12.1562L9.99219 8.86523L8.60547 7.60547L9.86523 7.76172H11.418C11.7044 7.76172 11.9355 7.68359 12.1113 7.52734C12.2871 7.37109 12.375 7.15951 12.375 6.89258C12.375 6.62565 12.2904 6.41406 12.1211 6.25781C11.9453 6.10156 11.7109 6.02344 11.418 6.02344H6.89648C6.55794 6.02344 6.29102 6.11458 6.0957 6.29688C5.89388 6.47917 5.79297 6.75586 5.79297 7.12695V11.6191C5.79297 11.9056 5.87109 12.1367 6.02734 12.3125C6.18359 12.4883 6.39193 12.5762 6.65234 12.5762Z" fill="#155EEF"/>
</svg>
