<svg width="13" height="10" viewBox="0 0 13 10" fill="none" xmlns="http://www.w3.org/2000/svg">
    <path fill-rule="evenodd" clip-rule="evenodd" d="M0.191492 0.426595C0.41613 0.164516 0.810693 0.134165 1.07277 0.358804L6.49936 5.01017L11.9259 0.358804C12.188 0.134165 12.5826 0.164516 12.8072 0.426595C13.0319 0.688674 13.0015 1.08324 12.7394 1.30787L6.90611 6.30788C6.67205 6.50849 6.32667 6.50849 6.09262 6.30788L0.259282 1.30787C-0.00279633 1.08324 -0.0331473 0.688674 0.191492 0.426595ZM0.191492 3.75993C0.41613 3.49785 0.810693 3.4675 1.07277 3.69214L6.49936 8.3435L11.9259 3.69214C12.188 3.4675 12.5826 3.49785 12.8072 3.75993C13.0319 4.02201 13.0015 4.41657 12.7394 4.64121L6.90611 9.64121C6.67205 9.84183 6.32667 9.84183 6.09262 9.64121L0.259282 4.64121C-0.00279633 4.41657 -0.0331473 4.02201 0.191492 3.75993Z" fill="#C7C7CC"/>
</svg>
