<svg width="26" height="26" viewBox="0 0 26 26" fill="none" xmlns="http://www.w3.org/2000/svg">
    <path d="M22.7524 12.4583C22.7524 17.544 18.6297 21.6667 13.5441 21.6667C12.3776 21.6667 11.2618 21.4498 10.2347 21.0541C10.0469 20.9817 9.95303 20.9456 9.87836 20.9284C9.80493 20.9114 9.75176 20.9044 9.67646 20.9015C9.59989 20.8985 9.51589 20.9072 9.34789 20.9246L3.80011 21.4981C3.27118 21.5527 3.00672 21.5801 2.85071 21.4849C2.71483 21.402 2.62229 21.2636 2.59765 21.1063C2.56937 20.9258 2.69574 20.6919 2.9485 20.224L4.72046 16.9442C4.86639 16.6741 4.93935 16.5391 4.9724 16.4092C5.00504 16.281 5.01293 16.1885 5.00249 16.0565C4.99192 15.923 4.93331 15.7491 4.81609 15.4013C4.50461 14.4772 4.33578 13.4875 4.33578 12.4583C4.33578 7.37271 8.45849 3.25 13.5441 3.25C18.6297 3.25 22.7524 7.37271 22.7524 12.4583Z" stroke="#004EEB" stroke-width="2.16667" stroke-linecap="round" stroke-linejoin="round"/>
</svg>
