<svg width="32" height="32" viewBox="0 0 32 32" fill="none" xmlns="http://www.w3.org/2000/svg">
    <path fill-rule="evenodd" clip-rule="evenodd" d="M2.6665 28.3333C2.11422 28.3333 1.6665 28.781 1.6665 29.3333C1.6665 29.8856 2.11422 30.3333 2.6665 30.3333H29.3332C29.8855 30.3333 30.3332 29.8856 30.3332 29.3333C30.3332 28.781 29.8855 28.3333 29.3332 28.3333H27.9998H24.6665H22.6665V21.3333C22.6665 18.8192 22.6665 17.5621 21.8855 16.781C21.1044 16 19.8473 16 17.3332 16H14.6665C12.1523 16 10.8953 16 10.1142 16.781C9.33317 17.5621 9.33317 18.8192 9.33317 21.3333V28.3333H7.33317H3.99984H2.6665ZM12.3332 20C12.3332 19.4477 12.7809 19 13.3332 19H18.6665C19.2188 19 19.6665 19.4477 19.6665 20C19.6665 20.5523 19.2188 21 18.6665 21H13.3332C12.7809 21 12.3332 20.5523 12.3332 20ZM12.3332 24C12.3332 23.4477 12.7809 23 13.3332 23H18.6665C19.2188 23 19.6665 23.4477 19.6665 24C19.6665 24.5523 19.2188 25 18.6665 25H13.3332C12.7809 25 12.3332 24.5523 12.3332 24Z" fill="#F2F2F7"/>
    <g opacity="0.5">
        <path d="M10.6667 6C11.9237 6 12.5523 6 12.9428 6.39052C13.3333 6.78105 13.3333 7.40959 13.3333 8.66667L13.3333 11.0566C13.5424 11.1582 13.7242 11.2863 13.8856 11.4477C14.4244 11.9865 14.5915 12.7518 14.6434 14V16C12.1447 16 10.893 16.0024 10.1144 16.781C9.33333 17.5621 9.33333 18.8192 9.33333 21.3333V28.3333H4V16C4 13.4858 4 12.2288 4.78105 11.4477C4.9425 11.2863 5.1243 11.1582 5.33333 11.0566V8.66667C5.33333 7.40959 5.33333 6.78105 5.72386 6.39052C6.11438 6 6.74292 6 8 6H8.33333V4C8.33333 3.44772 8.78105 3 9.33333 3C9.88562 3 10.3333 3.44772 10.3333 4V6H10.6667Z" fill="#F2F2F7"/>
        <path d="M27.5251 6.99568C27.0503 6.31045 26.2133 5.99658 24.5393 5.36885C21.2657 4.14122 19.6288 3.5274 18.4811 4.32279C17.3333 5.11818 17.3333 6.86632 17.3333 10.3626V16C19.8475 16 21.1046 16 21.8856 16.781C22.6667 17.5621 22.6667 18.8192 22.6667 21.3333V28.3333H28V10.3626C28 8.5748 28 7.68091 27.5251 6.99568Z" fill="#F2F2F7"/>
    </g>
</svg>
