<svg width="18" height="18" viewBox="0 0 18 18" fill="none" xmlns="http://www.w3.org/2000/svg">
    <path fill-rule="evenodd" clip-rule="evenodd" d="M4.83268 0.458252C5.17786 0.458252 5.45768 0.738074 5.45768 1.08325V1.71885C6.00937 1.70824 6.61719 1.70825 7.28567 1.70825H10.713C11.3815 1.70825 11.9893 1.70824 12.541 1.71885V1.08325C12.541 0.738074 12.8208 0.458252 13.166 0.458252C13.5112 0.458252 13.791 0.738074 13.791 1.08325V1.77249C14.0076 1.78901 14.2128 1.80977 14.4069 1.83586C15.3839 1.96722 16.1747 2.24399 16.7983 2.86762C17.4219 3.49126 17.6987 4.28205 17.8301 5.25907C17.872 5.57131 17.9002 5.91207 17.9191 6.28331C17.9441 6.3508 17.9577 6.42376 17.9577 6.49992C17.9577 6.55769 17.9498 6.61362 17.9352 6.66672C17.9577 7.33504 17.9577 8.09388 17.9577 8.95291V10.7136C17.9577 12.2451 17.9577 13.4581 17.8301 14.4074C17.6987 15.3845 17.4219 16.1752 16.7983 16.7989C16.1747 17.4225 15.3839 17.6993 14.4069 17.8306C13.4575 17.9583 12.2445 17.9583 10.713 17.9583H7.28567C5.75421 17.9583 4.54118 17.9583 3.59183 17.8306C2.61481 17.6993 1.82402 17.4225 1.20039 16.7989C0.576749 16.1752 0.299985 15.3845 0.168628 14.4074C0.0409922 13.4581 0.0410027 12.2451 0.0410159 10.7136V8.9529C0.0410085 8.09388 0.0410019 7.33504 0.0635231 6.66673C0.0488536 6.61362 0.0410162 6.55769 0.0410162 6.49992C0.0410162 6.42377 0.0546361 6.35079 0.0795729 6.2833C0.0984774 5.91207 0.126649 5.57131 0.168628 5.25907C0.299985 4.28205 0.576749 3.49126 1.20039 2.86762C1.82402 2.24398 2.61481 1.96722 3.59183 1.83586C3.78594 1.80977 3.99106 1.78901 4.20768 1.77249V1.08325C4.20768 0.738074 4.4875 0.458252 4.83268 0.458252ZM1.30192 7.12492C1.29128 7.66886 1.29102 8.28824 1.29102 8.99992V10.6666C1.29102 12.2556 1.29234 13.3845 1.40748 14.2409C1.5202 15.0793 1.73159 15.5623 2.08427 15.915C2.43694 16.2677 2.91998 16.4791 3.75839 16.5918C4.61478 16.7069 5.74367 16.7083 7.33268 16.7083H10.666C12.255 16.7083 13.3839 16.7069 14.2403 16.5918C15.0787 16.4791 15.5618 16.2677 15.9144 15.915C16.2671 15.5623 16.4785 15.0793 16.5912 14.2409C16.7064 13.3845 16.7077 12.2556 16.7077 10.6666V8.99992C16.7077 8.28824 16.7074 7.66886 16.6968 7.12492H1.30192ZM16.6396 5.87492H1.35909C1.37243 5.71709 1.38839 5.56761 1.40748 5.42563C1.5202 4.58722 1.73159 4.10418 2.08427 3.7515C2.43694 3.39883 2.91998 3.18744 3.75839 3.07472C4.61478 2.95958 5.74367 2.95825 7.33268 2.95825H10.666C12.255 2.95825 13.3839 2.95958 14.2403 3.07472C15.0787 3.18744 15.5618 3.39883 15.9144 3.7515C16.2671 4.10418 16.4785 4.58722 16.5912 5.42563C16.6103 5.56761 16.6263 5.71709 16.6396 5.87492ZM12.7493 12.1249C12.4042 12.1249 12.1243 12.4047 12.1243 12.7499C12.1243 13.0951 12.4042 13.3749 12.7493 13.3749C13.0945 13.3749 13.3743 13.0951 13.3743 12.7499C13.3743 12.4047 13.0945 12.1249 12.7493 12.1249ZM10.8743 12.7499C10.8743 11.7144 11.7138 10.8749 12.7493 10.8749C13.7849 10.8749 14.6243 11.7144 14.6243 12.7499C14.6243 13.7855 13.7849 14.6249 12.7493 14.6249C11.7138 14.6249 10.8743 13.7855 10.8743 12.7499Z" fill="#AEAEB2"/>
</svg>
