<svg width="24" height="25" viewBox="0 0 24 25" fill="none" xmlns="http://www.w3.org/2000/svg">
<path d="M2 8.94522C2 8.5949 2 8.41974 2.01462 8.2722C2.1556 6.84926 3.28127 5.72359 4.70421 5.58261C4.85174 5.56799 5.03636 5.56799 5.40558 5.56799C5.54785 5.56799 5.61899 5.56799 5.67939 5.56434C6.45061 5.51763 7.12595 5.03087 7.41415 4.31399C7.43671 4.25785 7.45781 4.19457 7.5 4.06799C7.54219 3.94142 7.56329 3.87814 7.58586 3.82199C7.87405 3.10512 8.54939 2.61836 9.32062 2.57165C9.38101 2.56799 9.44772 2.56799 9.58114 2.56799H14.4189C14.5523 2.56799 14.619 2.56799 14.6794 2.57165C15.4506 2.61836 16.126 3.10512 16.4141 3.82199C16.4367 3.87814 16.4578 3.94142 16.5 4.06799C16.5422 4.19457 16.5633 4.25785 16.5859 4.31399C16.8741 5.03087 17.5494 5.51763 18.3206 5.56434C18.381 5.56799 18.4521 5.56799 18.5944 5.56799C18.9636 5.56799 19.1483 5.56799 19.2958 5.58261C20.7187 5.72359 21.8444 6.84926 21.9854 8.2722C22 8.41974 22 8.5949 22 8.94522V16.768C22 18.4482 22 19.2882 21.673 19.93C21.3854 20.4945 20.9265 20.9534 20.362 21.241C19.7202 21.568 18.8802 21.568 17.2 21.568H6.8C5.11984 21.568 4.27976 21.568 3.63803 21.241C3.07354 20.9534 2.6146 20.4945 2.32698 19.93C2 19.2882 2 18.4482 2 16.768V8.94522Z" stroke="#155EEF" stroke-width="2" stroke-linecap="round" stroke-linejoin="round"/>
<path d="M12 17.068C14.2091 17.068 16 15.2771 16 13.068C16 10.8589 14.2091 9.06799 12 9.06799C9.79086 9.06799 8 10.8589 8 13.068C8 15.2771 9.79086 17.068 12 17.068Z" stroke="#155EEF" stroke-width="2" stroke-linecap="round" stroke-linejoin="round"/>
</svg>
