<svg width="29" height="27" viewBox="0 0 29 27" fill="none" xmlns="http://www.w3.org/2000/svg">
<path fill-rule="evenodd" clip-rule="evenodd" d="M11.4469 0.0170945C11.3092 0.0170608 11.1893 0.0170316 11.075 0.0239576C9.62893 0.111534 8.36266 1.02421 7.8223 2.36835C7.77957 2.47466 7.7417 2.58836 7.69817 2.71905L7.68892 2.74681C7.63093 2.92078 7.61835 2.95676 7.60766 2.98335C7.42754 3.4314 7.00546 3.73562 6.52344 3.76481C6.49518 3.76652 6.45276 3.7671 6.25675 3.7671L6.18693 3.76709C5.79336 3.76701 5.50419 3.76695 5.25679 3.79146C2.88522 4.02643 1.00911 5.90255 0.774136 8.27412C0.74963 8.52145 0.749687 8.79901 0.749764 9.17378L0.749773 19.0687C0.749756 20.0749 0.749743 20.9054 0.805015 21.5819C0.862422 22.2845 0.985627 22.9304 1.29474 23.537C1.77411 24.4779 2.53901 25.2428 3.47982 25.7221C4.08649 26.0312 4.73237 26.1544 5.43499 26.2119C6.11148 26.2671 6.94192 26.2671 7.94812 26.2671H21.0514C22.0576 26.2671 22.8881 26.2671 23.5646 26.2119C24.2672 26.1544 24.9131 26.0312 25.5197 25.7221C26.4605 25.2428 27.2254 24.4779 27.7048 23.537C28.0139 22.9304 28.1371 22.2845 28.1945 21.5819C28.2498 20.9054 28.2498 20.075 28.2498 19.0688L28.2498 9.17378C28.2499 8.79902 28.2499 8.52144 28.2254 8.27412C27.9904 5.90255 26.1143 4.02643 23.7428 3.79146C23.4954 3.76695 23.2062 3.76701 22.8126 3.76709L22.7428 3.7671C22.5468 3.7671 22.5044 3.76652 22.4761 3.76481C21.9941 3.73562 21.572 3.4314 21.3919 2.98335C21.3812 2.95676 21.3686 2.92078 21.3106 2.74681L21.3014 2.71904C21.2579 2.58839 21.22 2.47463 21.1772 2.36835C20.6369 1.02421 19.3706 0.111534 17.9246 0.0239576C17.8102 0.0170316 17.6904 0.0170608 17.5526 0.0170945H11.4469ZM19.4998 14.3921C19.4998 17.1535 17.2612 19.3921 14.4998 19.3921C11.7383 19.3921 9.49976 17.1535 9.49976 14.3921C9.49976 11.6307 11.7383 9.39209 14.4998 9.39209C17.2612 9.39209 19.4998 11.6307 19.4998 14.3921Z" fill="#535862"/>
</svg>
