<svg width="25" height="24" viewBox="0 0 25 24" fill="none" xmlns="http://www.w3.org/2000/svg">
    <path fill-rule="evenodd" clip-rule="evenodd" d="M7.48429 1.25001C7.51404 1.25001 7.54419 1.25002 7.57476 1.25002L7.61175 1.25001C7.96318 1.24999 8.18933 1.24998 8.41042 1.27065C9.3617 1.35961 10.264 1.73337 10.9996 2.34313C11.1706 2.48485 11.3305 2.64477 11.579 2.89329L12.1553 3.46969C13.0011 4.3154 13.3262 4.6311 13.7018 4.84005C13.9198 4.96134 14.151 5.05713 14.391 5.12552C14.8043 5.24333 15.2574 5.25002 16.4534 5.25002L16.878 5.25002C18.151 5.25 19.1771 5.24998 19.989 5.35206C20.8304 5.45784 21.5454 5.68358 22.1327 6.21185C22.2311 6.30032 22.3247 6.39394 22.4132 6.49231C22.9415 7.07965 23.1672 7.79459 23.273 8.63601C23.375 9.4479 23.375 10.4741 23.375 11.747V14.0564C23.375 15.8942 23.375 17.3498 23.2219 18.489C23.0643 19.6615 22.7321 20.6104 21.9838 21.3588C21.2354 22.1071 20.2865 22.4393 19.114 22.5969C17.9748 22.75 16.5192 22.75 14.6814 22.75H10.5686C8.73084 22.75 7.27521 22.75 6.13599 22.5969C4.96357 22.4393 4.01462 22.1071 3.26626 21.3588C2.5179 20.6104 2.18578 19.6615 2.02815 18.489C1.87499 17.3498 1.875 15.8942 1.87502 14.0564L1.87502 6.94976C1.87502 6.91919 1.87501 6.88904 1.87501 6.85929C1.8749 6.06338 1.87482 5.55685 1.95737 5.11935C2.3199 3.19788 3.82288 1.6949 5.74435 1.33237C6.18185 1.24982 6.68838 1.2499 7.48429 1.25001ZM7.57476 2.75002C6.65812 2.75002 6.30373 2.75329 6.02246 2.80636C4.70777 3.05441 3.67941 4.08277 3.43136 5.39746C3.37829 5.67873 3.37502 6.03312 3.37502 6.94976V14C3.37502 15.9068 3.37661 17.2615 3.51478 18.2892C3.65004 19.2953 3.90371 19.8749 4.32692 20.2981C4.75013 20.7213 5.32978 20.975 6.33587 21.1103C7.36353 21.2484 8.7182 21.25 10.625 21.25H14.625C16.5318 21.25 17.8865 21.2484 18.9142 21.1103C19.9203 20.975 20.4999 20.7213 20.9231 20.2981C21.3463 19.8749 21.6 19.2953 21.7353 18.2892C21.8734 17.2615 21.875 15.9068 21.875 14V11.7979C21.875 10.4621 21.8736 9.5305 21.7847 8.82312C21.6981 8.13448 21.5391 7.76356 21.2979 7.49539C21.2448 7.43637 21.1887 7.3802 21.1296 7.32712C20.8615 7.08592 20.4906 6.92692 19.8019 6.84034C19.0945 6.75141 18.163 6.75002 16.8271 6.75002H16.4534C16.4162 6.75002 16.3795 6.75002 16.3432 6.75003C15.2952 6.75025 14.6194 6.75038 13.9798 6.56806C13.6291 6.46811 13.2911 6.32811 12.9725 6.15083C12.3913 5.82747 11.9135 5.3495 11.1726 4.60833C11.147 4.58265 11.121 4.55666 11.0947 4.53035L10.5444 3.98009C10.2612 3.69682 10.1528 3.58951 10.0423 3.49793C9.53903 3.08073 8.92164 2.825 8.27076 2.76413C8.12789 2.75077 7.97538 2.75002 7.57476 2.75002ZM12.875 10C12.875 9.5858 13.2108 9.25002 13.625 9.25002H18.625C19.0392 9.25002 19.375 9.5858 19.375 10C19.375 10.4142 19.0392 10.75 18.625 10.75H13.625C13.2108 10.75 12.875 10.4142 12.875 10Z" fill="#3C3C43" fill-opacity="0.6"/>
</svg>
