<svg width="25" height="24" viewBox="0 0 25 24" fill="none" xmlns="http://www.w3.org/2000/svg">
<path d="M13.5999 7L12.4843 4.76892C12.1633 4.1268 12.0027 3.80573 11.7632 3.57116C11.5514 3.36373 11.2962 3.20597 11.0159 3.10931C10.699 3 10.3401 3 9.62214 3H5.79985C4.67975 3 4.1197 3 3.69187 3.21799C3.31555 3.40973 3.00959 3.71569 2.81784 4.09202C2.59985 4.51984 2.59985 5.0799 2.59985 6.2V7M2.59985 7H17.7999C19.48 7 20.3201 7 20.9618 7.32698C21.5263 7.6146 21.9853 8.07354 22.2729 8.63803C22.5999 9.27976 22.5999 10.1198 22.5999 11.8V16.2C22.5999 17.8802 22.5999 18.7202 22.2729 19.362C21.9853 19.9265 21.5263 20.3854 20.9618 20.673C20.3201 21 19.48 21 17.7999 21H7.39985C5.7197 21 4.87962 21 4.23788 20.673C3.6734 20.3854 3.21445 19.9265 2.92683 19.362C2.59985 18.7202 2.59985 17.8802 2.59985 16.2V7Z" stroke="#717680" stroke-width="2" stroke-linecap="round" stroke-linejoin="round"/>
</svg>
