<svg width="25" height="24" viewBox="0 0 25 24" fill="none" xmlns="http://www.w3.org/2000/svg">
<path fill-rule="evenodd" clip-rule="evenodd" d="M1.69995 6.16167C1.69993 5.63454 1.69992 5.17975 1.73052 4.80519C1.76282 4.40984 1.83414 4.01662 2.02693 3.63824C2.31455 3.07376 2.7735 2.61482 3.33798 2.3272C3.71636 2.1344 4.10958 2.06309 4.50493 2.03078C4.8795 2.00018 5.33426 2.0002 5.86141 2.00021L9.84661 2.00011C10.4402 1.99932 10.9621 1.99863 11.4421 2.16418C11.8625 2.30918 12.2454 2.54581 12.563 2.85696C12.9258 3.21221 13.1586 3.67939 13.4233 4.21064L14.3179 6H17.9412C18.7462 5.99999 19.4106 5.99998 19.9518 6.04419C20.5139 6.09012 21.0306 6.18868 21.5159 6.43598C22.2686 6.81947 22.8805 7.43139 23.264 8.18404C23.5113 8.66937 23.6098 9.18608 23.6558 9.74817C23.7 10.2894 23.7 10.9537 23.7 11.7587V16.2413C23.7 17.0463 23.7 17.7106 23.6558 18.2518C23.6098 18.8139 23.5113 19.3306 23.264 19.816C22.8805 20.5686 22.2686 21.1805 21.5159 21.564C21.0306 21.8113 20.5139 21.9099 19.9518 21.9558C19.4106 22 18.7462 22 17.9412 22H7.45868C6.65371 22 5.98932 22 5.44813 21.9558C4.88603 21.9099 4.36933 21.8113 3.88399 21.564C3.13134 21.1805 2.51942 20.5686 2.13593 19.816C1.88864 19.3306 1.79007 18.8139 1.74415 18.2518C1.69993 17.7106 1.69994 17.0463 1.69995 16.2413V6.16167ZM9.72225 4.00022C10.5127 4.00022 10.6693 4.01326 10.79 4.05487C10.9301 4.1032 11.0577 4.18208 11.1636 4.2858C11.2548 4.37508 11.3365 4.50938 11.69 5.21635L12.0818 6L3.70003 6C3.70047 5.53501 3.70353 5.21716 3.72388 4.96805C3.74608 4.69639 3.78375 4.59567 3.80895 4.54622C3.90482 4.35806 4.0578 4.20508 4.24596 4.10921C4.29541 4.08402 4.39613 4.04634 4.66779 4.02414C4.95113 4.00099 5.3234 4.00022 5.89995 4.00022H9.72225Z" fill="#155EEF"/>
</svg>
