<svg width="32" height="33" viewBox="0 0 32 33" fill="none" xmlns="http://www.w3.org/2000/svg">
<path d="M9.33333 16.5C9.33333 17.9728 8.13943 19.1667 6.66667 19.1667C5.19391 19.1667 4 17.9728 4 16.5C4 15.0273 5.19391 13.8334 6.66667 13.8334C8.13943 13.8334 9.33333 15.0273 9.33333 16.5Z" fill="white"/>
<path d="M18.6667 16.5C18.6667 17.9728 17.4728 19.1667 16 19.1667C14.5272 19.1667 13.3333 17.9728 13.3333 16.5C13.3333 15.0273 14.5272 13.8334 16 13.8334C17.4728 13.8334 18.6667 15.0273 18.6667 16.5Z" fill="white"/>
<path d="M28 16.5C28 17.9728 26.8061 19.1667 25.3333 19.1667C23.8606 19.1667 22.6667 17.9728 22.6667 16.5C22.6667 15.0273 23.8606 13.8334 25.3333 13.8334C26.8061 13.8334 28 15.0273 28 16.5Z" fill="white"/>
</svg>
