<svg width="25" height="24" viewBox="0 0 25 24" fill="none" xmlns="http://www.w3.org/2000/svg">
<path d="M6.69422 11.2288C6.63206 10.8282 6.59982 10.4179 6.59982 10C6.59982 5.58172 10.2051 2 14.6524 2C19.0998 2 22.7051 5.58172 22.7051 10C22.7051 10.9981 22.5211 11.9535 22.185 12.8345C22.1152 13.0175 22.0803 13.109 22.0645 13.1804C22.0487 13.2512 22.0427 13.301 22.041 13.3735C22.0393 13.4466 22.0492 13.5272 22.069 13.6883L22.4716 16.9585C22.5152 17.3125 22.537 17.4895 22.4781 17.6182C22.4265 17.731 22.3349 17.8205 22.2209 17.8695C22.0909 17.9254 21.9145 17.8995 21.5616 17.8478L18.3763 17.3809C18.21 17.3565 18.1268 17.3443 18.0511 17.3448C17.9762 17.3452 17.9243 17.3507 17.851 17.3661C17.7769 17.3817 17.6822 17.4172 17.4928 17.4881C16.6095 17.819 15.6523 18 14.6524 18C14.2343 18 13.8235 17.9683 13.4225 17.9073M8.23143 22C11.1963 22 13.5999 19.5376 13.5999 16.5C13.5999 13.4624 11.1963 11 8.23143 11C5.26654 11 2.86301 13.4624 2.86301 16.5C2.86301 17.1106 2.96013 17.6979 3.1394 18.2467C3.21518 18.4787 3.25307 18.5947 3.26551 18.6739C3.27849 18.7567 3.28077 18.8031 3.27593 18.8867C3.2713 18.9668 3.25127 19.0573 3.2112 19.2383L2.59985 22L5.59466 21.591C5.75812 21.5687 5.83985 21.5575 5.91122 21.558C5.98637 21.5585 6.02626 21.5626 6.09996 21.5773C6.16996 21.5912 6.27401 21.6279 6.48212 21.7014C7.03045 21.8949 7.61896 22 8.23143 22Z" stroke="#717680" stroke-width="2" stroke-linecap="round" stroke-linejoin="round"/>
</svg>
