<svg width="25" height="24" viewBox="0 0 25 24" fill="none" xmlns="http://www.w3.org/2000/svg">
<path fill-rule="evenodd" clip-rule="evenodd" d="M1.96312 16.5C1.96312 12.9331 4.79167 10 8.33154 10C11.8714 10 14.7 12.9331 14.7 16.5C14.7 20.0669 11.8714 23 8.33154 23C7.60389 23 6.90293 22.875 6.24942 22.6444C6.14141 22.6063 6.07441 22.5827 6.02528 22.5664C6.01636 22.5635 6.00906 22.5611 6.00322 22.5593L5.99779 22.5599C5.96349 22.5637 5.91674 22.57 5.83008 22.5818L2.83528 22.9908C2.51123 23.0351 2.18601 22.9181 1.96443 22.6775C1.74285 22.4369 1.65291 22.1032 1.7236 21.7839L2.33495 19.0222C2.35619 18.9262 2.36756 18.8744 2.37486 18.8363C2.37527 18.8342 2.376 18.8303 2.376 18.8303C2.37418 18.824 2.37188 18.8162 2.369 18.8066C2.35254 18.7521 2.32832 18.6778 2.28895 18.5573C2.07726 17.9093 1.96312 17.2171 1.96312 16.5Z" fill="#155EEF"/>
<path d="M5.84749 8.3726C6.62507 8.13071 7.4539 8 8.31783 8C13.0313 8 16.7001 11.8907 16.7001 16.5C16.7001 17.3136 16.5858 18.1049 16.3715 18.8563C16.9136 18.759 17.4392 18.6136 17.9438 18.4246C18.0149 18.3979 18.0859 18.3707 18.1578 18.3461C18.2158 18.3528 18.2736 18.3619 18.3314 18.3703L21.5444 18.8413C21.696 18.8636 21.8681 18.8889 22.0182 18.8974C22.1843 18.9069 22.4425 18.9058 22.7161 18.7882C23.0578 18.6412 23.3328 18.3726 23.4876 18.0343C23.6115 17.7635 23.6185 17.5054 23.6129 17.3391C23.6078 17.1888 23.5865 17.0162 23.5677 16.864L23.1617 13.5661C23.1511 13.4804 23.1457 13.4354 23.1425 13.4024C23.16 13.3301 23.1931 13.2602 23.2195 13.1909C23.5983 12.1979 23.8052 11.1219 23.8052 10C23.8052 5.02326 19.746 1 14.7526 1C10.3168 1 6.61825 4.17483 5.84749 8.3726Z" fill="#155EEF"/>
</svg>
