<svg width="24" height="24" viewBox="0 0 24 24" fill="none" xmlns="http://www.w3.org/2000/svg">
<path d="M16.3261 7.31069C16.5374 7.10953 16.8186 6.99831 17.1103 7.00052C17.4021 7.00273 17.6815 7.11818 17.8898 7.32252C18.098 7.52687 18.2187 7.80411 18.2264 8.09575C18.2341 8.3874 18.1282 8.67063 17.9311 8.88569L11.9461 16.3707C11.8432 16.4815 11.719 16.5705 11.5809 16.6322C11.4428 16.694 11.2937 16.7273 11.1425 16.7301C10.9912 16.7329 10.841 16.7051 10.7007 16.6485C10.5605 16.592 10.433 16.5077 10.3261 16.4007L6.35709 12.4317C6.24656 12.3287 6.1579 12.2045 6.09641 12.0665C6.03493 11.9285 6.00186 11.7795 5.9992 11.6285C5.99653 11.4774 6.02432 11.3274 6.0809 11.1873C6.13748 11.0472 6.2217 10.92 6.32853 10.8131C6.43536 10.7063 6.56261 10.6221 6.70269 10.5655C6.84277 10.5089 6.99282 10.4811 7.14387 10.4838C7.29492 10.4865 7.44389 10.5195 7.58189 10.581C7.71989 10.6425 7.84409 10.7312 7.94709 10.8417L11.0881 13.9812L16.2976 7.34369C16.307 7.33214 16.317 7.32113 16.3276 7.31069H16.3261Z" fill="#1479FF"/>
</svg>
