<svg width="227" height="200" viewBox="0 0 227 200" fill="none" xmlns="http://www.w3.org/2000/svg">
<rect x="180.643" y="38.5713" width="12.8571" height="12.8571" rx="6.42857" fill="#1A62F5" fill-opacity="0.8"/>
<rect x="52.0703" y="184.286" width="12.8571" height="12.8571" rx="6.42857" fill="#1A62F5" fill-opacity="0.8"/>
<rect x="204.928" y="100" width="7.14286" height="7.14286" rx="3.57143" fill="#1A62F5" fill-opacity="0.8"/>
<rect x="197.785" y="161.428" width="17.1429" height="17.1429" rx="8.57143" fill="#1A62F5" fill-opacity="0.8"/>
<rect x="27.7852" y="152.857" width="8.57143" height="8.57143" rx="4.28571" fill="#1A62F5" fill-opacity="0.8"/>
<rect x="147.785" width="8.57143" height="8.57143" rx="4.28571" fill="#1A62F5" fill-opacity="0.8"/>
<rect x="42.7852" y="40" width="142.857" height="142.857" rx="71.4286" fill="url(#paint0_linear_7190_10998)"/>
<path d="M142.783 94.2858C142.783 99.0197 138.946 102.857 134.212 102.857C129.478 102.857 125.641 99.0197 125.641 94.2858C125.641 89.5519 129.478 85.7144 134.212 85.7144C138.946 85.7144 142.783 89.5519 142.783 94.2858Z" fill="#F2F2F7"/>
<path fill-rule="evenodd" clip-rule="evenodd" d="M119.926 91.4286H108.498C97.7228 91.4286 92.3353 91.4286 88.988 94.776C85.6406 98.1233 85.6406 103.511 85.6406 114.286C85.6406 125.061 85.6406 130.448 88.988 133.796C92.3353 137.143 97.7228 137.143 108.498 137.143H119.926C130.701 137.143 136.089 137.143 139.436 133.796C142.783 130.448 142.783 125.061 142.783 114.286C142.783 110.133 142.783 106.781 142.592 104.037C140.341 105.973 137.413 107.143 134.212 107.143C132.844 107.143 131.527 106.929 130.29 106.534L126.451 109.733C123.919 111.844 121.866 113.554 120.054 114.719C118.167 115.933 116.329 116.7 114.212 116.7C112.095 116.7 110.257 115.933 108.37 114.719C106.558 113.554 104.506 111.844 101.973 109.733L95.6974 104.503C94.7882 103.746 94.6654 102.395 95.423 101.485C96.1806 100.576 97.5319 100.453 98.441 101.211L104.609 106.351C107.275 108.573 109.126 110.11 110.688 111.115C112.2 112.087 113.226 112.414 114.212 112.414C115.198 112.414 116.224 112.087 117.736 111.115C119.299 110.11 121.149 108.573 123.815 106.351L126.213 104.353C123.253 101.997 121.355 98.363 121.355 94.2858C121.355 93.304 121.465 92.3479 121.673 91.4292C121.107 91.4286 120.525 91.4286 119.926 91.4286Z" fill="#F2F2F7"/>
<rect x="17.7852" y="52.8572" width="17.1429" height="17.1429" rx="8.57143" fill="#1A62F5" fill-opacity="0.8"/>
<rect x="90.6426" y="8.57129" width="17.1429" height="17.1429" rx="8.57143" fill="#1A62F5" fill-opacity="0.8"/>
<rect x="0.642578" y="105.714" width="20" height="20" rx="10" fill="#1A62F5" fill-opacity="0.8"/>
<rect x="34.9277" y="100" width="2.85714" height="2.85714" rx="1.42857" fill="#1A62F5" fill-opacity="0.8"/>
<rect x="223.5" y="132.857" width="2.85714" height="2.85714" rx="1.42857" fill="#1A62F5" fill-opacity="0.8"/>
<rect x="140.643" y="25.7144" width="2.85714" height="2.85714" rx="1.42857" fill="#1A62F5" fill-opacity="0.8"/>
<rect x="150.643" y="197.143" width="2.85714" height="2.85714" rx="1.42857" fill="#1A62F5" fill-opacity="0.8"/>
<defs>
<linearGradient id="paint0_linear_7190_10998" x1="42.7852" y1="40" x2="185.771" y2="182.986" gradientUnits="userSpaceOnUse">
<stop stop-color="#1E4AF3"/>
<stop offset="0.5" stop-color="#5E28E6"/>
<stop offset="1" stop-color="#AE00D8"/>
</linearGradient>
</defs>
</svg>
