<svg width="20" height="20" viewBox="0 0 20 20" fill="none" xmlns="http://www.w3.org/2000/svg">
<path fill-rule="evenodd" clip-rule="evenodd" d="M10.0002 0.833008C4.93755 0.833008 0.833496 4.93706 0.833496 9.99967C0.833496 15.0623 4.93755 19.1663 10.0002 19.1663C15.0628 19.1663 19.1668 15.0623 19.1668 9.99967C19.1668 4.93706 15.0628 0.833008 10.0002 0.833008ZM13.0894 6.91042C13.4149 7.23586 13.4149 7.76349 13.0894 8.08893L11.1787 9.99967L13.0894 11.9104C13.4149 12.2359 13.4149 12.7635 13.0894 13.0889C12.764 13.4144 12.2363 13.4144 11.9109 13.0889L10.0002 11.1782L8.08942 13.0889C7.76398 13.4144 7.23634 13.4144 6.91091 13.0889C6.58547 12.7635 6.58547 12.2359 6.91091 11.9104L8.82165 9.99967L6.91091 8.08893C6.58547 7.76349 6.58547 7.23586 6.91091 6.91042C7.23634 6.58498 7.76398 6.58498 8.08942 6.91042L10.0002 8.82116L11.9109 6.91042C12.2363 6.58498 12.764 6.58498 13.0894 6.91042Z" fill="#A4A7AE"/>
</svg>
