<svg width="32" height="32" viewBox="0 0 32 32" fill="none" xmlns="http://www.w3.org/2000/svg">
    <path opacity="0.5" d="M2.6665 16C2.6665 9.71461 2.6665 6.57191 4.61913 4.61929C6.57175 2.66667 9.71444 2.66667 15.9998 2.66667C22.2852 2.66667 25.4279 2.66667 27.3806 4.61929C29.3332 6.57191 29.3332 9.71461 29.3332 16C29.3332 22.2854 29.3332 25.4281 27.3806 27.3807C25.4279 29.3333 22.2852 29.3333 15.9998 29.3333C9.71444 29.3333 6.57175 29.3333 4.61913 27.3807C2.6665 25.4281 2.6665 22.2854 2.6665 16Z" fill="#1A62F5"/>
    <path d="M29.3335 6.66667C29.3335 8.87581 27.5426 10.6667 25.3335 10.6667C23.1244 10.6667 21.3335 8.87581 21.3335 6.66667C21.3335 4.45753 23.1244 2.66667 25.3335 2.66667C27.5426 2.66667 29.3335 4.45753 29.3335 6.66667Z" fill="#1A62F5"/>
    <path d="M19.3335 14.3333C18.7812 14.3333 18.3335 13.8856 18.3335 13.3333C18.3335 12.781 18.7812 12.3333 19.3335 12.3333H22.6668C23.2191 12.3333 23.6668 12.781 23.6668 13.3333V16.6667C23.6668 17.2189 23.2191 17.6667 22.6668 17.6667C22.1145 17.6667 21.6668 17.2189 21.6668 16.6667V15.7475L18.9834 18.431C18.0722 19.3422 16.5948 19.3422 15.6836 18.431L13.5692 16.3166C13.439 16.1864 13.228 16.1864 13.0978 16.3166L10.0406 19.3738C9.65008 19.7643 9.01691 19.7643 8.62639 19.3738C8.23587 18.9832 8.23587 18.3501 8.62639 17.9596L11.6836 14.9024C12.5948 13.9911 14.0722 13.9911 14.9834 14.9024L17.0978 17.0167C17.228 17.1469 17.439 17.1469 17.5692 17.0167L20.2526 14.3333H19.3335Z" fill="#1A62F5"/>
</svg>
