<svg width="22" height="12" viewBox="0 0 22 12" fill="none" xmlns="http://www.w3.org/2000/svg">
    <path fill-rule="evenodd" clip-rule="evenodd" d="M21.2954 0.310589C21.6761 0.473756 21.8524 0.914665 21.6893 1.29539L20.9999 0.999948C21.6893 1.29539 21.6894 1.29521 21.6893 1.29539L21.6886 1.29707L21.6875 1.29955L21.6843 1.30691L21.6736 1.33099C21.6646 1.35112 21.6518 1.37934 21.6352 1.41502C21.6019 1.48637 21.5533 1.58769 21.4888 1.7141C21.3599 1.96675 21.1675 2.32063 20.9084 2.73641C20.4828 3.41945 19.8724 4.2776 19.0619 5.13013L20.0303 6.09846C20.3231 6.39135 20.3231 6.86622 20.0303 7.15912C19.7374 7.45201 19.2625 7.45201 18.9696 7.15912L17.969 6.15854C17.3093 6.71123 16.5528 7.22998 15.695 7.65618L16.6286 9.09091C16.8545 9.4381 16.7562 9.90268 16.409 10.1286C16.0618 10.3545 15.5972 10.2562 15.3713 9.90899L14.2821 8.2351C13.5028 8.4896 12.659 8.66256 11.7499 8.72457V10.4999C11.7499 10.9142 11.4141 11.2499 10.9999 11.2499C10.5857 11.2499 10.2499 10.9142 10.2499 10.4999V8.72457C9.36889 8.66447 8.54909 8.50016 7.78982 8.25835L6.71575 9.90906C6.48984 10.2562 6.02526 10.3546 5.67807 10.1287C5.33089 9.90275 5.23257 9.43816 5.45847 9.09098L6.37089 7.68872C5.5065 7.2666 4.74381 6.75012 4.07842 6.19821L3.11744 7.15918C2.82455 7.45208 2.34968 7.45208 2.05678 7.15918C1.76389 6.86629 1.76389 6.39142 2.05678 6.09852L2.98055 5.17476C2.15599 4.31507 1.53525 3.4465 1.10277 2.75462C0.839844 2.33398 0.644595 1.97559 0.513882 1.71964C0.448481 1.59157 0.399104 1.48889 0.36537 1.41658C0.3485 1.38042 0.33553 1.35183 0.326415 1.33143L0.315621 1.30704L0.312378 1.29959L0.311293 1.29708L0.310885 1.29613C0.310808 1.29595 0.310565 1.29539 0.999924 0.999948L0.310885 1.29613C0.147718 0.91541 0.323762 0.473756 0.704484 0.310589C1.08489 0.147557 1.52539 0.323496 1.68888 0.703569C1.68882 0.703438 1.68894 0.7037 1.68888 0.703569L1.68983 0.70576L1.69591 0.719474C1.7018 0.732669 1.7114 0.753856 1.72472 0.782427C1.75139 0.839587 1.79296 0.926198 1.84976 1.03742C1.96345 1.26004 2.13762 1.58022 2.37472 1.95955C2.85033 2.72042 3.57157 3.70704 4.55561 4.62154C5.42151 5.42626 6.48259 6.16751 7.75165 6.65576C8.70614 7.02298 9.78537 7.24995 10.9999 7.24995C12.2416 7.24995 13.342 7.01271 14.3124 6.63076C15.5738 6.13427 16.6277 5.3882 17.4866 4.58194C18.4562 3.67191 19.1668 2.69511 19.6354 1.94315C19.869 1.56825 20.0405 1.25221 20.1525 1.03262C20.2085 0.922902 20.2494 0.837517 20.2757 0.781194C20.2888 0.75304 20.2983 0.732174 20.3041 0.719189L20.31 0.705706L20.3106 0.704509C20.3105 0.704607 20.3106 0.704411 20.3106 0.704509M21.2954 0.310589C20.9147 0.147465 20.4738 0.323989 20.3106 0.704509L21.2954 0.310589ZM1.68888 0.703569C1.68882 0.703438 1.68894 0.7037 1.68888 0.703569V0.703569Z" fill="#AEAEB2"/>
</svg>
