<svg width="10" height="10" viewBox="0 0 10 10" fill="none" xmlns="http://www.w3.org/2000/svg">
    <path d="M0.958909 0.959641C1.34943 0.569117 1.9826 0.569117 2.37312 0.959641L4.99936 3.58588L7.62557 0.959669C8.0161 0.569144 8.64926 0.569144 9.03979 0.959669C9.43031 1.35019 9.43031 1.98336 9.03979 2.37388L6.41358 5.0001L9.03976 7.62628C9.43029 8.01681 9.43029 8.64997 9.03976 9.0405C8.64924 9.43102 8.01607 9.43102 7.62555 9.0405L4.99936 6.41431L2.37315 9.04052C1.98263 9.43105 1.34946 9.43105 0.958937 9.04052C0.568413 8.65 0.568413 8.01683 0.958937 7.62631L3.58515 5.0001L0.958909 2.37385C0.568385 1.98333 0.568385 1.35017 0.958909 0.959641Z" fill="#3C3C43" fill-opacity="0.3"/>
</svg>
