<?xml version="1.0" encoding="UTF-8"?>
<svg version="1.1" viewBox="0 0 2048 1936" width="147" height="139" xmlns="http://www.w3.org/2000/svg">
<path transform="translate(0)" d="m0 0h2048v1936h-2048z" fill="#EEEEEF"/>
<path transform="translate(926,305)" d="m0 0h44l35 3 28 5 25 6 24 7 23 8 26 11 19 9 22 12 25 16 18 13 10 8 13 11 12 11 18 18 7 8 14 17 13 18 12 18 11 18 12 22 14 29 11 29 7 24 8 37 3 17 4 6 31 15 23 11 22 12 22 14 16 11 16 12 14 12 12 11 20 20 7 8 14 17 14 20 12 18 12 21 14 27 9 21 7 20 9 30 8 38 4 27 2 23v42l-5 37-8 39-7 26-10 29-13 31-13 25-15 24-13 18-13 16-12 14-9 10-20 20-11 9-14 12-18 13-17 11-20 12-22 12-25 12-25 10-21 7-28 7h-5l-1-103-2-39-4-39-6-31-8-27-8-21-10-20-12-19-13-17-9-10-5-6-11-9-14-11-17-11-24-13-28-11-25-7-25-5-34-4-30-2h-250l-35 2-35 4-27 5-25 7-19 7-25 12-16 10-14 10-14 12-18 18-11 14-11 16-9 15-10 21-11 33-6 26-5 35-2 21-1 20-1 84-1 26-2 16-2 1-9 1h-25l-33-4-25-6-20-6-28-11-16-8-23-12-17-11-17-12-13-10-12-11-8-7-9-9-9-11-10-12-14-21-14-24-10-21-9-25-6-20-6-26-5-31-1-10v-23l3-29 5-29 7-27 8-23 11-24 12-23 8-12 13-19 13-16 2-3h2l2-4 15-15 11-9 8-7 19-14 20-13 24-13 20-9 28-10 28-7 32-5 24-2h31l18 2 22 4-6-25-9-38-6-36-3-29v-46l3-28 6-35 7-28 11-33 10-23 12-25 12-22 15-24 11-15 12-15 7-8 11-13 20-20 8-7 16-13 19-14 24-16 15-9 27-14 20-9 24-9 29-9 39-9 26-4z" fill="#909094"/>
<path transform="translate(825,1217)" d="m0 0h176l29 1 37 3 26 4 19 4 21 7 16 8 12 7 14 12 11 14 8 13 7 15 5 17 5 26 3 26 3 42v207l-3 39-5 38-5 22-9 27-10 16-12 13-9 8-15 10-15 8-27 9-25 5-32 4-28 2-43 1-139 1-45-1-40-4-30-5-24-7-20-9-16-10-11-9-11-12-9-14-6-12-8-24-4-20-4-31-3-46-1-33v-155l2-41 4-40 4-23 6-21 8-18 10-16 11-12 7-7 13-9 18-10 21-8 22-5 31-4 28-2z" fill="#909094"/>
<path transform="translate(903,1333)" d="m0 0h7l11 3 12 6 13 10 15 13 15 14 55 55 7 8 11 11 10 13 6 11 1 10-4 15-6 11-9 11-10 8-10 4-5 1h-13l-12-4-14-8-13-10-4-3h-2v125l-2 23-3 13-8 14-9 10-10 7-10 4h-13l-12-3-10-5-10-9-7-9-6-12-2-11-1-13v-135l-9 7-10 9-14 8-6 2h-16l-13-4-11-7-9-9-7-10-5-12-1-5v-8l5-12 6-9 9-11 9-9 7-8 36-36 7-8 7-7 8-7 14-14 8-7 10-9z" fill="#EEEEEF"/>
<path transform="translate(2035,1921)" d="m0 0h13v15h-127v-2l29-5 35-4 35-3z" fill="#909094"/>
</svg>
