<?xml version="1.0" encoding="UTF-8"?>
<svg version="1.1" viewBox="0 0 2048 1936" width="147" height="139" xmlns="http://www.w3.org/2000/svg">
<path transform="translate(929,307)" d="m0 0h41l32 2 30 4 30 7 27 8 29 11 20 9 16 8 15 8 21 13 18 13 17 13 10 9 11 9 16 16 9 11 12 13 9 12 13 18 10 16 9 15 12 22 14 32 12 35 15 60 4 15 3 3 8 4 17 6 21 9 23 12 18 11 17 11 14 10 16 13 11 10 8 7 13 12 11 12 9 11 9 10 8 11 11 16 12 19 13 24 10 21 11 28 10 32 10 45 3 21 2 26 1 31-2 36-2 17-6 31-8 30-10 29-11 26-13 26-13 22-14 21-9 12-14 17-11 13-10 11-8 7-13 12-14 11-13 10-19 13-17 11-21 12-27 13-26 10-33 11-21 5h-5l-1-1-2-120-3-40-5-33-6-26-9-27-10-22-12-21-10-15-8-10-9-10-15-15-17-13-21-13-23-11-24-9-27-7-24-4-25-3-40-3-72-1h-162l-30 1-33 3-34 5-23 5-20 6-21 8-23 12-15 10-17 13-15 14-12 12-12 16-9 14-10 18-9 19-7 20-7 26-6 28-3 25-1 13-1 31-1 98-1 15-2 2-4 1h-45l-24-3-30-7-24-8-24-10-24-12-21-13-26-20-12-11-8-7-14-14-9-11-10-12-12-17-9-15-12-22-8-20-12-36-6-28-4-27-1-16v-25l3-29 4-22 9-33 8-22 13-27 11-19 12-18 10-14 9-11 9-10 21-21 10-8 18-13 18-12 15-9 17-9 21-9 27-9 23-5 35-5 10-1h39l38 4 6 2-5-16-7-29-7-39-4-31-1-14v-49l4-36 5-26 7-28 7-21 8-21 8-18 11-23 14-24 14-21 9-12 13-17 13-15 7-8 19-19 11-9 12-10 16-12 21-14 18-11 23-12 16-8 28-11 29-9 40-9 24-3z" fill="#8E8E90"/>
<path transform="translate(839,1217)" d="m0 0h141l39 1 45 3 21 3 27 6 17 5 17 8 17 11 10 9 11 14 8 14 7 16 6 18 4 23 4 39 3 36 1 46v136l-2 31-2 15-5 51-5 22-10 25-9 15-11 14-10 9-10 7-16 9-18 6-26 6-17 3-18 2-36 2h-229l-36-2-25-3-25-6-22-8-16-9-14-12-10-11-12-19-8-17-6-19-4-23-5-48-3-23v-88l1-74 1-40 6-68 5-30 8-22 10-19 11-14 10-10 12-9 23-12 18-6 28-7 23-3 36-2zm66 116-14 7-14 11-82 82-8 7-13 13-11 16-4 15 1 11 5 15 7 11 8 8 11 5 12 3 7 1h13l8-2 10-6 7-7 7-9 4-2 1 142 2 13 3 10 6 10 11 12 10 6 8 3 15 2 11-2 10-5 10-8 8-9 5-9 3-12 1-11 1-44 1-91 1-4 5 2 7 8 14 9 8 3 4 1h16l9-2 14-7 9-8 7-10 5-13 2-10-1-10-4-10-9-13-6-7-8-7-87-87-14-11-12-7-11-3z" fill="#8E8E90"/>
</svg>
