<svg width="29" height="28" viewBox="0 0 29 28" fill="none" xmlns="http://www.w3.org/2000/svg">
<path fill-rule="evenodd" clip-rule="evenodd" d="M8.24976 10.6421C8.24976 7.19031 11.048 4.39209 14.4998 4.39209C17.9515 4.39209 20.7498 7.19031 20.7498 10.6421C20.7498 14.0939 17.9515 16.8921 14.4998 16.8921C11.048 16.8921 8.24976 14.0939 8.24976 10.6421Z" fill="#717680"/>
<path fill-rule="evenodd" clip-rule="evenodd" d="M14.4998 0.0170898C6.90584 0.0170898 0.749756 6.17317 0.749756 13.7671C0.749756 21.361 6.90584 27.5171 14.4998 27.5171C22.0937 27.5171 28.2498 21.361 28.2498 13.7671C28.2498 6.17317 22.0937 0.0170898 14.4998 0.0170898ZM3.24976 13.7671C3.24976 7.55389 8.28655 2.51709 14.4998 2.51709C20.713 2.51709 25.7498 7.55389 25.7498 13.7671C25.7498 16.5435 24.744 19.085 23.077 21.0471C21.9318 19.6563 20.1952 18.7671 18.2498 18.7671H10.7498C8.80435 18.7671 7.06775 19.6563 5.92256 21.0472C4.25551 19.085 3.24976 16.5435 3.24976 13.7671Z" fill="#717680"/>
</svg>
