<svg width="20" height="14" viewBox="0 0 20 14" fill="none" xmlns="http://www.w3.org/2000/svg">
<path d="M18.3346 5.33329H1.66797M9.16797 8.66663H5.0013M1.66797 3.83329L1.66797 10.1666C1.66797 11.1 1.66797 11.5668 1.84962 11.9233C2.00941 12.2369 2.26438 12.4918 2.57798 12.6516C2.9345 12.8333 3.40121 12.8333 4.33463 12.8333L15.668 12.8333C16.6014 12.8333 17.0681 12.8333 17.4246 12.6516C17.7382 12.4918 17.9932 12.2369 18.153 11.9233C18.3346 11.5668 18.3346 11.1 18.3346 10.1666V3.83329C18.3346 2.89987 18.3346 2.43316 18.153 2.07664C17.9932 1.76304 17.7382 1.50807 17.4246 1.34828C17.0681 1.16663 16.6014 1.16663 15.668 1.16663L4.33464 1.16663C3.40122 1.16663 2.9345 1.16663 2.57798 1.34828C2.26438 1.50807 2.00941 1.76304 1.84962 2.07664C1.66797 2.43316 1.66797 2.89987 1.66797 3.83329Z" stroke="#717680" stroke-width="1.66667" stroke-linecap="round" stroke-linejoin="round"/>
</svg>
