<svg width="16" height="16" viewBox="0 0 16 16" fill="none" xmlns="http://www.w3.org/2000/svg">
    <g clip-path="url(#clip0_7190_9490)">
        <path d="M14.6671 8.00016C14.6671 11.1429 14.6671 12.7142 13.6908 13.6905C12.7145 14.6668 11.1432 14.6668 8.00052 14.6668C4.85785 14.6668 3.28652 14.6668 2.31022 13.6905C1.33392 12.7142 1.33392 11.1429 1.33392 8.00016C1.33392 4.85747 1.33392 3.28612 2.31022 2.30981C3.28652 1.3335 4.85785 1.3335 8.00052 1.3335" stroke="#020814" stroke-width="0.999994" stroke-linecap="round"/>
        <path d="M1.33392 8.33326L2.50163 7.31151C3.10914 6.77994 4.02474 6.81043 4.59554 7.38124L7.45533 10.2411C7.91348 10.6992 8.63467 10.7617 9.16477 10.3891L9.36357 10.2494C10.1264 9.71331 11.1584 9.77542 11.8515 10.3991L14.0004 12.3333" stroke="#020814" stroke-width="0.999994" stroke-linecap="round"/>
        <path d="M14.6672 1.33351L10.6673 5.3335M10.6673 1.3335L14.6672 5.33348" stroke="#020814" stroke-width="0.999994" stroke-linecap="round"/>
    </g>
    <defs>
        <clipPath id="clip0_7190_9490">
            <rect width="15.9998" height="16" fill="white"/>
        </clipPath>
    </defs>
</svg>
