<svg width="32" height="32" viewBox="0 0 32 32" fill="none" xmlns="http://www.w3.org/2000/svg">
<path fill-rule="evenodd" clip-rule="evenodd" d="M6.82281 10.3356C7.37387 10.2989 7.85037 10.7158 7.88711 11.2669L8.50037 20.4657C8.62018 22.2628 8.70555 23.5132 8.89297 24.4541C9.07477 25.3667 9.32855 25.8497 9.6931 26.1908C10.0576 26.5318 10.5565 26.7529 11.4792 26.8736C12.4304 26.998 13.6837 27.0001 15.4849 27.0001H16.516C18.3171 27.0001 19.5705 26.998 20.5217 26.8736C21.4444 26.7529 21.9432 26.5318 22.3078 26.1908C22.6723 25.8497 22.9261 25.3667 23.1079 24.4541C23.2953 23.5133 23.3807 22.2628 23.5005 20.4657L24.1138 11.2669C24.1505 10.7158 24.627 10.2989 25.1781 10.3356C25.7291 10.3723 26.1461 10.8488 26.1093 11.3999L25.4914 20.6689C25.3774 22.3792 25.2853 23.7607 25.0694 24.8448C24.8448 25.9719 24.4629 26.9133 23.6741 27.6513C22.8854 28.3892 21.9206 28.7077 20.7811 28.8567C19.685 29.0001 18.3004 29.0001 16.5863 29.0001H15.4145C13.7004 29.0001 12.3158 29.0001 11.2198 28.8567C10.0803 28.7077 9.11552 28.3892 8.32673 27.6513C7.53794 26.9133 7.15604 25.9719 6.93151 24.8448C6.71555 23.7607 6.62347 22.3792 6.50947 20.6689L5.89154 11.3999C5.8548 10.8488 6.27175 10.3723 6.82281 10.3356Z" fill="#1A62F5"/>
<path fill-rule="evenodd" clip-rule="evenodd" d="M13.8075 3.00005L13.7461 3.00003C13.4576 2.99984 13.2063 2.99968 12.9689 3.03758C12.0312 3.18732 11.2197 3.7722 10.7811 4.61445C10.6701 4.82765 10.5907 5.06618 10.4997 5.33995L10.4803 5.39811L10.3509 5.78646C10.3256 5.86241 10.3185 5.88335 10.3124 5.90032C10.0789 6.54581 9.4735 6.98213 8.7873 6.99952C8.76926 6.99997 8.74716 7.00005 8.6671 7.00005H4.66699C4.11471 7.00005 3.66699 7.44777 3.66699 8.00005C3.66699 8.55234 4.11471 9.00005 4.66699 9.00005L8.67852 9.00005L8.70084 9.00005H23.3L23.3224 9.00005L27.3338 9.00005C27.8861 9.00005 28.3338 8.55234 28.3338 8.00005C28.3338 7.44777 27.8861 7.00005 27.3338 7.00005H23.3338C23.2537 7.00005 23.2316 6.99997 23.2136 6.99952C22.5274 6.98213 21.922 6.54578 21.6885 5.90029C21.6824 5.88344 21.6752 5.86204 21.65 5.78646L21.5205 5.39811L21.5012 5.33992C21.4101 5.06615 21.3308 4.82764 21.2198 4.61445C20.7812 3.7722 19.9697 3.18732 19.032 3.03758C18.7946 2.99968 18.5433 2.99984 18.2547 3.00003L18.1934 3.00005H13.8075ZM12.1931 6.58064C12.1407 6.72539 12.0799 6.86535 12.0112 7.00005H19.9897C19.921 6.86536 19.8601 6.72541 19.8078 6.58067L19.7562 6.42954L19.6232 6.03057C19.5016 5.66587 19.4736 5.59151 19.4459 5.53818C19.2997 5.25743 19.0292 5.06248 18.7166 5.01256C18.6572 5.00308 18.5778 5.00005 18.1934 5.00005H13.8075C13.423 5.00005 13.3436 5.00308 13.2843 5.01256C12.9717 5.06248 12.7012 5.25743 12.555 5.53819C12.5272 5.5915 12.4993 5.66589 12.3777 6.03057L12.2446 6.42978C12.2246 6.4899 12.209 6.53669 12.1931 6.58064Z" fill="#1A62F5"/>
</svg>
