<svg width="16" height="17" viewBox="0 0 16 17" fill="none" xmlns="http://www.w3.org/2000/svg">
<path d="M2.62402 16.8125C1.85742 16.8125 1.28125 16.6221 0.895508 16.2412C0.514648 15.8652 0.324219 15.2988 0.324219 14.542V7.02002C0.324219 6.26318 0.514648 5.69678 0.895508 5.3208C1.28125 4.93994 1.85742 4.74951 2.62402 4.74951H13.3687C14.1304 4.74951 14.7041 4.93994 15.0898 5.3208C15.4756 5.70166 15.6685 6.26807 15.6685 7.02002V14.542C15.6685 15.2939 15.4756 15.8604 15.0898 16.2412C14.7041 16.6221 14.1304 16.8125 13.3687 16.8125H2.62402ZM2.63867 15.6333H13.3467C13.708 15.6333 13.9888 15.5356 14.189 15.3403C14.3892 15.145 14.4893 14.8569 14.4893 14.4761V7.08594C14.4893 6.70508 14.3892 6.41699 14.189 6.22168C13.9888 6.02637 13.708 5.92871 13.3467 5.92871H2.63867C2.27246 5.92871 1.9917 6.02637 1.79639 6.22168C1.60107 6.41699 1.50342 6.70508 1.50342 7.08594V14.4761C1.50342 14.8569 1.60107 15.145 1.79639 15.3403C1.9917 15.5356 2.27246 15.6333 2.63867 15.6333ZM1.86963 3.57031C1.92334 3.23828 2.03809 2.98438 2.21387 2.80859C2.38965 2.62793 2.66064 2.5376 3.02686 2.5376H12.9731C13.3394 2.5376 13.6079 2.62793 13.7788 2.80859C13.9546 2.98438 14.0718 3.23828 14.1304 3.57031H1.86963ZM3.37842 1.5415C3.39795 1.229 3.49561 0.994629 3.67139 0.838379C3.85205 0.677246 4.11084 0.59668 4.44775 0.59668H11.5449C11.8818 0.59668 12.1382 0.677246 12.314 0.838379C12.4946 0.994629 12.5972 1.229 12.6216 1.5415H3.37842ZM7.20166 14.2563C7.07959 14.2563 6.96729 14.2295 6.86475 14.1758C6.76709 14.1221 6.67188 14.0366 6.5791 13.9194L4.79199 11.7222C4.67969 11.5708 4.62354 11.4194 4.62354 11.2681C4.62354 11.1069 4.67725 10.9702 4.78467 10.8579C4.89697 10.7407 5.03125 10.6821 5.1875 10.6821C5.29004 10.6821 5.38281 10.7041 5.46582 10.748C5.55371 10.7871 5.6416 10.8652 5.72949 10.9824L7.17236 12.8501L10.2119 7.97217C10.3486 7.75244 10.5195 7.64258 10.7246 7.64258C10.876 7.64258 11.0127 7.69141 11.1348 7.78906C11.2568 7.88672 11.3179 8.01611 11.3179 8.17725C11.3179 8.26025 11.2983 8.34326 11.2593 8.42627C11.2251 8.50439 11.186 8.57764 11.1421 8.646L7.79492 13.9194C7.64844 14.144 7.45068 14.2563 7.20166 14.2563Z" fill="#8E8E93"/>
</svg>
