<svg width="49" height="48" viewBox="0 0 49 48" fill="none" xmlns="http://www.w3.org/2000/svg">
<path d="M0.5 24C0.5 10.7452 11.2452 0 24.5 0C37.7548 0 48.5 10.7452 48.5 24C48.5 37.2548 37.7548 48 24.5 48C11.2452 48 0.5 37.2548 0.5 24Z" fill="#DCFAE6"/>
<path d="M20 24L23 27L29 21M34.5 24C34.5 29.5228 30.0228 34 24.5 34C18.9772 34 14.5 29.5228 14.5 24C14.5 18.4772 18.9772 14 24.5 14C30.0228 14 34.5 18.4772 34.5 24Z" stroke="#079455" stroke-width="2" stroke-linecap="round" stroke-linejoin="round"/>
</svg>
