<svg width="21" height="20" viewBox="0 0 21 20" fill="none" xmlns="http://www.w3.org/2000/svg">
<path d="M3.14674 15.0963C3.18503 14.7517 3.20417 14.5794 3.2563 14.4184C3.30255 14.2755 3.3679 14.1396 3.45057 14.0142C3.54375 13.8729 3.66633 13.7503 3.91148 13.5052L14.9167 2.49992C15.8372 1.57945 17.3296 1.57945 18.2501 2.49993C19.1705 3.4204 19.1705 4.91279 18.2501 5.83326L7.24481 16.8385C6.99966 17.0836 6.87709 17.2062 6.73578 17.2994C6.61041 17.3821 6.47445 17.4474 6.33158 17.4937C6.17054 17.5458 5.99826 17.5649 5.65368 17.6032L2.83337 17.9166L3.14674 15.0963Z" stroke="#535862" stroke-width="1.66667" stroke-linecap="round" stroke-linejoin="round"/>
</svg>
