<svg width="21" height="20" viewBox="0 0 21 20" fill="none" xmlns="http://www.w3.org/2000/svg">
<path d="M18 15L17.1666 15.9117C16.7245 16.3951 16.1251 16.6667 15.5001 16.6667C14.8751 16.6667 14.2757 16.3951 13.8337 15.9117C13.391 15.4293 12.7916 15.1584 12.1668 15.1584C11.542 15.1584 10.9426 15.4293 10.5 15.9117M3 16.6666H4.39545C4.8031 16.6666 5.00693 16.6666 5.19874 16.6206C5.3688 16.5798 5.53138 16.5124 5.6805 16.421C5.84869 16.318 5.99282 16.1739 6.28107 15.8856L16.75 5.41665C17.4404 4.72629 17.4404 3.607 16.75 2.91665C16.0597 2.22629 14.9404 2.22629 14.25 2.91665L3.78105 13.3856C3.4928 13.6739 3.34867 13.818 3.2456 13.9862C3.15422 14.1353 3.08688 14.2979 3.04605 14.4679C3 14.6597 3 14.8636 3 15.2712V16.6666Z" stroke="#A4A7AE" stroke-width="1.66667" stroke-linecap="round" stroke-linejoin="round"/>
</svg>
