<svg width="20" height="20" viewBox="0 0 20 20" fill="none" xmlns="http://www.w3.org/2000/svg">
<path d="M19 17L17.9999 18.094C17.4695 18.6741 16.7501 19 16.0001 19C15.2501 19 14.5308 18.6741 14.0004 18.094C13.4692 17.5151 12.75 17.1901 12.0002 17.1901C11.2504 17.1901 10.5311 17.5151 9.99997 18.094M1 19H2.67454C3.16372 19 3.40832 19 3.63849 18.9447C3.84256 18.8957 4.03765 18.8149 4.2166 18.7053C4.41843 18.5816 4.59138 18.4086 4.93729 18.0627L17.5 5.49998C18.3285 4.67156 18.3285 3.32841 17.5 2.49998C16.6716 1.67156 15.3285 1.67156 14.5 2.49998L1.93726 15.0627C1.59136 15.4086 1.4184 15.5816 1.29472 15.7834C1.18506 15.9624 1.10425 16.1574 1.05526 16.3615C1 16.5917 1 16.8363 1 17.3255V19Z" stroke="#A4A7AE" stroke-width="2" stroke-linecap="round" stroke-linejoin="round"/>
</svg>
