<svg width="16" height="16" viewBox="0 0 16 16" fill="none" xmlns="http://www.w3.org/2000/svg">
    <g clip-path="url(#clip0_7190_9488)">
        <path d="M14.6664 8.00016C14.6664 11.1429 14.6664 12.7142 13.6901 13.6905C12.7138 14.6668 11.1425 14.6668 7.99984 14.6668C4.85718 14.6668 3.28585 14.6668 2.30955 13.6905C1.33325 12.7142 1.33325 11.1429 1.33325 8.00016C1.33325 4.85747 1.33325 3.28612 2.30955 2.30981C3.28585 1.3335 4.85718 1.3335 7.99984 1.3335" stroke="#020814" stroke-width="0.999994" stroke-linecap="round"/>
        <path d="M1.33325 8.33326L2.50096 7.31151C3.10847 6.77994 4.02407 6.81043 4.59487 7.38124L7.45466 10.2411C7.91281 10.6992 8.634 10.7617 9.1641 10.3891L9.3629 10.2494C10.1257 9.71331 11.1578 9.77542 11.8508 10.3991L13.9998 12.3333" stroke="#020814" stroke-width="0.999994" stroke-linecap="round"/>
        <path d="M12.3755 1.95709L12.6536 1.67903C13.1143 1.21832 13.8612 1.21832 14.3219 1.67903C14.7827 2.13974 14.7827 2.8867 14.3219 3.34741L14.0439 3.62548M12.3755 1.95709C12.3755 1.95709 12.4103 2.54798 12.9316 3.06935C13.453 3.59072 14.0439 3.62548 14.0439 3.62548M12.3755 1.95709L9.81918 4.51347C9.64603 4.68661 9.55946 4.77319 9.485 4.86865C9.39717 4.98125 9.32187 5.10309 9.26044 5.232C9.20836 5.34129 9.16964 5.45744 9.0922 5.68974L8.84429 6.4335M14.0439 3.62548L11.4875 6.18185C11.3144 6.355 11.2278 6.44157 11.1324 6.51603C11.0198 6.60386 10.8979 6.67916 10.769 6.74059C10.6597 6.79268 10.5436 6.83139 10.3113 6.90883L9.56753 7.15675M9.56753 7.15675L9.08629 7.31716C8.97197 7.35527 8.84594 7.32551 8.76073 7.24031C8.67552 7.1551 8.64577 7.02906 8.68388 6.91474L8.84429 6.4335M9.56753 7.15675L8.84429 6.4335" stroke="#020814" stroke-width="0.999994"/>
    </g>
    <defs>
        <clipPath id="clip0_7190_9488">
            <rect width="15.9998" height="16" fill="white"/>
        </clipPath>
    </defs>
</svg>
