<svg width="18" height="17" viewBox="0 0 18 17" fill="none" xmlns="http://www.w3.org/2000/svg">
<path d="M16.5 14L15.6666 14.9117C15.2245 15.3951 14.6251 15.6667 14.0001 15.6667C13.3751 15.6667 12.7757 15.3951 12.3337 14.9117C11.891 14.4293 11.2916 14.1584 10.6668 14.1584C10.042 14.1584 9.44261 14.4293 8.99998 14.9117M1.5 15.6667H2.89545C3.3031 15.6667 3.50693 15.6667 3.69874 15.6206C3.8688 15.5798 4.03138 15.5125 4.1805 15.4211C4.34869 15.318 4.49282 15.1739 4.78107 14.8856L15.25 4.41669C15.9404 3.72634 15.9404 2.60705 15.25 1.91669C14.5597 1.22634 13.4404 1.22634 12.75 1.91669L2.28105 12.3856C1.9928 12.6739 1.84867 12.818 1.7456 12.9862C1.65422 13.1353 1.58688 13.2979 1.54605 13.468C1.5 13.6598 1.5 13.8636 1.5 14.2713V15.6667Z" stroke="#004EEB" stroke-width="1.66667" stroke-linecap="round" stroke-linejoin="round"/>
</svg>
