<svg width="20" height="21" viewBox="0 0 20 21" fill="none" xmlns="http://www.w3.org/2000/svg">
<path d="M1.6665 5.94141L8.4706 10.7043C9.02158 11.09 9.29707 11.2828 9.59672 11.3575C9.86142 11.4235 10.1383 11.4235 10.403 11.3575C10.7026 11.2828 10.9781 11.09 11.5291 10.7043L18.3332 5.94141M5.6665 16.7747H14.3332C15.7333 16.7747 16.4334 16.7747 16.9681 16.5023C17.4386 16.2626 17.821 15.8801 18.0607 15.4097C18.3332 14.8749 18.3332 14.1749 18.3332 12.7747V7.44141C18.3332 6.04127 18.3332 5.34121 18.0607 4.80643C17.821 4.33602 17.4386 3.95357 16.9681 3.71389C16.4334 3.44141 15.7333 3.44141 14.3332 3.44141H5.6665C4.26637 3.44141 3.56631 3.44141 3.03153 3.71389C2.56112 3.95357 2.17867 4.33602 1.93899 4.80643C1.6665 5.34121 1.6665 6.04127 1.6665 7.44141V12.7747C1.6665 14.1749 1.6665 14.8749 1.93899 15.4097C2.17867 15.8801 2.56112 16.2626 3.03153 16.5023C3.56631 16.7747 4.26637 16.7747 5.6665 16.7747Z" stroke="#414651" stroke-width="2" stroke-linecap="round" stroke-linejoin="round"/>
</svg>
