<svg width="40" height="39" viewBox="0 0 40 39" fill="none" xmlns="http://www.w3.org/2000/svg">
<path d="M15.7494 8.7891C17.8077 5.09669 18.8368 3.25049 20.3755 3.25049C21.9141 3.25049 22.9433 5.09669 25.0016 8.7891L25.5341 9.74437C26.119 10.7936 26.4115 11.3183 26.8675 11.6644C27.3234 12.0106 27.8914 12.1391 29.0272 12.3961L30.0612 12.63C34.0582 13.5344 36.0567 13.9866 36.5322 15.5156C37.0076 17.0445 35.6452 18.6377 32.9203 21.8241L32.2154 22.6485C31.441 23.5539 31.0539 24.0067 30.8797 24.5668C30.7055 25.1269 30.7641 25.7309 30.8811 26.939L30.9877 28.0389C31.3997 32.2902 31.6057 34.4159 30.3609 35.3608C29.1161 36.3058 27.2449 35.4443 23.5025 33.7211L22.5343 33.2753C21.4709 32.7857 20.9391 32.5409 20.3755 32.5409C19.8119 32.5409 19.2801 32.7857 18.2167 33.2753L17.2485 33.7211C13.5061 35.4442 11.6349 36.3058 10.3901 35.3608C9.14531 34.4159 9.35129 32.2902 9.76326 28.0389L9.86984 26.939C9.98691 25.7309 10.0454 25.1269 9.87127 24.5668C9.69709 24.0067 9.30993 23.5539 8.53561 22.6485L7.83065 21.8241C5.10577 18.6377 3.74333 17.0445 4.2188 15.5156C4.69427 13.9866 6.69276 13.5344 10.6897 12.63L11.7238 12.3961C12.8596 12.1391 13.4275 12.0106 13.8835 11.6644C14.3395 11.3183 14.632 10.7936 15.2169 9.74437L15.7494 8.7891Z" stroke="#FF9500" stroke-width="3.65625"/>
</svg>
