<svg width="18" height="16" viewBox="0 0 18 16" fill="none" xmlns="http://www.w3.org/2000/svg">
<path d="M6.46941 13.7589L6.85634 13.2681L6.46941 13.7589ZM9.0013 2.58374L8.551 3.01716C8.66882 3.13957 8.8314 3.20874 9.0013 3.20874C9.1712 3.20874 9.33378 3.13957 9.45161 3.01716L9.0013 2.58374ZM11.5332 13.7589L11.9201 14.2498L11.5332 13.7589ZM6.85634 13.2681C5.59329 12.2724 4.21219 11.3001 3.11654 10.0664C2.04232 8.85674 1.29297 7.44529 1.29297 5.61413H0.0429688C0.0429688 7.8354 0.968382 9.52992 2.1819 10.8964C3.37399 12.2387 4.89361 13.3126 6.08248 14.2498L6.85634 13.2681ZM1.29297 5.61413C1.29297 3.82174 2.30578 2.31865 3.68827 1.68671C5.03136 1.07277 6.83602 1.23536 8.551 3.01716L9.45161 2.15032C7.41672 0.0361456 5.05471 -0.3123 3.1686 0.549845C1.3219 1.39398 0.0429688 3.35407 0.0429688 5.61413H1.29297ZM6.08248 14.2498C6.50935 14.5863 6.96759 14.9451 7.43199 15.2165C7.89618 15.4877 8.42597 15.7082 9.0013 15.7082V14.4582C8.7433 14.4582 8.43975 14.3576 8.06264 14.1372C7.68574 13.917 7.2947 13.6137 6.85634 13.2681L6.08248 14.2498ZM11.9201 14.2498C13.109 13.3126 14.6286 12.2387 15.8207 10.8964C17.0342 9.52992 17.9596 7.8354 17.9596 5.61413H16.7096C16.7096 7.44529 15.9603 8.85674 14.8861 10.0664C13.7904 11.3001 12.4093 12.2724 11.1463 13.2681L11.9201 14.2498ZM17.9596 5.61413C17.9596 3.35407 16.6807 1.39398 14.834 0.549845C12.9479 -0.3123 10.5859 0.0361456 8.551 2.15032L9.45161 3.01716C11.1666 1.23536 12.9712 1.07277 14.3143 1.68671C15.6968 2.31865 16.7096 3.82174 16.7096 5.61413H17.9596ZM11.1463 13.2681C10.7079 13.6137 10.3169 13.917 9.93996 14.1372C9.56285 14.3576 9.2593 14.4582 9.0013 14.4582V15.7082C9.57663 15.7082 10.1064 15.4877 10.5706 15.2165C11.035 14.9451 11.4933 14.5863 11.9201 14.2498L11.1463 13.2681Z" fill="#020814"/>
</svg>
