<svg width="22" height="20" viewBox="0 0 22 20" fill="none" xmlns="http://www.w3.org/2000/svg">
<path d="M0.251465 6.96875C0.251465 6.0446 0.400879 5.19515 0.699707 4.42041C0.998535 3.64567 1.41634 2.97607 1.95312 2.41162C2.48991 1.84163 3.12077 1.40169 3.8457 1.0918C4.57064 0.781901 5.35921 0.626953 6.21143 0.626953C6.86442 0.626953 7.47868 0.732096 8.0542 0.942383C8.62972 1.14714 9.14714 1.4349 9.60645 1.80566C10.0658 2.17643 10.4504 2.61084 10.7603 3.10889C11.0757 2.61084 11.4631 2.17643 11.9224 1.80566C12.3817 1.42936 12.8963 1.13883 13.4663 0.934082C14.0418 0.729329 14.6561 0.626953 15.3091 0.626953C16.1613 0.626953 16.9499 0.781901 17.6748 1.0918C18.3997 1.40169 19.0306 1.84163 19.5674 2.41162C20.1097 2.97607 20.5275 3.64567 20.8208 4.42041C21.1196 5.19515 21.269 6.0446 21.269 6.96875C21.269 8.09766 21.0366 9.21826 20.5718 10.3306C20.1125 11.4373 19.4512 12.5275 18.5879 13.6011C17.7301 14.6746 16.6981 15.7233 15.4917 16.7471C14.2909 17.7708 12.9489 18.7614 11.4658 19.7188C11.3607 19.7852 11.2417 19.846 11.1089 19.9014C10.9816 19.9567 10.8654 19.9844 10.7603 19.9844C10.6606 19.9844 10.5444 19.9567 10.4116 19.9014C10.2788 19.846 10.1626 19.7852 10.063 19.7188C8.57438 18.7614 7.22689 17.7708 6.02051 16.7471C4.81966 15.7233 3.7876 14.6746 2.92432 13.6011C2.06657 12.5275 1.40527 11.4373 0.94043 10.3306C0.48112 9.21826 0.251465 8.09766 0.251465 6.96875ZM1.7207 6.96875C1.7207 7.97038 1.95866 8.98031 2.43457 9.99854C2.91602 11.0112 3.57178 12.0101 4.40186 12.9951C5.23193 13.9746 6.17546 14.9154 7.23242 15.8174C8.29492 16.7194 9.40446 17.5578 10.561 18.3325C10.6662 18.4045 10.7326 18.4404 10.7603 18.4404C10.7879 18.4404 10.8543 18.4045 10.9595 18.3325C12.1216 17.5578 13.2311 16.7194 14.2881 15.8174C15.3506 14.9154 16.2941 13.9746 17.1187 12.9951C17.9487 12.0101 18.6017 11.0112 19.0776 9.99854C19.5591 8.98031 19.7998 7.97038 19.7998 6.96875C19.7998 6.00033 19.6061 5.15088 19.2188 4.42041C18.8314 3.68994 18.3001 3.11995 17.625 2.71045C16.9499 2.30094 16.1834 2.09619 15.3257 2.09619C14.6616 2.09619 14.0833 2.21794 13.5908 2.46143C13.0983 2.70492 12.6722 3.01204 12.3125 3.38281C11.9583 3.74805 11.6567 4.12435 11.4077 4.51172C11.2694 4.69434 11.1559 4.82438 11.0674 4.90186C10.9788 4.9738 10.8765 5.00977 10.7603 5.00977C10.644 5.00977 10.5389 4.9738 10.4448 4.90186C10.3507 4.82992 10.2428 4.69987 10.1211 4.51172C9.8776 4.11882 9.57878 3.73975 9.22461 3.37451C8.87044 3.00374 8.44434 2.69938 7.94629 2.46143C7.44824 2.21794 6.86442 2.09619 6.19482 2.09619C5.33708 2.09619 4.57064 2.30094 3.89551 2.71045C3.22591 3.11995 2.69466 3.68994 2.30176 4.42041C1.91439 5.15088 1.7207 6.00033 1.7207 6.96875Z" fill="#155EEF"/>
</svg>
