<svg width="23" height="28" viewBox="0 0 23 28" fill="none" xmlns="http://www.w3.org/2000/svg">
<path fill-rule="evenodd" clip-rule="evenodd" d="M12.7486 1.20743C12.75 1.23724 12.75 1.25368 12.75 1.28656L12.75 6.80698C12.75 7.12245 12.7499 7.42969 12.7712 7.68989C12.7945 7.97563 12.8496 8.3128 13.0225 8.65208C13.2622 9.12248 13.6446 9.50494 14.115 9.74462C14.4543 9.91749 14.7915 9.97257 15.0772 9.99592C15.3374 10.0172 15.6446 10.0171 15.9601 10.0171L21.4806 10.0171C21.5134 10.0171 21.5298 10.0171 21.5596 10.0185C22.1769 10.048 22.7194 10.5908 22.7486 11.2081C22.75 11.2379 22.75 11.2476 22.75 11.267V20.3187C22.75 21.3249 22.75 22.1554 22.6948 22.8319C22.6374 23.5345 22.5141 24.1804 22.205 24.787C21.7257 25.7279 20.9608 26.4928 20.02 26.9721C19.4133 27.2812 18.7674 27.4044 18.0648 27.4618C17.3883 27.5171 16.5579 27.5171 15.5517 27.5171H7.44835C6.44215 27.5171 5.61171 27.5171 4.93522 27.4618C4.2326 27.4044 3.58672 27.2812 2.98005 26.9721C2.03924 26.4928 1.27434 25.7279 0.794969 24.787C0.485856 24.1804 0.362651 23.5345 0.305244 22.8319C0.249973 22.1554 0.249985 21.3249 0.25 20.3187V7.21545C0.249985 6.20925 0.249973 5.3788 0.305244 4.70231C0.362651 3.99969 0.485856 3.35381 0.794969 2.74714C1.27434 1.80633 2.03924 1.04143 2.98005 0.56206C3.58672 0.252947 4.2326 0.129741 4.93522 0.072335C5.6117 0.0170644 6.44213 0.0170764 7.44832 0.017091H11.5C11.5195 0.0170831 11.5293 0.0170791 11.5591 0.0184889C12.1763 0.0476886 12.7191 0.590209 12.7486 1.20743Z" fill="#0BA5EC"/>
<path d="M20.8358 7.42493C20.6855 7.51709 20.502 7.51708 20.135 7.51708L16.25 7.51703C15.9 7.51702 15.7249 7.51702 15.5913 7.4489C15.4737 7.38898 15.378 7.29336 15.3181 7.17576C15.25 7.04207 15.25 6.86706 15.25 6.51704L15.25 2.63214C15.25 2.26511 15.25 2.0816 15.3422 1.93126C15.4723 1.71896 15.779 1.59204 16.0211 1.65024C16.1925 1.69145 16.3121 1.81113 16.5512 2.05049L20.7166 6.21588C20.956 6.455 21.0756 6.57456 21.1168 6.74601C21.175 6.98814 21.0481 7.29477 20.8358 7.42493Z" fill="#0BA5EC"/>
</svg>
