<?xml version="1.0" encoding="UTF-8"?>
<svg version="1.1" xmlns="http://www.w3.org/2000/svg" width="256" height="256">
<path d="M0 0 C2.0391897 -0.00846569 4.07837482 -0.01811016 6.11755371 -0.02886963 C10.37395317 -0.04518892 14.62983168 -0.04261782 18.88623047 -0.02734375 C24.31333708 -0.01004798 29.73851144 -0.04725481 35.16533661 -0.09960556 C39.371029 -0.13284 43.57626323 -0.13326209 47.78205872 -0.12445831 C49.7817553 -0.12481576 51.78148281 -0.13595508 53.78105164 -0.15856171 C67.0957125 -0.2891678 75.99423279 0.54827843 86.23791504 9.85211182 C87.45850207 11.0497473 88.64931462 12.27909401 89.796875 13.546875 C91.56043868 15.37575585 93.33033216 16.97207773 95.26171875 18.61328125 C101.14982937 23.71323028 106.59236792 29.27144096 112.08813477 34.78588867 C113.96454475 36.66765774 115.84623969 38.54402238 117.72851562 40.41992188 C123.66292444 46.35064625 129.54467386 52.2710918 134.90625 58.734375 C135.69773438 59.67925781 136.48921875 60.62414063 137.3046875 61.59765625 C137.95695313 62.40589844 138.60921875 63.21414062 139.28125 64.046875 C139.94898438 64.86800781 140.61671875 65.68914062 141.3046875 66.53515625 C144.05988124 70.31850766 144.03641207 73.44436879 144.05342102 77.99490356 C144.06415398 79.96311317 144.06415398 79.96311317 144.07510376 81.97108459 C144.07794405 83.42880225 144.08065577 84.88652017 144.08325195 86.34423828 C144.08951738 87.87685805 144.09616426 89.40947631 144.10316467 90.9420929 C144.12420259 95.97961368 144.13456858 101.01713475 144.14453125 106.0546875 C144.14857927 107.7901702 144.15269621 109.52565273 144.15688133 111.2611351 C144.17593446 119.41701246 144.19016377 127.57288076 144.1984933 135.7287761 C144.20825874 145.13488664 144.23455956 154.54076141 144.27499419 163.94678891 C144.30519092 171.22166647 144.31996565 178.49647659 144.32327431 185.77141559 C144.32562126 190.11396359 144.33453486 194.45625977 144.35973549 198.79874039 C144.38308283 202.8880357 144.38722289 206.97691459 144.37697411 211.06625938 C144.3764802 212.56217398 144.38275751 214.05810953 144.39653015 215.5539608 C144.50777546 228.35924289 141.89117609 237.33792558 132.90625 246.734375 C122.86149752 255.31565361 113.67100645 257.18572793 100.69824219 257.15429688 C98.7524955 257.16700119 98.7524955 257.16700119 96.7674408 257.17996216 C93.23203153 257.20204951 89.69685622 257.20511519 86.16138744 257.20321465 C83.19714394 257.20309431 80.23294886 257.2116843 77.26871896 257.21999216 C70.26684047 257.23918159 63.26508116 257.24212695 56.26318359 257.23535156 C49.07112903 257.22871937 41.87958844 257.25155185 34.68763804 257.28866529 C28.48600107 257.31949175 22.28452829 257.33070824 16.08281636 257.32682848 C12.39075411 257.32477367 8.69909176 257.33004078 5.00710297 257.35472107 C0.88167524 257.38139092 -3.24268723 257.36716249 -7.36816406 257.34960938 C-8.56963577 257.36287262 -9.77110748 257.37613586 -11.00898743 257.38980103 C-23.06528888 257.2713406 -33.21670874 253.75963551 -41.93359375 245.26953125 C-48.7665238 237.25041443 -52.40570359 228.21809978 -52.36117554 217.71514893 C-52.36570665 216.92486888 -52.37023776 216.13458883 -52.37490618 215.3203609 C-52.3875318 212.68128735 -52.385931 210.04242066 -52.38427734 207.40332031 C-52.3902638 205.50735205 -52.39706961 203.61138622 -52.40463257 201.71542358 C-52.4222892 196.57063037 -52.42698785 191.42590369 -52.42826414 186.28108311 C-52.42968664 183.0644442 -52.43395815 179.84782216 -52.43925858 176.63118744 C-52.45775868 165.40255155 -52.46592933 154.17396312 -52.46435547 142.9453125 C-52.46315451 132.49000671 -52.48424804 122.03490751 -52.5158428 111.57965398 C-52.54202489 102.59430322 -52.55272193 93.60901984 -52.55144465 84.62363124 C-52.55093553 79.26111128 -52.55659104 73.89877489 -52.57780075 68.53629303 C-52.59721529 63.48993749 -52.59728553 58.44394 -52.58276749 53.39757156 C-52.58068219 51.55054576 -52.58536354 49.70349735 -52.5974884 47.85651016 C-52.70682727 30.03992833 -52.70682727 30.03992833 -48.09375 21.734375 C-47.63613281 20.84363281 -47.17851563 19.95289062 -46.70703125 19.03515625 C-35.47314274 1.86383717 -18.92047581 -0.05246854 0 0 Z M-25.09375 25.734375 C-25.09375 26.394375 -25.09375 27.054375 -25.09375 27.734375 C-25.75375 27.734375 -26.41375 27.734375 -27.09375 27.734375 C-30.46346275 33.64438274 -31.69157586 37.91581738 -31.69873047 44.671875 C-31.71497593 45.52799881 -31.73122139 46.38412262 -31.74795914 47.26618958 C-31.7963122 50.08899838 -31.816542 52.91123026 -31.8359375 55.734375 C-31.86337852 57.74310168 -31.89220466 59.75180987 -31.92233276 61.76049805 C-32.00924019 68.08499238 -32.05429334 74.40943339 -32.09375 80.734375 C-32.10836082 82.74560604 -32.12304855 84.75683652 -32.13781738 86.76806641 C-32.22682164 99.74657745 -32.2353418 112.72449461 -32.22070312 125.70324707 C-32.21875015 128.73414104 -32.22070256 131.76500605 -32.22412109 134.79589844 C-32.23863977 147.76132261 -32.21106519 160.72574702 -32.11585999 173.69085693 C-32.10085519 175.75631976 -32.08696641 177.82179093 -32.07408142 179.88726807 C-32.03377285 186.17612472 -31.97099202 192.46406302 -31.87667465 198.75234985 C-31.84983003 200.71741977 -31.8294231 202.68258974 -31.81592178 204.64779663 C-31.79552353 207.36479604 -31.75027888 210.08031159 -31.69873047 212.796875 C-31.69789333 213.58737747 -31.6970562 214.37787994 -31.6961937 215.19233704 C-31.53333909 221.49376903 -29.78498955 227.00840977 -25.27734375 231.57421875 C-24.70113281 231.93644531 -24.12492187 232.29867187 -23.53125 232.671875 C-22.95246094 233.05214844 -22.37367187 233.43242187 -21.77734375 233.82421875 C-18.43975579 235.62852964 -15.68208534 235.86434503 -11.96540833 235.88154602 C-10.37366791 235.89227898 -10.37366791 235.89227898 -8.74977112 235.90322876 C-7.58558151 235.90591766 -6.42139191 235.90860657 -5.22192383 235.91137695 C-3.99563263 235.91794815 -2.76934143 235.92451935 -1.50588989 235.93128967 C2.56248213 235.95104052 6.6308147 235.96269195 10.69921875 235.97265625 C12.10164217 235.97670483 13.5040654 235.98082179 14.90648842 235.98500633 C21.49739666 236.00405585 28.08829372 236.01828602 34.67922419 236.0266183 C42.27704382 236.03638296 49.87457151 236.062683 57.47228831 236.10311919 C63.35098391 236.1333281 69.22959606 236.14809178 75.10836774 236.15139931 C78.61645137 236.15374485 82.12422305 236.16263954 85.63222313 236.18786049 C89.55072632 236.21557738 93.46884889 236.21129545 97.38745117 236.2043457 C98.54151962 236.21715576 99.69558807 236.22996582 100.8846283 236.24316406 C108.32635516 236.19510683 114.21171814 235.38184276 119.74609375 229.91796875 C120.10832031 229.34175781 120.47054687 228.76554688 120.84375 228.171875 C121.22402344 227.59308594 121.60429687 227.01429688 121.99609375 226.41796875 C123.8652848 222.96036642 124.03857449 220.08983669 124.06015015 216.23744202 C124.06875061 215.09477371 124.07735107 213.95210541 124.08621216 212.77481079 C124.09047211 211.52018036 124.09473206 210.26554993 124.09912109 208.97290039 C124.1070241 207.63906135 124.11529317 206.30522444 124.12390137 204.97138977 C124.15008961 200.59162429 124.1654217 196.21184937 124.1796875 191.83203125 C124.18504772 190.32426892 124.19042523 188.81650664 124.19581985 187.30874443 C124.21744023 181.03871647 124.2361786 174.76869107 124.24744225 168.49863529 C124.26369498 159.51068346 124.29691388 150.52316296 124.35384309 141.53537375 C124.3925083 135.21598234 124.4120706 128.89670649 124.41736281 122.57719988 C124.42101986 118.80201881 124.43307825 115.02729811 124.46546555 111.25224495 C124.49548826 107.70212374 124.50187955 104.15274289 124.49008179 100.6025219 C124.48975507 98.67810016 124.51425731 96.75372451 124.53945923 94.82946777 C124.53114075 93.68397964 124.52282227 92.53849152 124.51425171 91.35829163 C124.51756186 90.36296449 124.520872 89.36763735 124.52428246 88.34214878 C123.67325466 84.75125652 121.91914897 83.72706385 118.90625 81.734375 C115.82828389 80.19539195 112.56909042 80.51468153 109.1875 80.453125 C108.41498901 80.43471558 107.64247803 80.41630615 106.84655762 80.39733887 C104.36653349 80.33853147 101.88643654 80.28584512 99.40625 80.234375 C72.3715588 79.66359521 72.3715588 79.66359521 68.34375 77.109375 C65.07692615 71.71201385 65.74990807 64.63155465 65.6953125 58.4765625 C65.66726719 56.69920917 65.63860292 54.92186552 65.609375 53.14453125 C65.5680248 50.36865273 65.531095 47.59295981 65.50488281 44.81689453 C65.47726861 42.11974908 65.4314322 39.4234002 65.3828125 36.7265625 C65.37955963 35.89937714 65.37630676 35.07219177 65.37295532 34.21994019 C65.27437044 29.59100554 64.90494844 26.49490989 61.90625 22.734375 C58.95920486 21.26085243 55.9697773 21.56978364 52.73779297 21.55737305 C51.99932632 21.55080185 51.26085968 21.54423065 50.50001526 21.53746033 C48.04948832 21.51770864 45.59902287 21.50605779 43.1484375 21.49609375 C42.31074955 21.49201822 41.4730616 21.4879427 40.60998917 21.48374367 C36.17228694 21.46287038 31.73461572 21.44857673 27.296875 21.43920898 C22.72380803 21.42816953 18.15123101 21.3938021 13.57833672 21.35403728 C10.05401743 21.32781869 6.52981365 21.31951229 3.00540543 21.31592751 C1.32058546 21.31107146 -0.36422968 21.29948554 -2.04895401 21.28088951 C-14.16352794 21.00023852 -14.16352794 21.00023852 -25.09375 25.734375 Z " fill="#808080" transform="translate(82.09375,-0.734375)"/>
</svg>
