<svg width="15" height="20" viewBox="0 0 15 20" fill="none" xmlns="http://www.w3.org/2000/svg">
<path d="M9.16536 1.89111V5.33323C9.16536 5.79994 9.16536 6.0333 9.25619 6.21156C9.33609 6.36836 9.46357 6.49584 9.62037 6.57574C9.79863 6.66656 10.032 6.66656 10.4987 6.66656H13.9408M10.832 10.8332H4.16536M10.832 14.1665H4.16536M5.83203 7.49984H4.16536M9.16536 1.6665H4.83203C3.4319 1.6665 2.73183 1.6665 2.19705 1.93899C1.72665 2.17867 1.3442 2.56112 1.10451 3.03153C0.832031 3.56631 0.832031 4.26637 0.832031 5.6665V14.3332C0.832031 15.7333 0.832031 16.4334 1.10451 16.9681C1.3442 17.4386 1.72665 17.821 2.19705 18.0607C2.73183 18.3332 3.4319 18.3332 4.83203 18.3332H10.1654C11.5655 18.3332 12.2656 18.3332 12.8003 18.0607C13.2707 17.821 13.6532 17.4386 13.8929 16.9681C14.1654 16.4334 14.1654 15.7333 14.1654 14.3332V6.6665L9.16536 1.6665Z" stroke="#004EEB" stroke-width="1.66667" stroke-linecap="round" stroke-linejoin="round"/>
</svg>
