<svg width="20" height="22" viewBox="0 0 20 22" fill="none" xmlns="http://www.w3.org/2000/svg">
<path fill-rule="evenodd" clip-rule="evenodd" d="M6.88558 2.36262C9.8283 -0.454205 14.5864 -0.454205 17.5291 2.36262C20.4903 5.19714 20.4903 9.80697 17.5291 12.6415L9.58103 20.2495C7.49097 22.2502 4.11532 22.2502 2.02525 20.2495C-0.0833077 18.2312 -0.0833092 14.9446 2.02525 12.9263L9.85895 5.42771C11.0964 4.24324 13.0896 4.24325 14.327 5.42771C15.5829 6.62989 15.5829 8.59316 14.327 9.79534L6.43612 17.3486C6.13689 17.635 5.66213 17.6247 5.37571 17.3254C5.08929 17.0262 5.09967 16.5515 5.39889 16.265L13.2898 8.71175C13.9286 8.10021 13.9286 7.12285 13.2898 6.5113C12.6324 5.88205 11.5536 5.88205 10.8962 6.5113L3.06248 14.0098C1.57095 15.4376 1.57095 17.7382 3.06248 19.1659C4.57251 20.6114 7.03377 20.6114 8.5438 19.1659L16.4919 11.5579C18.836 9.31402 18.836 5.6901 16.4919 3.4462C14.1292 1.1846 10.2855 1.1846 7.9228 3.4462L1.51861 9.5764C1.21939 9.86282 0.74463 9.85245 0.458208 9.55322C0.171786 9.254 0.182163 8.77924 0.481387 8.49281L6.88558 2.36262Z" fill="#020814"/>
</svg>
