<svg width="20" height="19" viewBox="0 0 20 19" fill="none" xmlns="http://www.w3.org/2000/svg">
    <path d="M4.31396 18.0752C4.14242 17.9479 4.03727 17.7764 3.99854 17.5605C3.96533 17.3447 4.0013 17.0874 4.10645 16.7886L5.84131 11.6255L1.40869 8.43799C1.1486 8.25537 0.96875 8.06722 0.869141 7.87354C0.769531 7.67985 0.75293 7.48063 0.819336 7.27588C0.885742 7.07666 1.01579 6.93001 1.20947 6.83594C1.40316 6.73633 1.66048 6.68652 1.98145 6.68652H7.41846L9.07031 1.53174C9.16992 1.22738 9.29443 0.997721 9.44385 0.842773C9.5988 0.687826 9.78141 0.610352 9.9917 0.610352C10.2075 0.610352 10.3901 0.687826 10.5396 0.842773C10.6945 0.997721 10.8218 1.22738 10.9214 1.53174L12.5732 6.68652H18.0103C18.3312 6.68652 18.5885 6.73633 18.7822 6.83594C18.9759 6.93001 19.106 7.07666 19.1724 7.27588C19.2388 7.48063 19.2222 7.67985 19.1226 7.87354C19.0229 8.06722 18.8431 8.25537 18.583 8.43799L14.1504 11.6255L15.8853 16.7886C15.9904 17.0874 16.0236 17.3447 15.9849 17.5605C15.9517 17.7764 15.8493 17.9479 15.6777 18.0752C15.5062 18.208 15.3125 18.2523 15.0967 18.208C14.8809 18.1693 14.6457 18.0586 14.3911 17.876L9.9917 14.647L5.60059 17.876C5.34603 18.0586 5.11084 18.1693 4.89502 18.208C4.6792 18.2523 4.48551 18.208 4.31396 18.0752Z" fill="white"/>
</svg>
