<svg width="39" height="39" viewBox="0 0 39 39" fill="none" xmlns="http://www.w3.org/2000/svg">
<path d="M14.8744 8.78861C16.9327 5.0962 17.9618 3.25 19.5005 3.25C21.0391 3.25 22.0683 5.0962 24.1266 8.78861L24.6591 9.74388C25.244 10.7931 25.5365 11.3178 25.9925 11.6639C26.4484 12.0101 27.0164 12.1386 28.1522 12.3956L29.1862 12.6295C33.1832 13.5339 35.1817 13.9861 35.6572 15.5151C36.1326 17.044 34.7702 18.6372 32.0453 21.8236L31.3404 22.648C30.566 23.5535 30.1789 24.0062 30.0047 24.5663C29.8305 25.1264 29.8891 25.7304 30.0061 26.9385L30.1127 28.0384C30.5247 32.2897 30.7307 34.4154 29.4859 35.3604C28.2411 36.3053 26.3699 35.4438 22.6275 33.7207L21.6593 33.2749C20.5959 32.7852 20.0641 32.5404 19.5005 32.5404C18.9369 32.5404 18.4051 32.7852 17.3417 33.2749L16.3735 33.7206C12.6311 35.4438 10.7599 36.3053 9.5151 35.3604C8.27031 34.4154 8.47629 32.2897 8.88826 28.0384L8.99484 26.9385C9.11191 25.7304 9.17044 25.1264 8.99627 24.5663C8.82209 24.0062 8.43493 23.5535 7.66061 22.648L6.95565 21.8236C4.23077 18.6372 2.86833 17.044 3.3438 15.5151C3.81927 13.9861 5.81776 13.5339 9.81473 12.6295L10.8488 12.3956C11.9846 12.1386 12.5525 12.0101 13.0085 11.6639C13.4645 11.3178 13.757 10.7931 14.3419 9.74388L14.8744 8.78861Z" fill="#FF9500"/>
</svg>
