<svg width="20" height="20" viewBox="0 0 20 20" fill="none" xmlns="http://www.w3.org/2000/svg">
<path fill-rule="evenodd" clip-rule="evenodd" d="M15.2077 5.83331C15.2077 7.5592 13.8086 8.95831 12.0827 8.95831C10.3568 8.95831 8.95768 7.5592 8.95768 5.83331C8.95768 4.10742 10.3568 2.70831 12.0827 2.70831C13.8086 2.70831 15.2077 4.10742 15.2077 5.83331ZM12.0827 7.70831C13.1182 7.70831 13.9577 6.86885 13.9577 5.83331C13.9577 4.79778 13.1182 3.95831 12.0827 3.95831C11.0471 3.95831 10.2077 4.79778 10.2077 5.83331C10.2077 6.86885 11.0471 7.70831 12.0827 7.70831Z" fill="#020814"/>
<path fill-rule="evenodd" clip-rule="evenodd" d="M4.79102 14.1666C4.79102 15.8925 6.19013 17.2916 7.91602 17.2916C9.64191 17.2916 11.041 15.8925 11.041 14.1666C11.041 12.4408 9.64191 11.0416 7.91602 11.0416C6.19013 11.0416 4.79102 12.4408 4.79102 14.1666ZM7.91602 16.0416C6.88048 16.0416 6.04102 15.2022 6.04102 14.1666C6.04102 13.1311 6.88048 12.2916 7.91602 12.2916C8.95155 12.2916 9.79102 13.1311 9.79102 14.1666C9.79102 15.2022 8.95155 16.0416 7.91602 16.0416Z" fill="#020814"/>
<path d="M11.8743 14.1321C11.8743 13.7869 12.1542 13.5071 12.4993 13.5071H18.3327C18.6779 13.5071 18.9577 13.7869 18.9577 14.1321C18.9577 14.4773 18.6779 14.7571 18.3327 14.7571H12.4993C12.1542 14.7571 11.8743 14.4773 11.8743 14.1321Z" fill="#020814"/>
<path d="M7.49935 5.17375C7.84453 5.17375 8.12435 5.45357 8.12435 5.79875C8.12435 6.14392 7.84453 6.42375 7.49935 6.42375L1.66602 6.42375C1.32084 6.42375 1.04102 6.14392 1.04102 5.79875C1.04102 5.45357 1.32084 5.17375 1.66602 5.17375L7.49935 5.17375Z" fill="#020814"/>
<path d="M1.04102 14.1321C1.04102 13.7869 1.32084 13.5071 1.66602 13.5071H3.33268C3.67786 13.5071 3.95768 13.7869 3.95768 14.1321C3.95768 14.4773 3.67786 14.7571 3.33268 14.7571H1.66602C1.32084 14.7571 1.04102 14.4773 1.04102 14.1321Z" fill="#020814"/>
<path d="M18.3327 5.17375C18.6779 5.17375 18.9577 5.45357 18.9577 5.79875C18.9577 6.14392 18.6779 6.42375 18.3327 6.42375H16.666C16.3208 6.42375 16.041 6.14392 16.041 5.79875C16.041 5.45357 16.3208 5.17375 16.666 5.17375H18.3327Z" fill="#020814"/>
</svg>
