<svg width="32" height="32" viewBox="0 0 32 32" fill="none" xmlns="http://www.w3.org/2000/svg">
    <path fill-rule="evenodd" clip-rule="evenodd" d="M4.47722 17.0384C3.66363 18.2936 3.99941 20.0389 4.67097 23.5295C5.15441 26.0422 5.39613 27.2986 6.23364 28.1324C6.45094 28.3487 6.69406 28.5404 6.95813 28.7038C7.97593 29.3333 9.32718 29.3333 12.0297 29.3333H21.3036C24.0062 29.3333 25.3574 29.3333 26.3752 28.7038C26.6393 28.5404 26.8824 28.3487 27.0997 28.1324C27.9372 27.2986 28.1789 26.0422 28.6624 23.5295C29.3339 20.0389 29.6697 18.2936 28.8561 17.0384C28.6485 16.7181 28.3925 16.4282 28.0961 16.1778C26.9348 15.1968 25.0578 15.1968 21.3036 15.1968H12.0297C8.27556 15.1968 6.3985 15.1968 5.23723 16.1778C4.94088 16.4282 4.68484 16.7181 4.47722 17.0384ZM12.9269 22.9076C12.9269 22.3753 13.3835 21.9438 13.9468 21.9438H19.3864C19.9496 21.9438 20.4063 22.3753 20.4063 22.9076C20.4063 23.44 19.9496 23.8715 19.3864 23.8715H13.9468C13.3835 23.8715 12.9269 23.44 12.9269 22.9076Z" fill="#1A62F5"/>
    <path opacity="0.5" d="M4.76811 16.6461C4.91012 16.4781 5.06695 16.3213 5.23706 16.1776C6.39834 15.1966 8.2754 15.1966 12.0295 15.1966H21.3035C25.0576 15.1966 26.9347 15.1966 28.0959 16.1776C28.2665 16.3217 28.4238 16.479 28.5661 16.6475V13.0077C28.5661 11.7958 28.5662 10.7904 28.4524 9.98875C28.3323 9.14272 28.0706 8.39278 27.4451 7.77661C27.343 7.6761 27.2353 7.5807 27.1224 7.49076C26.44 6.94698 25.6221 6.7246 24.6961 6.62145C23.8039 6.52207 22.68 6.52209 21.3024 6.52212L20.8321 6.52212C19.5226 6.52212 19.0532 6.5145 18.6279 6.40711C18.3782 6.34403 18.1385 6.25594 17.9135 6.14504C17.5345 5.95823 17.2042 5.67682 16.2768 4.85509L15.6446 4.29505C15.3792 4.05986 15.1981 3.89933 15.0039 3.75674C14.1711 3.14505 13.1569 2.77509 12.0951 2.68713C11.8479 2.66664 11.5956 2.66666 11.2179 2.66669L11.0627 2.66668C10.2085 2.66654 9.64471 2.66645 9.1552 2.74827C7.0154 3.10596 5.28507 4.60191 4.8636 6.581C4.76772 7.03126 4.76787 7.54713 4.76809 8.29138L4.76811 16.6461Z" fill="#1A62F5"/>
</svg>
