<svg width="24" height="24" viewBox="0 0 24 24" fill="none" xmlns="http://www.w3.org/2000/svg">
<path fill-rule="evenodd" clip-rule="evenodd" d="M15.124 4.88448C15.1368 4.89591 15.1497 4.90736 15.1626 4.91884L19.1765 8.48668C19.9254 9.15237 20.5463 9.70422 20.9726 10.2052C21.4206 10.7317 21.7396 11.2985 21.7396 12C21.7396 12.7014 21.4206 13.2683 20.9726 13.7948C20.5463 14.2957 19.9254 14.8476 19.1765 15.5132L15.1626 19.0811C15.1497 19.0926 15.1368 19.104 15.124 19.1155C14.7996 19.4039 14.4968 19.6732 14.2352 19.8459C13.9783 20.0155 13.5112 20.2618 12.9879 20.0268C12.4647 19.7919 12.3385 19.2791 12.2946 18.9744C12.2499 18.6641 12.2499 18.259 12.25 17.8248C12.25 17.8076 12.25 17.7904 12.25 17.7731V16.2046C10.7985 16.3046 9.32763 16.6901 8.04102 17.317C6.52808 18.0542 5.31979 19.0996 4.66405 20.3486C4.50365 20.6541 4.1555 20.8108 3.82047 20.7282C3.48544 20.6456 3.25 20.345 3.25 20C3.25 15.279 4.63138 12.205 6.6065 10.3152C8.3281 8.66796 10.4264 7.99203 12.25 7.85058V6.22681C12.25 6.20953 12.25 6.19229 12.25 6.17509C12.2499 5.74096 12.2499 5.33579 12.2946 5.02554C12.3385 4.72086 12.4647 4.20807 12.9879 3.97309C13.5112 3.7381 13.9783 3.98446 14.2352 4.15407C14.4968 4.32677 14.7996 4.59601 15.124 4.88448ZM13.7531 5.67693C13.8661 5.77382 14.0011 5.89333 14.1661 6.03996L18.1384 9.57088C18.9395 10.283 19.48 10.7658 19.8302 11.1773C20.1665 11.5725 20.2396 11.8033 20.2396 12C20.2396 12.1967 20.1665 12.4275 19.8302 12.8227C19.48 13.2342 18.9395 13.717 18.1384 14.429L14.1661 17.96C14.0011 18.1066 13.8661 18.2261 13.7531 18.323C13.7504 18.1741 13.75 17.9938 13.75 17.7731V15.4285C13.75 15.0143 13.4142 14.6785 13 14.6785C11.0874 14.6785 9.09995 15.1325 7.38398 15.9686C6.46516 16.4163 5.6098 16.981 4.88393 17.6568C5.25269 14.6098 6.34242 12.6439 7.6435 11.399C9.26355 9.84893 11.3104 9.32139 13 9.32139C13.4142 9.32139 13.75 8.98561 13.75 8.57139V6.22681C13.75 6.00611 13.7504 5.82581 13.7531 5.67693Z" fill="#020814"/>
</svg>
