<svg width="49" height="48" viewBox="0 0 49 48" fill="none" xmlns="http://www.w3.org/2000/svg">
    <circle cx="24.5" cy="24" r="24" fill="white"/>
    <path d="M36.3126 24.271C36.3126 23.481 36.2433 22.731 36.1246 22.001H24.9399V26.511H31.3439C31.0568 27.991 30.2155 29.241 28.9684 30.091V33.0909H32.789C35.0259 31.001 36.3126 27.921 36.3126 24.271Z" fill="#4285F4"/>
    <path d="M24.939 36C28.1459 36 30.8283 34.92 32.788 33.09L28.9675 30.09C27.8985 30.81 26.5425 31.25 24.939 31.25C21.841 31.25 19.218 29.14 18.2777 26.29H14.3384V29.38C16.2883 33.3 20.2969 36 24.939 36Z" fill="#34A853"/>
    <path d="M18.2787 26.2886C18.0312 25.5686 17.9026 24.7986 17.9026 23.9986C17.9026 23.1986 18.0411 22.4286 18.2787 21.7086V18.6187H14.3393C13.5277 20.2386 13.0625 22.0586 13.0625 23.9986C13.0625 25.9386 13.5277 27.7586 14.3393 29.3786L18.2787 26.2886Z" fill="#FBBC05"/>
    <path d="M24.939 16.75C26.6909 16.75 28.2548 17.36 29.492 18.55L32.8771 15.13C30.8283 13.19 28.1459 12 24.939 12C20.2969 12 16.2883 14.7 14.3384 18.62L18.2777 21.71C19.218 18.86 21.841 16.75 24.939 16.75Z" fill="#EA4335"/>
</svg>
