<svg width="32" height="32" viewBox="0 0 32 32" fill="none" xmlns="http://www.w3.org/2000/svg">
    <path d="M6.54545 1.45455C6.54545 0.651222 5.89423 0 5.09091 0C4.28759 0 3.63636 0.651222 3.63636 1.45455V3.63636H1.45455C0.651222 3.63636 0 4.28759 0 5.09091C0 5.89423 0.651222 6.54545 1.45455 6.54545H3.63636V8.72727C3.63636 9.5306 4.28759 10.1818 5.09091 10.1818C5.89423 10.1818 6.54545 9.5306 6.54545 8.72727V6.54545H8.72727C9.5306 6.54545 10.1818 5.89423 10.1818 5.09091C10.1818 4.28759 9.5306 3.63636 8.72727 3.63636H6.54545V1.45455Z" fill="url(#paint0_linear_2944_35453)"/>
    <path d="M6.54545 23.2727C6.54545 22.4694 5.89423 21.8182 5.09091 21.8182C4.28759 21.8182 3.63636 22.4694 3.63636 23.2727V25.4545H1.45455C0.651222 25.4545 0 26.1058 0 26.9091C0 27.7124 0.651222 28.3636 1.45455 28.3636H3.63636V30.5455C3.63636 31.3488 4.28759 32 5.09091 32C5.89423 32 6.54545 31.3488 6.54545 30.5455V28.3636H8.72727C9.5306 28.3636 10.1818 27.7124 10.1818 26.9091C10.1818 26.1058 9.5306 25.4545 8.72727 25.4545H6.54545V23.2727Z" fill="url(#paint1_linear_2944_35453)"/>
    <path d="M18.8121 2.38694C18.5961 1.82521 18.0564 1.45455 17.4545 1.45455C16.8527 1.45455 16.313 1.82521 16.097 2.38694L13.5745 8.94528C13.1376 10.0814 13.0003 10.4087 12.8124 10.6729C12.624 10.9379 12.3924 11.1694 12.1274 11.3579C11.8633 11.5457 11.5359 11.683 10.3998 12.12L3.84148 14.6424C3.27975 14.8585 2.90909 15.3982 2.90909 16C2.90909 16.6019 3.27975 17.1415 3.84148 17.3576L10.3998 19.88C11.5359 20.317 11.8633 20.4543 12.1274 20.6421C12.3924 20.8306 12.624 21.0621 12.8124 21.3271C13.0003 21.5913 13.1376 21.9186 13.5745 23.0547L16.097 29.6131C16.313 30.1748 16.8527 30.5455 17.4545 30.5455C18.0564 30.5455 18.5961 30.1748 18.8121 29.6131L21.3346 23.0547C21.7715 21.9186 21.9088 21.5913 22.0967 21.3271C22.2851 21.0621 22.5167 20.8306 22.7817 20.6421C23.0458 20.4543 23.3732 20.317 24.5093 19.88L31.0676 17.3576C31.6293 17.1415 32 16.6019 32 16C32 15.3982 31.6293 14.8585 31.0676 14.6424L24.5093 12.12C23.3732 11.683 23.0458 11.5457 22.7817 11.3579C22.5167 11.1694 22.2851 10.9379 22.0966 10.6729C21.9088 10.4087 21.7715 10.0814 21.3346 8.94528L18.8121 2.38694Z" fill="url(#paint2_linear_2944_35453)"/>
    <defs>
        <linearGradient id="paint0_linear_2944_35453" x1="70" y1="-15" x2="-6.5" y2="45.5" gradientUnits="userSpaceOnUse">
            <stop offset="0.167334" stop-color="#BC82F3"/>
            <stop offset="0.236537" stop-color="#F5B9EA"/>
            <stop offset="0.351842" stop-color="#8D99FF"/>
            <stop offset="0.58147" stop-color="#AA6EEE"/>
            <stop offset="0.696976" stop-color="#FF6778"/>
            <stop offset="0.809487" stop-color="#FFBA71"/>
            <stop offset="0.924051" stop-color="#C686FF"/>
        </linearGradient>
        <linearGradient id="paint1_linear_2944_35453" x1="70" y1="-15" x2="-6.5" y2="45.5" gradientUnits="userSpaceOnUse">
            <stop offset="0.167334" stop-color="#BC82F3"/>
            <stop offset="0.236537" stop-color="#F5B9EA"/>
            <stop offset="0.351842" stop-color="#8D99FF"/>
            <stop offset="0.58147" stop-color="#AA6EEE"/>
            <stop offset="0.696976" stop-color="#FF6778"/>
            <stop offset="0.809487" stop-color="#FFBA71"/>
            <stop offset="0.924051" stop-color="#C686FF"/>
        </linearGradient>
        <linearGradient id="paint2_linear_2944_35453" x1="70" y1="-15" x2="-6.5" y2="45.5" gradientUnits="userSpaceOnUse">
            <stop offset="0.167334" stop-color="#BC82F3"/>
            <stop offset="0.236537" stop-color="#F5B9EA"/>
            <stop offset="0.351842" stop-color="#8D99FF"/>
            <stop offset="0.58147" stop-color="#AA6EEE"/>
            <stop offset="0.696976" stop-color="#FF6778"/>
            <stop offset="0.809487" stop-color="#FFBA71"/>
            <stop offset="0.924051" stop-color="#C686FF"/>
        </linearGradient>
    </defs>
</svg>
