<svg width="20" height="20" viewBox="0 0 20 20" fill="none" xmlns="http://www.w3.org/2000/svg">
<path fill-rule="evenodd" clip-rule="evenodd" d="M18.3346 9.99996C18.3346 14.6023 14.6037 18.3333 10.0013 18.3333C5.39893 18.3333 1.66797 14.6023 1.66797 9.99996C1.66797 5.39759 5.39893 1.66663 10.0013 1.66663C14.6037 1.66663 18.3346 5.39759 18.3346 9.99996ZM13.3599 7.47468C13.604 7.71876 13.604 8.11449 13.3599 8.35857L9.19324 12.5252C8.94917 12.7693 8.55344 12.7693 8.30936 12.5252L6.64269 10.8586C6.39862 10.6145 6.39862 10.2188 6.64269 9.97468C6.88677 9.73061 7.2825 9.73061 7.52658 9.97468L8.7513 11.1994L10.6137 9.33705L12.476 7.47468C12.7201 7.23061 13.1158 7.23061 13.3599 7.47468Z" fill="#34C759"/>
</svg>
