<svg width="21" height="21" viewBox="0 0 21 21" fill="none" xmlns="http://www.w3.org/2000/svg">
<path d="M11.5822 1.764C11.2308 1.49075 11.0552 1.35412 10.8612 1.3016C10.6901 1.25526 10.5097 1.25526 10.3385 1.3016C10.1445 1.35412 9.96887 1.49075 9.61755 1.764L2.83524 7.03912C2.38187 7.39175 2.15519 7.56806 1.99188 7.78886C1.84722 7.98444 1.73945 8.20478 1.67388 8.43905C1.59985 8.70352 1.59985 8.9907 1.59985 9.56505V16.8C1.59985 17.9201 1.59985 18.4801 1.81784 18.908C2.00959 19.2843 2.31555 19.5903 2.69187 19.782C3.1197 20 3.67975 20 4.79985 20H6.79985C7.07988 20 7.21989 20 7.32685 19.9455C7.42093 19.8976 7.49742 19.8211 7.54536 19.727C7.59985 19.62 7.59985 19.48 7.59985 19.2V12.6C7.59985 12.0399 7.59985 11.7599 7.70885 11.546C7.80472 11.3578 7.9577 11.2049 8.14586 11.109C8.35977 11 8.6398 11 9.19985 11H11.9999C12.5599 11 12.8399 11 13.0538 11.109C13.242 11.2049 13.395 11.3578 13.4909 11.546C13.5999 11.7599 13.5999 12.0399 13.5999 12.6V19.2C13.5999 19.48 13.5999 19.62 13.6544 19.727C13.7023 19.8211 13.7788 19.8976 13.8729 19.9455C13.9798 20 14.1198 20 14.3999 20H16.3999C17.52 20 18.08 20 18.5078 19.782C18.8842 19.5903 19.1901 19.2843 19.3819 18.908C19.5999 18.4801 19.5999 17.9201 19.5999 16.8V9.56505C19.5999 8.9907 19.5999 8.70352 19.5258 8.43905C19.4603 8.20478 19.3525 7.98444 19.2078 7.78886C19.0445 7.56806 18.8178 7.39175 18.3645 7.03913L11.5822 1.764Z" stroke="#717680" stroke-width="2" stroke-linecap="round" stroke-linejoin="round"/>
</svg>
