<svg width="21" height="21" viewBox="0 0 21 21" fill="none" xmlns="http://www.w3.org/2000/svg">
<path fill-rule="evenodd" clip-rule="evenodd" d="M10.1772 0.336356C10.5195 0.243676 10.8802 0.243676 11.2225 0.336356C11.6199 0.443946 11.9545 0.706602 12.2215 0.916233C14.5248 2.72462 16.8426 4.51471 19.1561 6.31011C19.5327 6.6024 19.8645 6.8599 20.1118 7.19421C20.3288 7.48759 20.4904 7.8181 20.5888 8.1695C20.7009 8.56992 20.7004 8.98993 20.6999 9.46667C20.6973 11.924 20.6998 14.3813 20.6998 16.8386C20.6999 17.3657 20.6999 17.8204 20.6693 18.195C20.637 18.5904 20.5657 18.9836 20.3729 19.362C20.0852 19.9264 19.6263 20.3854 19.0618 20.673C18.6834 20.8658 18.2902 20.9371 17.8949 20.9694C17.0934 21.0349 16.2804 20.9996 15.4767 21C15.3576 21 15.2153 21.0001 15.09 20.9899C14.9448 20.978 14.7368 20.9475 14.5189 20.8365C14.2366 20.6927 14.0071 20.4632 13.8633 20.181C13.7523 19.963 13.7218 19.755 13.71 19.6098C13.6997 19.4845 13.6998 19.3422 13.6998 19.2231L13.7077 13.6269C13.7085 13.0661 13.7089 12.7857 13.6 12.5715C13.5042 12.3831 13.3512 12.2298 13.1629 12.1338C12.9489 12.0246 12.6685 12.0246 12.1077 12.0246H9.30786C8.74853 12.0246 8.46887 12.0246 8.25511 12.1334C8.06708 12.2291 7.91414 12.3818 7.81817 12.5697C7.70906 12.7833 7.70866 13.063 7.70786 13.6223L7.69985 19.2231C7.6999 19.3422 7.69995 19.4845 7.68971 19.6098C7.67785 19.755 7.64741 19.963 7.53636 20.181C7.39255 20.4632 7.16308 20.6927 6.88083 20.8365C6.66289 20.9475 6.45489 20.978 6.30968 20.9899C6.18436 21.0001 6.04211 21 5.923 21C5.11931 20.9996 4.30634 21.0349 3.50482 20.9694C3.10947 20.9371 2.71625 20.8658 2.33788 20.673C1.77339 20.3854 1.31445 19.9264 1.02683 19.362C0.834033 18.9836 0.762717 18.5904 0.730416 18.195C0.699812 17.8204 0.699828 17.3657 0.699846 16.8385C0.699846 14.3812 0.702433 11.9239 0.699776 9.46667C0.699261 8.98993 0.698807 8.56992 0.810888 8.1695C0.909249 7.8181 1.0709 7.48759 1.28789 7.19421C1.53514 6.85991 1.86696 6.6024 2.24359 6.31012C4.55702 4.51479 6.87495 2.72458 9.17823 0.916234C9.44524 0.706604 9.77978 0.443946 10.1772 0.336356Z" fill="#155EEF"/>
</svg>
