<svg width="20" height="20" viewBox="0 0 20 20" fill="none" xmlns="http://www.w3.org/2000/svg">
<path d="M14.8333 8.33333C15.7668 8.33333 16.2335 8.33333 16.59 8.15168C16.9036 7.99189 17.1586 7.73692 17.3183 7.42332C17.5 7.0668 17.5 6.60009 17.5 5.66667V5.16667C17.5 4.23325 17.5 3.76654 17.3183 3.41002C17.1586 3.09641 16.9036 2.84145 16.59 2.68166C16.2335 2.5 15.7668 2.5 14.8333 2.5L5.16667 2.5C4.23325 2.5 3.76654 2.5 3.41002 2.68166C3.09641 2.84144 2.84144 3.09641 2.68166 3.41002C2.5 3.76654 2.5 4.23325 2.5 5.16667L2.5 5.66667C2.5 6.60009 2.5 7.0668 2.68166 7.42332C2.84144 7.73692 3.09641 7.99189 3.41002 8.15168C3.76654 8.33333 4.23325 8.33333 5.16667 8.33333L14.8333 8.33333Z" stroke="#535862" stroke-width="1.66667" stroke-linecap="round" stroke-linejoin="round"/>
<path d="M14.8333 17.5C15.7668 17.5 16.2335 17.5 16.59 17.3183C16.9036 17.1586 17.1586 16.9036 17.3183 16.59C17.5 16.2335 17.5 15.7668 17.5 14.8333V14.3333C17.5 13.3999 17.5 12.9332 17.3183 12.5767C17.1586 12.2631 16.9036 12.0081 16.59 11.8483C16.2335 11.6667 15.7668 11.6667 14.8333 11.6667L5.16667 11.6667C4.23325 11.6667 3.76654 11.6667 3.41002 11.8483C3.09641 12.0081 2.84144 12.2631 2.68166 12.5767C2.5 12.9332 2.5 13.3999 2.5 14.3333L2.5 14.8333C2.5 15.7668 2.5 16.2335 2.68166 16.59C2.84144 16.9036 3.09641 17.1586 3.41002 17.3183C3.76654 17.5 4.23325 17.5 5.16667 17.5H14.8333Z" stroke="#535862" stroke-width="1.66667" stroke-linecap="round" stroke-linejoin="round"/>
</svg>
