<svg width="21" height="20" viewBox="0 0 21 20" fill="none" xmlns="http://www.w3.org/2000/svg">
<path d="M11.1667 4.16667C11.1667 5.08714 9.11464 5.83333 6.58333 5.83333C4.05203 5.83333 2 5.08714 2 4.16667M11.1667 4.16667C11.1667 3.24619 9.11464 2.5 6.58333 2.5C4.05203 2.5 2 3.24619 2 4.16667M11.1667 4.16667V5.41667M2 4.16667V14.1667C2 15.0871 4.05203 15.8333 6.58333 15.8333M6.58333 9.16667C6.44288 9.16667 6.3039 9.16437 6.16667 9.15987C3.83062 9.08332 2 8.3694 2 7.5M6.58333 12.5C4.05203 12.5 2 11.7538 2 10.8333M18.6667 9.58333C18.6667 10.5038 16.6146 11.25 14.0833 11.25C11.552 11.25 9.5 10.5038 9.5 9.58333M18.6667 9.58333C18.6667 8.66286 16.6146 7.91667 14.0833 7.91667C11.552 7.91667 9.5 8.66286 9.5 9.58333M18.6667 9.58333V15.8333C18.6667 16.7538 16.6146 17.5 14.0833 17.5C11.552 17.5 9.5 16.7538 9.5 15.8333V9.58333M18.6667 12.7083C18.6667 13.6288 16.6146 14.375 14.0833 14.375C11.552 14.375 9.5 13.6288 9.5 12.7083" stroke="#004EEB" stroke-width="1.66667" stroke-linecap="round" stroke-linejoin="round"/>
</svg>
