<svg width="13" height="12" viewBox="0 0 13 12" fill="none" xmlns="http://www.w3.org/2000/svg">
<path fill-rule="evenodd" clip-rule="evenodd" d="M7 1.00779C7 0.994638 7 0.988062 6.99943 0.976137C6.98764 0.729248 6.77052 0.51224 6.52363 0.50056C6.51171 0.499996 6.5078 0.499998 6.50001 0.5H4.87933C4.47686 0.499995 4.14468 0.49999 3.87409 0.522098C3.59304 0.545061 3.33469 0.594343 3.09202 0.717989C2.7157 0.909735 2.40973 1.2157 2.21799 1.59202C2.09434 1.83469 2.04506 2.09304 2.0221 2.37409C1.99999 2.64468 1.99999 2.97686 2 3.37934V8.62066C1.99999 9.02313 1.99999 9.35532 2.0221 9.62591C2.04506 9.90696 2.09434 10.1653 2.21799 10.408C2.40973 10.7843 2.7157 11.0903 3.09202 11.282C3.33469 11.4057 3.59304 11.4549 3.87409 11.4779C4.14468 11.5 4.47686 11.5 4.87934 11.5H8.12066C8.52314 11.5 8.85532 11.5 9.12591 11.4779C9.40696 11.4549 9.66531 11.4057 9.90798 11.282C10.2843 11.0903 10.5903 10.7843 10.782 10.408C10.9057 10.1653 10.9549 9.90696 10.9779 9.62591C11 9.35532 11 9.02314 11 8.62066V4.99997C11 4.9922 11 4.98832 10.9994 4.97641C10.9878 4.72949 10.7707 4.51236 10.5238 4.50057C10.5119 4.50001 10.5054 4.50001 10.4923 4.50001L8.28404 4.50001C8.15786 4.50002 8.03496 4.50004 7.93089 4.49153C7.81659 4.48219 7.68172 4.46016 7.54601 4.39101C7.35785 4.29514 7.20487 4.14216 7.109 3.954C7.03985 3.81828 7.01781 3.68342 7.00848 3.56912C6.99997 3.46504 6.99999 3.34215 7 3.21596L7 1.00779ZM8.60355 7.10355C8.79882 6.90829 8.79882 6.59171 8.60355 6.39645C8.40829 6.20118 8.09171 6.20118 7.89645 6.39645L6 8.29289L5.35355 7.64645C5.15829 7.45118 4.84171 7.45118 4.64645 7.64645C4.45118 7.84171 4.45118 8.15829 4.64645 8.35355L5.64645 9.35355C5.84171 9.54882 6.15829 9.54882 6.35355 9.35355L8.60355 7.10355Z" fill="#2E90FA"/>
<path d="M9.95398 3.5C10.1008 3.5 10.1742 3.5 10.2343 3.46314C10.3192 3.41107 10.37 3.28842 10.3467 3.19157C10.3303 3.12299 10.2824 3.07516 10.1866 2.97952L8.52049 1.31336C8.42484 1.21762 8.37701 1.16975 8.30843 1.15326C8.21158 1.12998 8.08893 1.18075 8.03687 1.26567C8 1.3258 8 1.39921 8 1.54602L8 3.09998C8 3.23999 8 3.30999 8.02725 3.36347C8.05122 3.41051 8.08946 3.44876 8.1365 3.47272C8.18998 3.49997 8.25998 3.49997 8.4 3.49998L9.95398 3.5Z" fill="#2E90FA"/>
</svg>
