<svg width="18" height="16" viewBox="0 0 18 16" fill="none" xmlns="http://www.w3.org/2000/svg">
<path d="M3.87305 15.3877C3.61914 15.3877 3.42627 15.3267 3.29443 15.2046C3.1626 15.0874 3.09424 14.9385 3.08936 14.7578C3.08447 14.582 3.14551 14.4087 3.27246 14.2378C3.38477 14.0962 3.51904 13.9131 3.67529 13.6885C3.83154 13.4688 3.98779 13.2368 4.14404 12.9927C4.30029 12.7485 4.43457 12.519 4.54688 12.3042C3.77539 11.9478 3.09912 11.4839 2.51807 10.9126C1.94189 10.3413 1.49268 9.69678 1.17041 8.979C0.853027 8.26123 0.694336 7.50195 0.694336 6.70117C0.694336 5.77832 0.906738 4.91406 1.33154 4.1084C1.76123 3.30273 2.35449 2.59717 3.11133 1.9917C3.87305 1.38135 4.75684 0.905273 5.7627 0.563477C6.76855 0.216797 7.84766 0.043457 9 0.043457C10.1523 0.043457 11.2314 0.216797 12.2373 0.563477C13.2432 0.905273 14.1245 1.38135 14.8813 1.9917C15.6431 2.59717 16.2363 3.30273 16.6611 4.1084C17.0908 4.91406 17.3057 5.77832 17.3057 6.70117C17.3057 7.46777 17.1592 8.19287 16.8662 8.87646C16.5781 9.55518 16.1655 10.1729 15.6284 10.7295C15.0962 11.2861 14.459 11.7646 13.7168 12.165C12.9795 12.5605 12.1592 12.8608 11.2559 13.0659C10.3525 13.271 9.39062 13.3589 8.37012 13.3296C7.87695 13.686 7.34473 14.0205 6.77344 14.333C6.20215 14.6455 5.65771 14.8994 5.14014 15.0947C4.62256 15.29 4.2002 15.3877 3.87305 15.3877ZM4.64209 14.1719C4.86182 14.0791 5.14014 13.9375 5.47705 13.7471C5.81396 13.5566 6.16309 13.3442 6.52441 13.1099C6.88574 12.8804 7.21533 12.6582 7.51318 12.4434C7.6499 12.3359 7.78174 12.2578 7.90869 12.209C8.04053 12.1553 8.18213 12.1284 8.3335 12.1284C8.47998 12.1333 8.60938 12.1382 8.72168 12.1431C8.83398 12.1431 8.92676 12.1431 9 12.1431C9.98633 12.1431 10.9092 12.0015 11.7686 11.7183C12.6279 11.4351 13.3799 11.0444 14.0244 10.5464C14.6738 10.0483 15.1816 9.46973 15.5479 8.81055C15.9141 8.15137 16.0972 7.44824 16.0972 6.70117C16.0972 5.94922 15.9141 5.24609 15.5479 4.5918C15.1816 3.93262 14.6738 3.354 14.0244 2.85596C13.3799 2.35303 12.6279 1.95996 11.7686 1.67676C10.9092 1.39355 9.98633 1.25195 9 1.25195C8.01367 1.25195 7.09082 1.39355 6.23145 1.67676C5.37207 1.95996 4.61768 2.35303 3.96826 2.85596C3.32373 3.354 2.81836 3.93262 2.45215 4.5918C2.09082 5.24609 1.91016 5.94922 1.91016 6.70117C1.91016 7.35059 2.05176 7.96826 2.33496 8.5542C2.61816 9.14014 3.02832 9.67725 3.56543 10.1655C4.10742 10.6489 4.76172 11.0688 5.52832 11.4253C5.7627 11.5376 5.89941 11.6743 5.93848 11.8354C5.97754 11.9966 5.9458 12.1724 5.84326 12.3628C5.71631 12.5972 5.52832 12.8804 5.2793 13.2124C5.03027 13.5493 4.80322 13.8447 4.59814 14.0986C4.57861 14.123 4.57373 14.1426 4.5835 14.1572C4.59326 14.1768 4.61279 14.1816 4.64209 14.1719ZM5.58691 7.8291C5.29395 7.8291 5.04248 7.72656 4.83252 7.52148C4.62744 7.31152 4.5249 7.06006 4.5249 6.76709C4.5249 6.47412 4.62744 6.2251 4.83252 6.02002C5.04248 5.81006 5.29395 5.70508 5.58691 5.70508C5.875 5.70508 6.12402 5.81006 6.33398 6.02002C6.54395 6.2251 6.64893 6.47412 6.64893 6.76709C6.64893 7.06006 6.54395 7.31152 6.33398 7.52148C6.12891 7.72656 5.87988 7.8291 5.58691 7.8291ZM9 7.8291C8.71191 7.8291 8.46289 7.72656 8.25293 7.52148C8.04785 7.31152 7.94531 7.06006 7.94531 6.76709C7.94531 6.47412 8.04785 6.2251 8.25293 6.02002C8.46289 5.81006 8.71191 5.70508 9 5.70508C9.29297 5.70508 9.54199 5.81006 9.74707 6.02002C9.95703 6.2251 10.062 6.47412 10.062 6.76709C10.062 7.06006 9.95703 7.31152 9.74707 7.52148C9.54199 7.72656 9.29297 7.8291 9 7.8291ZM12.4204 7.8291C12.1274 7.8291 11.876 7.72656 11.666 7.52148C11.4609 7.31152 11.3584 7.06006 11.3584 6.76709C11.3584 6.47412 11.4609 6.2251 11.666 6.02002C11.876 5.81006 12.1274 5.70508 12.4204 5.70508C12.7134 5.70508 12.9624 5.81006 13.1675 6.02002C13.3774 6.2251 13.4824 6.47412 13.4824 6.76709C13.4824 7.06006 13.3774 7.31152 13.1675 7.52148C12.9624 7.72656 12.7134 7.8291 12.4204 7.8291Z" fill="#007AFF"/>
</svg>
