<svg width="14" height="14" viewBox="0 0 14 14" fill="none" xmlns="http://www.w3.org/2000/svg">
<path d="M4.06934 8.10254C3.94238 8.10254 3.83659 8.06022 3.75195 7.97559C3.66732 7.89095 3.625 7.78516 3.625 7.6582C3.625 7.53548 3.66732 7.4318 3.75195 7.34717C3.83659 7.26253 3.94238 7.22021 4.06934 7.22021H6.94482V3.37988C6.94482 3.25716 6.98714 3.15348 7.07178 3.06885C7.15641 2.98421 7.26009 2.94189 7.38281 2.94189C7.50977 2.94189 7.61556 2.98421 7.7002 3.06885C7.78483 3.15348 7.82715 3.25716 7.82715 3.37988V7.6582C7.82715 7.78516 7.78483 7.89095 7.7002 7.97559C7.61556 8.06022 7.50977 8.10254 7.38281 8.10254H4.06934ZM7.38916 13.8916C6.49626 13.8916 5.65837 13.7223 4.87549 13.3838C4.09261 13.0495 3.40495 12.5861 2.8125 11.9937C2.22005 11.4012 1.75456 10.7135 1.41602 9.93066C1.08171 9.14779 0.914551 8.3099 0.914551 7.41699C0.914551 6.52409 1.08171 5.6862 1.41602 4.90332C1.75456 4.12044 2.22005 3.43278 2.8125 2.84033C3.40495 2.24365 4.09261 1.77816 4.87549 1.44385C5.65837 1.10954 6.49626 0.942383 7.38916 0.942383C8.28206 0.942383 9.11995 1.10954 9.90283 1.44385C10.6857 1.77816 11.3734 2.24365 11.9658 2.84033C12.5583 3.43278 13.0216 4.12044 13.356 4.90332C13.6945 5.6862 13.8638 6.52409 13.8638 7.41699C13.8638 8.3099 13.6945 9.14779 13.356 9.93066C13.0216 10.7135 12.5583 11.4012 11.9658 11.9937C11.3734 12.5861 10.6857 13.0495 9.90283 13.3838C9.11995 13.7223 8.28206 13.8916 7.38916 13.8916ZM7.38916 12.8125C8.13395 12.8125 8.83219 12.6729 9.48389 12.3936C10.1356 12.1143 10.709 11.7271 11.2041 11.2319C11.6992 10.7368 12.0864 10.1634 12.3657 9.51172C12.645 8.86003 12.7847 8.16178 12.7847 7.41699C12.7847 6.6722 12.645 5.97396 12.3657 5.32227C12.0864 4.66634 11.6992 4.09294 11.2041 3.60205C10.709 3.10693 10.1356 2.71973 9.48389 2.44043C8.83219 2.16113 8.13395 2.02148 7.38916 2.02148C6.64437 2.02148 5.94613 2.16113 5.29443 2.44043C4.64274 2.71973 4.06934 3.10693 3.57422 3.60205C3.0791 4.09294 2.69189 4.66634 2.4126 5.32227C2.1333 5.97396 1.99365 6.6722 1.99365 7.41699C1.99365 8.16178 2.1333 8.86003 2.4126 9.51172C2.69189 10.1634 3.0791 10.7368 3.57422 11.2319C4.06934 11.7271 4.64274 12.1143 5.29443 12.3936C5.94613 12.6729 6.64437 12.8125 7.38916 12.8125Z" fill="#3C3C43" fill-opacity="0.6"/>
</svg>
