<svg width="52" height="52" viewBox="0 0 52 52" fill="none" xmlns="http://www.w3.org/2000/svg">
<rect width="52" height="52" rx="8" fill="#E5E5EA"/>
<path fill-rule="evenodd" clip-rule="evenodd" d="M17.2929 17.2929C17.6834 16.9024 18.3166 16.9024 18.7071 17.2929L33 31.5858L33 22C33 21.4477 33.4477 21 34 21C34.5523 21 35 21.4477 35 22V34C35 34.5523 34.5523 35 34 35L22 35C21.4477 35 21 34.5523 21 34C21 33.4477 21.4477 33 22 33L31.5858 33L17.2929 18.7071C16.9024 18.3166 16.9024 17.6834 17.2929 17.2929Z" fill="#039855"/>
</svg>
