<svg width="40" height="40" viewBox="0 0 40 40" fill="none" xmlns="http://www.w3.org/2000/svg">
<path d="M33.3332 35C33.3332 32.6741 33.3332 31.5111 33.0461 30.5648C32.3998 28.4341 30.7324 26.7667 28.6017 26.1204C27.6554 25.8333 26.4924 25.8333 24.1665 25.8333H15.8332C13.5072 25.8333 12.3443 25.8333 11.3979 26.1204C9.26726 26.7667 7.5999 28.4341 6.95357 30.5648C6.6665 31.5111 6.6665 32.6741 6.6665 35M27.4998 12.5C27.4998 16.6421 24.142 20 19.9998 20C15.8577 20 12.4998 16.6421 12.4998 12.5C12.4998 8.35786 15.8577 5 19.9998 5C24.142 5 27.4998 8.35786 27.4998 12.5Z" stroke="#717680" stroke-width="3.33333" stroke-linecap="round" stroke-linejoin="round"/>
</svg>
