<svg width="52" height="52" viewBox="0 0 52 52" fill="none" xmlns="http://www.w3.org/2000/svg">
<rect width="52" height="52" rx="8" fill="#E5E5EA"/>
<path fill-rule="evenodd" clip-rule="evenodd" d="M25.0003 12.6666C25.0003 12.1143 25.448 11.6666 26.0003 11.6666C33.9164 11.6666 40.3337 18.0839 40.3337 26C40.3337 33.916 33.9164 40.3333 26.0003 40.3333C18.0842 40.3333 11.667 33.916 11.667 26C11.667 25.4477 12.1147 25 12.667 25C13.2193 25 13.667 25.4477 13.667 26C13.667 32.8115 19.1888 38.3333 26.0003 38.3333C32.8118 38.3333 38.3337 32.8115 38.3337 26C38.3337 19.1884 32.8118 13.6666 26.0003 13.6666C25.448 13.6666 25.0003 13.2189 25.0003 12.6666ZM26.0003 21C26.5526 21 27.0003 21.4477 27.0003 22V26.3333H31.3337C31.8859 26.3333 32.3337 26.781 32.3337 27.3333C32.3337 27.8856 31.8859 28.3333 31.3337 28.3333H26.0003C25.448 28.3333 25.0003 27.8856 25.0003 27.3333V22C25.0003 21.4477 25.448 21 26.0003 21Z" fill="#FF9500"/>
<path fill-rule="evenodd" clip-rule="evenodd" d="M22.1331 13.1967C22.332 13.7119 22.0755 14.2908 21.5603 14.4897C21.3717 14.5625 21.1854 14.6398 21.0014 14.7215C20.4966 14.9456 19.9057 14.718 19.6817 14.2133C19.4576 13.7085 19.6851 13.1176 20.1899 12.8935C20.4039 12.7985 20.6207 12.7086 20.8401 12.6239C21.3553 12.425 21.9342 12.6814 22.1331 13.1967ZM17.5306 15.6536C17.9115 16.0536 17.896 16.6866 17.4961 17.0674C17.3499 17.2067 17.2071 17.3495 17.0678 17.4957C16.6869 17.8957 16.0539 17.9111 15.654 17.5302C15.2541 17.1493 15.2386 16.5164 15.6195 16.1164C15.7812 15.9467 15.947 15.7808 16.1168 15.6192C16.5167 15.2383 17.1497 15.2537 17.5306 15.6536ZM14.2136 19.6813C14.7184 19.9054 14.9459 20.4962 14.7219 21.001C14.6402 21.185 14.5629 21.3714 14.4901 21.5599C14.2912 22.0752 13.7123 22.3316 13.197 22.1327C12.6818 21.9338 12.4254 21.3549 12.6243 20.8397C12.709 20.6203 12.7989 20.4035 12.8939 20.1895C13.118 19.6847 13.7088 19.4572 14.2136 19.6813Z" fill="#FF9500"/>
</svg>
