<svg width="14" height="13" viewBox="0 0 14 13" fill="none" xmlns="http://www.w3.org/2000/svg">
    <path d="M2.71729 12.2695C2.0529 12.2695 1.55355 12.1045 1.21924 11.7744C0.88916 11.4486 0.724121 10.9577 0.724121 10.3018V2.55127C0.724121 1.89535 0.88916 1.40446 1.21924 1.07861C1.55355 0.748535 2.0529 0.583496 2.71729 0.583496H11.3882C12.0526 0.583496 12.5498 0.748535 12.8799 1.07861C13.21 1.40446 13.375 1.89535 13.375 2.55127V10.3018C13.375 10.9577 13.21 11.4486 12.8799 11.7744C12.5498 12.1045 12.0526 12.2695 11.3882 12.2695H2.71729ZM2.62207 11.2476H11.4707C11.7542 11.2476 11.9722 11.1714 12.1245 11.019C12.2769 10.8709 12.353 10.6509 12.353 10.3589V4.37305C12.353 4.08105 12.2769 3.861 12.1245 3.71289C11.9722 3.56055 11.7542 3.48438 11.4707 3.48438H2.62207C2.34277 3.48438 2.12695 3.56055 1.97461 3.71289C1.82227 3.861 1.74609 4.08105 1.74609 4.37305V10.3589C1.74609 10.6509 1.82227 10.8709 1.97461 11.019C2.12695 11.1714 2.34277 11.2476 2.62207 11.2476ZM5.81494 5.76953C5.70492 5.76953 5.62663 5.74837 5.58008 5.70605C5.53776 5.66374 5.5166 5.58757 5.5166 5.47754V5.10303C5.5166 4.993 5.53776 4.91895 5.58008 4.88086C5.62663 4.83854 5.70492 4.81738 5.81494 4.81738H6.18945C6.29948 4.81738 6.37565 4.83854 6.41797 4.88086C6.46452 4.91895 6.48779 4.993 6.48779 5.10303V5.47754C6.48779 5.58757 6.46452 5.66374 6.41797 5.70605C6.37565 5.74837 6.29948 5.76953 6.18945 5.76953H5.81494ZM7.92236 5.76953C7.81234 5.76953 7.73617 5.74837 7.69385 5.70605C7.65153 5.66374 7.63037 5.58757 7.63037 5.47754V5.10303C7.63037 4.993 7.65153 4.91895 7.69385 4.88086C7.73617 4.83854 7.81234 4.81738 7.92236 4.81738H8.29688C8.41113 4.81738 8.48942 4.83854 8.53174 4.88086C8.57406 4.91895 8.59521 4.993 8.59521 5.10303V5.47754C8.59521 5.58757 8.57406 5.66374 8.53174 5.70605C8.48942 5.74837 8.41113 5.76953 8.29688 5.76953H7.92236ZM10.0361 5.76953C9.92188 5.76953 9.84359 5.74837 9.80127 5.70605C9.75895 5.66374 9.73779 5.58757 9.73779 5.47754V5.10303C9.73779 4.993 9.75895 4.91895 9.80127 4.88086C9.84359 4.83854 9.92188 4.81738 10.0361 4.81738H10.4043C10.5186 4.81738 10.5968 4.83854 10.6392 4.88086C10.6815 4.91895 10.7026 4.993 10.7026 5.10303V5.47754C10.7026 5.58757 10.6815 5.66374 10.6392 5.70605C10.5968 5.74837 10.5186 5.76953 10.4043 5.76953H10.0361ZM3.70752 7.84521C3.59326 7.84521 3.51497 7.82406 3.47266 7.78174C3.43034 7.73942 3.40918 7.66325 3.40918 7.55322V7.18506C3.40918 7.0708 3.43034 6.99463 3.47266 6.95654C3.51497 6.91423 3.59326 6.89307 3.70752 6.89307H4.08203C4.19206 6.89307 4.26823 6.91423 4.31055 6.95654C4.35286 6.99463 4.37402 7.0708 4.37402 7.18506V7.55322C4.37402 7.66325 4.35286 7.73942 4.31055 7.78174C4.26823 7.82406 4.19206 7.84521 4.08203 7.84521H3.70752ZM5.81494 7.84521C5.70492 7.84521 5.62663 7.82406 5.58008 7.78174C5.53776 7.73942 5.5166 7.66325 5.5166 7.55322V7.18506C5.5166 7.0708 5.53776 6.99463 5.58008 6.95654C5.62663 6.91423 5.70492 6.89307 5.81494 6.89307H6.18945C6.29948 6.89307 6.37565 6.91423 6.41797 6.95654C6.46452 6.99463 6.48779 7.0708 6.48779 7.18506V7.55322C6.48779 7.66325 6.46452 7.73942 6.41797 7.78174C6.37565 7.82406 6.29948 7.84521 6.18945 7.84521H5.81494ZM7.92236 7.84521C7.81234 7.84521 7.73617 7.82406 7.69385 7.78174C7.65153 7.73942 7.63037 7.66325 7.63037 7.55322V7.18506C7.63037 7.0708 7.65153 6.99463 7.69385 6.95654C7.73617 6.91423 7.81234 6.89307 7.92236 6.89307H8.29688C8.41113 6.89307 8.48942 6.91423 8.53174 6.95654C8.57406 6.99463 8.59521 7.0708 8.59521 7.18506V7.55322C8.59521 7.66325 8.57406 7.73942 8.53174 7.78174C8.48942 7.82406 8.41113 7.84521 8.29688 7.84521H7.92236ZM10.0361 7.84521C9.92188 7.84521 9.84359 7.82406 9.80127 7.78174C9.75895 7.73942 9.73779 7.66325 9.73779 7.55322V7.18506C9.73779 7.0708 9.75895 6.99463 9.80127 6.95654C9.84359 6.91423 9.92188 6.89307 10.0361 6.89307H10.4043C10.5186 6.89307 10.5968 6.91423 10.6392 6.95654C10.6815 6.99463 10.7026 7.0708 10.7026 7.18506V7.55322C10.7026 7.66325 10.6815 7.73942 10.6392 7.78174C10.5968 7.82406 10.5186 7.84521 10.4043 7.84521H10.0361ZM3.70752 9.9209C3.59326 9.9209 3.51497 9.90186 3.47266 9.86377C3.43034 9.82145 3.40918 9.74316 3.40918 9.62891V9.26074C3.40918 9.14648 3.43034 9.07031 3.47266 9.03223C3.51497 8.98991 3.59326 8.96875 3.70752 8.96875H4.08203C4.19206 8.96875 4.26823 8.98991 4.31055 9.03223C4.35286 9.07031 4.37402 9.14648 4.37402 9.26074V9.62891C4.37402 9.74316 4.35286 9.82145 4.31055 9.86377C4.26823 9.90186 4.19206 9.9209 4.08203 9.9209H3.70752ZM5.81494 9.9209C5.70492 9.9209 5.62663 9.90186 5.58008 9.86377C5.53776 9.82145 5.5166 9.74316 5.5166 9.62891V9.26074C5.5166 9.14648 5.53776 9.07031 5.58008 9.03223C5.62663 8.98991 5.70492 8.96875 5.81494 8.96875H6.18945C6.29948 8.96875 6.37565 8.98991 6.41797 9.03223C6.46452 9.07031 6.48779 9.14648 6.48779 9.26074V9.62891C6.48779 9.74316 6.46452 9.82145 6.41797 9.86377C6.37565 9.90186 6.29948 9.9209 6.18945 9.9209H5.81494ZM7.92236 9.9209C7.81234 9.9209 7.73617 9.90186 7.69385 9.86377C7.65153 9.82145 7.63037 9.74316 7.63037 9.62891V9.26074C7.63037 9.14648 7.65153 9.07031 7.69385 9.03223C7.73617 8.98991 7.81234 8.96875 7.92236 8.96875H8.29688C8.41113 8.96875 8.48942 8.98991 8.53174 9.03223C8.57406 9.07031 8.59521 9.14648 8.59521 9.26074V9.62891C8.59521 9.74316 8.57406 9.82145 8.53174 9.86377C8.48942 9.90186 8.41113 9.9209 8.29688 9.9209H7.92236Z" fill="#3C3C43" fill-opacity="0.6"/>
</svg>
