<svg width="14" height="15" viewBox="0 0 14 15" fill="none" xmlns="http://www.w3.org/2000/svg">
<path d="M4.66675 5.16675H4.67258M1.16675 3.53341L1.16675 6.14355C1.16675 6.4289 1.16675 6.57158 1.19898 6.70585C1.22756 6.82489 1.2747 6.9387 1.33867 7.04308C1.41082 7.16082 1.5117 7.2617 1.71348 7.46348L6.18685 11.9368C6.87988 12.6299 7.22639 12.9764 7.62597 13.1062C7.97744 13.2204 8.35605 13.2204 8.70753 13.1062C9.1071 12.9764 9.45362 12.6299 10.1466 11.9368L11.4368 10.6466C12.1299 9.95362 12.4764 9.6071 12.6062 9.20753C12.7204 8.85605 12.7204 8.47744 12.6062 8.12597C12.4764 7.72639 12.1299 7.37988 11.4368 6.68685L6.96348 2.21348C6.7617 2.01171 6.66082 1.91082 6.54308 1.83867C6.4387 1.7747 6.32489 1.72756 6.20585 1.69898C6.07158 1.66675 5.9289 1.66675 5.64355 1.66675L3.03342 1.66675C2.38002 1.66675 2.05332 1.66675 1.80376 1.79391C1.58424 1.90576 1.40576 2.08424 1.29391 2.30376C1.16675 2.55332 1.16675 2.88002 1.16675 3.53341ZM4.95842 5.16675C4.95842 5.32783 4.82783 5.45841 4.66675 5.45841C4.50567 5.45841 4.37508 5.32783 4.37508 5.16675C4.37508 5.00566 4.50567 4.87508 4.66675 4.87508C4.82783 4.87508 4.95842 5.00566 4.95842 5.16675Z" stroke="#717680" stroke-width="1.16667" stroke-linecap="round" stroke-linejoin="round"/>
</svg>
