<svg width="27" height="22" viewBox="0 0 27 22" fill="none" xmlns="http://www.w3.org/2000/svg">
<path d="M3.896 21.9307C2.87223 21.9307 2.09749 21.6706 1.57178 21.1504C1.04606 20.6357 0.783203 19.8693 0.783203 18.8511V7.78613C0.783203 6.95605 0.963053 6.29476 1.32275 5.80225C1.68799 5.3042 2.24967 4.9445 3.00781 4.72314L17.0361 0.722168C17.7887 0.511882 18.4528 0.462077 19.0283 0.572754C19.6094 0.683431 20.0632 0.962891 20.3896 1.41113C20.7217 1.85384 20.8877 2.46257 20.8877 3.2373V5.22119L19.3936 5.3374V3.12109C19.3936 2.62305 19.2469 2.26888 18.9536 2.05859C18.6603 1.84831 18.237 1.8234 17.6836 1.98389L8.51123 4.49072C8.41715 4.51286 8.37288 4.55436 8.37842 4.61523C8.38949 4.67611 8.43929 4.70654 8.52783 4.70654H21.2612C22.2961 4.70654 23.0736 4.96663 23.5938 5.48682C24.1139 6.007 24.374 6.77344 24.374 7.78613V10.4258H22.8882V7.86084C22.8882 7.30745 22.7443 6.88965 22.4565 6.60742C22.1688 6.3252 21.762 6.18408 21.2363 6.18408H3.9209C3.38411 6.18408 2.97461 6.3252 2.69238 6.60742C2.41016 6.88965 2.26904 7.30745 2.26904 7.86084V18.7764C2.26904 19.3298 2.41016 19.7448 2.69238 20.0215C2.97461 20.3037 3.38411 20.4448 3.9209 20.4448H21.2363C21.762 20.4448 22.1688 20.3037 22.4565 20.0215C22.7443 19.7448 22.8882 19.3298 22.8882 18.7764V15.9043H24.374V18.8511C24.374 19.8638 24.1139 20.6302 23.5938 21.1504C23.0736 21.6706 22.2961 21.9307 21.2612 21.9307H3.896ZM20.207 14.4102C19.8971 14.4102 19.6315 14.3022 19.4102 14.0864C19.1943 13.8706 19.0864 13.6077 19.0864 13.2979C19.0864 12.988 19.1943 12.7251 19.4102 12.5093C19.6315 12.2935 19.8971 12.1855 20.207 12.1855C20.5114 12.1855 20.7715 12.2935 20.9873 12.5093C21.2087 12.7251 21.3193 12.988 21.3193 13.2979C21.3193 13.6077 21.2087 13.8706 20.9873 14.0864C20.7715 14.3022 20.5114 14.4102 20.207 14.4102ZM20.2485 16.6597C19.507 16.6597 18.8595 16.5352 18.3062 16.2861C17.7583 16.0316 17.3322 15.658 17.0278 15.1655C16.729 14.6675 16.5796 14.0477 16.5796 13.3062C16.5796 12.5646 16.729 11.9448 17.0278 11.4468C17.3322 10.9487 17.7583 10.5752 18.3062 10.3262C18.8595 10.0771 19.507 9.95264 20.2485 9.95264H24.1084C24.7559 9.95264 25.2677 10.1491 25.644 10.542C26.0203 10.9349 26.2085 11.4385 26.2085 12.0527V14.5596C26.2085 15.1738 26.0203 15.6774 25.644 16.0703C25.2677 16.4632 24.7559 16.6597 24.1084 16.6597H20.2485ZM20.3315 15.4146H23.8428C24.2135 15.4146 24.493 15.3149 24.6812 15.1157C24.8693 14.9165 24.9634 14.6426 24.9634 14.2939V12.3184C24.9634 11.9642 24.8693 11.6903 24.6812 11.4966C24.493 11.2974 24.2135 11.1978 23.8428 11.1978H20.3315C19.5181 11.1978 18.9066 11.3831 18.4971 11.7539C18.0931 12.1247 17.8911 12.6421 17.8911 13.3062C17.8911 13.9647 18.0931 14.4821 18.4971 14.8584C18.9066 15.2292 19.5181 15.4146 20.3315 15.4146Z" fill="#7F7F7F"/>
</svg>
