<svg width="21" height="20" viewBox="0 0 21 20" fill="none" xmlns="http://www.w3.org/2000/svg">
<path d="M3.25 6.66669L13.25 6.66669M13.25 6.66669C13.25 8.0474 14.3693 9.16669 15.75 9.16669C17.1307 9.16669 18.25 8.0474 18.25 6.66669C18.25 5.28598 17.1307 4.16669 15.75 4.16669C14.3693 4.16669 13.25 5.28598 13.25 6.66669ZM8.25 13.3334L18.25 13.3334M8.25 13.3334C8.25 14.7141 7.13071 15.8334 5.75 15.8334C4.36929 15.8334 3.25 14.7141 3.25 13.3334C3.25 11.9526 4.36929 10.8334 5.75 10.8334C7.13071 10.8334 8.25 11.9526 8.25 13.3334Z" stroke="#535862" stroke-width="1.66667" stroke-linecap="round" stroke-linejoin="round"/>
</svg>
