<svg width="24" height="23" viewBox="0 0 24 23" fill="none" xmlns="http://www.w3.org/2000/svg">
<path d="M4.75342 22.3164C4.55973 22.1725 4.44076 21.9788 4.39648 21.7354C4.35775 21.4919 4.39648 21.1958 4.5127 20.8472L6.77881 14.0571L0.959961 9.87354C0.666667 9.66325 0.461914 9.44743 0.345703 9.22607C0.235026 9.00472 0.218424 8.77783 0.295898 8.54541C0.367839 8.31852 0.514486 8.14697 0.73584 8.03076C0.957194 7.91455 1.25049 7.85921 1.61572 7.86475L8.7627 7.90625L10.9458 1.08301C11.0565 0.734375 11.1976 0.474284 11.3691 0.302734C11.5462 0.125651 11.7565 0.0371094 12 0.0371094C12.2435 0.0371094 12.451 0.125651 12.6226 0.302734C12.7941 0.474284 12.938 0.734375 13.0542 1.08301L15.229 7.90625L22.376 7.86475C22.7467 7.85921 23.04 7.91455 23.2559 8.03076C23.4772 8.14697 23.6266 8.31852 23.7041 8.54541C23.7816 8.77783 23.7622 9.00472 23.646 9.22607C23.5353 9.44743 23.3306 9.66325 23.0317 9.87354L17.2129 14.0571L19.479 20.8472C19.6007 21.1958 19.6395 21.4919 19.5952 21.7354C19.5509 21.9788 19.4347 22.1725 19.2466 22.3164C19.0474 22.4603 18.826 22.5101 18.5825 22.4658C18.339 22.4271 18.0679 22.2998 17.769 22.084L12 17.8506L6.22266 22.084C5.92383 22.2998 5.65267 22.4271 5.40918 22.4658C5.16569 22.5101 4.9471 22.4603 4.75342 22.3164ZM6.04834 20.54C6.06494 20.5622 6.10091 20.5539 6.15625 20.5151L11.5103 16.4644C11.6652 16.3426 11.8257 16.2817 11.9917 16.2817C12.1632 16.2817 12.3293 16.3426 12.4897 16.4644L17.8354 20.5151C17.8963 20.5539 17.9351 20.5622 17.9517 20.54C17.9627 20.529 17.96 20.493 17.9434 20.4321L15.7686 14.082C15.7243 13.9548 15.7049 13.8358 15.7104 13.7251C15.716 13.6144 15.7464 13.512 15.8018 13.418C15.8571 13.3239 15.9429 13.2381 16.0591 13.1606L21.5542 9.31738C21.6095 9.27865 21.6317 9.24821 21.6206 9.22607C21.6151 9.20394 21.5791 9.19287 21.5127 9.19287L14.7974 9.28418C14.5981 9.28971 14.4349 9.24821 14.3076 9.15967C14.1803 9.07113 14.0835 8.93001 14.0171 8.73633L12.0664 2.31982C12.0498 2.25342 12.0277 2.22021 12 2.22021C11.9723 2.22021 11.9474 2.25342 11.9253 2.31982L9.97461 8.73633C9.91374 8.93001 9.81689 9.07113 9.68408 9.15967C9.5568 9.24821 9.39355 9.28971 9.19434 9.28418L2.4873 9.19287C2.4209 9.19287 2.38216 9.20394 2.37109 9.22607C2.36003 9.24821 2.38216 9.27865 2.4375 9.31738L7.94092 13.1606C8.0516 13.2381 8.1346 13.3239 8.18994 13.418C8.25081 13.512 8.28125 13.6144 8.28125 13.7251C8.28678 13.8358 8.26742 13.9548 8.22314 14.082L6.04834 20.4321C6.03174 20.493 6.03174 20.529 6.04834 20.54Z" fill="#7F7F7F"/>
</svg>
