<svg width="31" height="31" viewBox="0 0 31 31" fill="none" xmlns="http://www.w3.org/2000/svg">
<path fill-rule="evenodd" clip-rule="evenodd" d="M10.5 8.26697C8.42893 8.26697 6.75 9.9459 6.75 12.017C6.75 14.088 8.42893 15.767 10.5 15.767C12.5711 15.767 14.25 14.088 14.25 12.017C14.25 9.9459 12.5711 8.26697 10.5 8.26697Z" fill="#155EEF"/>
<path fill-rule="evenodd" clip-rule="evenodd" d="M22.0516 3.26697H8.94838C7.94217 3.26695 7.11171 3.26694 6.43522 3.32221C5.7326 3.37962 5.08672 3.50282 4.48005 3.81194C3.53924 4.2913 2.77434 5.05621 2.29497 5.99702C1.98586 6.60369 1.86265 7.24957 1.80524 7.95219C1.74997 8.62868 1.74999 9.45912 1.75 10.4653V21.0686C1.74999 22.0748 1.74997 22.9053 1.80524 23.5818C1.86265 24.2844 1.98586 24.9303 2.29497 25.5369C2.77434 26.4777 3.53924 27.2426 4.48005 27.722C5.08672 28.0311 5.7326 28.1543 6.43522 28.2117C6.58358 28.2238 6.73935 28.2333 6.90275 28.2407C6.9122 28.2416 6.92132 28.2424 6.9301 28.2432C7.19756 28.2669 7.52976 28.2668 7.86773 28.2668L8.50063 28.2668C8.64584 28.267 8.79505 28.267 8.94835 28.267H22.0517C22.2038 28.267 22.3519 28.267 22.496 28.2668H23.1324C23.4704 28.2668 23.8026 28.2669 24.07 28.2432C24.0789 28.2424 24.088 28.2416 24.0975 28.2407C24.2608 28.2333 24.4165 28.2238 24.5648 28.2117C25.2674 28.1543 25.9133 28.0311 26.52 27.722C27.4608 27.2426 28.2257 26.4777 28.705 25.5369C29.0141 24.9303 29.1374 24.2844 29.1948 23.5818C29.25 22.9053 29.25 22.0748 29.25 21.0686V19.518V19.5156V10.4653C29.25 9.45912 29.25 8.62867 29.1948 7.95219C29.1374 7.24957 29.0141 6.60369 28.705 5.99702C28.2257 5.05621 27.4608 4.2913 26.52 3.81194C25.9133 3.50282 25.2674 3.37962 24.5648 3.32221C23.8883 3.26694 23.0578 3.26695 22.0516 3.26697ZM26.75 16.499V10.517C26.75 9.44625 26.749 8.71838 26.7031 8.15577C26.6583 7.60775 26.5771 7.32749 26.4775 7.13199C26.2378 6.66159 25.8554 6.27914 25.385 6.03945C25.1895 5.93984 24.9092 5.85868 24.3612 5.81391C23.7986 5.76794 23.0707 5.76697 22 5.76697H9C7.92928 5.76697 7.20141 5.76794 6.6388 5.81391C6.09078 5.85868 5.81052 5.93984 5.61503 6.03945C5.14462 6.27914 4.76217 6.66159 4.52249 7.13199C4.42287 7.32749 4.34172 7.60775 4.29694 8.15577C4.25097 8.71838 4.25 9.44624 4.25 10.517V21.017C4.25 22.0877 4.25097 22.8156 4.29694 23.3782C4.34172 23.9262 4.42287 24.2064 4.52249 24.4019C4.7328 24.8147 5.05303 25.1598 5.44616 25.4C5.51902 25.29 5.59081 25.202 5.64406 25.1384C5.81641 24.9325 6.05133 24.6977 6.29033 24.4587L13.2302 17.5189C13.4532 17.2958 13.6704 17.0785 13.8695 16.9096C14.088 16.724 14.3654 16.5246 14.7275 16.4069C15.2296 16.2438 15.7705 16.2438 16.2726 16.4069C16.6348 16.5246 16.9121 16.724 17.1307 16.9096C17.3297 17.0785 17.5469 17.2958 17.77 17.5189L18 17.749L20.7301 15.0189C20.9531 14.7958 21.1704 14.5785 21.3694 14.4096C21.5879 14.224 21.8653 14.0246 22.2275 13.9069C22.7296 13.7438 23.2704 13.7438 23.7725 13.9069C24.1347 14.0246 24.4121 14.224 24.6306 14.4096C24.8296 14.5785 25.0469 14.7958 25.2699 15.0189L26.75 16.499Z" fill="#155EEF"/>
</svg>
