<svg width="427" height="427" viewBox="0 0 427 427" fill="none" xmlns="http://www.w3.org/2000/svg">
<path d="M414.293 362.88L414.72 363.307C420.48 350.72 424.106 336.427 425.6 320.64C424.106 336.213 420.053 350.293 414.293 362.88ZM277.333 178.773C263.867 178.773 250.953 173.424 241.431 163.902C231.909 154.38 226.56 141.466 226.56 128C226.56 114.534 231.909 101.62 241.431 92.0977C250.953 82.5759 263.867 77.2266 277.333 77.2266C290.799 77.2266 303.713 82.5759 313.235 92.0977C322.757 101.62 328.106 114.534 328.106 128C328.106 141.466 322.757 154.38 313.235 163.902C303.713 173.424 290.799 178.773 277.333 178.773Z" fill="black"/>
<path d="M123.946 0H302.72C380.373 0 426.667 46.2933 426.667 123.947V302.72C426.667 325.973 422.613 346.24 414.72 363.307C396.373 403.84 357.12 426.667 302.72 426.667H123.946C46.2931 426.667 -0.000175476 380.373 -0.000175476 302.72V123.947C-0.000175476 46.2933 46.2931 0 123.946 0ZM34.7731 224C51.4131 209.707 78.2932 209.707 94.9332 224L183.68 300.16C200.32 314.453 227.2 314.453 243.84 300.16L251.093 294.187C266.24 280.96 290.346 279.68 307.413 291.2L387.2 344.747C391.893 332.8 394.667 318.933 394.667 302.72V123.947C394.667 63.7867 362.88 32 302.72 32H123.946C63.7865 32 31.9998 63.7867 31.9998 123.947V226.347L34.7731 224Z" fill="black"/>
</svg>
