<svg width="32" height="32" viewBox="0 0 32 32" fill="none" xmlns="http://www.w3.org/2000/svg">
<path d="M0 16C0 7.16344 7.16344 0 16 0C24.8366 0 32 7.16344 32 16C32 24.8366 24.8366 32 16 32C7.16344 32 0 24.8366 0 16Z" fill="#D1E9FF"/>
<path d="M13.9987 20.3335H17.9987M12.3987 9.3335H19.5987C19.9721 9.3335 20.1588 9.3335 20.3014 9.40616C20.4268 9.47007 20.5288 9.57206 20.5927 9.6975C20.6654 9.84011 20.6654 10.0268 20.6654 10.4002V11.7832C20.6654 12.1093 20.6654 12.2724 20.6285 12.4258C20.5959 12.5619 20.542 12.6919 20.4689 12.8112C20.3864 12.9458 20.2711 13.0611 20.0405 13.2917L18.0863 15.2459C17.8223 15.5099 17.6903 15.6419 17.6408 15.7942C17.5973 15.928 17.5973 16.0723 17.6408 16.2062C17.6903 16.3584 17.8223 16.4904 18.0863 16.7544L20.0405 18.7087C20.2711 18.9393 20.3864 19.0546 20.4689 19.1891C20.542 19.3084 20.5959 19.4385 20.6285 19.5745C20.6654 19.728 20.6654 19.891 20.6654 20.2172V21.6002C20.6654 21.9735 20.6654 22.1602 20.5927 22.3028C20.5288 22.4283 20.4268 22.5303 20.3014 22.5942C20.1588 22.6668 19.9721 22.6668 19.5987 22.6668H12.3987C12.0253 22.6668 11.8386 22.6668 11.696 22.5942C11.5706 22.5303 11.4686 22.4283 11.4047 22.3028C11.332 22.1602 11.332 21.9735 11.332 21.6002V20.2172C11.332 19.891 11.332 19.728 11.3689 19.5745C11.4015 19.4385 11.4554 19.3084 11.5285 19.1891C11.611 19.0546 11.7263 18.9393 11.9569 18.7087L13.9111 16.7544C14.1751 16.4904 14.3071 16.3584 14.3566 16.2062C14.4001 16.0723 14.4001 15.928 14.3566 15.7942C14.3071 15.6419 14.1751 15.5099 13.9111 15.2459L11.9569 13.2917C11.7263 13.0611 11.611 12.9458 11.5285 12.8112C11.4554 12.6919 11.4015 12.5619 11.3689 12.4258C11.332 12.2724 11.332 12.1093 11.332 11.7832V10.4002C11.332 10.0268 11.332 9.84011 11.4047 9.6975C11.4686 9.57206 11.5706 9.47007 11.696 9.40616C11.8386 9.3335 12.0253 9.3335 12.3987 9.3335Z" stroke="#1570EF" stroke-width="1.33333" stroke-linecap="round" stroke-linejoin="round"/>
</svg>
