<svg width="32" height="32" viewBox="0 0 32 32" fill="none" xmlns="http://www.w3.org/2000/svg">
    <path d="M16.0364 0H15.9636C7.14713 0 0 7.14713 0 15.9636V16.0364C0 24.8529 7.14713 32 15.9636 32H16.0364C24.8529 32 32 24.8529 32 16.0364V15.9636C32 7.14713 24.8529 0 16.0364 0Z" fill="url(#paint0_linear_8560_4903)"/>
    <path d="M20.952 6.51025H11.0503C8.31477 6.51025 6.08936 8.73567 6.08936 11.4712V20.5298C6.08936 23.2653 8.31477 25.4907 11.0503 25.4907H20.952C23.6875 25.4907 25.9129 23.2653 25.9129 20.5298V11.4712C25.9129 8.73567 23.6875 6.51025 20.952 6.51025ZM7.83942 11.4712C7.83942 9.70095 9.28005 8.26032 11.0503 8.26032H20.952C22.7222 8.26032 24.1629 9.70095 24.1629 11.4712V20.5298C24.1629 22.3 22.7222 23.7407 20.952 23.7407H11.0503C9.28005 23.7407 7.83942 22.3 7.83942 20.5298V11.4712Z" fill="white"/>
    <path d="M16.0017 20.6138C18.5455 20.6138 20.6162 18.5442 20.6162 15.9993C20.6162 13.4543 18.5467 11.3848 16.0017 11.3848C13.4568 11.3848 11.3872 13.4543 11.3872 15.9993C11.3872 18.5442 13.4568 20.6138 16.0017 20.6138ZM16.0017 13.1359C17.5814 13.1359 18.8662 14.4207 18.8662 16.0004C18.8662 17.5801 17.5814 18.8648 16.0017 18.8648C14.4221 18.8648 13.1373 17.5801 13.1373 16.0004C13.1373 14.4207 14.4221 13.1359 16.0017 13.1359Z" fill="white"/>
    <path d="M21.0426 12.1302C21.7276 12.1302 22.2859 11.573 22.2859 10.8869C22.2859 10.2007 21.7288 9.64355 21.0426 9.64355C20.3565 9.64355 19.7993 10.2007 19.7993 10.8869C19.7993 11.573 20.3565 12.1302 21.0426 12.1302Z" fill="white"/>
    <defs>
        <linearGradient id="paint0_linear_8560_4903" x1="4.67505" y1="27.3249" x2="27.3249" y2="4.67617" gradientUnits="userSpaceOnUse">
            <stop stop-color="#FAAD4F"/>
            <stop offset="0.35" stop-color="#DD2A7B"/>
            <stop offset="0.62" stop-color="#9537B0"/>
            <stop offset="1" stop-color="#515BD4"/>
        </linearGradient>
    </defs>
</svg>
