<svg width="22" height="22" viewBox="0 0 22 22" fill="none" xmlns="http://www.w3.org/2000/svg">
<path d="M10.9917 21.333C10.2723 21.333 9.58887 21.0785 8.94141 20.5693C8.29948 20.0658 7.73226 19.3519 7.23975 18.4277C6.74723 17.5036 6.35986 16.4162 6.07764 15.1655C5.79541 13.9093 5.6543 12.5314 5.6543 11.0317C5.6543 9.52653 5.79541 8.14583 6.07764 6.88965C6.35986 5.62793 6.74723 4.53499 7.23975 3.61084C7.73226 2.68669 8.29948 1.97005 8.94141 1.46094C9.58333 0.951823 10.2668 0.697266 10.9917 0.697266C11.7166 0.697266 12.4001 0.951823 13.042 1.46094C13.6895 1.97005 14.2594 2.68669 14.752 3.61084C15.2445 4.53499 15.6291 5.62793 15.9058 6.88965C16.188 8.14583 16.3291 9.52653 16.3291 11.0317C16.3291 12.5314 16.188 13.9093 15.9058 15.1655C15.6291 16.4162 15.2417 17.5036 14.7437 18.4277C14.2511 19.3519 13.6839 20.0658 13.042 20.5693C12.4001 21.0785 11.7166 21.333 10.9917 21.333ZM10.9917 1.81787C10.4549 1.81787 9.94027 2.06136 9.44775 2.54834C8.95524 3.02979 8.51807 3.69661 8.13623 4.54883C7.75439 5.39551 7.4528 6.375 7.23145 7.4873C7.01009 8.59408 6.89941 9.77555 6.89941 11.0317C6.89941 12.2547 7.01009 13.4168 7.23145 14.5181C7.4528 15.6193 7.75439 16.596 8.13623 17.4482C8.51807 18.306 8.95524 18.9811 9.44775 19.4736C9.94027 19.9661 10.4549 20.2124 10.9917 20.2124C11.534 20.2124 12.0487 19.9661 12.5356 19.4736C13.0282 18.9811 13.4653 18.306 13.8472 17.4482C14.2345 16.596 14.5361 15.6193 14.752 14.5181C14.9733 13.4168 15.084 12.2547 15.084 11.0317C15.084 9.77555 14.9733 8.59408 14.752 7.4873C14.5361 6.375 14.2345 5.39551 13.8472 4.54883C13.4653 3.69661 13.0282 3.02979 12.5356 2.54834C12.0487 2.06136 11.534 1.81787 10.9917 1.81787ZM10.3857 0.85498H11.606V21.1172H10.3857V0.85498ZM10.9917 15.1904C12.0819 15.1904 13.1139 15.2817 14.0879 15.4644C15.0618 15.6414 15.9362 15.8932 16.7109 16.2197C17.4912 16.5462 18.1331 16.9308 18.6367 17.3735L17.707 18.1372C17.2256 17.772 16.6501 17.4593 15.9805 17.1992C15.3109 16.9447 14.5583 16.751 13.7227 16.6182C12.887 16.4798 11.9767 16.4106 10.9917 16.4106C10.0067 16.4106 9.09635 16.4798 8.26074 16.6182C7.42513 16.751 6.67253 16.9447 6.00293 17.1992C5.33887 17.4593 4.76611 17.772 4.28467 18.1372L3.35498 17.3735C3.85303 16.9308 4.48942 16.5462 5.26416 16.2197C6.04443 15.8932 6.92155 15.6414 7.89551 15.4644C8.875 15.2817 9.90706 15.1904 10.9917 15.1904ZM20.9277 10.3926V11.6128H1.06396V10.3926H20.9277ZM10.9917 6.87305C9.90706 6.87305 8.875 6.78451 7.89551 6.60742C6.92155 6.4248 6.04443 6.17025 5.26416 5.84375C4.48942 5.51725 3.85303 5.13265 3.35498 4.68994L4.28467 3.92627C4.76611 4.2915 5.33887 4.60417 6.00293 4.86426C6.67253 5.11882 7.42513 5.31527 8.26074 5.45361C9.09635 5.58643 10.0067 5.65283 10.9917 5.65283C11.9767 5.65283 12.887 5.58643 13.7227 5.45361C14.5583 5.31527 15.3109 5.11882 15.9805 4.86426C16.6501 4.60417 17.2256 4.2915 17.707 3.92627L18.6367 4.68994C18.1331 5.13265 17.4912 5.51725 16.7109 5.84375C15.9362 6.17025 15.0618 6.4248 14.0879 6.60742C13.1139 6.78451 12.0819 6.87305 10.9917 6.87305ZM10.9917 21.8145C9.80192 21.8145 8.66471 21.6318 7.58008 21.2666C6.50098 20.9069 5.51042 20.395 4.6084 19.731C3.71191 19.0669 2.93164 18.2839 2.26758 17.3818C1.60352 16.4854 1.08887 15.4976 0.723633 14.4185C0.363932 13.3338 0.184082 12.1966 0.184082 11.0068C0.184082 9.81152 0.363932 8.67432 0.723633 7.59521C1.08887 6.51611 1.60352 5.52555 2.26758 4.62354C2.93164 3.72152 3.71191 2.94124 4.6084 2.28271C5.51042 1.61865 6.50098 1.104 7.58008 0.73877C8.66471 0.373535 9.80192 0.190918 10.9917 0.190918C12.187 0.190918 13.3242 0.373535 14.4033 0.73877C15.4824 1.104 16.473 1.61865 17.375 2.28271C18.277 2.94124 19.0573 3.72152 19.7158 4.62354C20.3799 5.52555 20.8945 6.51611 21.2598 7.59521C21.625 8.67432 21.8076 9.81152 21.8076 11.0068C21.8076 12.1966 21.625 13.3338 21.2598 14.4185C20.8945 15.4976 20.3799 16.4854 19.7158 17.3818C19.0573 18.2839 18.277 19.0669 17.375 19.731C16.473 20.395 15.4824 20.9069 14.4033 21.2666C13.3242 21.6318 12.187 21.8145 10.9917 21.8145ZM10.9917 20.5527C12.0487 20.5527 13.0531 20.3923 14.0049 20.0713C14.9622 19.7503 15.8366 19.2965 16.6279 18.71C17.4248 18.1289 18.1165 17.4399 18.7031 16.6431C19.2897 15.8462 19.7435 14.9718 20.0645 14.02C20.3854 13.0627 20.5459 12.0583 20.5459 11.0068C20.5459 9.94987 20.3854 8.94548 20.0645 7.99365C19.7435 7.0363 19.2897 6.16195 18.7031 5.37061C18.1165 4.57373 17.4248 3.882 16.6279 3.29541C15.8366 2.70882 14.9622 2.25505 14.0049 1.93408C13.0531 1.61312 12.0487 1.45264 10.9917 1.45264C9.94027 1.45264 8.93587 1.61312 7.97852 1.93408C7.02669 2.25505 6.15234 2.70882 5.35547 3.29541C4.55859 3.882 3.86686 4.57373 3.28027 5.37061C2.69922 6.16195 2.24821 7.0363 1.92725 7.99365C1.60628 8.94548 1.4458 9.94987 1.4458 11.0068C1.4458 12.0583 1.60628 13.0627 1.92725 14.02C2.24821 14.9718 2.69922 15.8462 3.28027 16.6431C3.86686 17.4399 4.55859 18.1289 5.35547 18.71C6.15234 19.2965 7.02669 19.7503 7.97852 20.0713C8.93587 20.3923 9.94027 20.5527 10.9917 20.5527Z" fill="#7F7F7F"/>
</svg>
