<?xml version="1.0" encoding="UTF-8"?>
<svg version="1.1" viewBox="0 0 1153 2048" width="375" height="666" xmlns="http://www.w3.org/2000/svg">
<path transform="translate(248,561)" d="m0 0h635l24 2 16 4 16 6 18 10 16 12 16 15 11 15 8 15 5 15 2 10 2 29 1 174v88l-1 134-2 18-5 17-8 16-11 16-11 12-11 9-11 8-16 9-18 6-19 4-16 1h-159l-2 4-9 16-10 19-12 22-11 19-15 26-14 24-6 11-8 14-10 18-9 12-5 4-9-1-16-6-11-7-8-6-3-4v-8l4-11 11-18 14-22 11-19 20-35 12-20 9-16 28-49 11-19 7-8 10-1 194-1 13-3 14-8 11-12 8-16 2-5 1-6 1-16v-295l-1-108-2-11-8-16-9-10-4-4-12-5-14-2-32-2h-341l-130 1h-30l-71-1h-71l-18 4-11 6-9 9-8 12-5 14-1 5-1 14v285l1 108 2 18 6 15 6 9 7 7v2l4 2 12 5 16 3 12 1 73 1 212 1 4 2v54l-3 5-290-1-20-2-21-6-14-7-12-8-13-11-10-10-11-15-7-14-6-18-3-20-1-27v-43l4-374 4-13 7-16 11-15 4-5 3-3h2l1-3 11-9 10-7 16-9 22-7 14-2z" fill="#0C5BD4"/>
<path transform="translate(568,705)" d="m0 0 7 2 4 5 12 29 7 16 11 20 11 17 9 12 7 7 13 4 22 2 62 4 12 2 1 1-1 9-6 10-7 6-7 8-16 15-11 9-12 9-13 11-5 7-2 8v25l3 14 12 36 11 32 3 10-1 4-5 1-12-5-16-9-21-12-16-10-18-12-13-8-12-7-10-3-11 1-10 4-19 10-44 26-29 17-8 4-8 2h-5l1-9 5-15 8-27 9-37 2-14v-21l-4-10-11-12-11-10-11-9-20-16-13-13-7-11-1-2v-7l1-1 60-3 36-3 17-4 6-3 10-13 14-27 16-32 8-17 7-11 5-5z" fill="#0C5BD4"/>
</svg>
