<svg width="20" height="20" viewBox="0 0 20 20" fill="none" xmlns="http://www.w3.org/2000/svg">
<path fill-rule="evenodd" clip-rule="evenodd" d="M8.28664 2.70831H11.714C13.2455 2.7083 14.4585 2.70829 15.4078 2.83593C16.3849 2.96728 17.1757 3.24405 17.7993 3.86768C18.4229 4.49132 18.6997 5.28211 18.831 6.25913C18.9587 7.20847 18.9587 8.4215 18.9587 9.95297V10.047C18.9587 11.5785 18.9587 12.7915 18.831 13.7408C18.6997 14.7179 18.4229 15.5086 17.7993 16.1323C17.1757 16.7559 16.3849 17.0327 15.4078 17.164C14.4585 17.2917 13.2455 17.2917 11.714 17.2916H8.28665C6.75518 17.2917 5.54215 17.2917 4.59281 17.164C3.61579 17.0327 2.825 16.7559 2.20136 16.1323C1.57773 15.5086 1.30096 14.7179 1.1696 13.7408C1.04197 12.7915 1.04198 11.5785 1.04199 10.047V9.95297C1.04198 8.4215 1.04197 7.20847 1.1696 6.25913C1.30096 5.28211 1.57773 4.49132 2.20136 3.86768C2.825 3.24405 3.61579 2.96728 4.59281 2.83593C5.54215 2.70829 6.75518 2.7083 8.28664 2.70831ZM4.75937 4.07478C3.92096 4.1875 3.43792 4.39889 3.08525 4.75157C2.73257 5.10424 2.52118 5.58728 2.40846 6.42569C2.29332 7.28207 2.29199 8.41096 2.29199 9.99998C2.29199 11.589 2.29332 12.7179 2.40846 13.5743C2.52118 14.4127 2.73257 14.8957 3.08525 15.2484C3.43792 15.6011 3.92096 15.8125 4.75937 15.9252C5.61575 16.0403 6.74464 16.0416 8.33366 16.0416H11.667C13.256 16.0416 14.3849 16.0403 15.2413 15.9252C16.0797 15.8125 16.5627 15.6011 16.9154 15.2484C17.2681 14.8957 17.4795 14.4127 17.5922 13.5743C17.7073 12.7179 17.7087 11.589 17.7087 9.99998C17.7087 8.41096 17.7073 7.28207 17.5922 6.42569C17.4795 5.58728 17.2681 5.10424 16.9154 4.75157C16.5627 4.39889 16.0797 4.1875 15.2413 4.07478C14.3849 3.95964 13.256 3.95831 11.667 3.95831H8.33366C6.74464 3.95831 5.61575 3.95964 4.75937 4.07478ZM4.52019 6.26653C4.74117 6.00136 5.13527 5.96553 5.40044 6.18651L7.19952 7.68574C7.97699 8.33363 8.51677 8.78199 8.97248 9.07509C9.41361 9.35881 9.71277 9.45404 10.0003 9.45404C10.2879 9.45404 10.587 9.35881 11.0282 9.07509C11.4839 8.78199 12.0237 8.33363 12.8011 7.68574L14.6002 6.18651C14.8654 5.96553 15.2595 6.00136 15.4805 6.26653C15.7014 6.5317 15.6656 6.92581 15.4004 7.14679L13.57 8.67213C12.8314 9.28767 12.2327 9.78658 11.7043 10.1264C11.1539 10.4804 10.6179 10.704 10.0003 10.704C9.38276 10.704 8.84672 10.4804 8.29631 10.1264C7.76792 9.78658 7.16925 9.28768 6.43063 8.67213L4.60021 7.14679C4.33504 6.92581 4.29921 6.5317 4.52019 6.26653Z" fill="white"/>
</svg>
