<svg width="44" height="44" viewBox="0 0 44 44" fill="none" xmlns="http://www.w3.org/2000/svg">
<rect x="0.5" y="0.5" width="43" height="43" rx="21.5" fill="#FAFAFA"/>
<rect x="0.5" y="0.5" width="43" height="43" rx="21.5" stroke="#D5D7DA" stroke-dasharray="5 5"/>
<path d="M33 31.9V29.7C33 27.6498 31.5977 25.9271 29.7 25.4386M25.85 12.4198C27.4625 13.0726 28.6 14.6534 28.6 16.5C28.6 18.3466 27.4625 19.9274 25.85 20.5802M27.5 31.9C27.5 29.8499 27.5 28.8248 27.1651 28.0162C26.7185 26.9381 25.8619 26.0815 24.7838 25.6349C23.9752 25.3 22.9501 25.3 20.9 25.3H17.6C15.5499 25.3 14.5248 25.3 13.7162 25.6349C12.6381 26.0815 11.7815 26.9381 11.3349 28.0162C11 28.8248 11 29.8499 11 31.9M23.65 16.5C23.65 18.9301 21.6801 20.9 19.25 20.9C16.8199 20.9 14.85 18.9301 14.85 16.5C14.85 14.07 16.8199 12.1 19.25 12.1C21.6801 12.1 23.65 14.07 23.65 16.5Z" stroke="#A4A7AE" stroke-width="2.2" stroke-linecap="round" stroke-linejoin="round"/>
</svg>
