<svg width="20" height="20" viewBox="0 0 20 20" fill="none" xmlns="http://www.w3.org/2000/svg">
    <path fill-rule="evenodd" clip-rule="evenodd" d="M11.1959 4.81926C10.4499 4.41246 9.5483 4.41246 8.80227 4.81926L4.80708 6.99773C4.00376 7.43577 3.50391 8.27765 3.50391 9.19264V13.3073C3.50391 14.2223 4.00376 15.0642 4.80708 15.5022L8.80227 17.6807C9.5483 18.0875 10.4499 18.0875 11.1959 17.6807L15.1911 15.5022C15.9944 15.0642 16.4943 14.2223 16.4943 13.3073V9.19264C16.4943 8.27765 15.9944 7.43576 15.1911 6.99773L11.1959 4.81926ZM9.99927 8.75C9.76255 8.75 9.60422 9.03403 9.28756 9.60209L9.20563 9.74906C9.11565 9.91048 9.07066 9.9912 9.0005 10.0445C8.93035 10.0977 8.84298 10.1175 8.66824 10.157L8.50915 10.193C7.89423 10.3321 7.58677 10.4017 7.51362 10.6369C7.44047 10.8722 7.65008 11.1173 8.06929 11.6075L8.17775 11.7343C8.29687 11.8736 8.35644 11.9433 8.38323 12.0294C8.41003 12.1156 8.40102 12.2085 8.38301 12.3944L8.36662 12.5636C8.30324 13.2177 8.27155 13.5447 8.46305 13.6901C8.65456 13.8354 8.94244 13.7029 9.51819 13.4378L9.66714 13.3692C9.83075 13.2939 9.91255 13.2562 9.99927 13.2562C10.086 13.2562 10.1678 13.2939 10.3314 13.3692L10.4803 13.4378C11.0561 13.7029 11.344 13.8354 11.5355 13.6901C11.727 13.5447 11.6953 13.2176 11.6319 12.5636L11.6155 12.3944C11.5975 12.2085 11.5885 12.1156 11.6153 12.0294C11.6421 11.9433 11.7017 11.8736 11.8208 11.7343L11.9292 11.6075C12.3485 11.1173 12.5581 10.8722 12.4849 10.6369C12.4118 10.4017 12.1043 10.3321 11.4894 10.193L11.3303 10.157C11.1556 10.1175 11.0682 10.0977 10.998 10.0445C10.9279 9.9912 10.8829 9.91048 10.7929 9.74906L10.711 9.60209C10.3943 9.03403 10.236 8.75 9.99927 8.75Z" fill="#1A62F5"/>
    <path d="M9.16732 1.66663H10.834C12.4053 1.66663 13.191 1.66663 13.6792 2.15478C14.1673 2.64294 14.1673 3.42861 14.1673 4.99996V5.01494L11.7957 3.72176C10.6767 3.11157 9.32429 3.11157 8.20524 3.72176L5.83398 5.01475V4.99996C5.83398 3.42861 5.83398 2.64294 6.32214 2.15478C6.8103 1.66663 7.59597 1.66663 9.16732 1.66663Z" fill="#1A62F5"/>
</svg>
