<svg width="34" height="35" viewBox="0 0 34 35" fill="none" xmlns="http://www.w3.org/2000/svg">
<path opacity="0.4" d="M8.63374 16.3208C8.54568 15.7533 8.5 15.1719 8.5 14.58C8.5 8.32075 13.6075 3.24664 19.9079 3.24664C26.2083 3.24664 31.3158 8.32075 31.3158 14.58C31.3158 15.9939 31.0552 17.3474 30.579 18.5955C30.4801 18.8547 30.4307 18.9844 30.4082 19.0856C30.386 19.1858 30.3774 19.2564 30.375 19.359C30.3725 19.4627 30.3866 19.5768 30.4147 19.8051L30.985 24.4379C31.0468 24.9394 31.0776 25.1902 30.9942 25.3725C30.9211 25.5322 30.7913 25.6591 30.6299 25.7284C30.4458 25.8076 30.1958 25.771 29.6958 25.6977L25.1834 25.0363C24.9478 25.0017 24.8299 24.9845 24.7226 24.9851C24.6165 24.9857 24.5431 24.9935 24.4392 25.0153C24.3342 25.0374 24.2 25.0877 23.9318 25.1881C22.6804 25.6569 21.3243 25.9133 19.9079 25.9133C19.3155 25.9133 18.7336 25.8684 18.1655 25.7819" stroke="#004EEB" stroke-width="2.83333" stroke-linecap="round" stroke-linejoin="round"/>
<path d="M18.4168 23.7883C18.4168 28.0915 15.0118 31.58 10.8116 31.58C9.9439 31.58 9.11017 31.4311 8.33338 31.157C8.03856 31.0529 7.89114 31.0009 7.79198 30.9811C7.68757 30.9603 7.63106 30.9545 7.5246 30.9538C7.42349 30.9531 7.30771 30.9689 7.07613 31.0006L2.8335 31.58L3.69957 27.6676C3.75633 27.4112 3.78471 27.2829 3.79128 27.1695C3.79813 27.0511 3.7949 26.9852 3.77651 26.8681C3.75889 26.7558 3.70521 26.5915 3.59786 26.2628C3.34389 25.4854 3.2063 24.6533 3.2063 23.7883C3.2063 19.4851 6.61129 15.9966 10.8116 15.9966C15.0118 15.9966 18.4168 19.4851 18.4168 23.7883Z" stroke="#004EEB" stroke-width="2.83333" stroke-linecap="round" stroke-linejoin="round"/>
</svg>
