<svg width="17" height="16" viewBox="0 0 17 16" fill="none" xmlns="http://www.w3.org/2000/svg">
<g clip-path="url(#clip0_3816_88596)">
<path d="M4.61553 7.71079C4.5753 7.45156 4.55444 7.18598 4.55444 6.91556C4.55444 4.05623 6.88763 1.73828 9.76578 1.73828C12.6439 1.73828 14.9771 4.05623 14.9771 6.91556C14.9771 7.56147 14.8581 8.17976 14.6405 8.74994C14.5954 8.86836 14.5728 8.92757 14.5625 8.9738C14.5524 9.0196 14.5484 9.05182 14.5473 9.09872C14.5462 9.14606 14.5526 9.19821 14.5655 9.3025L14.826 11.4188C14.8542 11.6479 14.8683 11.7625 14.8302 11.8458C14.7968 11.9187 14.7375 11.9767 14.6638 12.0084C14.5797 12.0446 14.4655 12.0278 14.2371 11.9944L12.1757 11.6922C12.0681 11.6764 12.0143 11.6685 11.9652 11.6688C11.9168 11.6691 11.8832 11.6727 11.8358 11.6826C11.7878 11.6927 11.7265 11.7157 11.604 11.7616C11.0323 11.9757 10.4128 12.0928 9.76578 12.0928C9.49514 12.0928 9.22932 12.0723 8.96981 12.0328M5.61035 14.6815C7.52912 14.6815 9.08458 13.0879 9.08458 11.1221C9.08458 9.15631 7.52912 7.56272 5.61035 7.56272C3.69159 7.56272 2.13613 9.15631 2.13613 11.1221C2.13613 11.5173 2.19898 11.8974 2.31499 12.2525C2.36404 12.4026 2.38856 12.4777 2.39661 12.529C2.40501 12.5825 2.40648 12.6126 2.40335 12.6667C2.40035 12.7185 2.38739 12.7771 2.36146 12.8942L1.96582 14.6815L3.90394 14.4168C4.00972 14.4023 4.06262 14.3951 4.10881 14.3954C4.15744 14.3958 4.18325 14.3984 4.23095 14.4079C4.27625 14.4169 4.34359 14.4407 4.47827 14.4882C4.83312 14.6135 5.21399 14.6815 5.61035 14.6815Z" stroke="#414651" stroke-width="1.29432" stroke-linecap="round" stroke-linejoin="round"/>
</g>
<defs>
<clipPath id="clip0_3816_88596">
<rect width="15.5318" height="15.5318" fill="white" transform="translate(0.671387 0.443359)"/>
</clipPath>
</defs>
</svg>
