<svg width="12" height="14" viewBox="0 0 12 14" fill="none" xmlns="http://www.w3.org/2000/svg">
<path d="M5.99935 0.333496C3.88226 0.333496 2.16602 2.04974 2.16602 4.16683V6.16683C2.16602 8.28392 3.88226 10.0002 5.99935 10.0002C7.94698 10.0002 9.55537 8.54767 9.80037 6.66683L6.66602 6.66683C6.38987 6.66683 6.16602 6.44297 6.16602 6.16683C6.16602 5.89069 6.38987 5.66683 6.66602 5.66683L9.83268 5.66683V4.66683H6.66602C6.38987 4.66683 6.16602 4.44297 6.16602 4.16683C6.16602 3.89069 6.38987 3.66683 6.66602 3.66683H9.80037C9.55537 1.78599 7.94698 0.333496 5.99935 0.333496Z" fill="#8E8E93"/>
<path fill-rule="evenodd" clip-rule="evenodd" d="M0.666016 5.00016C0.942158 5.00016 1.16602 5.22402 1.16602 5.50016V6.16683C1.16602 8.83621 3.32997 11.0002 5.99935 11.0002C8.66873 11.0002 10.8327 8.83621 10.8327 6.16683V5.50016C10.8327 5.22402 11.0565 5.00016 11.3327 5.00016C11.6088 5.00016 11.8327 5.22402 11.8327 5.50016V6.16683C11.8327 9.22006 9.48695 11.7254 6.49935 11.979V13.5002C6.49935 13.7763 6.27549 14.0002 5.99935 14.0002C5.72321 14.0002 5.49935 13.7763 5.49935 13.5002V11.979C2.51175 11.7254 0.166016 9.22006 0.166016 6.16683V5.50016C0.166016 5.22402 0.389873 5.00016 0.666016 5.00016Z" fill="#8E8E93"/>
</svg>
