<svg width="25" height="24" viewBox="0 0 25 24" fill="none" xmlns="http://www.w3.org/2000/svg">
    <path fill-rule="evenodd" clip-rule="evenodd" d="M2.125 6.78261C2.125 6.35038 2.48801 6 2.9358 6H21.314C21.7618 6 22.1248 6.35038 22.1248 6.78261C22.1248 7.21483 21.7618 7.56521 21.314 7.56521H2.9358C2.48801 7.56521 2.125 7.21483 2.125 6.78261Z" fill="#3C3C43" fill-opacity="0.6"/>
    <path fill-rule="evenodd" clip-rule="evenodd" d="M2.12519 17.2174C2.12519 16.7852 2.4882 16.4348 2.93599 16.4348H21.3142C21.762 16.4348 22.125 16.7852 22.125 17.2174C22.125 17.6496 21.762 18 21.3142 18H2.93599C2.4882 18 2.12519 17.6496 2.12519 17.2174Z" fill="#3C3C43" fill-opacity="0.6"/>
    <path fill-rule="evenodd" clip-rule="evenodd" d="M2.12519 12C2.12519 11.5678 2.4882 11.2174 2.93599 11.2174H12.1251H21.3142C21.762 11.2174 22.125 11.5678 22.125 12C22.125 12.4322 21.762 12.7826 21.3142 12.7826H2.93599C2.4882 12.7826 2.12519 12.4322 2.12519 12Z" fill="#3C3C43" fill-opacity="0.6"/>
</svg>
