<svg width="20" height="20" viewBox="0 0 20 20" fill="none" xmlns="http://www.w3.org/2000/svg">
<path fill-rule="evenodd" clip-rule="evenodd" d="M3.08934 1.91078C2.7639 1.58535 2.23626 1.58535 1.91083 1.91078C1.58539 2.23622 1.58539 2.76386 1.91083 3.0893L4.29093 5.4694C4.20894 5.86028 4.16673 6.26138 4.16673 6.6668C4.16673 9.09402 3.55673 10.7033 2.91725 11.731L2.90738 11.7469C2.60963 12.2254 2.37424 12.6037 2.21556 12.879C2.13604 13.017 2.0636 13.1499 2.00996 13.268C1.98319 13.327 1.95324 13.3993 1.92983 13.4778C1.91041 13.543 1.8734 13.6824 1.88728 13.852C1.8966 13.966 1.91985 14.1608 2.03164 14.3621C2.14343 14.5633 2.29654 14.6859 2.3884 14.7541C2.59698 14.9088 2.83651 14.9442 2.91645 14.956L2.92014 14.9565C3.04298 14.9747 3.18238 14.9838 3.323 14.9892C3.60235 15.0001 3.98907 15.0001 4.47001 15.0001H13.8217L16.9108 18.0893C17.2363 18.4147 17.7639 18.4147 18.0893 18.0893C18.4148 17.7639 18.4148 17.2362 18.0893 16.9108L5.83168 4.65313C5.81406 4.63375 5.79548 4.61516 5.77598 4.59743L3.08934 1.91078Z" fill="#717680"/>
<path d="M7.17041 16.9486C7.47497 16.6035 8.00158 16.5707 8.34664 16.8753C8.78785 17.2647 9.36545 17.5 10 17.5C10.6346 17.5 11.2122 17.2647 11.6535 16.8753C11.9985 16.5707 12.5251 16.6035 12.8297 16.9486C13.1342 17.2937 13.1014 17.8203 12.7563 18.1248C12.0223 18.7727 11.0562 19.1667 10 19.1667C8.9439 19.1667 7.97776 18.7727 7.24375 18.1248C6.89869 17.8203 6.86586 17.2937 7.17041 16.9486Z" fill="#717680"/>
<path d="M17.9422 14.4067C18.0462 14.2391 18.0969 14.0473 18.1129 13.8519C18.1267 13.6823 18.0897 13.543 18.0703 13.4778C18.0469 13.3992 18.0169 13.3269 17.9902 13.2679C17.9365 13.1498 17.8641 13.0169 17.7846 12.8789C17.6259 12.6037 17.3906 12.2255 17.0929 11.7471L17.0829 11.731C16.4434 10.7033 15.8334 9.09393 15.8334 6.66671C15.8334 5.11961 15.2188 3.63588 14.1249 2.54192C13.0309 1.44796 11.5472 0.833374 10.0001 0.833374C8.5007 0.833374 7.06084 1.41062 5.97762 2.44205L17.9422 14.4067Z" fill="#717680"/>
</svg>
