<svg width="23" height="28" viewBox="0 0 23 28" fill="none" xmlns="http://www.w3.org/2000/svg">
<path fill-rule="evenodd" clip-rule="evenodd" d="M0.25 11.2671C0.25 5.05389 5.2868 0.0170898 11.5 0.0170898C17.7132 0.0170898 22.75 5.05389 22.75 11.2671C22.75 14.4248 21.3165 17.1924 19.3653 19.7259C17.7349 21.8429 15.6479 23.9118 13.5633 25.9784L13.5618 25.9798C13.1681 26.3702 12.7744 26.7605 12.3839 27.151C11.8957 27.6391 11.1043 27.6391 10.6161 27.151C10.2253 26.7602 9.83049 26.3688 9.43645 25.9781C7.35183 23.9116 5.26506 21.8429 3.63465 19.7259C1.68354 17.1924 0.25 14.4248 0.25 11.2671ZM15.25 11.2671C15.25 13.3382 13.5711 15.0171 11.5 15.0171C9.42893 15.0171 7.75 13.3382 7.75 11.2671C7.75 9.19602 9.42893 7.51709 11.5 7.51709C13.5711 7.51709 15.25 9.19602 15.25 11.2671Z" fill="#47CD89"/>
</svg>
