<svg width="18" height="17" viewBox="0 0 18 17" fill="none" xmlns="http://www.w3.org/2000/svg">
<path d="M16.4989 8.58333C16.4989 12.4953 13.3276 15.6667 9.41554 15.6667C8.51823 15.6667 7.65988 15.4998 6.86984 15.1954C6.72539 15.1398 6.65317 15.112 6.59573 15.0987C6.53924 15.0857 6.49835 15.0803 6.44042 15.0781C6.38153 15.0758 6.31691 15.0825 6.18768 15.0958L1.92016 15.537C1.51329 15.579 1.30985 15.6001 1.18985 15.5269C1.08533 15.4631 1.01414 15.3566 0.995189 15.2356C0.973431 15.0968 1.07064 14.9168 1.26507 14.557L2.62812 12.034C2.74037 11.8262 2.7965 11.7223 2.82192 11.6225C2.84702 11.5238 2.85309 11.4527 2.84506 11.3512C2.83693 11.2484 2.79185 11.1147 2.70168 10.8472C2.46208 10.1363 2.33221 9.375 2.33221 8.58333C2.33221 4.67132 5.50352 1.5 9.41554 1.5C13.3276 1.5 16.4989 4.67132 16.4989 8.58333Z" stroke="#004EEB" stroke-width="1.66667" stroke-linecap="round" stroke-linejoin="round"/>
</svg>
