<svg width="36" height="39" viewBox="0 0 36 39" fill="none" xmlns="http://www.w3.org/2000/svg">
<path d="M7.30957 19.873V5.42969C7.30957 3.70312 7.73568 2.40267 8.58789 1.52832C9.45117 0.653971 10.7406 0.216797 12.4561 0.216797H20.3418C20.9616 0.216797 21.5039 0.261068 21.9688 0.349609C22.4447 0.427083 22.8818 0.582031 23.2803 0.814453C23.6787 1.03581 24.0882 1.3623 24.5088 1.79395L33.6562 11.1074C34.099 11.5612 34.431 11.9928 34.6523 12.4023C34.8848 12.8008 35.0397 13.2435 35.1172 13.7305C35.1947 14.2174 35.2334 14.8206 35.2334 15.54V30.6143C35.2334 32.3408 34.8018 33.6357 33.9385 34.499C33.0863 35.3734 31.8024 35.8105 30.0869 35.8105H17.918C18.1615 35.401 18.3717 34.9694 18.5488 34.5156C18.7259 34.0729 18.8698 33.6136 18.9805 33.1377H29.9541C30.8174 33.1377 31.4648 32.9163 31.8965 32.4736C32.3392 32.0309 32.5605 31.3945 32.5605 30.5645V15.6562H23.0977C22.0573 15.6562 21.277 15.3962 20.7568 14.876C20.2367 14.3558 19.9766 13.5755 19.9766 12.5352V2.88965H12.5889C11.7256 2.88965 11.0726 3.11654 10.6299 3.57031C10.1982 4.02409 9.98242 4.66048 9.98242 5.47949V19.873C9.75 19.8509 9.52311 19.8343 9.30176 19.8232C9.0804 19.8011 8.85352 19.79 8.62109 19.79C8.39974 19.79 8.17839 19.8011 7.95703 19.8232C7.74674 19.8343 7.53092 19.8509 7.30957 19.873ZM22.4834 12.2197C22.4834 12.5518 22.5498 12.7897 22.6826 12.9336C22.8265 13.0775 23.0645 13.1494 23.3965 13.1494H32.0459L22.4834 3.4043V12.2197ZM8.6543 38.9482C7.50326 38.9482 6.41862 38.7269 5.40039 38.2842C4.38216 37.8525 3.48568 37.2493 2.71094 36.4746C1.9362 35.6999 1.32747 34.8034 0.884766 33.7852C0.442057 32.7669 0.220703 31.6768 0.220703 30.5146C0.220703 29.3525 0.442057 28.2679 0.884766 27.2607C1.32747 26.2425 1.9362 25.346 2.71094 24.5713C3.48568 23.7855 4.38216 23.1768 5.40039 22.7451C6.41862 22.3024 7.50326 22.0811 8.6543 22.0811C9.81641 22.0811 10.9066 22.3024 11.9248 22.7451C12.943 23.1768 13.8395 23.7799 14.6143 24.5547C15.389 25.3294 15.9922 26.2259 16.4238 27.2441C16.8665 28.2624 17.0879 29.3525 17.0879 30.5146C17.0879 31.6657 16.8665 32.7503 16.4238 33.7686C15.9811 34.7868 15.3669 35.6833 14.5811 36.458C13.8063 37.2327 12.9098 37.8415 11.8916 38.2842C10.8734 38.7269 9.79427 38.9482 8.6543 38.9482ZM4.70312 31.8096H8.7373C9.02507 31.8096 9.26302 31.71 9.45117 31.5107C9.65039 31.3115 9.75 31.068 9.75 30.7803V25.6006C9.75 25.3239 9.65039 25.0915 9.45117 24.9033C9.25195 24.7041 9.014 24.6045 8.7373 24.6045C8.44954 24.6045 8.20605 24.7041 8.00684 24.9033C7.80762 25.0915 7.70801 25.3239 7.70801 25.6006V29.7676H4.70312C4.42643 29.7676 4.18294 29.8672 3.97266 30.0664C3.77344 30.2656 3.67383 30.5036 3.67383 30.7803C3.67383 31.057 3.77344 31.2949 3.97266 31.4941C4.17188 31.7044 4.41536 31.8096 4.70312 31.8096Z" fill="#D5D7DA"/>
</svg>
