<svg width="251" height="200" viewBox="0 0 251 200" fill="none" xmlns="http://www.w3.org/2000/svg">
    <path fill-rule="evenodd" clip-rule="evenodd" d="M63.5 134H154.5C155.015 134 155.517 133.944 156 133.839C156.483 133.944 156.985 134 157.5 134H209.5C213.366 134 216.5 130.866 216.5 127C216.5 123.134 213.366 120 209.5 120H203.5C199.634 120 196.5 116.866 196.5 113C196.5 109.134 199.634 106 203.5 106H222.5C226.366 106 229.5 102.866 229.5 99C229.5 95.134 226.366 92 222.5 92H200.5C204.366 92 207.5 88.866 207.5 85C207.5 81.134 204.366 78 200.5 78H136.5C140.366 78 143.5 74.866 143.5 71C143.5 67.134 140.366 64 136.5 64H79.5C75.634 64 72.5 67.134 72.5 71C72.5 74.866 75.634 78 79.5 78H39.5C35.634 78 32.5 81.134 32.5 85C32.5 88.866 35.634 92 39.5 92H64.5C68.366 92 71.5 95.134 71.5 99C71.5 102.866 68.366 106 64.5 106H24.5C20.634 106 17.5 109.134 17.5 113C17.5 116.866 20.634 120 24.5 120H63.5C59.634 120 56.5 123.134 56.5 127C56.5 130.866 59.634 134 63.5 134ZM226.5 134C230.366 134 233.5 130.866 233.5 127C233.5 123.134 230.366 120 226.5 120C222.634 120 219.5 123.134 219.5 127C219.5 130.866 222.634 134 226.5 134Z" fill="#E5E5EA"/>
    <path d="M167.501 148H189.929M64.501 148H85.9551H64.501ZM51.6289 148H58.501H51.6289ZM194.629 148H197.501H194.629Z" stroke="#1A62F5" stroke-width="2.5" stroke-linecap="round" stroke-linejoin="round"/>
    <path d="M98.5 43.3027L109.6 55.7559M150.6 43.3027L139.5 55.7559L150.6 43.3027ZM124.5 39V55.7559V39Z" stroke="#E5E5EA" stroke-width="2.5" stroke-linecap="round" stroke-linejoin="round"/>
    <path fill-rule="evenodd" clip-rule="evenodd" d="M93.2966 71H155.903L150.297 79.4098L157.772 85.0164H91.4277L99.8376 79.4098L93.2966 71Z" fill="#E5E5EA"/>
    <rect x="89.5" y="83" width="71" height="75" rx="2" fill="white"/>
    <path fill-rule="evenodd" clip-rule="evenodd" d="M94.0859 124.006V89.6453C94.0859 88.2297 95.2462 87.082 96.6774 87.082L157.654 151.164C157.654 153.052 156.143 154.582 154.279 154.582H97.4609C95.5969 154.582 94.0859 153.052 94.0859 151.164V138.395V134.93V124.006ZM94.0859 131.425V127.577V131.425Z" fill="#E5E5EA"/>
    <path d="M90.5 124.463V86.8853C90.5 85.3371 91.7705 84.082 93.3377 84.082H158.261C159.282 84.082 160.109 84.9187 160.109 85.9509V154.164C160.109 156.228 158.454 157.902 156.413 157.902H94.1956C92.1546 157.902 90.5 156.228 90.5 154.164V140.199V136.41M90.5 132.576V128.368" stroke="#1A62F5" stroke-width="2.5" stroke-linecap="round"/>
    <path d="M92.3636 84.082V72.8689C92.3636 71.8368 93.1145 71.0001 94.0408 71.0001H156.096C157.023 71.0001 157.773 71.8368 157.773 72.8689V84.082" stroke="#1A62F5" stroke-width="2.5"/>
    <path d="M109.649 103.705C111.456 103.705 112.92 102.241 112.92 100.435C112.92 98.6283 111.456 97.1641 109.649 97.1641C107.843 97.1641 106.379 98.6283 106.379 100.435C106.379 102.241 107.843 103.705 109.649 103.705Z" fill="#E5E5EA" stroke="#1A62F5" stroke-width="2.5" stroke-linecap="round"/>
    <path d="M140.485 103.705C142.292 103.705 143.756 102.241 143.756 100.435C143.756 98.6283 142.292 97.1641 140.485 97.1641C138.679 97.1641 137.215 98.6283 137.215 100.435C137.215 102.241 138.679 103.705 140.485 103.705Z" fill="#E5E5EA" stroke="#1A62F5" stroke-width="2.5" stroke-linecap="round"/>
    <path d="M140.019 103.705C140.019 111.962 133.325 118.656 125.068 118.656C116.811 118.656 110.117 111.962 110.117 103.705" stroke="#1A62F5" stroke-width="2.5" stroke-linecap="round"/>
    <path d="M93.3547 71.9316L99.9331 78.4253C100.326 78.8133 100.33 79.4464 99.9423 79.8395C99.8752 79.9075 99.7986 79.9656 99.715 80.0118L92.3633 84.0821" stroke="#1A62F5" stroke-width="2.5" stroke-linecap="round"/>
    <path d="M156.94 71.999L150.645 78.4195C150.258 78.8138 150.264 79.447 150.659 79.8336C150.725 79.8982 150.799 79.9533 150.88 79.9975L158.367 84.0818" stroke="#1A62F5" stroke-width="2.5" stroke-linecap="round"/>
</svg>
