<svg width="28" height="28" viewBox="0 0 28 28" fill="none" xmlns="http://www.w3.org/2000/svg">
<path d="M25 23.9001V21.7001C25 19.6499 23.5977 17.9272 21.7 17.4387M17.85 4.41993C19.4625 5.07266 20.6 6.65354 20.6 8.5001C20.6 10.3467 19.4625 11.9275 17.85 12.5803M19.5 23.9001C19.5 21.85 19.5 20.8249 19.1651 20.0163C18.7185 18.9382 17.8619 18.0816 16.7838 17.635C15.9752 17.3001 14.9501 17.3001 12.9 17.3001H9.6C7.54986 17.3001 6.52479 17.3001 5.71619 17.635C4.63807 18.0816 3.7815 18.9382 3.33493 20.0163C3 20.8249 3 21.85 3 23.9001M15.65 8.5001C15.65 10.9301 13.6801 12.9001 11.25 12.9001C8.81995 12.9001 6.85 10.9301 6.85 8.5001C6.85 6.07004 8.81995 4.1001 11.25 4.1001C13.6801 4.1001 15.65 6.07004 15.65 8.5001Z" stroke="#A4A7AE" stroke-width="2.2" stroke-linecap="round" stroke-linejoin="round"/>
</svg>
