<svg width="34" height="32" viewBox="0 0 34 32" fill="none" xmlns="http://www.w3.org/2000/svg">
<path d="M32.6119 14.9926L29.7757 17.1978C26.1477 13.8049 19.8007 12.1136 19.6036 12.0621C23.9963 15.0184 25.575 19.7571 25.7364 20.2796L16.9186 26.7337L16.0978 27.3353L16.0826 27.3456L9.93779 31.658C7.82383 32.7838 5.35131 30.9671 5.75575 28.5831L7.74906 21.4742L7.75586 21.4553L8.12971 20.2848L11.508 9.70388L14.4155 1.62555C15.4742 -0.54185 18.5296 -0.54185 19.5866 1.62555L21.5901 7.50382C22.0676 8.90636 23.3591 9.85857 24.8256 9.88951L31.0145 10.0236C33.38 10.3708 34.3231 13.3116 32.6119 14.9978V14.9926Z" fill="url(#paint0_linear_7190_12096)"/>
<path opacity="0.8" d="M24.0618 31.6563L18.488 27.8853L16.9178 26.7337L8.12888 20.2831L6.73034 19.2552L1.38936 14.9943C-0.321866 13.3082 0.62296 10.369 2.98672 10.0201L6.33779 9.89466L11.5071 9.70044C14.9058 9.70044 17.555 10.687 19.5976 12.0603C19.5976 12.0603 19.5976 12.0603 19.601 12.0603H19.6044C23.9972 15.0167 25.5759 19.7554 25.7373 20.2779C25.7458 20.3088 25.7526 20.3243 25.7526 20.3243L27.2565 25.3037L28.2472 28.5797C28.6516 30.9619 26.1791 32.7787 24.0652 31.6546L24.0618 31.6563Z" fill="url(#paint1_linear_7190_12096)"/>
<defs>
<linearGradient id="paint0_linear_7190_12096" x1="10.3762" y1="5.86238" x2="20.8623" y2="22.6789" gradientUnits="userSpaceOnUse">
<stop stop-color="#D1D3D4"/>
<stop offset="0.31" stop-color="#DBDCDD"/>
<stop offset="0.85" stop-color="#F6F6F6"/>
<stop offset="1" stop-color="white"/>
</linearGradient>
<linearGradient id="paint1_linear_7190_12096" x1="15.4564" y1="10.3364" x2="14.636" y2="18.449" gradientUnits="userSpaceOnUse">
<stop stop-color="white"/>
<stop offset="0.5" stop-color="#F4F5F5"/>
<stop offset="1" stop-color="#E6E7E8"/>
</linearGradient>
</defs>
</svg>
