<svg width="67" height="22" viewBox="0 0 67 22" fill="none" xmlns="http://www.w3.org/2000/svg">
    <path d="M9.27901 4.6635C6.46357 3.7913 4.79962 4.15087 3.98074 6.56189C3.80088 7.09989 3.69875 8.22932 3.80088 9.22924C1.39488 10.1014 0.115053 11.8712 0.729659 15.0005L2.00949 21.6947L4.69748 20.5408L4.10818 14.1029L8.22966 13.0767C9.61162 12.7434 10.9168 12.0759 11.864 9.30623C12.5039 7.40784 11.2241 5.27939 9.27901 4.6635Z" fill="#266CF1"/>
    <path d="M23.7148 9.43648H22.3328C21.4624 6.48654 19.1332 4.69141 17.6229 4.69141C16.241 4.69141 14.7822 6.81985 13.9371 10.3078C13.3225 12.8728 15.9852 14.2069 19.5174 14.4886C19.5427 14.7195 19.568 14.9251 19.568 15.0791C17.0852 16.0537 13.7319 17.1568 11.3521 17.8488L11.147 19.4393C12.5551 19.7472 14.5517 19.9519 16.0105 19.9519C19.389 19.9519 21.5899 17.7211 22.3581 14.5402H23.7401C23.9705 14.5402 24.1495 14.3609 24.1495 14.1046V9.87213C24.1495 9.64117 23.9959 9.43648 23.7148 9.43648Z" fill="#266CF1"/>
    <path d="M23.74 14.5412H30.8044C31.0348 14.5412 31.2138 14.3619 31.2138 14.1056V9.87315C31.2138 9.64219 31.0601 9.4375 30.779 9.4375H23.7653C23.4842 9.4375 23.3306 9.64219 23.3306 9.87315V14.1056C23.3306 14.3619 23.5095 14.5412 23.74 14.5412Z" fill="#266CF1"/>
    <path d="M30.8049 14.5412H37.8693C38.0998 14.5412 38.2787 14.3619 38.2787 14.1056V9.87315C38.2787 9.64219 38.1251 9.4375 37.844 9.4375H30.8303C30.5492 9.4375 30.3955 9.64219 30.3955 9.87315V14.1056C30.3955 14.3619 30.5745 14.5412 30.8049 14.5412Z" fill="#266CF1"/>
    <path d="M37.8692 14.5412H44.9335C45.164 14.5412 45.3429 14.3619 45.3429 14.1056V9.87315C45.3429 9.64219 45.1893 9.4375 44.9082 9.4375H37.8945C37.6134 9.4375 37.4597 9.64219 37.4597 9.87315V14.1056C37.4597 14.3619 37.6387 14.5412 37.8692 14.5412Z" fill="#266CF1"/>
    <path d="M59.702 9.43593H58.2947C56.6045 8.43511 56.1951 3.48535 52.7145 3.48535C50.5389 3.48535 48.696 5.51145 47.2878 9.43593H44.9334C44.6514 9.43593 44.5239 9.46129 44.5239 9.7946V14.2571C44.5239 14.4373 44.5754 14.5397 44.9334 14.5397H45.8806C45.6248 15.7968 45.3943 17.13 45.1891 18.5919L46.2647 19.0538C46.6226 17.6689 47.0321 16.0785 47.5183 14.5397H59.702C60.0608 14.5397 60.1114 14.4373 60.1114 14.2571V9.7946C60.1114 9.46129 59.984 9.43593 59.702 9.43593ZM52.0998 8.38349C52.5608 8.48674 52.9449 8.89703 53.3291 9.43593H49.899C50.5389 8.64071 51.281 8.20415 52.0998 8.38349ZM49.2844 17.0277L51.3325 18.7975L53.7891 16.9253L51.7419 15.1809L49.2844 17.0277Z" fill="#266CF1"/>
    <path d="M63.8225 3.92123L66.28 2.0491L64.2319 0.304688L61.7753 2.15145L63.8225 3.92123ZM66.5873 3.94659L62.85 6.6402C63.2594 7.66638 63.2088 8.87099 63.0289 9.43616H59.7019C59.4199 9.43616 59.2925 9.46152 59.2925 9.79483V14.2573C59.2925 14.4375 59.344 14.5399 59.7019 14.5399H60.7513C62.85 14.5399 64.0023 14.2319 65.5117 11.9749C66.9452 9.82019 67.4315 8.02505 66.5873 3.94659Z" fill="#266CF1"/>
</svg>
