<svg width="50" height="16" viewBox="0 0 50 16" fill="none" xmlns="http://www.w3.org/2000/svg">
<path d="M0.115234 11.2278V7.9904C0.115234 7.36543 0.184375 6.82586 0.324013 6.3717C0.465006 5.91821 0.695475 5.4871 1.01542 5.07836C1.39841 4.59234 1.87087 4.21545 2.43349 3.9477C2.99542 3.67859 3.58312 3.5437 4.1959 3.5437C4.91171 3.5437 5.59227 3.72672 6.23759 4.0914C6.8829 4.45473 7.39671 4.94956 7.78038 5.57454C7.95933 5.86941 8.09625 6.2307 8.19251 6.65911C8.28809 7.08615 8.33621 7.55522 8.33621 8.06632V11.5152C8.32333 11.9511 8.202 12.2961 7.97288 12.551C7.74309 12.8059 7.44281 12.9333 7.0727 12.9333C6.68903 12.9333 6.37926 12.8031 6.14269 12.5429C5.90544 12.2812 5.78749 11.9382 5.78749 11.5152V8.29679C5.78749 7.91381 5.77461 7.63928 5.74953 7.47253C5.72377 7.30645 5.67904 7.14038 5.61396 6.97363C5.50008 6.71876 5.31164 6.50862 5.04999 6.34187C4.78766 6.1758 4.50907 6.09242 4.21488 6.09242C3.76817 6.09242 3.39739 6.25239 3.1032 6.57234C2.81037 6.89229 2.66395 7.28205 2.66395 7.74096V11.5152C2.65108 11.9511 2.52906 12.2961 2.29792 12.551C2.06812 12.8059 1.76173 12.9333 1.37875 12.9333C1.00796 12.9333 0.704287 12.8031 0.467717 12.5429C0.232503 12.2812 0.115234 11.9382 0.115234 11.5152V11.2278Z" fill="#266CF1"/>
<path d="M14.7383 3.54395C15.3891 3.54395 16.0018 3.66867 16.5766 3.91812C17.1515 4.16757 17.6531 4.50649 18.0815 4.9349C18.5099 5.36194 18.8488 5.8622 19.0983 6.43701C19.3477 7.01183 19.4724 7.63207 19.4724 8.29704C19.4724 8.93557 19.3477 9.53886 19.0983 10.1083C18.8488 10.6763 18.5058 11.1738 18.0706 11.6022C17.6368 12.0306 17.1325 12.3696 16.5577 12.619C15.9829 12.8685 15.3701 12.9932 14.7193 12.9932C14.0666 12.9932 13.449 12.8719 12.8674 12.6299C12.2872 12.3858 11.7829 12.0537 11.3545 11.6321C10.9274 11.2111 10.5858 10.7197 10.3296 10.1571C10.0747 9.59512 9.94727 8.99387 9.94727 8.35398C9.94727 7.67816 10.0706 7.0464 10.3187 6.45871C10.5682 5.86965 10.9071 5.36194 11.3355 4.9349C11.7639 4.50649 12.2682 4.16757 12.8485 3.91812C13.4301 3.66867 14.0605 3.54395 14.7383 3.54395ZM14.7383 6.09267C14.4306 6.09267 14.1425 6.15096 13.8734 6.2662C13.6056 6.38007 13.3724 6.53666 13.1738 6.73527C12.9766 6.93456 12.8241 7.16774 12.7156 7.43481C12.6072 7.70256 12.5529 7.99607 12.5529 8.31602C12.5529 8.598 12.6099 8.86643 12.7237 9.12131C12.839 9.37618 12.9956 9.59987 13.1928 9.79102C13.3914 9.98285 13.6219 10.134 13.8842 10.2438C14.1459 10.3523 14.4245 10.4065 14.7193 10.4065C15.0122 10.4065 15.2894 10.3489 15.5517 10.233C15.8134 10.1177 16.0432 9.96387 16.2404 9.77204C16.439 9.58089 16.5956 9.35381 16.7095 9.09148C16.8247 8.82983 16.883 8.55191 16.883 8.25908C16.883 7.95201 16.8247 7.66731 16.7095 7.40499C16.5956 7.14334 16.4424 6.91626 16.2513 6.72442C16.0594 6.53327 15.8324 6.38007 15.5707 6.2662C15.3084 6.15096 15.0311 6.09267 14.7383 6.09267Z" fill="#266CF1"/>
<path d="M22.4996 0C22.9206 0 23.2778 0.147772 23.5706 0.441959C23.8648 0.734791 24.0126 1.09202 24.0126 1.51296C24.0126 1.93459 23.8621 2.2952 23.5625 2.59481C23.2622 2.8951 22.9016 3.04491 22.4807 3.04491C22.059 3.04491 21.6977 2.89849 21.3961 2.60566C21.0958 2.31147 20.946 1.95967 20.946 1.55092C20.946 1.1049 21.0931 0.734791 21.388 0.441959C21.6822 0.147772 22.0529 0 22.4996 0ZM20.5257 13.3374C20.9338 13.0825 21.1385 12.4752 21.1385 11.5153V5.01881C21.1507 4.58499 21.2721 4.24064 21.5018 3.98576C21.733 3.72954 22.0401 3.60075 22.4237 3.60075C22.8067 3.60075 23.1131 3.73225 23.3429 3.9939C23.572 4.25623 23.6872 4.59786 23.6872 5.01881V12.0902C23.6872 12.3599 23.6872 12.5775 23.6872 12.7436C23.6872 12.9097 23.6805 13.05 23.6683 13.1639C23.6554 13.2791 23.6425 13.3787 23.6303 13.4621C23.6174 13.5448 23.5923 13.6438 23.5544 13.7577C23.4764 14.0647 23.3483 14.3555 23.1694 14.6307C22.9904 14.9053 22.7796 15.1446 22.5376 15.3493C22.2949 15.5533 22.0333 15.7126 21.7513 15.8265C21.4707 15.9417 21.19 16 20.908 16C20.4613 16 20.1007 15.8787 19.8262 15.6367C19.5517 15.394 19.4141 15.0876 19.4141 14.7175C19.4141 14.2688 19.6188 13.9176 20.0268 13.6628L20.5257 13.3374Z" fill="#266CF1"/>
<path d="M30.2227 3.54395C30.8734 3.54395 31.4862 3.66867 32.061 3.91812C32.6358 4.16757 33.1375 4.50649 33.5659 4.9349C33.9943 5.36194 34.3332 5.8622 34.5826 6.43701C34.8321 7.01183 34.9568 7.63207 34.9568 8.29704C34.9568 8.93557 34.8321 9.53886 34.5826 10.1083C34.3332 10.6763 33.9902 11.1738 33.555 11.6022C33.1212 12.0306 32.6169 12.3696 32.042 12.619C31.4672 12.8685 30.8544 12.9932 30.2037 12.9932C29.5509 12.9932 28.9334 12.8719 28.3518 12.6299C27.7716 12.3858 27.2673 12.0537 26.8389 11.6321C26.4118 11.2111 26.0702 10.7197 25.8139 10.1571C25.5591 9.59512 25.4316 8.99387 25.4316 8.35398C25.4316 7.67816 25.555 7.0464 25.8031 6.45871C26.0526 5.86965 26.3915 5.36194 26.8199 4.9349C27.2483 4.50649 27.7526 4.16757 28.3328 3.91812C28.9144 3.66867 29.5448 3.54395 30.2227 3.54395ZM30.2227 6.09267C29.9149 6.09267 29.6269 6.15096 29.3578 6.2662C29.09 6.38007 28.8568 6.53666 28.6582 6.73527C28.461 6.93456 28.3084 7.16774 28.2 7.43481C28.0915 7.70256 28.0373 7.99607 28.0373 8.31602C28.0373 8.598 28.0942 8.86643 28.2081 9.12131C28.3234 9.37618 28.4799 9.59987 28.6772 9.79102C28.8758 9.98285 29.1063 10.134 29.3686 10.2438C29.6303 10.3523 29.9088 10.4065 30.2037 10.4065C30.4965 10.4065 30.7738 10.3489 31.0361 10.233C31.2978 10.1177 31.5276 9.96387 31.7248 9.77204C31.9234 9.58089 32.08 9.35381 32.1939 9.09148C32.3091 8.82983 32.3674 8.55191 32.3674 8.25908C32.3674 7.95201 32.3091 7.66731 32.1939 7.40499C32.08 7.14334 31.9268 6.91626 31.7357 6.72442C31.5438 6.53327 31.3167 6.38007 31.0551 6.2662C30.7928 6.15096 30.5155 6.09267 30.2227 6.09267Z" fill="#266CF1"/>
<path d="M36.5664 11.2281V7.39685C36.5664 6.87287 36.6708 6.37736 36.8809 5.911C37.0924 5.44464 37.3771 5.03657 37.735 4.68545C38.0929 4.33296 38.5112 4.05504 38.9904 3.85033C39.469 3.6463 39.9774 3.54395 40.5142 3.54395C41.4469 3.54395 42.3539 3.88965 43.2365 4.5797C44.0404 3.88965 44.9284 3.54395 45.8991 3.54395C46.4481 3.54395 46.9626 3.64969 47.4419 3.86118C47.9204 4.07131 48.342 4.35872 48.7054 4.72341C49.0701 5.08673 49.3575 5.51514 49.5676 6.00861C49.7791 6.50073 49.8848 7.01997 49.8848 7.56767V11.5155C49.8719 11.9513 49.7533 12.2964 49.5296 12.5512C49.3073 12.8061 49.0043 12.9335 48.6213 12.9335C48.2376 12.9335 47.9279 12.8034 47.6913 12.5431C47.4541 12.2814 47.3361 11.9385 47.3361 11.5155V8.04759C47.3361 7.71544 47.3259 7.46938 47.3063 7.31009C47.288 7.15147 47.2473 7.00099 47.1843 6.85999C47.0812 6.618 46.9145 6.42346 46.6854 6.27704C46.4556 6.12927 46.2 6.05471 45.918 6.05471C45.6632 6.05471 45.43 6.11571 45.2185 6.23637C45.007 6.35771 44.8504 6.52785 44.7494 6.74611C44.6586 6.92371 44.5976 7.10131 44.5651 7.28026C44.5339 7.45921 44.519 7.71544 44.519 8.04759V11.5155C44.519 11.9513 44.4037 12.2964 44.1746 12.5512C43.9448 12.8061 43.6384 12.9335 43.2554 12.9335C42.8718 12.9335 42.562 12.8034 42.3254 12.5431C42.0882 12.2814 41.9702 11.9385 41.9702 11.5155V8.04759C41.9702 7.58868 41.9323 7.23078 41.8564 6.97387C41.7784 6.69392 41.6184 6.46413 41.3764 6.28518C41.1338 6.10622 40.8592 6.01675 40.5522 6.01675C40.2322 6.01675 39.9536 6.10351 39.7171 6.27704C39.4818 6.44922 39.3192 6.68104 39.229 6.97387C39.1782 7.11487 39.1463 7.25993 39.1341 7.4077C39.1212 7.55411 39.1151 7.76764 39.1151 8.04759V11.5155C39.1022 11.9513 38.9802 12.2964 38.7491 12.5512C38.5193 12.8061 38.2129 12.9335 37.8299 12.9335C37.4591 12.9335 37.1555 12.8034 36.9189 12.5431C36.6837 12.2814 36.5664 11.9385 36.5664 11.5155V11.2281Z" fill="#266CF1"/>
</svg>
