<svg width="68" height="22" viewBox="0 0 68 22" fill="none" xmlns="http://www.w3.org/2000/svg">
    <path d="M0.94751 15.3148V10.9874C0.94751 10.152 1.03993 9.43072 1.22658 8.82365C1.41505 8.21747 1.72312 7.6412 2.15079 7.09483C2.66273 6.44517 3.29427 5.94139 4.04632 5.58348C4.79747 5.22377 5.58304 5.04346 6.40215 5.04346C7.35897 5.04346 8.26868 5.2881 9.13128 5.77557C9.99387 6.26124 10.6807 6.92268 11.1935 7.75809C11.4327 8.15224 11.6158 8.63518 11.7444 9.20783C11.8722 9.77866 11.9365 10.4057 11.9365 11.0889V15.699C11.9193 16.2816 11.7571 16.7428 11.4509 17.0835C11.1437 17.4242 10.7423 17.5946 10.2476 17.5946C9.73473 17.5946 9.32065 17.4206 9.00442 17.0726C8.68729 16.7229 8.52963 16.2644 8.52963 15.699V11.3969C8.52963 10.885 8.51242 10.518 8.47889 10.2951C8.44446 10.0731 8.38466 9.85115 8.29768 9.62825C8.14545 9.28756 7.89356 9.00668 7.54381 8.78378C7.19316 8.56179 6.82076 8.45034 6.42752 8.45034C5.83041 8.45034 5.33478 8.66418 4.94154 9.09185C4.55011 9.51952 4.35439 10.0405 4.35439 10.6539V15.699C4.33718 16.2816 4.17408 16.7428 3.86511 17.0835C3.55794 17.4242 3.14839 17.5946 2.63645 17.5946C2.14082 17.5946 1.7349 17.4206 1.41867 17.0726C1.10426 16.7229 0.94751 16.2644 0.94751 15.699V15.3148Z" fill="#266CF1"/>
    <path d="M20.4933 5.04346C21.3632 5.04346 22.1823 5.21018 22.9506 5.54362C23.719 5.87706 24.3895 6.3301 24.9621 6.90274C25.5348 7.47358 25.9878 8.14227 26.3213 8.91063C26.6547 9.67899 26.8214 10.5081 26.8214 11.3969C26.8214 12.2505 26.6547 13.0569 26.3213 13.818C25.9878 14.5773 25.5293 15.2424 24.9476 15.815C24.3677 16.3877 23.6936 16.8407 22.9253 17.1741C22.1569 17.5076 21.3378 17.6743 20.468 17.6743C19.5954 17.6743 18.77 17.5121 17.9925 17.1886C17.2169 16.8624 16.5428 16.4185 15.9701 15.8549C15.3993 15.2922 14.9426 14.6353 14.6001 13.8832C14.2595 13.1321 14.0891 12.3284 14.0891 11.473C14.0891 10.5697 14.254 9.7252 14.5856 8.93963C14.9191 8.15224 15.3721 7.47358 15.9448 6.90274C16.5174 6.3301 17.1915 5.87706 17.9672 5.54362C18.7446 5.21018 19.5872 5.04346 20.4933 5.04346ZM20.4933 8.45034C20.082 8.45034 19.6969 8.52826 19.3372 8.6823C18.9793 8.83452 18.6676 9.04383 18.4021 9.30931C18.1384 9.5757 17.9345 9.88739 17.7896 10.2444C17.6446 10.6023 17.5721 10.9946 17.5721 11.4223C17.5721 11.7992 17.6482 12.158 17.8004 12.4987C17.9545 12.8394 18.1638 13.1384 18.4274 13.3939C18.6929 13.6504 19.001 13.8524 19.3517 13.9992C19.7014 14.1442 20.0738 14.2167 20.468 14.2167C20.8594 14.2167 21.23 14.1397 21.5806 13.9847C21.9304 13.8307 22.2375 13.625 22.5012 13.3686C22.7667 13.1131 22.976 12.8095 23.1282 12.4589C23.2823 12.1091 23.3602 11.7376 23.3602 11.3462C23.3602 10.9357 23.2823 10.5552 23.1282 10.2045C22.976 9.85477 22.7712 9.55123 22.5157 9.29481C22.2593 9.03929 21.9557 8.83452 21.606 8.6823C21.2553 8.52826 20.8848 8.45034 20.4933 8.45034Z" fill="#266CF1"/>
    <path d="M30.8679 0.306396C31.4306 0.306396 31.9081 0.503923 32.2995 0.897164C32.6928 1.28859 32.8903 1.7661 32.8903 2.32878C32.8903 2.89236 32.6891 3.3744 32.2887 3.77489C31.8873 4.17629 31.4052 4.37653 30.8425 4.37653C30.279 4.37653 29.796 4.18082 29.3928 3.78939C28.9914 3.39615 28.7912 2.92589 28.7912 2.37952C28.7912 1.78332 28.9878 1.28859 29.3819 0.897164C29.7752 0.503923 30.2708 0.306396 30.8679 0.306396ZM28.2294 18.1345C28.7749 17.7938 29.0485 16.982 29.0485 15.699V7.01505C29.0648 6.43516 29.227 5.97487 29.5342 5.63418C29.8431 5.29168 30.2536 5.11952 30.7664 5.11952C31.2784 5.11952 31.6879 5.2953 31.9951 5.64505C32.3013 5.99571 32.4554 6.45238 32.4554 7.01505V16.4673C32.4554 16.828 32.4554 17.1188 32.4554 17.3408C32.4554 17.5628 32.4463 17.7504 32.43 17.9026C32.4128 18.0566 32.3956 18.1898 32.3793 18.3013C32.362 18.4118 32.3285 18.5441 32.2778 18.6963C32.1736 19.1068 32.0023 19.4955 31.7631 19.8633C31.5239 20.2303 31.2421 20.5502 30.9187 20.8238C30.5943 21.0965 30.2445 21.3095 29.8676 21.4617C29.4925 21.6157 29.1174 21.6936 28.7404 21.6936C28.1433 21.6936 27.6613 21.5315 27.2943 21.208C26.9273 20.8836 26.7434 20.4741 26.7434 19.9793C26.7434 19.3795 27.017 18.9101 27.5625 18.5695L28.2294 18.1345Z" fill="#266CF1"/>
    <path d="M41.1916 5.04346C42.0614 5.04346 42.8805 5.21018 43.6489 5.54362C44.4172 5.87706 45.0877 6.3301 45.6604 6.90274C46.233 7.47358 46.6861 8.14227 47.0195 8.91063C47.353 9.67899 47.5197 10.5081 47.5197 11.3969C47.5197 12.2505 47.353 13.0569 47.0195 13.818C46.6861 14.5773 46.2276 15.2424 45.6459 15.815C45.066 16.3877 44.3919 16.8407 43.6235 17.1741C42.8551 17.5076 42.036 17.6743 41.1662 17.6743C40.2936 17.6743 39.4682 17.5121 38.6908 17.1886C37.9152 16.8624 37.241 16.4185 36.6684 15.8549C36.0976 15.2922 35.6409 14.6353 35.2984 13.8832C34.9577 13.1321 34.7874 12.3284 34.7874 11.473C34.7874 10.5697 34.9523 9.7252 35.2839 8.93963C35.6173 8.15224 36.0704 7.47358 36.643 6.90274C37.2157 6.3301 37.8898 5.87706 38.6654 5.54362C39.4428 5.21018 40.2855 5.04346 41.1916 5.04346ZM41.1916 8.45034C40.7802 8.45034 40.3951 8.52826 40.0354 8.6823C39.6775 8.83452 39.3658 9.04383 39.1003 9.30931C38.8367 9.5757 38.6328 9.88739 38.4878 10.2444C38.3428 10.6023 38.2703 10.9946 38.2703 11.4223C38.2703 11.7992 38.3465 12.158 38.4987 12.4987C38.6527 12.8394 38.862 13.1384 39.1257 13.3939C39.3912 13.6504 39.6992 13.8524 40.0499 13.9992C40.3996 14.1442 40.772 14.2167 41.1662 14.2167C41.5576 14.2167 41.9282 14.1397 42.2789 13.9847C42.6286 13.8307 42.9358 13.625 43.1995 13.3686C43.4649 13.1131 43.6742 12.8095 43.8265 12.4589C43.9805 12.1091 44.0584 11.7376 44.0584 11.3462C44.0584 10.9357 43.9805 10.5552 43.8265 10.2045C43.6742 9.85477 43.4695 9.55123 43.214 9.29481C42.9575 9.03929 42.654 8.83452 42.3042 8.6823C41.9536 8.52826 41.583 8.45034 41.1916 8.45034Z" fill="#266CF1"/>
    <path d="M49.6707 15.3148V10.1936C49.6707 9.49324 49.8102 8.83089 50.0911 8.20751C50.3738 7.58412 50.7543 7.03866 51.2327 6.56931C51.7112 6.09814 52.2702 5.72665 52.9108 5.45301C53.5505 5.18028 54.2301 5.04346 54.9477 5.04346C56.1945 5.04346 57.4068 5.50556 58.5865 6.42796C59.6612 5.50556 60.8481 5.04346 62.1456 5.04346C62.8796 5.04346 63.5673 5.18481 64.2079 5.46751C64.8476 5.74839 65.4112 6.13257 65.8968 6.62005C66.3843 7.10571 66.7685 7.67835 67.0494 8.33798C67.3321 8.9958 67.4734 9.68986 67.4734 10.422V15.699C67.4562 16.2816 67.2976 16.7428 66.9986 17.0835C66.7014 17.4242 66.2964 17.5946 65.7845 17.5946C65.2716 17.5946 64.8576 17.4206 64.5413 17.0726C64.2242 16.7229 64.0665 16.2644 64.0665 15.699V11.0635C64.0665 10.6195 64.053 10.2906 64.0267 10.0777C64.0022 9.86564 63.9478 9.66449 63.8636 9.47603C63.7259 9.15256 63.503 8.89251 63.1967 8.69679C62.8895 8.49927 62.5479 8.3996 62.171 8.3996C61.8303 8.3996 61.5186 8.48115 61.2359 8.64243C60.9532 8.80462 60.7439 9.03205 60.6089 9.32381C60.4875 9.5612 60.406 9.79859 60.3625 10.0378C60.3208 10.277 60.3009 10.6195 60.3009 11.0635V15.699C60.3009 16.2816 60.1468 16.7428 59.8406 17.0835C59.5334 17.4242 59.1238 17.5946 58.6119 17.5946C58.0991 17.5946 57.685 17.4206 57.3688 17.0726C57.0516 16.7229 56.894 16.2644 56.894 15.699V11.0635C56.894 10.4501 56.8432 9.97166 56.7417 9.62825C56.6375 9.25404 56.4237 8.94687 56.1002 8.70767C55.7759 8.46846 55.4089 8.34886 54.9984 8.34886C54.5708 8.34886 54.1984 8.46484 53.8821 8.69679C53.5677 8.92694 53.3503 9.23682 53.2298 9.62825C53.1618 9.81672 53.1192 10.0106 53.1029 10.2081C53.0857 10.4039 53.0775 10.6893 53.0775 11.0635V15.699C53.0603 16.2816 52.8972 16.7428 52.5883 17.0835C52.2811 17.4242 51.8715 17.5946 51.3596 17.5946C50.864 17.5946 50.458 17.4206 50.1418 17.0726C49.8274 16.7229 49.6707 16.2644 49.6707 15.699V15.3148Z" fill="#266CF1"/>
</svg>
