<svg width="50" height="48" viewBox="0 0 50 48" fill="none" xmlns="http://www.w3.org/2000/svg">
    <path d="M48.5692 22.4889L44.2696 25.7967C38.7695 20.7074 29.1475 18.1704 28.8487 18.0931C35.5081 22.5276 37.9013 29.6357 38.1461 30.4194L24.7783 40.1005L23.5341 41.0029L23.5109 41.0184L14.1955 47.487C10.9907 49.1758 7.24239 46.4506 7.85552 42.8747L10.8774 32.2113L10.8877 32.1829L11.4544 30.4272L16.5758 14.5558L20.9836 2.43832C22.5886 -0.812775 27.2205 -0.812775 28.8229 2.43832L31.8602 11.2557C32.5841 13.3595 34.542 14.7879 36.7652 14.8343L46.1476 15.0354C49.7336 15.5562 51.1634 19.9674 48.5692 22.4966V22.4889Z" fill="url(#paint0_linear_8328_3482)"/>
    <path opacity="0.8" d="M35.6941 47.4921L27.2447 41.8481L24.8644 40.1246L11.5411 30.4702L9.42101 28.9318L1.32451 22.5547C-1.26957 20.0312 0.162711 15.6323 3.74599 15.1101L8.82595 14.9223L16.6623 14.6316C21.8144 14.6316 25.8304 16.1082 28.9268 18.1636C28.9268 18.1636 28.9268 18.1636 28.932 18.1636H28.9371C35.5962 22.5882 37.9893 29.6804 38.2341 30.4624C38.2469 30.5088 38.2572 30.5319 38.2572 30.5319L40.537 37.9843L42.0389 42.8874C42.652 46.4528 38.9038 49.1719 35.6992 47.4895L35.6941 47.4921Z" fill="url(#paint1_linear_8328_3482)"/>
    <defs>
        <linearGradient id="paint0_linear_8328_3482" x1="14.8601" y1="8.79356" x2="30.5153" y2="34.1674" gradientUnits="userSpaceOnUse">
            <stop stop-color="#0079FE"/>
            <stop offset="0.18" stop-color="#0583FA"/>
            <stop offset="0.48" stop-color="#159EF1"/>
            <stop offset="0.87" stop-color="#2ECAE2"/>
            <stop offset="1" stop-color="#38DADD"/>
        </linearGradient>
        <linearGradient id="paint1_linear_8328_3482" x1="22.649" y1="15.5834" x2="21.4365" y2="27.7283" gradientUnits="userSpaceOnUse">
            <stop stop-color="#9F00FB"/>
            <stop offset="0.15" stop-color="#9407FA"/>
            <stop offset="0.4" stop-color="#791AF7"/>
            <stop offset="0.73" stop-color="#4D39F4"/>
            <stop offset="1" stop-color="#2556F1"/>
        </linearGradient>
    </defs>
</svg>
