<svg width="32" height="32" viewBox="0 0 32 32" fill="none" xmlns="http://www.w3.org/2000/svg">
<path d="M0 16C0 7.16344 7.16344 0 16 0C24.8366 0 32 7.16344 32 16C32 24.8366 24.8366 32 16 32C7.16344 32 0 24.8366 0 16Z" fill="#FEE4E2"/>
<g clip-path="url(#clip0_587_9673)">
<path d="M15.9987 13.3335V16.0002M15.9987 18.6668H16.0054M22.6654 16.0002C22.6654 19.6821 19.6806 22.6668 15.9987 22.6668C12.3168 22.6668 9.33203 19.6821 9.33203 16.0002C9.33203 12.3183 12.3168 9.3335 15.9987 9.3335C19.6806 9.3335 22.6654 12.3183 22.6654 16.0002Z" stroke="#D92D20" stroke-width="1.33333" stroke-linecap="round" stroke-linejoin="round"/>
</g>
<defs>
<clipPath id="clip0_587_9673">
<rect width="16" height="16" fill="white" transform="translate(8 8)"/>
</clipPath>
</defs>
</svg>
