<svg width="38" height="52" viewBox="0 0 38 52" fill="none" xmlns="http://www.w3.org/2000/svg">
    <path d="M1.26564 52V45.5528L18.2114 28.607C20.5132 26.3523 22.2864 24.4851 23.5312 23.0054C24.7995 21.5257 25.6803 20.2105 26.1735 19.0596C26.6667 17.9088 26.9133 16.7109 26.9133 15.4661V15.3604C26.9133 13.8573 26.5728 12.5185 25.8917 11.3442C25.2105 10.1698 24.2476 9.25384 23.0028 8.59621C21.7814 7.91509 20.3253 7.57453 18.6342 7.57453C16.8727 7.57453 15.3108 7.93857 13.9486 8.66667C12.6098 9.39476 11.5529 10.4047 10.7778 11.6965C10.0263 12.9883 9.65046 14.4679 9.65046 16.1355L9.61523 16.3469L0.737183 16.3117V16.1355C0.737183 12.9648 1.51225 10.1698 3.06239 7.75068C4.61252 5.33153 6.76157 3.44083 9.50954 2.07859C12.2575 0.692864 15.4048 0 18.9513 0C22.3334 0 25.328 0.622403 27.935 1.86721C30.5421 3.11201 32.5854 4.8383 34.0651 7.04607C35.5448 9.23035 36.2846 11.7552 36.2846 14.6206V14.7263C36.2846 16.6522 35.9206 18.5194 35.1925 20.3279C34.4644 22.1364 33.2313 24.0976 31.4933 26.2114C29.7552 28.3252 27.3478 30.8383 24.2711 33.7507L11.2358 46.2222L14.019 41.4309V46.2222L11.2358 44.2141H37.0597V52H1.26564Z" fill="#D9D6FE"/>
</svg>
