<svg width="39" height="52" viewBox="0 0 39 52" fill="none" xmlns="http://www.w3.org/2000/svg">
    <path d="M19.4677 52C15.7724 52 12.539 51.388 9.76755 50.1639C7.01916 48.9167 4.83661 47.1961 3.21991 45.002C1.62631 42.8079 0.714026 40.2789 0.483069 37.4151L0.448425 36.9993H9.38647L9.45575 37.3458C9.68671 39.3782 10.6914 41.0526 12.4697 42.3691C14.2481 43.6855 16.5692 44.3438 19.4331 44.3438C21.327 44.3438 22.9783 44.0204 24.3871 43.3737C25.796 42.7271 26.893 41.8379 27.6783 40.7062C28.4635 39.5514 28.8562 38.2234 28.8562 36.7222V36.6529C28.8562 34.0893 27.9554 32.1261 26.154 30.7635C24.3756 29.4008 21.9159 28.7195 18.7749 28.7195H12.9201V21.8254H18.6017C20.4031 21.8254 21.9736 21.5137 23.3132 20.8901C24.6758 20.2665 25.7267 19.4119 26.4657 18.3264C27.2279 17.2179 27.609 15.9476 27.609 14.5157V14.4464C27.609 12.9682 27.2856 11.7095 26.639 10.6702C25.9923 9.60782 25.0569 8.79947 23.8328 8.24517C22.6088 7.66778 21.1191 7.37908 19.3638 7.37908C17.6547 7.37908 16.1304 7.66778 14.7909 8.24517C13.4744 8.82256 12.4236 9.64246 11.6383 10.7049C10.853 11.7673 10.3796 13.0144 10.2179 14.4464L10.1833 14.7928H1.52238L1.55702 14.3771C1.81107 11.4901 2.70026 8.97268 4.22457 6.82478C5.77199 4.67688 7.82751 3.00244 10.3911 1.80147C12.9778 0.600489 15.9687 0 19.3638 0C22.8513 0 25.8768 0.565845 28.4404 1.69753C31.0271 2.80613 33.0249 4.35354 34.4338 6.33977C35.8657 8.30291 36.5817 10.5894 36.5817 13.1992V13.2685C36.5817 15.3471 36.1198 17.1832 35.1959 18.7768C34.2721 20.3473 33.0134 21.6522 31.4198 22.6915C29.8493 23.7078 28.0709 24.4237 26.0847 24.8394V25.0127C29.8031 25.3591 32.7709 26.5832 34.9881 28.6849C37.2283 30.7635 38.3485 33.5119 38.3485 36.93V36.9993C38.3485 39.9556 37.5517 42.5654 35.9581 44.8288C34.3876 47.0691 32.1819 48.8243 29.3412 50.0946C26.5004 51.3649 23.2093 52 19.4677 52Z" fill="#D9D6FE"/>
</svg>
