<svg width="43" height="52" viewBox="0 0 43 52" fill="none" xmlns="http://www.w3.org/2000/svg">
    <path d="M26.0651 52V42.1261H0.479492V34.1622C1.46448 32.5045 2.44946 30.8468 3.43445 29.1892C4.41943 27.5315 5.41643 25.8859 6.42544 24.2523C7.43445 22.5946 8.44346 20.9489 9.45247 19.3153C10.4615 17.6577 11.4705 16.012 12.4795 14.3784C13.4885 12.7447 14.4975 11.1231 15.5065 9.51351C16.5396 7.87988 17.5606 6.28228 18.5696 4.72072C19.5786 3.13514 20.5876 1.56156 21.5966 0H35.3624V34.1982H42.3173V42.1261H35.3624V52H26.0651ZM9.38039 34.4144H26.2453V7.56757H25.7768C25.008 8.74475 24.2272 9.94595 23.4344 11.1712C22.6417 12.3964 21.8489 13.6336 21.0561 14.8829C20.2633 16.1321 19.4705 17.3934 18.6777 18.6667C17.8849 19.9399 17.0921 21.2252 16.2993 22.5225C15.5065 23.7958 14.7137 25.0691 13.9209 26.3423C13.1522 27.6156 12.3834 28.8889 11.6146 30.1622C10.8699 31.4354 10.1251 32.6967 9.38039 33.9459V34.4144Z" fill="#D9D6FE"/>
</svg>
