<svg width="38" height="52" viewBox="0 0 38 52" fill="none" xmlns="http://www.w3.org/2000/svg">
    <path d="M18.599 52C15.0759 52 11.9757 51.3541 9.29817 50.0623C6.62066 48.7705 4.4951 47.009 2.92148 44.7778C1.37134 42.5465 0.47884 40.0334 0.243971 37.2385L0.20874 36.7453H9.01633L9.05156 36.9919C9.28643 38.3541 9.83837 39.5872 10.7074 40.6911C11.5764 41.7949 12.692 42.6757 14.0543 43.3333C15.4165 43.9675 16.9432 44.2846 18.6342 44.2846C20.5836 44.2846 22.2982 43.8618 23.7778 43.0163C25.2575 42.1707 26.4201 41.0081 27.2657 39.5285C28.1112 38.0253 28.5339 36.3107 28.5339 34.3848V34.3144C28.5339 32.3884 28.1112 30.6974 27.2657 29.2412C26.4201 27.7615 25.2575 26.6107 23.7778 25.7886C22.2982 24.9431 20.6071 24.5203 18.7047 24.5203C17.3189 24.5203 16.0272 24.72 14.8293 25.1192C13.655 25.5185 12.6098 26.1174 11.6938 26.916C11.2241 27.3153 10.7778 27.7615 10.3551 28.2547C9.9558 28.7245 9.6035 29.2412 9.29817 29.8049H1.0895L3.52039 0H34.5936V7.75068H10.9892L9.61524 22.8997H10.1437C11.2006 21.1852 12.6803 19.8464 14.5827 18.8835C16.5087 17.897 18.6929 17.4038 21.1356 17.4038C24.3298 17.4038 27.16 18.1319 29.6261 19.5881C32.1157 21.0208 34.0651 22.9937 35.4743 25.5068C36.8835 28.0199 37.5881 30.897 37.5881 34.1382V34.2087C37.5881 37.7082 36.7778 40.8085 35.1573 43.5095C33.5601 46.187 31.3289 48.2773 28.4635 49.7805C25.6216 51.2602 22.3334 52 18.599 52Z" fill="#D9D6FE"/>
</svg>
