<svg width="15" height="16" viewBox="0 0 15 16" fill="none" xmlns="http://www.w3.org/2000/svg">
    <path d="M12.0781 15.2266C12.9427 15.2266 13.6016 15.0026 14.0547 14.5547C14.5026 14.112 14.7266 13.4635 14.7266 12.6094V3.11719C14.7266 2.26302 14.5026 1.61198 14.0547 1.16406C13.6016 0.716146 12.9427 0.492188 12.0781 0.492188H2.64062C1.77604 0.492188 1.11979 0.716146 0.671875 1.16406C0.21875 1.61198 -0.0078125 2.26302 -0.0078125 3.11719V12.6094C-0.0078125 13.4635 0.21875 14.112 0.671875 14.5547C1.11979 15.0026 1.77604 15.2266 2.64062 15.2266H12.0781ZM11.9375 13.4922H2.78125C2.44271 13.4922 2.18229 13.4062 2 13.2344C1.81771 13.0573 1.72656 12.7891 1.72656 12.4297V3.30469C1.72656 2.94531 1.81771 2.67708 2 2.5C2.18229 2.32292 2.44271 2.23438 2.78125 2.23438H11.9375C12.2812 2.23438 12.5443 2.32292 12.7266 2.5C12.9036 2.67708 12.9922 2.94531 12.9922 3.30469V12.4297C12.9922 12.7891 12.9036 13.0573 12.7266 13.2344C12.5443 13.4062 12.2812 13.4922 11.9375 13.4922ZM4.92188 9.96094C5.13542 9.96094 5.30469 9.89323 5.42969 9.75781C5.55469 9.61719 5.61719 9.43229 5.61719 9.20312V8.03125L5.50781 6.97656L6.50781 8.07812L9.13281 10.7031C9.29427 10.8646 9.48958 10.9453 9.71875 10.9453C9.93229 10.9453 10.112 10.875 10.2578 10.7344C10.4036 10.5938 10.4766 10.4089 10.4766 10.1797C10.4766 9.97656 10.3958 9.79167 10.2344 9.625L7.59375 6.99219L6.48438 5.98438L7.49219 6.10938H8.73438C8.96354 6.10938 9.14844 6.04688 9.28906 5.92188C9.42969 5.79688 9.5 5.6276 9.5 5.41406C9.5 5.20052 9.43229 5.03125 9.29688 4.90625C9.15625 4.78125 8.96875 4.71875 8.73438 4.71875H5.11719C4.84635 4.71875 4.63281 4.79167 4.47656 4.9375C4.3151 5.08333 4.23438 5.30469 4.23438 5.60156V9.19531C4.23438 9.42448 4.29688 9.60938 4.42188 9.75C4.54688 9.89062 4.71354 9.96094 4.92188 9.96094Z" fill="#007AFF"/>
</svg>
