<?xml version="1.0" encoding="UTF-8"?>
<svg version="1.1" xmlns="http://www.w3.org/2000/svg" width="512" height="512">
<path d="M0 0 C0.83742399 -0.01284904 1.67484797 -0.02569809 2.53764844 -0.0389365 C5.34847836 -0.08044309 8.15934508 -0.11471072 10.97027588 -0.14865112 C12.98429107 -0.17619692 14.99830367 -0.20393185 17.01231384 -0.23184204 C35.41939122 -0.47729417 53.82767958 -0.61691114 72.23600388 -0.72828865 C84.60535054 -0.80484274 96.97270067 -0.91341053 109.34088135 -1.10275269 C120.13915999 -1.26804255 130.93604612 -1.37288552 141.73557115 -1.40552509 C147.44640011 -1.42475038 153.1534838 -1.47297767 158.86315155 -1.59332657 C164.24573409 -1.70567076 169.62286547 -1.73612325 175.00647926 -1.7064743 C176.97058094 -1.70952933 178.93490379 -1.74123195 180.89796257 -1.80530167 C189.46933035 -2.07067868 196.6475716 -2.06693197 203.32627106 3.85116959 C206.8120434 7.35284371 209.92199609 11.09415545 212.95802546 14.98743844 C216.00839552 18.77442165 219.39861901 22.23341776 222.76812744 25.73464966 C224.10300805 27.14985847 225.43652344 28.56635737 226.76812744 29.98464966 C227.42812744 30.68589966 228.08812744 31.38714966 228.76812744 32.10964966 C236.10146077 39.90131632 243.43479411 47.69298299 250.76812744 55.48464966 C251.75824829 56.53664551 251.75824829 56.53664551 252.76837158 57.6098938 C254.10091142 59.02572755 255.43343097 60.44158039 256.76593018 61.85745239 C260.11123731 65.41202004 263.45690293 68.96624897 266.80328369 72.51980591 C273.91966504 80.07751324 281.02832667 87.64231564 288.1260376 95.21755981 C295.32749517 102.90175453 302.54807869 110.567928 309.76812744 118.23464966 C312.45582852 121.08862707 315.14329148 123.94282845 317.83062744 126.79714966 C318.6938562 127.71355225 318.6938562 127.71355225 319.57452393 128.64846802 C320.80061558 129.95076218 322.00838744 131.27048164 323.19992447 132.60446453 C325.22052627 134.67383244 327.17547151 136.3937412 329.41663742 138.19307423 C337.04248204 144.70067081 341.51272965 150.46837844 342.45822859 160.65278661 C342.69593295 166.30480273 342.69705103 171.93250083 342.582407 177.58768499 C342.52728788 181.13313747 342.56007849 184.67801104 342.58132935 188.22367859 C342.60933024 195.14785963 342.55825709 202.06924375 342.47988954 208.99294873 C342.39169474 217.07061058 342.38508297 225.14774869 342.38181159 233.22581664 C342.37339317 247.64562029 342.29458704 262.06415993 342.17437744 276.48342896 C342.05804409 290.44805394 341.98724205 304.411878 341.96929932 318.37698364 C341.96818548 319.23763253 341.96707164 320.09828143 341.96592405 320.98501059 C341.9637109 322.71904389 341.96150078 324.45307719 341.95929371 326.1871105 C341.95819588 327.04267142 341.95709805 327.89823234 341.95596695 328.77971935 C341.95434705 330.06000039 341.95434705 330.06000039 341.95269443 331.36614568 C341.93415345 344.71521632 341.87736412 358.06415942 341.81531496 371.413089 C341.79321248 376.23612857 341.77599094 381.05915631 341.76220432 385.88222643 C341.73996239 393.53271508 341.70081556 401.18273088 341.62833229 408.83292194 C341.59549652 412.3242607 341.57000058 415.81518869 341.56602859 419.30669022 C341.55722819 423.10291503 341.51763592 426.89764401 341.47033691 430.69355774 C341.47466933 431.78093379 341.47900174 432.86830984 341.48346543 433.98863667 C341.24856749 446.62492227 336.29968053 457.93540164 327.76812744 467.23464966 C319.38602893 474.58910536 309.78949412 480.34727123 298.43404293 480.36887074 C296.80204304 480.3755575 296.80204304 480.3755575 295.13707346 480.38237935 C293.94225227 480.38219499 292.74743109 480.38201063 291.5164032 480.38182068 C290.24667839 480.38549737 288.97695357 480.38917405 287.66875225 480.39296216 C284.14173379 480.40297321 280.61473234 480.40669751 277.08770168 480.40935147 C273.2845194 480.41325722 269.48135057 480.42283542 265.67817688 480.43156433 C256.49172757 480.45132188 247.30527718 480.4613944 238.11881194 480.47029212 C233.79125926 480.47467649 229.4637078 480.48004294 225.13615608 480.48528099 C210.7475367 480.50229314 196.35891808 480.51678664 181.97029018 480.52402973 C178.23680559 480.52593959 174.503321 480.52785992 170.76983643 480.52981567 C169.84191204 480.53029941 168.91398765 480.53078315 167.95794434 480.53128155 C152.9309177 480.53957935 137.90397073 480.56491209 122.87697887 480.59739635 C107.44421816 480.63048537 92.01149792 480.64848019 76.57870156 480.65167397 C67.9157591 480.65383744 59.2529328 480.66256216 50.59002495 480.68813515 C43.21118295 480.70986739 35.83248532 480.71788021 28.45361494 480.70816837 C24.69119144 480.70363084 20.92906565 480.70547756 17.1666832 480.72492981 C13.08049298 480.74587298 8.99495982 480.73555318 4.90873718 480.72239685 C3.13992798 480.73885072 3.13992798 480.73885072 1.33538526 480.75563699 C-11.56119486 480.65560196 -22.49873414 475.95583442 -32.23187256 467.49636841 C-40.1993316 459.19100374 -45.34709737 447.88866161 -45.36888695 436.43811893 C-45.37286469 435.40881843 -45.37286469 435.40881843 -45.37692279 434.35872397 C-45.38461129 432.04839561 -45.38517479 429.73812045 -45.38577271 427.42778015 C-45.38978764 425.75892295 -45.39422591 424.09006672 -45.39905226 422.42121166 C-45.41102043 417.82630877 -45.41666679 413.23141638 -45.42123342 408.63650095 C-45.42718867 403.68398577 -45.4387988 398.73148315 -45.44952393 393.77897644 C-45.47405102 381.81310917 -45.48867623 369.84723773 -45.50158399 357.88135305 C-45.50529592 354.50142708 -45.50926916 351.12150152 -45.51333666 347.74157596 C-45.53857491 326.75178896 -45.56062763 305.76200131 -45.5730648 284.77220249 C-45.5759945 279.90983134 -45.57895616 275.04746021 -45.58197021 270.18508911 C-45.58271627 268.97657156 -45.58346232 267.768054 -45.58423097 266.5229147 C-45.5968811 246.95126477 -45.63009927 227.37970576 -45.67177205 207.80809832 C-45.71420875 187.71289779 -45.73776192 167.61774377 -45.74298537 147.52249855 C-45.74639767 136.24041165 -45.75813159 124.9584668 -45.7910881 113.67642403 C-45.81911368 104.06663138 -45.83007692 94.45700988 -45.81889264 84.84717954 C-45.81371232 79.94628455 -45.81655217 75.04574784 -45.84135818 70.14490509 C-45.86390907 65.65197331 -45.86306567 61.15965597 -45.84415431 56.66671299 C-45.84136246 55.04749179 -45.84690727 53.4282284 -45.86196725 51.80907483 C-45.99163322 36.95118877 -42.515898 24.44406279 -32.23187256 13.23464966 C-22.52610213 4.71880381 -12.84761633 0.14250083 0 0 Z " fill="#E5252A" transform="translate(108.23187255859375,15.765350341796875)"/>
<path d="M0 0 C2.82203236 1.35630865 4.77765977 2.55633311 6.890625 4.87890625 C7.42671387 5.46140137 7.96280273 6.04389648 8.51513672 6.64404297 C9.0876416 7.27713379 9.66014648 7.91022461 10.25 8.5625 C11.50732396 9.93143845 12.76515583 11.29991054 14.0234375 12.66796875 C14.67666992 13.38130371 15.32990234 14.09463867 16.00292969 14.82958984 C19.26347007 18.37313556 22.56984958 21.87311444 25.875 25.375 C27.22666632 26.80979804 28.57822811 28.24469455 29.9296875 29.6796875 C30.93854004 30.75041504 30.93854004 30.75041504 31.96777344 31.84277344 C35.31316868 35.39394023 38.65648894 38.94705932 42 42.5 C43.33332318 43.91667623 44.66665652 45.33334289 46 46.75 C48.66666667 49.58333333 51.33333333 52.41666667 54 55.25 C54.66008057 55.95133057 55.32016113 56.65266113 56.00024414 57.37524414 C57.33278398 58.79107789 58.66530353 60.20693074 59.99780273 61.62280273 C63.34310987 65.17737038 66.68877549 68.73159931 70.03515625 72.28515625 C77.1515376 79.84286358 84.26019923 87.40766598 91.35791016 94.98291016 C95.8785888 99.8066246 100.40606791 104.62388679 104.9375 109.4375 C105.59991699 110.14116699 106.26233398 110.84483398 106.94482422 111.56982422 C110.32058298 115.15528796 113.69715552 118.73998366 117.07421875 122.32421875 C119.74180779 125.15546945 122.40688499 127.98905328 125.0703125 130.82421875 C127.74342398 133.66899181 130.42711212 136.50329878 133.1171875 139.33203125 C134.41154282 140.70044093 135.70581707 142.06892729 137 143.4375 C137.90903076 144.38713623 137.90903076 144.38713623 138.83642578 145.35595703 C143 149.77372069 143 149.77372069 143 152 C127.78748794 152.09365343 112.57498921 152.16408178 97.36225319 152.20724869 C90.29788165 152.22782919 83.23368978 152.25586269 76.16943359 152.30175781 C69.3483549 152.34605174 62.52746274 152.36915743 55.70624924 152.37950897 C53.10760949 152.38688328 50.5089796 152.40128351 47.91041946 152.42292023 C44.26248614 152.45207856 40.6153168 152.45595064 36.96728516 152.45410156 C35.89985077 152.46848267 34.83241638 152.48286377 33.7326355 152.49768066 C23.90319763 152.44398723 15.97593836 149.80179437 8.75390625 142.98828125 C0.79904799 133.97041298 -0.29969558 124.28505129 -0.22705078 112.73071289 C-0.22734283 111.51049438 -0.22763489 110.29027588 -0.22793579 109.03308105 C-0.22678532 105.7049907 -0.21678957 102.37715178 -0.20278788 99.04910588 C-0.19024281 95.56443737 -0.18910705 92.07976512 -0.18673706 88.59507751 C-0.18053335 82.0043671 -0.16413763 75.41372343 -0.14403808 68.82304233 C-0.12164446 61.3163817 -0.11067696 53.80971779 -0.10064721 46.30303204 C-0.07977036 30.86864944 -0.04461607 15.43433334 0 0 Z " fill="#EC6669" transform="translate(305,16)"/>
<path d="M0 0 C49.87473904 0 49.87473904 0 62 12 C73.68818001 24.62645134 74.66970216 39.48795161 74.13623047 55.83007812 C73.43283871 67.03392387 66.97088584 77.39597502 59 85 C42.26862052 98.61688027 20.07207671 94 0 94 C0 62.98 0 31.96 0 0 Z " fill="#FEFCFC" transform="translate(227,291)"/>
<path d="M0 0 C54.99126638 0 54.99126638 0 65.046875 8.7890625 C72.46964735 16.75109609 74.84220538 24.32689461 74.50390625 35.20703125 C73.4220705 43.3501515 69.98018124 49.7744398 63.6875 55.0625 C54.34172123 61.52902369 44.16281378 62.15896349 33.125 62.0625 C29.78375 62.041875 26.4425 62.02125 23 62 C23 72.56 23 83.12 23 94 C15.41 94 7.82 94 0 94 C0 62.98 0 31.96 0 0 Z " fill="#FEFBFC" transform="translate(141,291)"/>
<path d="M0 0 C20.46 0 40.92 0 62 0 C62 5.61 62 11.22 62 17 C48.8 17 35.6 17 22 17 C22 24.26 22 31.52 22 39 C34.21 39 46.42 39 59 39 C59 44.61 59 50.22 59 56 C46.79 56 34.58 56 22 56 C22 68.54 22 81.08 22 94 C14.74 94 7.48 94 0 94 C0 62.98 0 31.96 0 0 Z " fill="#FEFEFE" transform="translate(313,291)"/>
<path d="M0 0 C16.88691796 0 16.88691796 0 21.828125 4.76171875 C22.53195312 5.71498047 22.53195312 5.71498047 23.25 6.6875 C23.96929687 7.62142578 23.96929687 7.62142578 24.703125 8.57421875 C29.92974734 18.35052137 29.54396391 32.78092551 27.27734375 43.37890625 C25.41244275 48.32429149 22.77548342 52.31660154 19 56 C14 58 14 58 0 58 C0 38.86 0 19.72 0 0 Z " fill="#E5262B" transform="translate(250,309)"/>
<path d="M0 0 C3.196875 -0.061875 6.39375 -0.12375 9.6875 -0.1875 C11.18543091 -0.22846802 11.18543091 -0.22846802 12.71362305 -0.27026367 C17.59222673 -0.31597754 21.11724736 -0.32036982 25 3 C27.95169294 8.08912575 29.16978964 13.14041736 28 19 C26.27216098 22.06531442 24.19503166 24.40248417 21 26 C19.40552536 26.08400529 17.80759455 26.10727467 16.2109375 26.09765625 C15.36321777 26.09515869 14.51549805 26.09266113 13.64208984 26.09008789 C12.5639502 26.08098389 11.48581055 26.07187988 10.375 26.0625 C6.95125 26.041875 3.5275 26.02125 0 26 C0 17.42 0 8.84 0 0 Z " fill="#E5262B" transform="translate(164,309)"/>
</svg>
