<svg width="32" height="32" viewBox="0 0 32 32" fill="none" xmlns="http://www.w3.org/2000/svg">
<path fill-rule="evenodd" clip-rule="evenodd" d="M14.9998 2.66675C14.9998 2.11446 15.4476 1.66675 15.9998 1.66675C23.9159 1.66675 30.3332 8.084 30.3332 16.0001C30.3332 23.9162 23.9159 30.3334 15.9998 30.3334C8.08375 30.3334 1.6665 23.9162 1.6665 16.0001C1.6665 15.4478 2.11422 15.0001 2.6665 15.0001C3.21879 15.0001 3.6665 15.4478 3.6665 16.0001C3.6665 22.8116 9.18832 28.3334 15.9998 28.3334C22.8113 28.3334 28.3332 22.8116 28.3332 16.0001C28.3332 9.18857 22.8113 3.66675 15.9998 3.66675C15.4476 3.66675 14.9998 3.21903 14.9998 2.66675ZM15.9998 11.0001C16.5521 11.0001 16.9998 11.4478 16.9998 12.0001V16.3334H21.3332C21.8855 16.3334 22.3332 16.7811 22.3332 17.3334C22.3332 17.8857 21.8855 18.3334 21.3332 18.3334H15.9998C15.4476 18.3334 14.9998 17.8857 14.9998 17.3334V12.0001C14.9998 11.4478 15.4476 11.0001 15.9998 11.0001Z" fill="#FF9500"/>
<path fill-rule="evenodd" clip-rule="evenodd" d="M12.1326 3.1968C12.3315 3.71203 12.075 4.29094 11.5598 4.48983C11.3712 4.56262 11.1849 4.63993 11.0009 4.72161C10.4961 4.9457 9.90526 4.71816 9.68116 4.21338C9.45707 3.7086 9.68461 3.11773 10.1894 2.89364C10.4034 2.79864 10.6202 2.70871 10.8396 2.62402C11.3548 2.42513 11.9337 2.68157 12.1326 3.1968ZM7.53011 5.65377C7.91099 6.0537 7.89555 6.68668 7.49561 7.06756C7.34939 7.20682 7.20658 7.34963 7.06732 7.49586C6.68643 7.89579 6.05346 7.91124 5.65352 7.53035C5.25359 7.14947 5.23815 6.51649 5.61903 6.11656C5.78072 5.94678 5.94654 5.78097 6.11631 5.61927C6.51625 5.23839 7.14922 5.25383 7.53011 5.65377ZM4.21313 9.68141C4.71791 9.9055 4.94545 10.4964 4.72136 11.0011C4.63968 11.1851 4.56238 11.3715 4.48958 11.5601C4.29069 12.0753 3.71179 12.3317 3.19656 12.1328C2.68133 11.934 2.42488 11.3551 2.62377 10.8398C2.70846 10.6204 2.79839 10.4036 2.8934 10.1896C3.11749 9.68486 3.70836 9.45732 4.21313 9.68141Z" fill="#FF9500"/>
</svg>
