<svg width="20" height="21" viewBox="0 0 20 21" fill="none" xmlns="http://www.w3.org/2000/svg">
<path d="M6.98356 7.48717C7.56356 8.69519 8.35422 9.82739 9.35553 10.8287C10.3568 11.83 11.4891 12.6207 12.6971 13.2007C12.801 13.2506 12.8529 13.2755 12.9187 13.2947C13.1523 13.3628 13.4392 13.3139 13.637 13.1722C13.6927 13.1323 13.7403 13.0847 13.8356 12.9894C14.1269 12.6981 14.2726 12.5524 14.4191 12.4572C14.9715 12.098 15.6837 12.098 16.2361 12.4572C16.3825 12.5524 16.5282 12.6981 16.8196 12.9894L16.9819 13.1518C17.4248 13.5947 17.6462 13.8161 17.7665 14.0539C18.0058 14.5269 18.0058 15.0855 17.7665 15.5584C17.6462 15.7962 17.4248 16.0177 16.9819 16.4605L16.8506 16.5919C16.4092 17.0333 16.1886 17.2539 15.8885 17.4225C15.5556 17.6095 15.0385 17.744 14.6567 17.7428C14.3126 17.7418 14.0774 17.675 13.607 17.5415C11.0792 16.8241 8.69387 15.4703 6.70388 13.4804C4.7139 11.4904 3.36017 9.10507 2.6427 6.57724C2.50919 6.10687 2.44244 5.87168 2.44141 5.52756C2.44028 5.14571 2.57475 4.62863 2.76176 4.29571C2.9303 3.99568 3.15098 3.775 3.59233 3.33365L3.72369 3.20229C4.16656 2.75942 4.388 2.53799 4.62581 2.4177C5.09878 2.17847 5.65734 2.17847 6.1303 2.4177C6.36812 2.53799 6.58955 2.75942 7.03242 3.20229L7.19481 3.36468C7.48615 3.65602 7.63182 3.80169 7.72706 3.94817C8.08622 4.50058 8.08622 5.21273 7.72706 5.76514C7.63182 5.91162 7.48615 6.05729 7.19481 6.34863C7.09955 6.44389 7.05192 6.49152 7.01206 6.5472C6.87038 6.74505 6.82146 7.03194 6.88957 7.26556C6.90873 7.33131 6.93367 7.38326 6.98356 7.48717Z" stroke="#414651" stroke-width="2" stroke-linecap="round" stroke-linejoin="round"/>
</svg>
