<svg width="24" height="25" viewBox="0 0 24 25" fill="none" xmlns="http://www.w3.org/2000/svg">
<path d="M8.38028 9.42965C9.07627 10.8793 10.0251 12.2379 11.2266 13.4395C12.4282 14.6411 13.7869 15.5899 15.2365 16.2859C15.3612 16.3457 15.4235 16.3757 15.5024 16.3986C15.7828 16.4804 16.127 16.4217 16.3644 16.2517C16.4313 16.2038 16.4884 16.1467 16.6027 16.0324C16.9523 15.6827 17.1271 15.5079 17.3029 15.3937C17.9658 14.9627 18.8204 14.9627 19.4833 15.3937C19.6591 15.5079 19.8339 15.6827 20.1835 16.0324L20.3783 16.2272C20.9098 16.7587 21.1755 17.0244 21.3198 17.3098C21.6069 17.8773 21.6069 18.5476 21.3198 19.1152C21.1755 19.4005 20.9098 19.6663 20.3783 20.1977L20.2207 20.3553C19.6911 20.885 19.4263 21.1498 19.0662 21.352C18.6667 21.5764 18.0462 21.7378 17.588 21.7364C17.1751 21.7352 16.8928 21.6551 16.3284 21.4949C13.295 20.6339 10.4326 19.0094 8.04466 16.6215C5.65668 14.2335 4.03221 11.3711 3.17124 8.33773C3.01103 7.77328 2.93092 7.49106 2.9297 7.07811C2.92833 6.61989 3.08969 5.9994 3.31411 5.59989C3.51636 5.23986 3.78117 4.97505 4.3108 4.44543L4.46843 4.28779C4.99987 3.75635 5.2656 3.49063 5.55098 3.34628C6.11854 3.05921 6.7888 3.05921 7.35636 3.34628C7.64174 3.49063 7.90747 3.75635 8.43891 4.28779L8.63378 4.48266C8.98338 4.83227 9.15819 5.00707 9.27247 5.18285C9.70347 5.84574 9.70347 6.70032 9.27247 7.36321C9.15819 7.53899 8.98338 7.71379 8.63378 8.0634C8.51947 8.17771 8.46231 8.23487 8.41447 8.30168C8.24446 8.53911 8.18576 8.88337 8.26748 9.16372C8.29048 9.24261 8.32041 9.30496 8.38028 9.42965Z" stroke="#181D27" stroke-width="2" stroke-linecap="round" stroke-linejoin="round"/>
</svg>
