<svg width="32" height="33" viewBox="0 0 32 33" fill="none" xmlns="http://www.w3.org/2000/svg">
<path d="M25.5774 10.9069L21.6244 6.95006C18.9222 4.24519 17.5711 2.89275 16.1199 3.2129C14.6688 3.53305 14.0108 5.32873 12.6949 8.92007L11.8043 11.3508C11.4535 12.3082 11.2781 12.7869 10.9625 13.1572C10.8209 13.3234 10.6598 13.4718 10.4827 13.5993C10.0879 13.8835 9.59683 14.0189 8.61461 14.2897C6.40077 14.9 5.29386 15.2052 4.87673 15.9294C4.69641 16.2425 4.60258 16.598 4.60486 16.9594C4.61014 17.7954 5.42199 18.608 7.04569 20.2333L8.93181 22.1217L2.96395 28.0952C2.5667 28.4928 2.5667 29.1375 2.96395 29.5352C3.36119 29.9328 4.00525 29.9328 4.4025 29.5352L10.3706 23.5614L12.3252 25.518C13.9593 27.1536 14.7763 27.9715 15.6172 27.9727C15.9716 27.9732 16.3199 27.8811 16.6278 27.7054C17.3583 27.2885 17.6651 26.1735 18.2787 23.9434C18.5485 22.9629 18.6834 22.4726 18.9666 22.078C19.0905 21.9053 19.2343 21.7477 19.395 21.6085C19.7621 21.2907 20.2377 21.112 21.189 20.7546L23.6476 19.8308C27.1994 18.4964 28.9753 17.8292 29.2882 16.3819C29.6012 14.9347 28.2599 13.5921 25.5774 10.9069Z" fill="white"/>
</svg>
