<svg width="32" height="33" viewBox="0 0 32 33" fill="none" xmlns="http://www.w3.org/2000/svg">
<path d="M16.0001 11.1665V21.8332M10.6667 16.4998H21.3334" stroke="#528BFF" stroke-width="2.66667" stroke-linecap="round" stroke-linejoin="round"/>
<path opacity="0.4" d="M4 10.9C4 8.65979 4 7.53969 4.43597 6.68404C4.81947 5.93139 5.43139 5.31947 6.18404 4.93597C7.03969 4.5 8.15979 4.5 10.4 4.5H21.6C23.8402 4.5 24.9603 4.5 25.816 4.93597C26.5686 5.31947 27.1805 5.93139 27.564 6.68404C28 7.53969 28 8.65979 28 10.9V22.1C28 24.3402 28 25.4603 27.564 26.316C27.1805 27.0686 26.5686 27.6805 25.816 28.064C24.9603 28.5 23.8402 28.5 21.6 28.5H10.4C8.15979 28.5 7.03969 28.5 6.18404 28.064C5.43139 27.6805 4.81947 27.0686 4.43597 26.316C4 25.4603 4 24.3402 4 22.1V10.9Z" stroke="#528BFF" stroke-width="2.66667" stroke-linecap="round" stroke-linejoin="round"/>
</svg>
