<svg width="18" height="22" viewBox="0 0 18 22" fill="none" xmlns="http://www.w3.org/2000/svg">
<path d="M11 1H5.8C4.11984 1 3.27976 1 2.63803 1.32698C2.07354 1.6146 1.6146 2.07354 1.32698 2.63803C1 3.27976 1 4.11984 1 5.8V16.2C1 17.8802 1 18.7202 1.32698 19.362C1.6146 19.9265 2.07354 20.3854 2.63803 20.673C3.27976 21 4.11984 21 5.8 21H12.2C13.8802 21 14.7202 21 15.362 20.673C15.9265 20.3854 16.3854 19.9265 16.673 19.362C17 18.7202 17 17.8802 17 16.2V7M11 1L17 7M11 1V7H17M9 17C9 17 12 15.5701 12 13.4252V10.9229L9.8124 10.1412C9.2868 9.95293 8.712 9.95293 8.1864 10.1412L6 10.9229V13.4252C6 15.5701 9 17 9 17Z" stroke="#3C3C43" stroke-opacity="0.6" stroke-width="2" stroke-linecap="round" stroke-linejoin="round"/>
</svg>
