<svg width="61" height="60" viewBox="0 0 61 60" fill="none" xmlns="http://www.w3.org/2000/svg">
<path d="M30.4697 59.8105C26.3929 59.8105 22.5583 59.0436 18.9658 57.5098C15.3936 55.9759 12.2451 53.8467 9.52051 51.1221C6.7959 48.3975 4.65658 45.2389 3.10254 41.6465C1.56868 38.054 0.801758 34.2194 0.801758 30.1426C0.801758 26.0658 1.56868 22.2311 3.10254 18.6387C4.65658 15.0462 6.7959 11.8877 9.52051 9.16309C12.2451 6.43848 15.3936 4.30924 18.9658 2.77539C22.5583 1.24154 26.3929 0.474609 30.4697 0.474609C34.5465 0.474609 38.3812 1.24154 41.9736 2.77539C45.5661 4.30924 48.7246 6.43848 51.4492 9.16309C54.1738 11.8877 56.3031 15.0462 57.8369 18.6387C59.391 22.2311 60.168 26.0658 60.168 30.1426C60.168 34.2194 59.391 38.054 57.8369 41.6465C56.3031 45.2389 54.1738 48.3975 51.4492 51.1221C48.7246 53.8467 45.5661 55.9759 41.9736 57.5098C38.3812 59.0436 34.5465 59.8105 30.4697 59.8105ZM30.4697 57.6914C33.2145 57.6914 35.818 57.318 38.2803 56.5713C40.7425 55.8245 42.9928 54.8053 45.0312 53.5137C47.0697 52.2422 48.8356 50.7891 50.3291 49.1543C49.2191 47.3379 47.6449 45.7536 45.6064 44.4014C43.5882 43.029 41.2773 41.9694 38.6738 41.2227C36.0703 40.4759 33.3356 40.1025 30.4697 40.1025C27.5837 40.1025 24.8288 40.486 22.2051 41.2529C19.6016 41.9997 17.2907 43.0492 15.2725 44.4014C13.2542 45.7536 11.6901 47.3379 10.5801 49.1543C12.0534 50.7891 13.8092 52.2422 15.8477 53.5137C17.9062 54.8053 20.1667 55.8245 22.6289 56.5713C25.0911 57.318 27.7048 57.6914 30.4697 57.6914ZM30.4697 34.8652C32.387 34.8854 34.1126 34.401 35.6465 33.4121C37.2005 32.403 38.4316 31.0407 39.3398 29.3252C40.248 27.5895 40.7021 25.652 40.7021 23.5127C40.7021 21.4945 40.238 19.6478 39.3096 17.9727C38.4014 16.2773 37.1702 14.9251 35.6162 13.916C34.0622 12.8867 32.3467 12.3721 30.4697 12.3721C28.5524 12.3721 26.8167 12.8867 25.2627 13.916C23.7087 14.9251 22.4775 16.2773 21.5693 17.9727C20.6611 19.6478 20.207 21.4945 20.207 23.5127C20.207 25.652 20.6611 27.5794 21.5693 29.2949C22.4775 31.0104 23.6986 32.3727 25.2324 33.3818C26.7663 34.3708 28.512 34.8652 30.4697 34.8652Z" fill="#AEAEB2"/>
</svg>
