<svg width="8" height="16" viewBox="0 0 8 16" fill="none" xmlns="http://www.w3.org/2000/svg">
    <path fill-rule="evenodd" clip-rule="evenodd" d="M6.94194 4.06722C6.69786 4.3113 6.30214 4.3113 6.05806 4.06722L4 2.00916L1.94194 4.06722C1.69786 4.3113 1.30213 4.3113 1.05805 4.06722C0.813977 3.82314 0.813977 3.42741 1.05805 3.18333L3.55806 0.683333C3.80213 0.439255 4.19786 0.439255 4.44194 0.683333L6.94194 3.18333C7.18602 3.42741 7.18602 3.82314 6.94194 4.06722Z" fill="#020814"/>
    <rect x="2.33203" y="6.33359" width="3.33334" height="3.33333" rx="1.66667" fill="#020814"/>
    <path fill-rule="evenodd" clip-rule="evenodd" d="M1.05806 11.9333C1.30214 11.6893 1.69786 11.6893 1.94194 11.9333L4 13.9914L6.05806 11.9333C6.30214 11.6893 6.69787 11.6893 6.94195 11.9333C7.18602 12.1774 7.18602 12.5731 6.94195 12.8172L4.44194 15.3172C4.19787 15.5613 3.80214 15.5613 3.55806 15.3172L1.05806 12.8172C0.813981 12.5731 0.813981 12.1774 1.05806 11.9333Z" fill="#020814"/>
</svg>
