<svg width="20" height="19" viewBox="0 0 20 19" fill="none" xmlns="http://www.w3.org/2000/svg">
<path d="M0.841797 15.5977C0.841797 16.6784 1.12174 17.502 1.68164 18.0684C2.23503 18.6283 3.04557 18.9082 4.11328 18.9082H15.9785C17.0462 18.9082 17.86 18.6283 18.4199 18.0684C18.9798 17.502 19.2598 16.6784 19.2598 15.5977V3.80078C19.2598 2.72005 18.9798 1.89974 18.4199 1.33984C17.86 0.773438 17.0462 0.490234 15.9785 0.490234H4.11328C3.04557 0.490234 2.23503 0.773438 1.68164 1.33984C1.12174 1.89974 0.841797 2.72005 0.841797 3.80078V15.5977ZM3.00977 15.4219V3.97656C3.00977 3.55339 3.11719 3.22786 3.33203 3C3.55339 2.77214 3.88867 2.6582 4.33789 2.6582H15.7441C16.1934 2.6582 16.5286 2.77214 16.75 3C16.9714 3.22786 17.082 3.55339 17.082 3.97656V15.4219C17.082 15.8516 16.9714 16.1803 16.75 16.4082C16.5286 16.6296 16.1934 16.7402 15.7441 16.7402H4.33789C3.88867 16.7402 3.55339 16.6296 3.33203 16.4082C3.11719 16.1803 3.00977 15.8516 3.00977 15.4219ZM7.42383 6.65234C7.42383 6.91927 7.50846 7.13086 7.67773 7.28711C7.85352 7.44336 8.08464 7.52148 8.37109 7.52148H9.83594L11.1543 7.38477L9.77734 8.63477L6.49609 11.916C6.29427 12.1178 6.19336 12.362 6.19336 12.6484C6.19336 12.9154 6.28125 13.14 6.45703 13.3223C6.63281 13.5046 6.86393 13.5957 7.15039 13.5957C7.4043 13.5957 7.63542 13.4948 7.84375 13.293L11.1348 9.99219L12.3945 8.60547L12.2383 9.86523V11.418C12.2383 11.7044 12.3164 11.9355 12.4727 12.1113C12.6289 12.2871 12.8405 12.375 13.1074 12.375C13.3743 12.375 13.5859 12.2904 13.7422 12.1211C13.8984 11.9453 13.9766 11.7109 13.9766 11.418V6.89648C13.9766 6.55794 13.8854 6.29102 13.7031 6.0957C13.5208 5.89388 13.2441 5.79297 12.873 5.79297H8.38086C8.0944 5.79297 7.86328 5.87109 7.6875 6.02734C7.51172 6.18359 7.42383 6.39193 7.42383 6.65234Z" fill="#155EEF"/>
</svg>
