<svg width="54" height="54" viewBox="0 0 54 54" fill="none" xmlns="http://www.w3.org/2000/svg">
<path opacity="0.4" d="M45 23.625V15.3C45 11.5196 45 9.62947 44.2643 8.18556C43.6171 6.91547 42.5845 5.88285 41.3144 5.23571C39.8705 4.5 37.9804 4.5 34.2 4.5H19.8C16.0196 4.5 14.1295 4.5 12.6856 5.23571C11.4155 5.88285 10.3829 6.91547 9.73571 8.18556C9 9.62947 9 11.5196 9 15.3V38.7C9 42.4804 9 44.3705 9.73571 45.8144C10.3829 47.0845 11.4155 48.1171 12.6856 48.7643C14.1295 49.5 16.0196 49.5 19.8 49.5H27" stroke="#155EEF" stroke-width="4.5" stroke-linecap="round" stroke-linejoin="round"/>
<path d="M31.5 24.75H18M22.5 33.75H18M36 15.75H18M40.5 47.25V33.75M33.75 40.5H47.25" stroke="#155EEF" stroke-width="4.5" stroke-linecap="round" stroke-linejoin="round"/>
</svg>
