<svg width="54" height="54" viewBox="0 0 54 54" fill="none" xmlns="http://www.w3.org/2000/svg">
<path opacity="0.4" d="M29.25 24.75H40.05C42.5702 24.75 43.8304 24.75 44.793 25.2405C45.6397 25.6719 46.3281 26.3603 46.7595 27.207C47.25 28.1696 47.25 29.4298 47.25 31.95V47.25" stroke="#155EEF" stroke-width="4.5" stroke-linecap="round" stroke-linejoin="round"/>
<path d="M29.25 47.25V13.95C29.25 11.4298 29.25 10.1696 28.7595 9.20704C28.3281 8.36031 27.6397 7.6719 26.793 7.24047C25.8304 6.75 24.5702 6.75 22.05 6.75H13.95C11.4298 6.75 10.1696 6.75 9.20704 7.24047C8.36031 7.6719 7.6719 8.36031 7.24047 9.20704C6.75 10.1696 6.75 11.4298 6.75 13.95V47.25M49.5 47.25H4.5M14.625 15.75H21.375M14.625 24.75H21.375M14.625 33.75H21.375" stroke="#155EEF" stroke-width="4.5" stroke-linecap="round" stroke-linejoin="round"/>
</svg>
