<svg width="54" height="54" viewBox="0 0 54 54" fill="none" xmlns="http://www.w3.org/2000/svg">
<path opacity="0.4" d="M22.5 29.25C23.4663 30.5418 24.6991 31.6107 26.1147 32.3841C27.5304 33.1576 29.0959 33.6175 30.705 33.7328C32.314 33.848 33.9291 33.6158 35.4405 33.052C36.952 32.4882 38.3245 31.6059 39.465 30.465L46.215 23.715C48.2643 21.5932 49.3982 18.7515 49.3726 15.8017C49.347 12.852 48.1638 10.0304 46.078 7.94455C43.9921 5.85871 41.1705 4.67556 38.2208 4.64992C35.271 4.62429 32.4293 5.75823 30.3075 7.80751L26.4375 11.655" stroke="#155EEF" stroke-width="4.5" stroke-linecap="round" stroke-linejoin="round"/>
<path d="M31.5004 24.75C30.5342 23.4582 29.3014 22.3893 27.8857 21.6159C26.47 20.8424 24.9046 20.3825 23.2955 20.2672C21.6864 20.152 20.0714 20.3842 18.5599 20.948C17.0485 21.5118 15.6759 22.3941 14.5354 23.535L7.78545 30.285C5.73617 32.4068 4.60223 35.2485 4.62787 38.1983C4.6535 41.148 5.83665 43.9696 7.92249 46.0554C10.0083 48.1413 12.83 49.3244 15.7797 49.3501C18.7294 49.3757 21.5712 48.2418 23.6929 46.1925L27.5404 42.345" stroke="#155EEF" stroke-width="4.5" stroke-linecap="round" stroke-linejoin="round"/>
</svg>
