<svg width="54" height="54" viewBox="0 0 54 54" fill="none" xmlns="http://www.w3.org/2000/svg">
<path opacity="0.4" d="M14.625 29.25L16.39 32.7801C16.9874 33.9748 17.2861 34.5721 17.6851 35.0898C18.0391 35.5491 18.4509 35.9609 18.9102 36.3149C19.4279 36.7139 20.0252 37.0126 21.2199 37.61L24.75 39.375L21.2199 41.14C20.0252 41.7374 19.4279 42.0361 18.9102 42.4351C18.4509 42.7891 18.0391 43.2009 17.6851 43.6602C17.2861 44.1779 16.9874 44.7752 16.39 45.9699L14.625 49.5L12.86 45.9699C12.2626 44.7752 11.9639 44.1779 11.5649 43.6602C11.2109 43.2009 10.7991 42.7891 10.3398 42.4351C9.82212 42.0361 9.22476 41.7374 8.03006 41.14L4.5 39.375L8.03006 37.61C9.22476 37.0126 9.82211 36.7139 10.3398 36.3149C10.7991 35.9609 11.2109 35.5491 11.5649 35.0898C11.9639 34.5721 12.2626 33.9748 12.86 32.7801L14.625 29.25Z" stroke="#155EEF" stroke-width="4.5" stroke-linecap="round" stroke-linejoin="round"/>
<path d="M33.75 4.5L36.4019 11.3949C37.0364 13.0447 37.3537 13.8696 37.8471 14.5634C38.2843 15.1784 38.8216 15.7157 39.4366 16.1529C40.1304 16.6463 40.9553 16.9636 42.6051 17.5981L49.5 20.25L42.6051 22.9019C40.9553 23.5364 40.1304 23.8537 39.4366 24.3471C38.8216 24.7843 38.2843 25.3216 37.8471 25.9366C37.3537 26.6304 37.0364 27.4553 36.4019 29.1051L33.75 36L31.0981 29.1051C30.4636 27.4553 30.1463 26.6304 29.6529 25.9366C29.2157 25.3216 28.6784 24.7843 28.0634 24.3471C27.3696 23.8537 26.5447 23.5364 24.8949 22.9019L18 20.25L24.8949 17.5981C26.5447 16.9636 27.3696 16.6463 28.0634 16.1529C28.6784 15.7157 29.2157 15.1784 29.6529 14.5634C30.1463 13.8696 30.4636 13.0447 31.0981 11.3949L33.75 4.5Z" stroke="#155EEF" stroke-width="4.5" stroke-linecap="round" stroke-linejoin="round"/>
</svg>
