<svg width="54" height="54" viewBox="0 0 54 54" fill="none" xmlns="http://www.w3.org/2000/svg">
<path opacity="0.4" d="M38.25 24.75L38.25 6.75M29.25 15.75H47.25" stroke="#155EEF" stroke-width="4.5" stroke-linecap="round" stroke-linejoin="round"/>
<path d="M16.6066 22.1698C18.1726 25.4314 20.3074 28.4884 23.0109 31.1919C25.7145 33.8955 28.7714 36.0302 32.0331 37.5962C32.3136 37.7309 32.4539 37.7983 32.6314 37.85C33.2622 38.0339 34.0368 37.9018 34.571 37.5193C34.7213 37.4117 34.8499 37.2831 35.1071 37.0258C35.8937 36.2392 36.287 35.8459 36.6825 35.5888C38.174 34.619 40.0968 34.619 41.5884 35.5888C41.9839 35.8459 42.3772 36.2392 43.1638 37.0259L43.6022 37.4643C44.798 38.66 45.3958 39.2579 45.7206 39.9C46.3665 41.177 46.3665 42.6851 45.7206 43.9622C45.3958 44.6043 44.798 45.2021 43.6022 46.3979L43.2476 46.7526C42.0559 47.9442 41.4601 48.54 40.65 48.9951C39.7511 49.5 38.355 49.8631 37.324 49.86C36.3949 49.8573 35.7599 49.677 34.4899 49.3166C27.6647 47.3794 21.2244 43.7243 15.8515 38.3514C10.4785 32.9784 6.82344 26.5381 4.88626 19.713C4.52579 18.443 4.34556 17.8079 4.34279 16.8788C4.33972 15.8478 4.70279 14.4517 5.20774 13.5528C5.66279 12.7428 6.25862 12.1469 7.45027 10.9553L7.80495 10.6006C9.00069 9.40485 9.59857 8.80698 10.2407 8.4822C11.5177 7.8363 13.0258 7.8363 14.3028 8.4822C14.9449 8.80698 15.5428 9.40485 16.7385 10.6006L17.177 11.0391C17.9636 11.8257 18.3569 12.219 18.614 12.6145C19.5838 14.106 19.5838 16.0288 18.614 17.5203C18.3569 17.9158 17.9636 18.3091 17.177 19.0957C16.9198 19.3529 16.7912 19.4815 16.6835 19.6318C16.301 20.1661 16.1689 20.9406 16.3528 21.5714C16.4045 21.7489 16.4719 21.8892 16.6066 22.1698Z" stroke="#155EEF" stroke-width="4.5" stroke-linecap="round" stroke-linejoin="round"/>
</svg>
