<svg width="32" height="32" viewBox="0 0 32 32" fill="none" xmlns="http://www.w3.org/2000/svg">
<path d="M8.22917 23.7616C8.68033 24.2128 9.4261 24.2036 9.86804 23.7616L15.825 17.8046L21.782 23.7616C22.224 24.2036 22.9698 24.2128 23.4209 23.7617C23.8721 23.3105 23.8721 22.5555 23.4301 22.1135L17.4731 16.1566L23.4209 10.2088C23.8629 9.76681 23.8721 9.02103 23.4209 8.56988C22.9698 8.11873 22.2148 8.11874 21.7728 8.56073L15.825 14.5085L9.87725 8.56069C9.43531 8.11875 8.68033 8.11875 8.22917 8.5699C7.77802 9.02105 7.78723 9.76682 8.22917 10.2088L14.177 16.1566L8.21996 22.1136C7.77802 22.5555 7.77802 23.3105 8.22917 23.7616Z" fill="#FF3B30"/>
</svg>
