<svg width="21" height="22" viewBox="0 0 21 22" fill="none" xmlns="http://www.w3.org/2000/svg">
    <path d="M14.5 5V4.2C14.5 3.0799 14.5 2.51984 14.282 2.09202C14.0903 1.71569 13.7843 1.40973 13.408 1.21799C12.9802 1 12.4201 1 11.3 1H9.7C8.57989 1 8.01984 1 7.59202 1.21799C7.21569 1.40973 6.90973 1.71569 6.71799 2.09202C6.5 2.51984 6.5 3.0799 6.5 4.2V5M8.5 10.5V15.5M12.5 10.5V15.5M1.5 5H19.5M17.5 5V16.2C17.5 17.8802 17.5 18.7202 17.173 19.362C16.8854 19.9265 16.4265 20.3854 15.862 20.673C15.2202 21 14.3802 21 12.7 21H8.3C6.61984 21 5.77976 21 5.13803 20.673C4.57354 20.3854 4.1146 19.9265 3.82698 19.362C3.5 18.7202 3.5 17.8802 3.5 16.2V5" stroke="#D92D20" stroke-width="2" stroke-linecap="round" stroke-linejoin="round"/>
</svg>
