<svg width="17" height="16" viewBox="0 0 17 16" fill="none" xmlns="http://www.w3.org/2000/svg">
<path d="M8.82959 4.08643C8.66357 4.08643 8.52197 4.03027 8.40479 3.91797C8.29248 3.80078 8.23633 3.65918 8.23633 3.49316C8.23633 3.32715 8.29248 3.18799 8.40479 3.07568C8.52197 2.96338 8.66357 2.90723 8.82959 2.90723H16.1099C16.2759 2.90723 16.4175 2.96338 16.5347 3.07568C16.6519 3.18799 16.7104 3.32715 16.7104 3.49316C16.7104 3.65918 16.6519 3.80078 16.5347 3.91797C16.4175 4.03027 16.2759 4.08643 16.1099 4.08643H8.82959ZM8.82959 12.5532C8.66357 12.5532 8.52197 12.4971 8.40479 12.3848C8.29248 12.2676 8.23633 12.1284 8.23633 11.9673C8.23633 11.8013 8.29248 11.6621 8.40479 11.5498C8.52197 11.4326 8.66357 11.374 8.82959 11.374H16.1099C16.2759 11.374 16.4175 11.4326 16.5347 11.5498C16.6519 11.6621 16.7104 11.8013 16.7104 11.9673C16.7104 12.1284 16.6519 12.2676 16.5347 12.3848C16.4175 12.4971 16.2759 12.5532 16.1099 12.5532H8.82959ZM3.44629 6.6499C2.875 6.6499 2.3501 6.50586 1.87158 6.21777C1.39307 5.92969 1.00977 5.54639 0.72168 5.06787C0.433594 4.58936 0.289551 4.06201 0.289551 3.48584C0.289551 2.90967 0.431152 2.38232 0.714355 1.90381C1.00244 1.42529 1.38574 1.04443 1.86426 0.76123C2.34277 0.473145 2.87012 0.329102 3.44629 0.329102C4.02246 0.329102 4.54736 0.473145 5.021 0.76123C5.49951 1.04443 5.88281 1.42529 6.1709 1.90381C6.45898 2.38232 6.60303 2.90967 6.60303 3.48584C6.60303 4.06201 6.45898 4.58936 6.1709 5.06787C5.88281 5.54639 5.49951 5.92969 5.021 6.21777C4.54736 6.50586 4.02246 6.6499 3.44629 6.6499ZM3.07275 5.18506C3.23389 5.18506 3.3584 5.1167 3.44629 4.97998L4.97705 2.57764C5.04053 2.4751 5.07227 2.375 5.07227 2.27734C5.07227 2.18457 5.0332 2.104 4.95508 2.03564C4.88184 1.96729 4.79395 1.93311 4.69141 1.93311C4.55957 1.93311 4.44971 2.00146 4.36182 2.13818L3.05811 4.23291L2.48682 3.50781C2.43799 3.44434 2.38672 3.39795 2.33301 3.36865C2.28418 3.33936 2.22314 3.32471 2.1499 3.32471C2.05225 3.32471 1.9668 3.36133 1.89355 3.43457C1.8252 3.50781 1.79102 3.59814 1.79102 3.70557C1.79102 3.81787 1.82275 3.91309 1.88623 3.99121L2.70654 4.97998C2.76025 5.04346 2.81396 5.09473 2.86768 5.13379C2.92627 5.16797 2.99463 5.18506 3.07275 5.18506ZM3.44629 15.124C2.875 15.124 2.3501 14.98 1.87158 14.6919C1.39307 14.4038 1.00977 14.0205 0.72168 13.542C0.433594 13.0635 0.289551 12.5386 0.289551 11.9673C0.289551 11.3911 0.431152 10.8638 0.714355 10.3853C1.00244 9.90674 1.38574 9.52344 1.86426 9.23535C2.34277 8.94727 2.87012 8.80322 3.44629 8.80322C4.02246 8.80322 4.54736 8.94727 5.021 9.23535C5.49951 9.51855 5.88281 9.89941 6.1709 10.3779C6.45898 10.8564 6.60303 11.3862 6.60303 11.9673C6.60303 12.5386 6.45898 13.0635 6.1709 13.542C5.88281 14.0205 5.49951 14.4038 5.021 14.6919C4.54736 14.98 4.02246 15.124 3.44629 15.124ZM3.07275 13.6665C3.23389 13.6665 3.3584 13.5957 3.44629 13.4541L4.97705 11.0518C5.04053 10.9492 5.07227 10.8516 5.07227 10.7588C5.07227 10.6611 5.0332 10.5781 4.95508 10.5098C4.88184 10.4414 4.79395 10.4072 4.69141 10.4072C4.55957 10.4072 4.44971 10.478 4.36182 10.6196L3.05811 12.7144L2.48682 11.9893C2.43799 11.9258 2.38672 11.8794 2.33301 11.8501C2.28418 11.8208 2.22314 11.8062 2.1499 11.8062C2.05225 11.8062 1.9668 11.8428 1.89355 11.916C1.8252 11.9893 1.79102 12.0771 1.79102 12.1797C1.79102 12.292 1.82275 12.3872 1.88623 12.4653L2.70654 13.4614C2.76025 13.52 2.81396 13.5688 2.86768 13.6079C2.92627 13.647 2.99463 13.6665 3.07275 13.6665Z" fill="white"/>
</svg>
