<svg width="27" height="31" viewBox="0 0 27 31" fill="none" xmlns="http://www.w3.org/2000/svg">
<path d="M15.7711 24.05V17.6L12.6211 18.26V20.84V21.77V22.01L12.5911 22.19L12.5311 22.37L12.4711 22.52L12.3211 22.76L11.0611 24.62L10.7911 25.01L10.6111 25.31L10.4311 25.52L10.1311 25.76L9.89109 25.94L9.65109 26.09L9.35109 26.21L9.02109 26.33L-0.00890583 28.25V28.22L0.0510938 27.86L0.141094 27.29L0.201094 26.93L0.291094 26.6L0.411094 26.18L0.531094 25.76L0.681094 25.34L0.921094 24.8L9.47109 23V18.92L1.49109 20.63L1.52109 20.39L1.55109 20L1.64109 19.49L1.70109 19.22L1.82109 18.8L2.00109 18.2L2.15109 17.78L2.39109 17.21L9.44109 15.71L9.47109 3.14L9.77109 2.81L10.0411 2.48L10.4011 2.15L10.7911 1.79L11.2111 1.43L11.6011 1.16L11.8411 0.979999L12.0811 0.829999L12.2911 0.709999L12.6211 0.5V15.02L15.7711 14.36V4.73L16.1611 4.28L16.8511 3.62L17.2411 3.26L17.6611 2.9L18.1411 2.57L18.4111 2.39L18.6811 2.24L18.9511 2.06V13.67L26.8411 11.99L26.8111 12.2L26.7511 12.62L26.6611 13.13L26.5711 13.58L26.4211 14.03L26.2411 14.6L26.0911 14.99L25.9111 15.44L18.9511 16.91V20.15L26.8411 18.47L26.8111 18.62L26.7811 18.86L26.7511 19.1L26.6911 19.4L26.6011 19.88L26.4211 20.54L26.2411 21.02L26.1211 21.44L25.9111 21.89L15.7711 24.05ZM15.7411 30.5L15.8011 30.14L15.8911 29.51L16.0111 28.97L16.1311 28.55L16.2511 28.16L16.3711 27.8L16.6711 27.08L26.8111 24.92L26.7811 25.16L26.7211 25.55L26.6311 26L26.5711 26.42L26.4511 26.81L26.3611 27.11L26.2111 27.56L25.9111 28.34L15.7411 30.5Z" fill="#181D27"/>
</svg>
