<svg width="11" height="13" viewBox="0 0 11 13" fill="none" xmlns="http://www.w3.org/2000/svg">
<path d="M6.30844 9.82V7.24L5.04844 7.504V8.536V8.908V9.004L5.03644 9.076L5.01244 9.148L4.98844 9.208L4.92844 9.304L4.42444 10.048L4.31644 10.204L4.24444 10.324L4.17244 10.408L4.05244 10.504L3.95644 10.576L3.86044 10.636L3.74044 10.684L3.60844 10.732L-0.00356233 11.5V11.488L0.0204375 11.344L0.0564376 11.116L0.0804377 10.972L0.116438 10.84L0.164438 10.672L0.212438 10.504L0.272438 10.336L0.368438 10.12L3.78844 9.4V7.768L0.596438 8.452L0.608438 8.356L0.620438 8.2L0.656438 7.996L0.680438 7.888L0.728438 7.72L0.800438 7.48L0.860438 7.312L0.956438 7.084L3.77644 6.484L3.78844 1.456L3.90844 1.324L4.01644 1.192L4.16044 1.06L4.31644 0.916L4.48444 0.771999L4.64044 0.663999L4.73644 0.592L4.83244 0.532L4.91644 0.483999L5.04844 0.4V6.208L6.30844 5.944V2.092L6.46444 1.912L6.74044 1.648L6.89644 1.504L7.06444 1.36L7.25644 1.228L7.36444 1.156L7.47244 1.096L7.58044 1.024V5.668L10.7364 4.996L10.7244 5.08L10.7004 5.248L10.6644 5.452L10.6284 5.632L10.5684 5.812L10.4964 6.04L10.4364 6.196L10.3644 6.376L7.58044 6.964V8.26L10.7364 7.588L10.7244 7.648L10.7124 7.744L10.7004 7.84L10.6764 7.96L10.6404 8.152L10.5684 8.416L10.4964 8.608L10.4484 8.776L10.3644 8.956L6.30844 9.82ZM6.29644 12.4L6.32044 12.256L6.35644 12.004L6.40444 11.788L6.45244 11.62L6.50044 11.464L6.54844 11.32L6.66844 11.032L10.7244 10.168L10.7124 10.264L10.6884 10.42L10.6524 10.6L10.6284 10.768L10.5804 10.924L10.5444 11.044L10.4844 11.224L10.3644 11.536L6.29644 12.4Z" fill="#717680"/>
</svg>
