<svg width="13" height="15" viewBox="0 0 13 15" fill="none" xmlns="http://www.w3.org/2000/svg">
<path d="M7.35984 11.79V8.78L5.88984 9.088V10.292V10.726V10.838L5.87584 10.922L5.84784 11.006L5.81984 11.076L5.74984 11.188L5.16184 12.056L5.03584 12.238L4.95184 12.378L4.86784 12.476L4.72784 12.588L4.61584 12.672L4.50384 12.742L4.36384 12.798L4.20984 12.854L-0.00415605 13.75V13.736L0.0238438 13.568L0.0658439 13.302L0.0938439 13.134L0.135844 12.98L0.191844 12.784L0.247844 12.588L0.317844 12.392L0.429844 12.14L4.41984 11.3V9.396L0.695844 10.194L0.709844 10.082L0.723844 9.9L0.765844 9.662L0.793844 9.536L0.849844 9.34L0.933844 9.06L1.00384 8.864L1.11584 8.598L4.40584 7.898L4.41984 2.032L4.55984 1.878L4.68584 1.724L4.85384 1.57L5.03584 1.402L5.23184 1.234L5.41384 1.108L5.52584 1.024L5.63784 0.954L5.73584 0.897999L5.88984 0.8V7.576L7.35984 7.268V2.774L7.54184 2.564L7.86384 2.256L8.04584 2.088L8.24184 1.92L8.46584 1.766L8.59184 1.682L8.71784 1.612L8.84384 1.528V6.946L12.5258 6.162L12.5118 6.26L12.4838 6.456L12.4418 6.694L12.3998 6.904L12.3298 7.114L12.2458 7.38L12.1758 7.562L12.0918 7.772L8.84384 8.458V9.97L12.5258 9.186L12.5118 9.256L12.4978 9.368L12.4838 9.48L12.4558 9.62L12.4138 9.844L12.3298 10.152L12.2458 10.376L12.1898 10.572L12.0918 10.782L7.35984 11.79ZM7.34584 14.8L7.37384 14.632L7.41584 14.338L7.47184 14.086L7.52784 13.89L7.58384 13.708L7.63984 13.54L7.77984 13.204L12.5118 12.196L12.4978 12.308L12.4698 12.49L12.4278 12.7L12.3998 12.896L12.3438 13.078L12.3018 13.218L12.2318 13.428L12.0918 13.792L7.34584 14.8Z" fill="#181D27"/>
</svg>
