<svg width="12" height="8" viewBox="0 0 12 8" fill="none" xmlns="http://www.w3.org/2000/svg">
<path fill-rule="evenodd" clip-rule="evenodd" d="M8.03838 1.04543C8.2204 1.20434 8.23914 1.48071 8.08023 1.66273L3.4969 6.91273C3.41382 7.0079 3.29365 7.06251 3.16732 7.06251C3.04099 7.06251 2.92083 7.0079 2.83775 6.91273L1.00441 4.81273C0.845508 4.63071 0.864245 4.35434 1.04627 4.19543C1.22829 4.03652 1.50466 4.05526 1.66357 4.23728L3.16732 5.95977L7.42108 1.08728C7.57999 0.905261 7.85636 0.886524 8.03838 1.04543Z" fill="#1A62F5"/>
<path fill-rule="evenodd" clip-rule="evenodd" d="M10.9692 1.09469C11.1441 1.26133 11.1509 1.53825 10.9842 1.71322L5.9841 6.96322C5.89573 7.05601 5.77113 7.10539 5.64319 7.09833C5.51525 7.09127 5.39684 7.02848 5.31921 6.92654L5.06936 6.59841C4.92298 6.40618 4.96015 6.13167 5.15239 5.98529C5.31754 5.85954 5.5434 5.86925 5.69658 5.99637L10.3506 1.10976C10.5173 0.934797 10.7942 0.928046 10.9692 1.09469Z" fill="#1A62F5"/>
</svg>
