<svg width="40" height="40" viewBox="0 0 40 40" fill="none" xmlns="http://www.w3.org/2000/svg">
<rect width="40" height="40" rx="20" fill="#1A62F5"/>
<g clip-path="url(#clip0_7190_13988)">
<path fill-rule="evenodd" clip-rule="evenodd" d="M23.9518 24.8599L19.0969 27.2874C15.674 28.9989 13.9625 29.8546 12.9703 29.5919C12.0263 29.342 11.2891 28.6048 11.0392 27.6609C10.7766 26.6687 11.6323 24.9572 13.3438 21.5342C13.6186 20.9846 13.756 20.7098 13.813 20.4222C13.8682 20.1435 13.8682 19.8566 13.813 19.5779C13.756 19.2903 13.6186 19.0155 13.3438 18.4659C11.6323 15.0429 10.7766 13.3314 11.0392 12.3392C11.2891 11.3953 12.0263 10.6581 12.9703 10.4082C13.9625 10.1455 15.674 11.0012 19.097 12.7127L23.9518 15.1402C28.1929 17.2607 30.3135 18.321 30.3135 20C30.3135 21.6791 28.1929 22.7394 23.9518 24.8599ZM18.5157 19.9632C18.518 19.549 18.8556 19.2151 19.2698 19.2173L25.1916 19.2502C25.6058 19.2525 25.9397 19.5901 25.9374 20.0043C25.9351 20.4185 25.5975 20.7524 25.1833 20.7501L19.2615 20.7173C18.8473 20.715 18.5134 20.3774 18.5157 19.9632Z" fill="white"/>
</g>
<defs>
<clipPath id="clip0_7190_13988">
<rect width="24" height="24" fill="white" transform="translate(8 8)"/>
</clipPath>
</defs>
</svg>
