<svg width="21" height="20" viewBox="0 0 21 20" fill="none" xmlns="http://www.w3.org/2000/svg">
<path d="M6.58333 9.16667C5.80836 9.16667 5.42087 9.16667 5.10295 9.25185C4.24022 9.48302 3.56635 10.1569 3.33519 11.0196C3.25 11.3375 3.25 11.725 3.25 12.5V13.5C3.25 14.9001 3.25 15.6002 3.52248 16.135C3.76217 16.6054 4.14462 16.9878 4.61502 17.2275C5.1498 17.5 5.84987 17.5 7.25 17.5H14.25C15.6501 17.5 16.3502 17.5 16.885 17.2275C17.3554 16.9878 17.7378 16.6054 17.9775 16.135C18.25 15.6002 18.25 14.9001 18.25 13.5V12.5C18.25 11.725 18.25 11.3375 18.1648 11.0196C17.9336 10.1569 17.2598 9.48302 16.397 9.25185C16.0791 9.16667 15.6916 9.16667 14.9167 9.16667M14.0833 5.83333L10.75 2.5M10.75 2.5L7.41667 5.83333M10.75 2.5V12.5" stroke="#414651" stroke-width="1.66667" stroke-linecap="round" stroke-linejoin="round"/>
</svg>
