<svg width="20" height="25" viewBox="0 0 20 25" fill="none" xmlns="http://www.w3.org/2000/svg">
<path d="M3.72168 24.3374C2.65365 24.3374 1.84847 24.069 1.30615 23.5322C0.763835 23.001 0.492676 22.2041 0.492676 21.1416V10.4917C0.492676 9.4292 0.763835 8.62956 1.30615 8.09277C1.84847 7.55599 2.65365 7.2876 3.72168 7.2876H7.28271V8.76514H3.75488C3.17383 8.76514 2.72835 8.91732 2.41846 9.22168C2.1141 9.52604 1.96191 9.97428 1.96191 10.5664V21.0586C1.96191 21.6562 2.1141 22.1073 2.41846 22.4116C2.72835 22.716 3.17383 22.8682 3.75488 22.8682H16.0068C16.5768 22.8682 17.0168 22.716 17.3267 22.4116C17.6421 22.1073 17.7998 21.6562 17.7998 21.0586V10.5664C17.7998 9.97428 17.6421 9.52604 17.3267 9.22168C17.0168 8.91732 16.5768 8.76514 16.0068 8.76514H12.479V7.2876H16.04C17.1136 7.2876 17.9188 7.55876 18.4556 8.10107C18.9979 8.63786 19.269 9.43473 19.269 10.4917V21.1416C19.269 22.1986 18.9979 22.9954 18.4556 23.5322C17.9188 24.069 17.1136 24.3374 16.04 24.3374H3.72168ZM9.88086 16.0366C9.68164 16.0366 9.51009 15.9674 9.36621 15.8291C9.22233 15.6852 9.15039 15.5164 9.15039 15.3228V4.18311L9.2085 2.60596L8.55273 3.29492L6.74316 5.1875C6.61035 5.33691 6.44157 5.41162 6.23682 5.41162C6.04867 5.41162 5.89095 5.35075 5.76367 5.229C5.64193 5.10726 5.58105 4.95231 5.58105 4.76416C5.58105 4.66455 5.59766 4.57878 5.63086 4.50684C5.6696 4.42936 5.72493 4.35465 5.79688 4.28271L9.34961 0.82959C9.44368 0.735514 9.53223 0.671875 9.61523 0.638672C9.69824 0.605469 9.78678 0.588867 9.88086 0.588867C9.97493 0.588867 10.0635 0.605469 10.1465 0.638672C10.2295 0.671875 10.318 0.735514 10.4121 0.82959L13.9648 4.28271C14.0312 4.35465 14.0838 4.42936 14.1226 4.50684C14.1613 4.57878 14.1807 4.66455 14.1807 4.76416C14.1807 4.95231 14.1143 5.10726 13.9814 5.229C13.8542 5.35075 13.6965 5.41162 13.5083 5.41162C13.3091 5.41162 13.1431 5.33691 13.0103 5.1875L11.209 3.29492L10.5532 2.61426L10.6113 4.18311V15.3228C10.6113 15.5164 10.5394 15.6852 10.3955 15.8291C10.2516 15.9674 10.0801 16.0366 9.88086 16.0366Z" fill="#155EEF"/>
</svg>
