<svg width="20" height="20" viewBox="0 0 20 20" fill="none" xmlns="http://www.w3.org/2000/svg">
    <g clip-path="url(#clip0_7190_11306)">
        <path d="M15.5296 13.0583L16.9599 8.76717C18.2095 5.01852 18.8343 3.14419 17.8449 2.1548C16.8555 1.16541 14.9812 1.79018 11.2325 3.03973L6.94139 4.47011C3.91587 5.47861 2.4031 5.98287 1.97322 6.72232C1.56427 7.42577 1.56427 8.29458 1.97322 8.99803C2.4031 9.73749 3.91587 10.2417 6.94139 11.2503C7.42719 11.4122 7.67009 11.4931 7.87311 11.6291C8.06987 11.7608 8.2389 11.9298 8.37061 12.1266C8.50653 12.3296 8.5875 12.5725 8.74943 13.0583C9.75793 16.0838 10.2622 17.5966 11.0016 18.0265C11.7051 18.4354 12.5739 18.4354 13.2774 18.0265C14.0168 17.5966 14.5211 16.0838 15.5296 13.0583Z" stroke="white" stroke-width="1.5"/>
        <path d="M14.8247 5.17541L11.3159 8.64551" stroke="white" stroke-width="1.5" stroke-linecap="round"/>
    </g>
    <defs>
        <clipPath id="clip0_7190_11306">
            <rect width="20" height="20" fill="white"/>
        </clipPath>
    </defs>
</svg>
