<svg width="12" height="12" viewBox="0 0 12 12" fill="none" xmlns="http://www.w3.org/2000/svg">
<path fill-rule="evenodd" clip-rule="evenodd" d="M5.85712 0.543483C5.95197 0.529777 6.0483 0.529777 6.14315 0.543483C6.25246 0.559279 6.35418 0.597706 6.43495 0.628219L6.45659 0.636375L9.20281 1.66614C9.51171 1.78146 9.78298 1.88274 9.99189 2.06685C10.1746 2.22791 10.3154 2.43106 10.4021 2.65873C10.5011 2.91899 10.5007 3.20854 10.5002 3.53826L10.5001 5.9992C10.5001 7.41252 9.73149 8.59081 8.9006 9.45641C8.06415 10.3278 7.10713 10.9433 6.60108 11.2385L6.58059 11.2505C6.48824 11.3048 6.36838 11.3751 6.20981 11.4091C6.08009 11.437 5.92018 11.437 5.79045 11.4091C5.63189 11.3751 5.51203 11.3048 5.41968 11.2505L5.39918 11.2385C4.89313 10.9433 3.93611 10.3278 3.09966 9.45641C2.26878 8.59081 1.50013 7.41252 1.50013 5.9992L1.50007 3.53827C1.49959 3.20855 1.49917 2.91899 1.5982 2.65873C1.68484 2.43106 1.82562 2.22791 2.00838 2.06685C2.21729 1.88274 2.48856 1.78146 2.79745 1.66614L5.54367 0.636375L5.56531 0.628219C5.64608 0.597706 5.7478 0.559279 5.85712 0.543483ZM8.10368 4.85282C8.29894 4.65756 8.29894 4.34098 8.10368 4.14571C7.90841 3.95045 7.59183 3.95045 7.39657 4.14571L5.50012 6.04216L4.85368 5.39571C4.65841 5.20045 4.34183 5.20045 4.14657 5.39571C3.95131 5.59098 3.95131 5.90756 4.14657 6.10282L5.14657 7.10282C5.34183 7.29808 5.65841 7.29808 5.85368 7.10282L8.10368 4.85282Z" fill="#17B26A"/>
</svg>
