<svg width="24" height="24" viewBox="0 0 24 24" fill="none" xmlns="http://www.w3.org/2000/svg">
<path d="M11.302 21.6149C11.5234 21.744 11.6341 21.8086 11.7903 21.8421C11.9116 21.8681 12.0884 21.8681 12.2097 21.8421C12.3659 21.8086 12.4766 21.744 12.698 21.6149C14.646 20.4784 20 16.9084 20 12V7.21759C20 6.41808 20 6.01833 19.8692 5.6747C19.7537 5.37113 19.566 5.10027 19.3223 4.88552C19.0465 4.64243 18.6722 4.50207 17.9236 4.22134L12.5618 2.21067C12.3539 2.13271 12.25 2.09373 12.143 2.07827C12.0482 2.06457 11.9518 2.06457 11.857 2.07827C11.75 2.09373 11.6461 2.13271 11.4382 2.21067L6.0764 4.22134C5.3278 4.50207 4.9535 4.64243 4.67766 4.88552C4.43398 5.10027 4.24627 5.37113 4.13076 5.6747C4 6.01833 4 6.41808 4 7.21759V12C4 16.9084 9.35396 20.4784 11.302 21.6149Z" stroke="#A4A7AE" stroke-width="2" stroke-linecap="round" stroke-linejoin="round"/>
<path d="M12.8003 13.9859V11.7987L11.7321 12.0225V13.2942L11.722 13.3552L11.7016 13.4163L11.6813 13.4671L11.6304 13.5485L11.2031 14.1792L11.1116 14.3115L11.0505 14.4132L10.9895 14.4844L10.8878 14.5658L10.8064 14.6269L10.725 14.6777L10.6233 14.7184L10.5113 14.7591L7.44922 15.4102V15.4L7.46957 15.2779L7.50008 15.0847L7.52043 14.9626L7.55095 14.8507L7.63234 14.5658L7.6832 14.4234L7.76459 14.2403L10.6639 13.6299V12.2463L7.95788 12.8262L7.96805 12.7448L7.97822 12.6126L8.00874 12.4396L8.02909 12.3481L8.06978 12.2056L8.13082 12.0022L8.18169 11.8598L8.26307 11.6665L10.6538 11.1578L10.6639 6.89524L10.7657 6.78333L10.8572 6.67143L10.9793 6.55952L11.1116 6.43745L11.254 6.31537L11.3862 6.22381L11.4676 6.16277L11.549 6.1119L11.6202 6.07121L11.7321 6V10.9238L12.8003 10.7V7.43442L12.9326 7.28182L13.1665 7.05801L13.2988 6.93593L13.4412 6.81385L13.604 6.70195L13.6956 6.64091L13.7871 6.59004L13.8787 6.52901V10.466L16.5542 9.89633L16.5237 10.11L16.4932 10.2829L16.4627 10.4355L16.4118 10.5881L16.3508 10.7814L16.2999 10.9136L16.2388 11.0662L13.8787 11.5647V12.6634L16.5542 12.0937L16.544 12.1446L16.5237 12.3074L16.5034 12.4091L16.4728 12.5719L16.4118 12.7957L16.3508 12.9585L16.3101 13.1009L16.2388 13.2535L12.8003 13.9859ZM12.7901 16.1732L12.8105 16.0511L12.841 15.8375L12.8817 15.6544L12.9224 15.5119L12.9631 15.3797L13.0038 15.2576L13.1055 15.0134L16.544 14.281L16.5339 14.3624L16.5135 14.4946L16.483 14.6472L16.4627 14.7896L16.422 14.9219L16.3914 15.0236L16.3406 15.1762L16.2388 15.4407L12.7901 16.1732Z" fill="#A4A7AE" stroke="#A4A7AE" stroke-width="0.5"/>
</svg>
