<svg width="34" height="35" viewBox="0 0 34 35" fill="none" xmlns="http://www.w3.org/2000/svg">
<g opacity="0.4">
<path d="M12.7502 31.58C13.5326 31.58 14.1668 30.9457 14.1668 30.1633C14.1668 29.3809 13.5326 28.7466 12.7502 28.7466C11.9678 28.7466 11.3335 29.3809 11.3335 30.1633C11.3335 30.9457 11.9678 31.58 12.7502 31.58Z" stroke="#004EEB" stroke-width="2.83333" stroke-linecap="round" stroke-linejoin="round"/>
<path d="M24.0835 31.58C24.8659 31.58 25.5002 30.9457 25.5002 30.1633C25.5002 29.3809 24.8659 28.7466 24.0835 28.7466C23.3011 28.7466 22.6668 29.3809 22.6668 30.1633C22.6668 30.9457 23.3011 31.58 24.0835 31.58Z" stroke="#004EEB" stroke-width="2.83333" stroke-linecap="round" stroke-linejoin="round"/>
</g>
<path d="M2.8335 3.24664H4.68389C5.03242 3.24664 5.20668 3.24664 5.34692 3.31073C5.47051 3.36721 5.57524 3.45805 5.64862 3.5724C5.7319 3.70216 5.75655 3.87468 5.80584 4.2197L6.47635 8.91331M6.47635 8.91331L7.96653 19.8661C8.15564 21.2561 8.25019 21.951 8.58247 22.4741C8.87527 22.9351 9.29503 23.3016 9.79125 23.5296C10.3544 23.7883 11.0558 23.7883 12.4585 23.7883H24.5821C25.9174 23.7883 26.5851 23.7883 27.1307 23.5481C27.6118 23.3362 28.0244 22.9947 28.3226 22.5618C28.6606 22.0708 28.7856 21.4149 29.0354 20.1032L30.9106 10.2587C30.9985 9.79704 31.0425 9.5662 30.9787 9.38577C30.9228 9.22748 30.8126 9.0942 30.6675 9.00967C30.5022 8.91331 30.2672 8.91331 29.7972 8.91331H6.47635Z" stroke="#004EEB" stroke-width="2.83333" stroke-linecap="round" stroke-linejoin="round"/>
</svg>
