<svg width="19" height="20" viewBox="0 0 19 20" fill="none" xmlns="http://www.w3.org/2000/svg">
<path d="M4.08203 1.66683C4.08203 1.20659 3.70893 0.833496 3.2487 0.833496C2.78846 0.833496 2.41536 1.20659 2.41536 1.66683V2.91683H1.16536C0.705127 2.91683 0.332031 3.28993 0.332031 3.75016C0.332031 4.2104 0.705127 4.5835 1.16536 4.5835H2.41536V5.8335C2.41536 6.29373 2.78846 6.66683 3.2487 6.66683C3.70893 6.66683 4.08203 6.29373 4.08203 5.8335V4.5835H5.33203C5.79227 4.5835 6.16536 4.2104 6.16536 3.75016C6.16536 3.28993 5.79227 2.91683 5.33203 2.91683H4.08203V1.66683Z" fill="white"/>
<path d="M4.08203 14.1668C4.08203 13.7066 3.70893 13.3335 3.2487 13.3335C2.78846 13.3335 2.41536 13.7066 2.41536 14.1668V15.4168H1.16536C0.705127 15.4168 0.332031 15.7899 0.332031 16.2502C0.332031 16.7104 0.705127 17.0835 1.16536 17.0835H2.41536V18.3335C2.41536 18.7937 2.78846 19.1668 3.2487 19.1668C3.70893 19.1668 4.08203 18.7937 4.08203 18.3335V17.0835H5.33203C5.79227 17.0835 6.16536 16.7104 6.16536 16.2502C6.16536 15.7899 5.79227 15.4168 5.33203 15.4168H4.08203V14.1668Z" fill="white"/>
<path d="M11.1098 2.20101C10.986 1.87919 10.6768 1.66683 10.332 1.66683C9.98722 1.66683 9.67802 1.87919 9.55424 2.20101L8.10909 5.9584C7.85876 6.60927 7.78009 6.79683 7.67249 6.94815C7.56453 7.09999 7.43186 7.23266 7.28002 7.34062C7.1287 7.44823 6.94114 7.52689 6.29027 7.77723L2.53288 9.22237C2.21106 9.34615 1.9987 9.65535 1.9987 10.0002C1.9987 10.345 2.21106 10.6542 2.53288 10.778L6.29027 12.2231C6.94114 12.4734 7.1287 12.5521 7.28002 12.6597C7.43186 12.7677 7.56453 12.9003 7.67249 13.0522C7.78009 13.2035 7.85876 13.3911 8.1091 14.0419L9.55424 17.7993C9.67802 18.1211 9.98722 18.3335 10.332 18.3335C10.6768 18.3335 10.986 18.1211 11.1098 17.7993L12.555 14.0419C12.8053 13.3911 12.884 13.2035 12.9916 13.0522C13.0995 12.9003 13.2322 12.7677 13.384 12.6597C13.5354 12.5521 13.7229 12.4734 14.3738 12.2231L18.1312 10.778C18.453 10.6542 18.6654 10.345 18.6654 10.0002C18.6654 9.65535 18.453 9.34615 18.1312 9.22237L14.3738 7.77723C13.7229 7.52689 13.5354 7.44823 13.384 7.34062C13.2322 7.23266 13.0995 7.09999 12.9916 6.94815C12.884 6.79683 12.8053 6.60927 12.555 5.9584L11.1098 2.20101Z" fill="white"/>
</svg>
