<svg width="21" height="20" viewBox="0 0 21 20" fill="none" xmlns="http://www.w3.org/2000/svg">
<path d="M7.65316 3.40838C8.91981 1.13613 9.55314 0 10.5 0C11.4469 0 12.0802 1.13612 13.3468 3.40837L13.6745 3.99623C14.0345 4.64193 14.2144 4.96479 14.4951 5.17781C14.7757 5.39083 15.1251 5.4699 15.8241 5.62805L16.4605 5.77203C18.9201 6.32856 20.15 6.60682 20.4426 7.54773C20.7352 8.48864 19.8968 9.46907 18.2199 11.4299L17.7861 11.9372C17.3096 12.4944 17.0713 12.773 16.9641 13.1177C16.857 13.4624 16.893 13.8341 16.965 14.5776L17.0306 15.2544C17.2841 17.8706 17.4109 19.1787 16.6449 19.7602C15.8788 20.3417 14.7273 19.8115 12.4243 18.7512L11.8285 18.4768C11.1741 18.1755 10.8469 18.0248 10.5 18.0248C10.1531 18.0248 9.82593 18.1755 9.17149 18.4768L8.57567 18.7512C6.27268 19.8115 5.12118 20.3417 4.35515 19.7602C3.58912 19.1787 3.71588 17.8706 3.9694 15.2544L4.03498 14.5776C4.10703 13.8341 4.14305 13.4624 4.03586 13.1177C3.92868 12.773 3.69043 12.4944 3.21392 11.9372L2.7801 11.4299C1.10325 9.46907 0.264825 8.48864 0.557421 7.54773C0.850017 6.60682 2.07986 6.32856 4.53954 5.77203L5.17589 5.62805C5.87485 5.4699 6.22433 5.39083 6.50494 5.17781C6.78555 4.96479 6.96553 4.64194 7.32547 3.99623L7.65316 3.40838Z" fill="#1A62F5"/>
</svg>
