<svg width="40" height="41" viewBox="0 0 40 41" fill="none" xmlns="http://www.w3.org/2000/svg">
<g filter="url(#filter0_d_40002001_44455)">
<path opacity="0.4" d="M9.37516 31.58V24.4966M9.37516 10.33V3.24664M5.8335 6.78831H12.9168M5.8335 28.0383H12.9168" stroke="#004EEB" stroke-width="2.83333" stroke-linecap="round" stroke-linejoin="round"/>
<path d="M21.4165 4.6633L23.8733 11.0509C24.2728 12.0896 24.4725 12.609 24.7832 13.0458C25.0585 13.433 25.3968 13.7713 25.784 14.0466C26.2208 14.3573 26.7402 14.557 27.7789 14.9565L34.1665 17.4133L27.779 19.8701C26.7402 20.2696 26.2208 20.4693 25.784 20.78C25.3968 21.0553 25.0585 21.3936 24.7832 21.7808C24.4725 22.2176 24.2728 22.737 23.8733 23.7757L21.4165 30.1633L18.9598 23.7757C18.5602 22.737 18.3605 22.2176 18.0498 21.7808C17.7745 21.3936 17.4362 21.0553 17.049 20.78C16.6122 20.4693 16.0928 20.2696 15.0541 19.8701L8.6665 17.4133L15.0541 14.9565C16.0928 14.557 16.6122 14.3573 17.049 14.0466C17.4362 13.7713 17.7745 13.433 18.0498 13.0458C18.3605 12.609 18.5602 12.0896 18.9598 11.0509L21.4165 4.6633Z" stroke="#004EEB" stroke-width="2.83333" stroke-linecap="round" stroke-linejoin="round"/>
</g>
<defs>
<filter id="filter0_d_40002001_44455" x="-1" y="0.4133" width="42" height="42" filterUnits="userSpaceOnUse" color-interpolation-filters="sRGB">
<feFlood flood-opacity="0" result="BackgroundImageFix"/>
<feColorMatrix in="SourceAlpha" type="matrix" values="0 0 0 0 0 0 0 0 0 0 0 0 0 0 0 0 0 0 127 0" result="hardAlpha"/>
<feOffset dy="4"/>
<feGaussianBlur stdDeviation="2"/>
<feComposite in2="hardAlpha" operator="out"/>
<feColorMatrix type="matrix" values="0 0 0 0 0 0 0 0 0 0 0 0 0 0 0 0 0 0 0.25 0"/>
<feBlend mode="normal" in2="BackgroundImageFix" result="effect1_dropShadow_40002001_44455"/>
<feBlend mode="normal" in="SourceGraphic" in2="effect1_dropShadow_40002001_44455" result="shape"/>
</filter>
</defs>
</svg>
