<svg width="25" height="24" viewBox="0 0 25 24" fill="none" xmlns="http://www.w3.org/2000/svg">
<path d="M19.0999 8V3M6.09985 21V16M16.5999 5.5H21.5999M3.59985 18.5H8.59985M7.09985 2L6.3154 3.56892C6.04991 4.09989 5.91716 4.36538 5.73982 4.59545C5.58246 4.79959 5.39945 4.98261 5.1953 5.13997C4.96524 5.31731 4.69975 5.45005 4.16877 5.71554L2.59985 6.5L4.16877 7.28446C4.69975 7.54995 4.96524 7.68269 5.1953 7.86003C5.39945 8.01739 5.58246 8.20041 5.73982 8.40455C5.91716 8.63462 6.04991 8.9001 6.3154 9.43108L7.09985 11L7.88431 9.43108C8.1498 8.9001 8.28255 8.63462 8.45988 8.40455C8.61725 8.20041 8.80026 8.01739 9.00441 7.86003C9.23447 7.68269 9.49996 7.54995 10.0309 7.28446L11.5999 6.5L10.0309 5.71554C9.49996 5.45005 9.23447 5.31731 9.00441 5.13997C8.80026 4.98261 8.61725 4.79959 8.45988 4.59545C8.28255 4.36538 8.1498 4.0999 7.88431 3.56892L7.09985 2ZM17.5999 12L16.6487 13.9022C16.3832 14.4332 16.2505 14.6987 16.0732 14.9288C15.9158 15.1329 15.7328 15.3159 15.5286 15.4733C15.2986 15.6506 15.0331 15.7834 14.5021 16.0489L12.5999 17L14.5021 17.9511C15.0331 18.2166 15.2986 18.3494 15.5286 18.5267C15.7328 18.6841 15.9158 18.8671 16.0732 19.0712C16.2505 19.3013 16.3832 19.5668 16.6487 20.0977L17.5999 22L18.551 20.0978C18.8165 19.5668 18.9492 19.3013 19.1266 19.0712C19.2839 18.8671 19.4669 18.6841 19.6711 18.5267C19.9011 18.3494 20.1666 18.2166 20.6976 17.9511L22.5999 17L20.6976 16.0489C20.1666 15.7834 19.9011 15.6506 19.6711 15.4733C19.4669 15.3159 19.2839 15.1329 19.1266 14.9288C18.9492 14.6987 18.8165 14.4332 18.551 13.9023L17.5999 12Z" stroke="#717680" stroke-width="2" stroke-linecap="round" stroke-linejoin="round"/>
</svg>
