<svg width="23" height="22" viewBox="0 0 23 22" fill="none" xmlns="http://www.w3.org/2000/svg">
<path fill-rule="evenodd" clip-rule="evenodd" d="M10.7915 2.30809C10.3978 2.82224 9.95333 3.61551 9.30778 4.77355L8.98009 5.36141C8.96033 5.39684 8.94083 5.43194 8.92152 5.4667C8.62078 6.0079 8.36696 6.46469 7.95795 6.77518C7.54454 7.08901 7.04057 7.20227 6.45486 7.3339C6.41722 7.34235 6.37924 7.35089 6.34092 7.35956L5.70457 7.50354C4.44925 7.78757 3.59527 7.98299 3.01033 8.21351C2.43953 8.43845 2.31905 8.62275 2.27312 8.77044C2.22465 8.9263 2.22321 9.16472 2.56445 9.70679C2.9108 10.257 3.4951 10.9432 4.34962 11.9425L4.78345 12.4498C4.80866 12.4793 4.83364 12.5084 4.85838 12.5373C5.26139 13.0074 5.59742 13.3993 5.75156 13.895C5.90477 14.3877 5.85399 14.9054 5.79242 15.5331C5.78864 15.5716 5.78483 15.6105 5.78101 15.6499L5.71543 16.3267C5.58633 17.6589 5.49929 18.5762 5.52873 19.2369C5.55811 19.8965 5.69741 20.0788 5.80816 20.1628C5.90667 20.2376 6.08876 20.3204 6.68199 20.1504C7.28486 19.9777 8.0861 19.6111 9.26153 19.0699L9.85734 18.7956C9.89404 18.7787 9.93038 18.7619 9.96641 18.7452C10.5112 18.4934 10.9839 18.2748 11.4995 18.2748C12.0152 18.2748 12.4878 18.4934 13.0326 18.7452C13.0687 18.7619 13.105 18.7787 13.1417 18.7956L13.7375 19.0699C14.9129 19.6111 15.7142 19.9777 16.3171 20.1504C16.9103 20.3204 17.0924 20.2376 17.1909 20.1628C17.3016 20.0788 17.4409 19.8965 17.4703 19.2369C17.4998 18.5762 17.4127 17.6589 17.2836 16.3267L17.218 15.6499C17.2142 15.6105 17.2104 15.5716 17.2066 15.5331C17.1451 14.9054 17.0943 14.3877 17.2475 13.895C17.4016 13.3993 17.7377 13.0074 18.1407 12.5372C18.1654 12.5084 18.1904 12.4793 18.2156 12.4498L18.6494 11.9425C19.504 10.9432 20.0883 10.257 20.4346 9.70679C20.7758 9.16472 20.7744 8.9263 20.7259 8.77044C20.68 8.62275 20.5595 8.43845 19.9887 8.21351C19.4038 7.98299 18.5498 7.78757 17.2945 7.50354L16.6581 7.35956C16.6198 7.35089 16.5818 7.34235 16.5442 7.33389C15.9585 7.20227 15.4545 7.08901 15.0411 6.77518C14.6321 6.46469 14.3783 6.0079 14.0775 5.4667C14.0582 5.43194 14.0387 5.39684 14.019 5.36141L13.6913 4.77355C13.0457 3.61551 12.6013 2.82224 12.2076 2.30809C11.8142 1.79443 11.6133 1.75 11.4995 1.75C11.3858 1.75 11.1848 1.79443 10.7915 2.30809ZM9.60057 1.3961C10.0773 0.773631 10.6664 0.25 11.4995 0.25C12.3326 0.25 12.9218 0.773631 13.3985 1.3961C13.8669 2.00773 14.3635 2.89876 14.9706 3.98776L15.3292 4.63106C15.7217 5.33523 15.8221 5.48482 15.9481 5.58044C16.0693 5.67247 16.2257 5.7238 16.9892 5.89654L17.6892 6.05492C18.8648 6.32088 19.8333 6.53999 20.5387 6.81796C21.2709 7.10651 21.9116 7.5318 22.1583 8.32502C22.4024 9.11007 22.128 9.83232 21.704 10.5059C21.292 11.1604 20.634 11.9298 19.8301 12.8698L19.3556 13.4247C18.8386 14.0292 18.7306 14.1772 18.6798 14.3404C18.6281 14.5069 18.6329 14.6992 18.711 15.5052L18.7826 16.2433C18.9043 17.4994 19.0036 18.5236 18.9688 19.3037C18.9335 20.0977 18.7531 20.8601 18.0979 21.3576C17.4303 21.8643 16.6537 21.8072 15.9039 21.5924C15.1769 21.3841 14.2706 20.9667 13.17 20.46L12.5144 20.1581C11.797 19.8278 11.6435 19.7748 11.4995 19.7748C11.3556 19.7748 11.202 19.8278 10.4847 20.1581L9.82903 20.46C8.72849 20.9667 7.82216 21.3841 7.09516 21.5924C6.34538 21.8072 5.56871 21.8643 4.90119 21.3576C4.24591 20.8601 4.06558 20.0977 4.03021 19.3037C3.99546 18.5236 4.09474 17.4993 4.21648 16.2433L4.28801 15.5052C4.36611 14.6992 4.37098 14.5069 4.31922 14.3404C4.26845 14.1772 4.16045 14.0292 3.64345 13.4247L3.16896 12.8698C2.36511 11.9299 1.70704 11.1604 1.29504 10.5059C0.871006 9.83233 0.59665 9.11007 0.840777 8.32502C1.08745 7.5318 1.72818 7.10651 2.46037 6.81796C3.16573 6.53999 4.13425 6.32088 5.30989 6.05492L5.37355 6.04052L6.0099 5.89654C6.77334 5.72381 6.92974 5.67247 7.05099 5.58044C7.17694 5.48482 7.27736 5.33523 7.6699 4.63106L8.02851 3.98775C8.63552 2.89876 9.13219 2.00773 9.60057 1.3961Z" fill="#3C3C43" fill-opacity="0.6"/>
</svg>
