<svg width="25" height="24" viewBox="0 0 25 24" fill="none" xmlns="http://www.w3.org/2000/svg">
<path d="M8.09438 1.55279C7.92499 1.214 7.57872 1 7.19995 1C6.82118 1 6.47492 1.214 6.30552 1.55279L5.52107 3.1217C5.23858 3.68667 5.1525 3.84925 5.04791 3.98494C4.943 4.12104 4.82099 4.24305 4.68489 4.34796C4.5492 4.45255 4.38662 4.53863 3.82165 4.82111L2.25274 5.60557C1.91395 5.77496 1.69995 6.12123 1.69995 6.5C1.69995 6.87877 1.91395 7.22504 2.25274 7.39443L3.82165 8.17889C4.38662 8.46137 4.5492 8.54745 4.68489 8.65204C4.82099 8.75695 4.943 8.87896 5.04791 9.01506C5.1525 9.15075 5.23858 9.31333 5.52107 9.8783L6.30552 11.4472C6.47492 11.786 6.82118 12 7.19995 12C7.57872 12 7.92499 11.786 8.09438 11.4472L8.87884 9.8783C9.16132 9.31333 9.2474 9.15075 9.35199 9.01506C9.4569 8.87896 9.57891 8.75695 9.71501 8.65204C9.8507 8.54745 10.0133 8.46137 10.5782 8.17889L12.1472 7.39443C12.4859 7.22504 12.7 6.87877 12.7 6.5C12.7 6.12123 12.4859 5.77496 12.1472 5.60557L10.5782 4.82111C10.0133 4.53863 9.8507 4.45255 9.71501 4.34796C9.57891 4.24305 9.4569 4.12104 9.35199 3.98494C9.2474 3.84925 9.16132 3.68667 8.87884 3.1217L8.09438 1.55279Z" fill="#155EEF"/>
<path d="M20.2 3C20.2 2.44772 19.7522 2 19.2 2C18.6477 2 18.2 2.44772 18.2 3V4.5H16.7C16.1477 4.5 15.7 4.94772 15.7 5.5C15.7 6.05228 16.1477 6.5 16.7 6.5H18.2V8C18.2 8.55228 18.6477 9 19.2 9C19.7522 9 20.2 8.55228 20.2 8V6.5H21.7C22.2522 6.5 22.7 6.05228 22.7 5.5C22.7 4.94772 22.2522 4.5 21.7 4.5H20.2V3Z" fill="#155EEF"/>
<path d="M7.19995 16C7.19995 15.4477 6.75224 15 6.19995 15C5.64767 15 5.19995 15.4477 5.19995 16V17.5H3.69995C3.14767 17.5 2.69995 17.9477 2.69995 18.5C2.69995 19.0523 3.14767 19.5 3.69995 19.5H5.19995V21C5.19995 21.5523 5.64767 22 6.19995 22C6.75224 22 7.19995 21.5523 7.19995 21V19.5H8.69995C9.25224 19.5 9.69995 19.0523 9.69995 18.5C9.69995 17.9477 9.25224 17.5 8.69995 17.5H7.19995V16Z" fill="#155EEF"/>
<path d="M18.5944 11.5528C18.425 11.214 18.0787 11 17.7 11C17.3212 11 16.9749 11.214 16.8055 11.5528L15.8544 13.455C15.5719 14.02 15.4858 14.1826 15.3812 14.3183C15.2763 14.4544 15.1543 14.5764 15.0182 14.6813C14.8825 14.7859 14.72 14.872 14.155 15.1544L12.2527 16.1056C11.914 16.275 11.7 16.6212 11.7 17C11.7 17.3788 11.914 17.725 12.2527 17.8944L14.155 18.8456C14.72 19.128 14.8825 19.2141 15.0182 19.3187C15.1543 19.4236 15.2763 19.5456 15.3812 19.6817C15.4858 19.8174 15.5719 19.98 15.8544 20.545L16.8055 22.4472C16.9749 22.786 17.3212 23 17.7 23C18.0787 23 18.425 22.786 18.5944 22.4472L19.5455 20.545C19.828 19.98 19.9141 19.8174 20.0187 19.6817C20.1236 19.5456 20.2456 19.4236 20.3817 19.3187C20.5174 19.2141 20.6799 19.128 21.2449 18.8456L23.1472 17.8944C23.486 17.725 23.7 17.3788 23.7 17C23.7 16.6212 23.486 16.275 23.1472 16.1056L21.2449 15.1544C20.6799 14.872 20.5174 14.7859 20.3817 14.6813C20.2456 14.5764 20.1236 14.4544 20.0187 14.3183C19.9141 14.1826 19.828 14.02 19.5455 13.455L18.5944 11.5528Z" fill="#155EEF"/>
</svg>
