<svg width="22" height="21" viewBox="0 0 22 21" fill="none" xmlns="http://www.w3.org/2000/svg">
<path d="M10.2826 2.45307C10.5131 1.98613 10.6283 1.75266 10.7848 1.67807C10.9209 1.61317 11.0791 1.61317 11.2152 1.67807C11.3716 1.75266 11.4869 1.98613 11.7174 2.45307L13.904 6.88304C13.9721 7.02089 14.0061 7.08982 14.0558 7.14333C14.0998 7.19071 14.1526 7.22911 14.2113 7.25638C14.2775 7.28718 14.3536 7.2983 14.5057 7.32053L19.397 8.03546C19.912 8.11075 20.1696 8.14839 20.2888 8.27419C20.3924 8.38365 20.4412 8.53405 20.4215 8.68353C20.3988 8.85533 20.2123 9.03694 19.8394 9.40014L16.3014 12.8462C16.1911 12.9536 16.136 13.0073 16.1004 13.0712C16.0689 13.1278 16.0487 13.19 16.0409 13.2543C16.0321 13.3269 16.0451 13.4027 16.0711 13.5545L16.9059 18.4219C16.994 18.9352 17.038 19.1919 16.9553 19.3443C16.8833 19.4768 16.7553 19.5697 16.607 19.5972C16.4366 19.6288 16.2061 19.5076 15.7451 19.2652L11.3723 16.9656C11.2361 16.8939 11.168 16.8581 11.0962 16.844C11.0327 16.8316 10.9673 16.8316 10.9038 16.844C10.832 16.8581 10.7639 16.8939 10.6276 16.9656L6.25489 19.2652C5.79388 19.5076 5.56338 19.6288 5.39294 19.5972C5.24465 19.5697 5.11669 19.4768 5.04471 19.3443C4.96197 19.1919 5.00599 18.9352 5.09404 18.4219L5.92886 13.5545C5.95488 13.4027 5.96789 13.3269 5.95909 13.2543C5.95129 13.19 5.93108 13.1278 5.89958 13.0712C5.86399 13.0073 5.80885 12.9536 5.69855 12.8462L2.16053 9.40014C1.78763 9.03694 1.60118 8.85533 1.5785 8.68353C1.55876 8.53405 1.60752 8.38365 1.71122 8.27419C1.8304 8.14839 2.08794 8.11075 2.60301 8.03546L7.49428 7.32053C7.64639 7.2983 7.72245 7.28718 7.78869 7.25638C7.84733 7.22911 7.90013 7.19071 7.94415 7.14333C7.99388 7.08982 8.0279 7.02089 8.09594 6.88304L10.2826 2.45307Z" stroke="#3C3C43" stroke-opacity="0.6" stroke-width="2" stroke-linecap="round" stroke-linejoin="round"/>
</svg>
