<svg width="20" height="20" viewBox="0 0 20 20" fill="none" xmlns="http://www.w3.org/2000/svg">
<path fill-rule="evenodd" clip-rule="evenodd" d="M9.99935 2.2915C5.74215 2.2915 2.29102 5.74264 2.29102 9.99984C2.29102 14.0467 5.40951 17.3651 9.37447 17.6832C9.37635 15.8026 9.4024 14.6557 9.73677 13.7001C10.3859 11.845 11.8445 10.3864 13.6996 9.73726C14.6552 9.40289 15.8022 9.37683 17.6827 9.37496C17.3646 5.41 14.0462 2.2915 9.99935 2.2915ZM17.533 10.6257C15.7091 10.6309 14.8254 10.6677 14.1125 10.9171C12.6164 11.4406 11.4401 12.6169 10.9166 14.113C10.6672 14.8259 10.6304 15.7095 10.6252 17.5335C10.7502 17.4625 10.8701 17.3707 10.981 17.2599L17.2594 10.9814C17.3702 10.8706 17.462 10.7507 17.533 10.6257ZM1.04102 9.99984C1.04102 5.05229 5.0518 1.0415 9.99935 1.0415C14.9469 1.0415 18.9577 5.05229 18.9577 9.99984C18.9577 10.7367 18.6179 11.3907 18.1433 11.8653L11.8648 18.1438C11.3902 18.6184 10.7362 18.9582 9.99935 18.9582C5.0518 18.9582 1.04102 14.9474 1.04102 9.99984Z" fill="#020814"/>
</svg>
