<svg width="18" height="18" viewBox="0 0 18 18" fill="none" xmlns="http://www.w3.org/2000/svg">
    <path d="M9 17.4736C7.83236 17.4736 6.73665 17.2523 5.71289 16.8096C4.68913 16.3724 3.78988 15.7664 3.01514 14.9917C2.2404 14.217 1.63167 13.3177 1.18896 12.2939C0.75179 11.2702 0.533203 10.1745 0.533203 9.00684C0.533203 7.83919 0.75179 6.74349 1.18896 5.71973C1.63167 4.69596 2.2404 3.79671 3.01514 3.02197C3.78988 2.2417 4.68913 1.63298 5.71289 1.1958C6.73665 0.758626 7.83236 0.540039 9 0.540039C10.1676 0.540039 11.2633 0.758626 12.2871 1.1958C13.3109 1.63298 14.2101 2.2417 14.9849 3.02197C15.7596 3.79671 16.3656 4.69596 16.8027 5.71973C17.2454 6.74349 17.4668 7.83919 17.4668 9.00684C17.4668 10.1745 17.2454 11.2702 16.8027 12.2939C16.3656 13.3177 15.7596 14.217 14.9849 14.9917C14.2101 15.7664 13.3109 16.3724 12.2871 16.8096C11.2633 17.2523 10.1676 17.4736 9 17.4736ZM9 16.0625C9.97396 16.0625 10.887 15.8799 11.7393 15.5146C12.5915 15.1494 13.3413 14.6431 13.9888 13.9956C14.6362 13.3481 15.1426 12.5983 15.5078 11.7461C15.873 10.8939 16.0557 9.98079 16.0557 9.00684C16.0557 8.03288 15.873 7.11979 15.5078 6.26758C15.1426 5.40983 14.6362 4.65999 13.9888 4.01807C13.3413 3.37061 12.5915 2.86426 11.7393 2.49902C10.887 2.13379 9.97396 1.95117 9 1.95117C8.02604 1.95117 7.11296 2.13379 6.26074 2.49902C5.40853 2.86426 4.65869 3.37061 4.01123 4.01807C3.36377 4.65999 2.85742 5.40983 2.49219 6.26758C2.12695 7.11979 1.94434 8.03288 1.94434 9.00684C1.94434 9.98079 2.12695 10.8939 2.49219 11.7461C2.85742 12.5983 3.36377 13.3481 4.01123 13.9956C4.65869 14.6431 5.40853 15.1494 6.26074 15.5146C7.11296 15.8799 8.02604 16.0625 9 16.0625ZM8.08691 12.9414C7.94857 12.9414 7.82129 12.911 7.70508 12.8501C7.5944 12.7892 7.48649 12.6924 7.38135 12.5596L5.35596 10.0693C5.22868 9.89779 5.16504 9.72624 5.16504 9.55469C5.16504 9.37207 5.22591 9.21712 5.34766 9.08984C5.47493 8.95703 5.62712 8.89062 5.8042 8.89062C5.92041 8.89062 6.02555 8.91553 6.11963 8.96533C6.21924 9.0096 6.31885 9.09814 6.41846 9.23096L8.05371 11.3477L11.4985 5.81934C11.6535 5.57031 11.8472 5.4458 12.0796 5.4458C12.2511 5.4458 12.4061 5.50114 12.5444 5.61182C12.6828 5.72249 12.752 5.86914 12.752 6.05176C12.752 6.14583 12.7298 6.23991 12.6855 6.33398C12.6468 6.42253 12.6025 6.50553 12.5527 6.58301L8.75928 12.5596C8.59326 12.8141 8.36914 12.9414 8.08691 12.9414Z" fill="#007AFF"/>
</svg>
