<svg width="20" height="21" viewBox="0 0 20 21" fill="none" xmlns="http://www.w3.org/2000/svg">
<path d="M18.3333 14.6667V11.3333C18.3333 6.73096 14.6023 3 9.99996 3C5.39759 3 1.66663 6.73096 1.66663 11.3333V14.6667M6.24996 18C5.09937 18 4.16663 17.0673 4.16663 15.9167V13.4167C4.16663 12.2661 5.09937 11.3333 6.24996 11.3333C7.40055 11.3333 8.33329 12.2661 8.33329 13.4167V15.9167C8.33329 17.0673 7.40055 18 6.24996 18ZM13.75 18C12.5994 18 11.6666 17.0673 11.6666 15.9167V13.4167C11.6666 12.2661 12.5994 11.3333 13.75 11.3333C14.9006 11.3333 15.8333 12.2661 15.8333 13.4167V15.9167C15.8333 17.0673 14.9006 18 13.75 18Z" stroke="#535862" stroke-width="1.66667" stroke-linecap="round" stroke-linejoin="round"/>
</svg>
