<svg width="18" height="19" viewBox="0 0 18 19" fill="none" xmlns="http://www.w3.org/2000/svg">
<path d="M6 6.5H6.0075M1.5 4.4L1.5 7.75589C1.5 8.12277 1.5 8.30622 1.54145 8.47885C1.57819 8.6319 1.6388 8.77822 1.72104 8.91243C1.8138 9.0638 1.94352 9.19351 2.20294 9.45294L7.95441 15.2044C8.84545 16.0955 9.29097 16.541 9.80471 16.7079C10.2566 16.8547 10.7434 16.8547 11.1953 16.7079C11.709 16.541 12.1545 16.0955 13.0456 15.2044L14.7044 13.5456C15.5955 12.6545 16.041 12.209 16.2079 11.6953C16.3547 11.2434 16.3547 10.7566 16.2079 10.3047C16.041 9.79097 15.5955 9.34545 14.7044 8.45441L8.95294 2.70294C8.69351 2.44352 8.5638 2.3138 8.41243 2.22104C8.27822 2.1388 8.1319 2.07819 7.97885 2.04145C7.80622 2 7.62277 2 7.25589 2L3.9 2C3.05992 2 2.63988 2 2.31901 2.16349C2.03677 2.3073 1.8073 2.53677 1.66349 2.81901C1.5 3.13988 1.5 3.55992 1.5 4.4ZM6.375 6.5C6.375 6.70711 6.20711 6.875 6 6.875C5.79289 6.875 5.625 6.70711 5.625 6.5C5.625 6.29289 5.79289 6.125 6 6.125C6.20711 6.125 6.375 6.29289 6.375 6.5Z" stroke="#717680" stroke-width="1.5" stroke-linecap="round" stroke-linejoin="round"/>
</svg>
