<svg width="22" height="22" viewBox="0 0 22 22" fill="none" xmlns="http://www.w3.org/2000/svg">
    <path d="M11 21C16.5228 21 21 16.5228 21 11C21 10.5373 20.3065 10.4608 20.0672 10.8568C18.9289 12.7406 16.8615 14 14.5 14C10.9101 14 8 11.0899 8 7.5C8 5.13845 9.25937 3.07105 11.1432 1.93276C11.5392 1.69347 11.4627 1 11 1C5.47715 1 1 5.47715 1 11C1 16.5228 5.47715 21 11 21Z" fill="white"/>
    <path d="M20.0672 10.8568L19.4253 10.469L20.0672 10.8568ZM11.1432 1.93276L10.7553 1.29085V1.29085L11.1432 1.93276ZM20.25 11C20.25 16.1086 16.1086 20.25 11 20.25V21.75C16.9371 21.75 21.75 16.9371 21.75 11H20.25ZM11 20.25C5.89137 20.25 1.75 16.1086 1.75 11H0.25C0.25 16.9371 5.06294 21.75 11 21.75V20.25ZM1.75 11C1.75 5.89137 5.89137 1.75 11 1.75V0.25C5.06294 0.25 0.25 5.06294 0.25 11H1.75ZM14.5 13.25C11.3244 13.25 8.75 10.6756 8.75 7.5H7.25C7.25 11.5041 10.4959 14.75 14.5 14.75V13.25ZM19.4253 10.469C18.4172 12.1373 16.5882 13.25 14.5 13.25V14.75C17.1349 14.75 19.4407 13.3439 20.7092 11.2447L19.4253 10.469ZM8.75 7.5C8.75 5.41182 9.86266 3.5828 11.531 2.57467L10.7553 1.29085C8.65609 2.5593 7.25 4.86509 7.25 7.5H8.75ZM11 1.75C10.9115 1.75 10.8077 1.71008 10.7324 1.63168C10.6686 1.56527 10.6538 1.50244 10.6503 1.47703C10.6461 1.44587 10.6482 1.35557 10.7553 1.29085L11.531 2.57467C12.0342 2.27065 12.196 1.71398 12.1368 1.27627C12.0754 0.821258 11.7166 0.25 11 0.25V1.75ZM20.7092 11.2447C20.6444 11.3518 20.5541 11.3539 20.523 11.3497C20.4976 11.3462 20.4347 11.3314 20.3683 11.2676C20.2899 11.1923 20.25 11.0885 20.25 11H21.75C21.75 10.2834 21.1787 9.92461 20.7237 9.86316C20.286 9.80404 19.7293 9.96584 19.4253 10.469L20.7092 11.2447Z" fill="#1A62F5"/>
</svg>
