<svg width="32" height="32" viewBox="0 0 32 32" fill="none" xmlns="http://www.w3.org/2000/svg">
    <path d="M16.0364 0H15.9636C7.14713 0 0 7.14713 0 15.9636V16.0364C0 24.8529 7.14713 32 15.9636 32H16.0364C24.8529 32 32 24.8529 32 16.0364V15.9636C32 7.14713 24.8529 0 16.0364 0Z" fill="black"/>
    <path d="M24.1135 12.7089V15.7303C23.5855 15.6787 22.8994 15.5588 22.1404 15.2807C21.1493 14.9175 20.4116 14.4208 19.9284 14.0363V20.143L19.9161 20.124C19.9239 20.245 19.9284 20.3684 19.9284 20.4928C19.9284 23.5254 17.4608 25.9941 14.4271 25.9941C11.3934 25.9941 8.92578 23.5254 8.92578 20.4928C8.92578 17.4602 11.3934 14.9904 14.4271 14.9904C14.7242 14.9904 15.0157 15.0139 15.3004 15.0599V18.0376C15.0269 17.94 14.7332 17.8873 14.4271 17.8873C12.9909 17.8873 11.8216 19.0555 11.8216 20.4928C11.8216 21.9301 12.9909 23.0983 14.4271 23.0983C15.8632 23.0983 17.0326 21.929 17.0326 20.4928C17.0326 20.439 17.0314 20.3852 17.0281 20.3314V8.46436H20.0472C20.0585 8.71997 20.0686 8.97783 20.0798 9.23344C20.0999 9.73682 20.2793 10.22 20.5921 10.6158C20.9587 11.081 21.5002 11.6214 22.2603 12.053C22.9722 12.4566 23.6404 12.6293 24.1135 12.7111V12.7089Z" fill="#FF004F"/>
    <path d="M23.0745 10.2561V13.2775C22.5464 13.2259 21.8603 13.1059 21.1013 12.8279C20.1102 12.4647 19.3725 11.968 18.8893 11.5835V17.6902L18.877 17.6711C18.8849 17.7922 18.8893 17.9155 18.8893 18.04C18.8893 21.0726 16.4218 23.5413 13.388 23.5413C10.3543 23.5413 7.88672 21.0726 7.88672 18.04C7.88672 15.0074 10.3543 12.5375 13.388 12.5375C13.6851 12.5375 13.9766 12.5611 14.2614 12.607V15.5847C13.9878 15.4872 13.6941 15.4345 13.388 15.4345C11.9519 15.4345 10.7826 16.6027 10.7826 18.04C10.7826 19.4772 11.9519 20.6454 13.388 20.6454C14.8242 20.6454 15.9935 19.4761 15.9935 18.04C15.9935 17.9862 15.9924 17.9323 15.989 17.8785V6.00928H19.0082C19.0194 6.26489 19.0295 6.52275 19.0407 6.77836C19.0609 7.28174 19.2403 7.76494 19.553 8.1607C19.9196 8.62596 20.4611 9.16634 21.2213 9.59797C21.9332 10.0004 22.6014 10.1742 23.0745 10.2561Z" fill="#00F7EF"/>
    <path d="M23.7346 11.5771V14.5985C23.2066 14.5469 22.5205 14.4269 21.7615 14.1489C20.7704 13.7857 20.0327 13.289 19.5495 12.9045V19.0112L19.5372 18.9921C19.545 19.1132 19.5495 19.2365 19.5495 19.361C19.5495 22.3936 17.0819 24.8623 14.0482 24.8623C11.0145 24.8623 8.54688 22.3936 8.54688 19.361C8.54688 16.3284 11.0145 13.8585 14.0482 13.8585C14.3453 13.8585 14.6368 13.8821 14.9215 13.928V16.9057C14.648 16.8082 14.3543 16.7555 14.0482 16.7555C12.612 16.7555 11.4427 17.9237 11.4427 19.361C11.4427 20.7982 12.612 21.9664 14.0482 21.9664C15.4843 21.9664 16.6537 20.7971 16.6537 19.361C16.6537 19.3072 16.6525 19.2533 16.6492 19.1995V7.33252H19.6683C19.6796 7.58813 19.6896 7.84599 19.7009 8.1016C19.721 8.60499 19.9004 9.08819 20.2132 9.48394C20.5798 9.9492 21.1213 10.4896 21.8814 10.9212C22.5933 11.3237 23.2615 11.4975 23.7346 11.5793V11.5771Z" fill="white"/>
</svg>
