<svg width="32" height="32" viewBox="0 0 32 32" fill="none" xmlns="http://www.w3.org/2000/svg">
    <path opacity="0.5" d="M13.3332 26.6667H18.6665C23.6948 26.6667 26.209 26.6667 27.7711 25.1046C29.3332 23.5425 29.3332 21.0283 29.3332 16C29.3332 15.4108 29.331 13.856 29.3285 13.3333H2.66683C2.66432 13.856 2.66651 15.4108 2.66651 16C2.66651 21.0283 2.66651 23.5425 4.22861 25.1046C5.7907 26.6667 8.30486 26.6667 13.3332 26.6667H13.3332Z" fill="#1A62F5"/>
    <path d="M13.3263 5.33334H18.6734C23.7147 5.33334 26.2353 5.33334 27.8014 6.82106C28.929 7.89222 29.2448 9.43344 29.3332 12V13.3333H2.6665V12C2.7549 9.43344 3.07063 7.89222 4.19825 6.82106C5.76438 5.33334 8.28502 5.33334 13.3263 5.33334Z" fill="#1A62F5"/>
    <path d="M16.6667 20.3333C16.1144 20.3333 15.6667 20.7811 15.6667 21.3333C15.6667 21.8856 16.1144 22.3333 16.6667 22.3333H18.6667C19.219 22.3333 19.6667 21.8856 19.6667 21.3333C19.6667 20.7811 19.219 20.3333 18.6667 20.3333H16.6667Z" fill="#1A62F5"/>
    <path d="M8 20.3333C7.44772 20.3333 7 20.7811 7 21.3333C7 21.8856 7.44772 22.3333 8 22.3333H13.3333C13.8856 22.3333 14.3333 21.8856 14.3333 21.3333C14.3333 20.7811 13.8856 20.3333 13.3333 20.3333H8Z" fill="#1A62F5"/>
</svg>
