<svg width="24" height="18" viewBox="0 0 24 18" fill="none" xmlns="http://www.w3.org/2000/svg">
<path fill-rule="evenodd" clip-rule="evenodd" d="M17.3335 0C17.604 0 17.8631 0.109625 18.0514 0.303854L23.3847 5.80385C23.7692 6.20034 23.7595 6.83343 23.363 7.2179C22.9665 7.60237 22.3334 7.59263 21.9489 7.19615L18.3335 3.46773L18.3335 17C18.3335 17.5523 17.8858 18 17.3335 18C16.7812 18 16.3335 17.5523 16.3335 17L16.3335 3.46773L12.7181 7.19615C12.3336 7.59263 11.7005 7.60237 11.304 7.2179C10.9075 6.83343 10.8978 6.20034 11.2823 5.80385L16.6156 0.303854C16.8039 0.109625 17.0629 0 17.3335 0ZM6.66683 4.76837e-07C7.21912 4.76837e-07 7.66683 0.447716 7.66683 1L7.66683 14.5323L11.2823 10.8039C11.6667 10.4074 12.2998 10.3976 12.6963 10.7821C13.0928 11.1666 13.1025 11.7997 12.7181 12.1961L7.38473 17.6961C7.19639 17.8904 6.93738 18 6.66683 18C6.39628 18 6.13727 17.8904 5.94893 17.6961L0.615597 12.1961C0.231126 11.7997 0.240866 11.1666 0.637351 10.7821C1.03384 10.3976 1.66693 10.4074 2.0514 10.8039L5.66683 14.5323L5.66683 1C5.66683 0.447716 6.11455 4.76837e-07 6.66683 4.76837e-07Z" fill="#3E5463"/>
</svg>
