<svg width="18" height="20" viewBox="0 0 18 20" fill="none" xmlns="http://www.w3.org/2000/svg">
<path d="M12.3333 4.99984V4.33317C12.3333 3.39975 12.3333 2.93304 12.1517 2.57652C11.9919 2.26292 11.7369 2.00795 11.4233 1.84816C11.0668 1.6665 10.6001 1.6665 9.66667 1.6665H8.33333C7.39991 1.6665 6.9332 1.6665 6.57668 1.84816C6.26308 2.00795 6.00811 2.26292 5.84832 2.57652C5.66667 2.93304 5.66667 3.39975 5.66667 4.33317V4.99984M7.33333 9.58317V13.7498M10.6667 9.58317V13.7498M1.5 4.99984H16.5M14.8333 4.99984V14.3332C14.8333 15.7333 14.8333 16.4334 14.5608 16.9681C14.3212 17.4386 13.9387 17.821 13.4683 18.0607C12.9335 18.3332 12.2335 18.3332 10.8333 18.3332H7.16667C5.76654 18.3332 5.06647 18.3332 4.53169 18.0607C4.06129 17.821 3.67883 17.4386 3.43915 16.9681C3.16667 16.4334 3.16667 15.7333 3.16667 14.3332V4.99984" stroke="#D92D20" stroke-width="1.66667" stroke-linecap="round" stroke-linejoin="round"/>
</svg>
