<svg width="24" height="25" viewBox="0 0 24 25" fill="none" xmlns="http://www.w3.org/2000/svg">
<path fill-rule="evenodd" clip-rule="evenodd" d="M16.6639 3.18443C16.4082 2.92867 16.1706 2.69104 15.9584 2.51414C15.7364 2.32904 15.4384 2.11893 15.0484 2.03988C14.5319 1.93516 13.9949 2.03858 13.5542 2.32765C13.2214 2.54588 13.0228 2.85162 12.8854 3.10595C12.7541 3.34901 12.6217 3.65788 12.4793 3.99031L11.3947 6.52109C11.3703 6.57791 11.3584 6.6056 11.3493 6.6256L11.3487 6.62696L11.3476 6.62804C11.3324 6.64393 11.3112 6.66529 11.2675 6.709L9.70657 8.26989C9.63827 8.33818 9.60453 8.37173 9.57921 8.39536L9.5774 8.39703L9.57501 8.3976C9.5413 8.40557 9.49468 8.41503 9.39997 8.43397L5.69311 9.17535C5.25342 9.26325 4.85803 9.3423 4.54767 9.4345C4.23708 9.52677 3.83585 9.67851 3.53241 10.0205C3.14428 10.4579 2.96704 11.0433 3.04735 11.6225C3.11013 12.0754 3.3598 12.4242 3.56705 12.6733C3.77414 12.9221 4.05926 13.2072 4.37635 13.5243L7.24265 16.3906L2.29289 21.3403C1.90237 21.7309 1.90237 22.364 2.29289 22.7545C2.68342 23.1451 3.31658 23.1451 3.70711 22.7545L8.65686 17.8048L11.5233 20.6712C11.8403 20.9883 12.1254 21.2734 12.3742 21.4805C12.6233 21.6877 12.9721 21.9374 13.425 22.0002C14.0042 22.0805 14.5896 21.9032 15.027 21.5151C15.369 21.2117 15.5208 20.8104 15.613 20.4999C15.7052 20.1895 15.7843 19.7941 15.8722 19.3544L16.6135 15.6476C16.6325 15.5528 16.642 15.5062 16.6499 15.4725L16.6505 15.4701L16.6522 15.4683C16.6758 15.443 16.7093 15.4093 16.7776 15.341L18.3385 13.7801C18.3822 13.7364 18.4036 13.7151 18.4195 13.6999L18.4206 13.6989L18.4219 13.6982C18.4419 13.6891 18.4696 13.6772 18.5264 13.6528L21.0572 12.5682C21.3896 12.4258 21.6985 12.2935 21.9416 12.1621C22.1959 12.0247 22.5016 11.8261 22.7199 11.4934C23.0089 11.0526 23.1124 10.5156 23.0076 9.9991C22.9286 9.60913 22.7185 9.31116 22.5334 9.08911C22.3565 8.87689 22.1189 8.63931 21.8631 8.3836L16.6639 3.18443Z" fill="white"/>
<rect x="1.70898" y="2.8634" width="1.42543" height="28.5086" rx="0.712716" transform="rotate(-45 1.70898 2.8634)" fill="white"/>
<rect x="2" y="1.06067" width="1.5" height="30" rx="0.75" transform="rotate(-45 2 1.06067)" fill="#717680"/>
</svg>
