<svg width="32" height="33" viewBox="0 0 32 33" fill="none" xmlns="http://www.w3.org/2000/svg">
<path d="M15.9993 29.8333C23.3631 29.8333 29.3327 23.8638 29.3327 16.5C29.3327 15.2169 29.1514 13.9761 28.8132 12.8018C28.7227 12.488 28.3535 12.3622 28.0627 12.511C27.2438 12.9302 26.3159 13.1667 25.3327 13.1667C22.019 13.1667 19.3327 10.4804 19.3327 7.16666C19.3327 6.18348 19.5692 5.25554 19.9883 4.43661C20.1371 4.14587 20.0113 3.7766 19.6975 3.68619C18.5232 3.3479 17.2825 3.16666 15.9993 3.16666C8.63555 3.16666 2.66602 9.13619 2.66602 16.5C2.66602 18.6329 3.16684 20.6488 4.0573 22.4366C4.29393 22.9117 4.37269 23.4547 4.23551 23.9675L3.44136 26.9355C3.09662 28.224 4.27537 29.4027 5.56381 29.058L8.53186 28.2638C9.04459 28.1266 9.58763 28.2054 10.0627 28.442C11.8505 29.3325 13.8664 29.8333 15.9993 29.8333Z" fill="white"/>
<circle cx="25.334" cy="7.16666" r="4" fill="white"/>
</svg>
