<svg width="8" height="18" viewBox="0 0 8 18" fill="none" xmlns="http://www.w3.org/2000/svg">
    <path fill-rule="evenodd" clip-rule="evenodd" d="M7.53033 4.78033C7.23744 5.07322 6.76256 5.07322 6.46967 4.78033L4 2.31066L1.53033 4.78033C1.23744 5.07322 0.762562 5.07322 0.46967 4.78033C0.176777 4.48744 0.176777 4.01256 0.46967 3.71967L3.46967 0.71967C3.76256 0.426777 4.23744 0.426777 4.53033 0.71967L7.53033 3.71967C7.82322 4.01256 7.82322 4.48744 7.53033 4.78033Z" fill="#020814"/>
    <path fill-rule="evenodd" clip-rule="evenodd" d="M0.469669 13.2197C0.762563 12.9268 1.23744 12.9268 1.53033 13.2197L4 15.6893L6.46967 13.2197C6.76256 12.9268 7.23744 12.9268 7.53033 13.2197C7.82322 13.5126 7.82322 13.9874 7.53033 14.2803L4.53033 17.2803C4.23744 17.5732 3.76256 17.5732 3.46967 17.2803L0.469669 14.2803C0.176777 13.9874 0.176777 13.5126 0.469669 13.2197Z" fill="#020814"/>
</svg>
