<svg width="25" height="24" viewBox="0 0 25 24" fill="none" xmlns="http://www.w3.org/2000/svg">
<path fill-rule="evenodd" clip-rule="evenodd" d="M12.5 1.25C12.7189 1.25 12.927 1.34567 13.0694 1.51191L16.0694 5.01191C16.339 5.3264 16.3026 5.79988 15.9881 6.06944C15.6736 6.33901 15.2001 6.30259 14.9306 5.98809L13.25 4.02744L13.25 15C13.25 15.4142 12.9142 15.75 12.5 15.75C12.0858 15.75 11.75 15.4142 11.75 15L11.75 4.02744L10.0694 5.98809C9.79988 6.30259 9.3264 6.33901 9.01191 6.06944C8.69741 5.79988 8.66099 5.3264 8.93056 5.01191L11.9306 1.51191C12.073 1.34567 12.2811 1.25 12.5 1.25ZM7.49583 8.25196C7.91003 8.24966 8.24768 8.58357 8.24999 8.99778C8.2523 9.41198 7.91838 9.74963 7.50418 9.75194C6.41068 9.75803 5.6356 9.78642 5.04735 9.89448C4.48054 9.99859 4.15246 10.1658 3.90901 10.4092C3.63225 10.686 3.4518 11.0746 3.35315 11.8083C3.25159 12.5637 3.25 13.5648 3.25 15.0002V16.0002C3.25 17.4356 3.25159 18.4367 3.35315 19.1921C3.4518 19.9259 3.63225 20.3144 3.90901 20.5912C4.18577 20.868 4.57434 21.0484 5.30812 21.1471C6.06347 21.2486 7.06458 21.2502 8.5 21.2502H16.5C17.9354 21.2502 18.9365 21.2486 19.6919 21.1471C20.4257 21.0484 20.8142 20.868 21.091 20.5912C21.3678 20.3144 21.5482 19.9259 21.6469 19.1921C21.7484 18.4367 21.75 17.4356 21.75 16.0002V15.0002C21.75 13.5648 21.7484 12.5637 21.6469 11.8083C21.5482 11.0746 21.3678 10.686 21.091 10.4092C20.8475 10.1658 20.5195 9.99859 19.9527 9.89448C19.3644 9.78642 18.5893 9.75803 17.4958 9.75194C17.0816 9.74963 16.7477 9.41198 16.75 8.99778C16.7523 8.58357 17.09 8.24966 17.5042 8.25196C18.5857 8.25798 19.4871 8.28387 20.2236 8.41916C20.9816 8.55839 21.6267 8.82363 22.1517 9.34856C22.7536 9.95048 23.0125 10.7084 23.1335 11.6085C23.25 12.4754 23.25 13.5778 23.25 14.9453V16.0551C23.25 17.4227 23.25 18.525 23.1335 19.392C23.0125 20.2921 22.7536 21.0499 22.1517 21.6519C21.5497 22.2538 20.7919 22.5127 19.8918 22.6337C19.0248 22.7503 17.9225 22.7502 16.5549 22.7502H8.44513C7.07754 22.7502 5.97522 22.7503 5.10825 22.6337C4.20814 22.5127 3.45027 22.2538 2.84835 21.6519C2.24643 21.0499 1.98754 20.2921 1.86652 19.392C1.74996 18.525 1.74998 17.4227 1.75 16.0551V14.9453C1.74998 13.5777 1.74996 12.4754 1.86652 11.6085C1.98754 10.7084 2.24643 9.95048 2.84835 9.34856C3.37328 8.82363 4.01835 8.55839 4.77635 8.41916C5.51291 8.28386 6.4143 8.25798 7.49583 8.25196Z" fill="#020814"/>
</svg>
