<svg width="16" height="16" viewBox="0 0 16 16" fill="none" xmlns="http://www.w3.org/2000/svg">
    <g clip-path="url(#clip0_7190_9474)">
        <path d="M14.6667 8.00016C14.6667 11.1429 14.6667 12.7142 13.6904 13.6905C12.7141 14.6668 11.1427 14.6668 8.00001 14.6668C4.85731 14.6668 3.28596 14.6668 2.30965 13.6905C1.33334 12.7142 1.33334 11.1429 1.33334 8.00016C1.33334 4.85747 1.33334 3.28612 2.30965 2.30981C3.28596 1.3335 4.85731 1.3335 8.00001 1.3335" stroke="#020814" stroke-linecap="round"/>
        <path d="M1.33334 8.33326L2.50107 7.31151C3.10858 6.77994 4.02419 6.81043 4.595 7.38124L7.45482 10.2411C7.91297 10.6992 8.63417 10.7617 9.16428 10.3891L9.36308 10.2494C10.1259 9.71331 11.158 9.77542 11.851 10.3991L14 12.3333" stroke="#020814" stroke-linecap="round"/>
        <path d="M11.3333 1.3335V7.3335M11.3333 1.3335L13.3333 3.3335M11.3333 1.3335L9.33334 3.3335" stroke="#020814" stroke-linecap="round" stroke-linejoin="round"/>
    </g>
    <defs>
        <clipPath id="clip0_7190_9474">
            <rect width="16" height="16" fill="white"/>
        </clipPath>
    </defs>
</svg>
