<svg width="21" height="20" viewBox="0 0 21 20" fill="none" xmlns="http://www.w3.org/2000/svg">
    <path d="M16.3333 17.5L13.8333 15M13.8333 15L16.3333 12.5M13.8333 15H18.8333M10.5 12.9167H6.74999C5.58702 12.9167 5.00554 12.9167 4.53237 13.0602C3.46704 13.3834 2.63336 14.217 2.31019 15.2824C2.16666 15.7555 2.16666 16.337 2.16666 17.5M12.5833 6.25C12.5833 8.32107 10.9044 10 8.83332 10C6.76226 10 5.08332 8.32107 5.08332 6.25C5.08332 4.17893 6.76226 2.5 8.83332 2.5C10.9044 2.5 12.5833 4.17893 12.5833 6.25Z" stroke="white" stroke-width="1.66667" stroke-linecap="round" stroke-linejoin="round"/>
</svg>
