<svg width="25" height="24" viewBox="0 0 25 24" fill="none" xmlns="http://www.w3.org/2000/svg">
<path d="M20.5999 21C20.5999 19.6044 20.5999 18.9067 20.4276 18.3389C20.0398 17.0605 19.0394 16.06 17.761 15.6722C17.1932 15.5 16.4954 15.5 15.0998 15.5H10.0999C8.70429 15.5 8.00651 15.5 7.43871 15.6722C6.16031 16.06 5.15989 17.0605 4.77209 18.3389C4.59985 18.9067 4.59985 19.6044 4.59985 21M17.0999 7.5C17.0999 9.98528 15.0851 12 12.5999 12C10.1146 12 8.09985 9.98528 8.09985 7.5C8.09985 5.01472 10.1146 3 12.5999 3C15.0851 3 17.0999 5.01472 17.0999 7.5Z" stroke="#717680" stroke-width="2" stroke-linecap="round" stroke-linejoin="round"/>
</svg>
