<svg width="25" height="24" viewBox="0 0 25 24" fill="none" xmlns="http://www.w3.org/2000/svg">
<path fill-rule="evenodd" clip-rule="evenodd" d="M9.48628 14.5C11.6289 14.5005 13.7716 14.5005 15.9143 14.5C16.6409 14.4998 17.1361 14.4997 17.5685 14.576C19.6386 14.941 21.2593 16.5617 21.6243 18.6318C21.7006 19.0642 21.7004 19.5593 21.7003 20.286C21.7003 20.4444 21.7051 20.6038 21.6775 20.7605C21.568 21.3815 21.0818 21.8677 20.4607 21.9772C20.3246 22.0012 20.1811 22.0005 20.1098 22.0001C15.1706 21.9736 10.2299 21.9736 5.29079 22.0001C5.21943 22.0005 5.07597 22.0012 4.9398 21.9772C4.31878 21.8677 3.83256 21.3815 3.72306 20.7605C3.69544 20.6038 3.70029 20.4444 3.70026 20.286C3.7001 19.5593 3.69999 19.0642 3.77624 18.6318C4.14124 16.5617 5.76197 14.941 7.83203 14.576C8.26444 14.4997 8.7596 14.4998 9.48628 14.5Z" fill="#155EEF"/>
<path fill-rule="evenodd" clip-rule="evenodd" d="M7.20027 7.5C7.20027 4.46243 9.66271 2 12.7003 2C15.7378 2 18.2003 4.46243 18.2003 7.5C18.2003 10.5376 15.7378 13 12.7003 13C9.66271 13 7.20027 10.5376 7.20027 7.5Z" fill="#155EEF"/>
</svg>
