<svg width="24" height="25" viewBox="0 0 24 25" fill="none" xmlns="http://www.w3.org/2000/svg">
<path d="M22 9.50779C22 8.90197 22 8.59906 21.8802 8.4588C21.7763 8.33709 21.6203 8.27251 21.4608 8.28506C21.2769 8.29954 21.0627 8.51372 20.6343 8.9421L17 12.5764L20.6343 16.2107C21.0627 16.6391 21.2769 16.8533 21.4608 16.8678C21.6203 16.8803 21.7763 16.8157 21.8802 16.694C22 16.5538 22 16.2509 22 15.645V9.50779Z" stroke="#181D27" stroke-width="2" stroke-linecap="round" stroke-linejoin="round"/>
<path d="M2 10.3764C2 8.69626 2 7.85618 2.32698 7.21444C2.6146 6.64996 3.07354 6.19102 3.63803 5.9034C4.27976 5.57642 5.11984 5.57642 6.8 5.57642H12.2C13.8802 5.57642 14.7202 5.57642 15.362 5.9034C15.9265 6.19102 16.3854 6.64996 16.673 7.21444C17 7.85618 17 8.69626 17 10.3764V14.7764C17 16.4566 17 17.2967 16.673 17.9384C16.3854 18.5029 15.9265 18.9618 15.362 19.2494C14.7202 19.5764 13.8802 19.5764 12.2 19.5764H6.8C5.11984 19.5764 4.27976 19.5764 3.63803 19.2494C3.07354 18.9618 2.6146 18.5029 2.32698 17.9384C2 17.2967 2 16.4566 2 14.7764V10.3764Z" stroke="#181D27" stroke-width="2" stroke-linecap="round" stroke-linejoin="round"/>
</svg>
