<svg width="28" height="24" viewBox="0 0 28 24" fill="none" xmlns="http://www.w3.org/2000/svg">
    <path fill-rule="evenodd" clip-rule="evenodd" d="M5.08261 10.3487C8.97375 3.44955 10.9193 0 14.0003 0C17.0813 0 19.0269 3.44955 22.918 10.3486L23.4029 11.2084C26.6364 16.9415 28.2532 19.808 26.792 21.904C25.3308 24 21.7156 24 14.4852 24H13.5154C6.28507 24 2.66989 24 1.20867 21.904C-0.252552 19.808 1.36421 16.9415 4.59773 11.2084L5.08261 10.3487ZM14.0003 5.66667C14.5526 5.66667 15.0003 6.11438 15.0003 6.66667V13.3333C15.0003 13.8856 14.5526 14.3333 14.0003 14.3333C13.448 14.3333 13.0003 13.8856 13.0003 13.3333V6.66667C13.0003 6.11438 13.448 5.66667 14.0003 5.66667ZM14.0003 18.6667C14.7367 18.6667 15.3337 18.0697 15.3337 17.3333C15.3337 16.597 14.7367 16 14.0003 16C13.2639 16 12.667 16.597 12.667 17.3333C12.667 18.0697 13.2639 18.6667 14.0003 18.6667Z" fill="#FF3B30"/>
</svg>
