<svg width="20" height="20" viewBox="0 0 20 20" fill="none" xmlns="http://www.w3.org/2000/svg">
<path d="M20 10C20 15.5228 15.5228 20 10 20C4.47715 20 1.24605e-09 15.5228 1.24605e-09 10C1.24605e-09 4.47715 4.47715 0 10 0C15.5228 0 20 4.47715 20 10Z" fill="white"/>
<path d="M10 0C8.02219 0 6.08879 0.586489 4.4443 1.6853C2.79981 2.78412 1.51809 4.3459 0.761209 6.17316C0.00433284 8.00042 -0.1937 10.0111 0.192152 11.9509C0.578004 13.8907 1.53041 15.6725 2.92894 17.0711C4.32746 18.4696 6.10929 19.422 8.0491 19.8078C9.98891 20.1937 11.9996 19.9957 13.8268 19.2388C15.6541 18.4819 17.2159 17.2002 18.3147 15.5557C19.4135 13.9112 20 11.9778 20 10C19.9949 7.3494 18.9397 4.80881 17.0655 2.93455C15.1912 1.06028 12.6506 0.00508266 10 0ZM14.7596 8.25L9.125 13.6346C8.97933 13.7716 8.78653 13.8474 8.58654 13.8461C8.48879 13.8475 8.39173 13.8296 8.30096 13.7933C8.21019 13.757 8.12751 13.703 8.0577 13.6346L5.24039 10.9423C5.16225 10.8741 5.0987 10.7909 5.05356 10.6975C5.00842 10.6041 4.98262 10.5026 4.97772 10.399C4.97282 10.2954 4.98892 10.1919 5.02504 10.0947C5.06116 9.99751 5.11656 9.90861 5.18792 9.83336C5.25928 9.75812 5.34511 9.69807 5.44027 9.65684C5.53542 9.61561 5.63793 9.59405 5.74163 9.59345C5.84533 9.59285 5.94808 9.61322 6.0437 9.65334C6.13933 9.69346 6.22585 9.7525 6.29808 9.82692L8.58654 12.0096L13.7019 7.13461C13.8515 7.00412 14.0457 6.9365 14.244 6.94588C14.4423 6.95526 14.6292 7.04092 14.7658 7.18495C14.9024 7.32898 14.978 7.52023 14.9768 7.71871C14.9757 7.9172 14.8979 8.10756 14.7596 8.25Z" fill="white"/>
<path d="M9.30714 5.71429V10.7143C9.30714 10.917 9.38767 11.1114 9.531 11.2547C9.67433 11.398 9.86873 11.4786 10.0714 11.4786C10.2741 11.4786 10.4685 11.398 10.6119 11.2547C10.7552 11.1114 10.8357 10.917 10.8357 10.7143V5.71429C10.8357 5.51158 10.7552 5.31719 10.6119 5.17385C10.4685 5.03052 10.2741 4.95 10.0714 4.95C9.86873 4.95 9.67433 5.03052 9.531 5.17385C9.38767 5.31719 9.30714 5.51158 9.30714 5.71429ZM11.0039 14.5516C11.1271 14.3672 11.1929 14.1504 11.1929 13.9286C11.1929 13.6311 11.0747 13.3459 10.8644 13.1356C10.6541 12.9253 10.3689 12.8071 10.0714 12.8071C9.84963 12.8071 9.63282 12.8729 9.4484 12.9961C9.26398 13.1194 9.12024 13.2945 9.03536 13.4994C8.95049 13.7043 8.92828 13.9298 8.97155 14.1474C9.01482 14.3649 9.12163 14.5647 9.27846 14.7215C9.43529 14.8784 9.63511 14.9852 9.85265 15.0285C10.0702 15.0717 10.2957 15.0495 10.5006 14.9646C10.7055 14.8798 10.8806 14.736 11.0039 14.5516Z" fill="#FFB92D" stroke="#FFB92D" stroke-width="0.1"/>
</svg>
