<svg width="20" height="21" viewBox="0 0 20 21" fill="none" xmlns="http://www.w3.org/2000/svg">
<g clip-path="url(#clip0_6002_21489)">
<path d="M1.6665 10.1107H18.3332M1.6665 10.1107C1.6665 14.7131 5.39746 18.444 9.99984 18.444M1.6665 10.1107C1.6665 5.5083 5.39746 1.77734 9.99984 1.77734M18.3332 10.1107C18.3332 14.7131 14.6022 18.444 9.99984 18.444M18.3332 10.1107C18.3332 5.5083 14.6022 1.77734 9.99984 1.77734M9.99984 1.77734C12.0842 4.0593 13.2688 7.02071 13.3332 10.1107C13.2688 13.2006 12.0842 16.1621 9.99984 18.444M9.99984 1.77734C7.91544 4.0593 6.73088 7.02071 6.6665 10.1107C6.73088 13.2006 7.91544 16.1621 9.99984 18.444" stroke="#414651" stroke-width="2" stroke-linecap="round" stroke-linejoin="round"/>
</g>
<defs>
<clipPath id="clip0_6002_21489">
<rect width="20" height="20" fill="white" transform="translate(0 0.109375)"/>
</clipPath>
</defs>
</svg>
