<svg width="21" height="20" viewBox="0 0 21 20" fill="none" xmlns="http://www.w3.org/2000/svg">
<path d="M0.5 20L1.90583 14.8642C1.03833 13.3608 0.5825 11.6567 0.583333 9.90917C0.585833 4.44583 5.03167 0 10.4942 0C13.145 0.000833333 15.6333 1.03333 17.505 2.90667C19.3758 4.78 20.4058 7.27 20.405 9.91833C20.4025 15.3825 15.9567 19.8283 10.4942 19.8283C8.83583 19.8275 7.20166 19.4117 5.75416 18.6217L0.5 20ZM5.9975 16.8275C7.39416 17.6567 8.7275 18.1533 10.4908 18.1542C15.0308 18.1542 18.7292 14.4592 18.7317 9.91667C18.7333 5.365 15.0525 1.675 10.4975 1.67333C5.95416 1.67333 2.25833 5.36833 2.25667 9.91C2.25583 11.7642 2.79917 13.1525 3.71167 14.605L2.87917 17.645L5.9975 16.8275ZM15.4867 12.2742C15.425 12.1708 15.26 12.1092 15.0117 11.985C14.7642 11.8608 13.5467 11.2617 13.3192 11.1792C13.0925 11.0967 12.9275 11.055 12.7617 11.3033C12.5967 11.5508 12.1217 12.1092 11.9775 12.2742C11.8333 12.4392 11.6883 12.46 11.4408 12.3358C11.1933 12.2117 10.395 11.9508 9.44916 11.1067C8.71333 10.45 8.21583 9.63917 8.07166 9.39083C7.9275 9.14333 8.05666 9.00917 8.18 8.88583C8.29166 8.775 8.4275 8.59667 8.55166 8.45167C8.6775 8.30833 8.71833 8.205 8.80166 8.03917C8.88416 7.87417 8.84333 7.72917 8.78083 7.605C8.71833 7.48167 8.22333 6.2625 8.0175 5.76667C7.81583 5.28417 7.61166 5.34917 7.46 5.34167L6.985 5.33333C6.82 5.33333 6.55166 5.395 6.325 5.64333C6.09833 5.89167 5.45833 6.49 5.45833 7.70917C5.45833 8.92833 6.34583 10.1058 6.46916 10.2708C6.59333 10.4358 8.215 12.9375 10.6992 14.01C11.29 14.265 11.7517 14.4175 12.1108 14.5317C12.7042 14.72 13.2442 14.6933 13.6708 14.63C14.1467 14.5592 15.1358 14.0308 15.3425 13.4525C15.5492 12.8733 15.5492 12.3775 15.4867 12.2742Z" fill="white"/>
</svg>
