<svg width="251" height="200" viewBox="0 0 251 200" fill="none" xmlns="http://www.w3.org/2000/svg">
    <path fill-rule="evenodd" clip-rule="evenodd" d="M207.5 65C211.366 65 214.5 68.134 214.5 72C214.5 75.866 211.366 79 207.5 79H167.5C171.366 79 174.5 82.134 174.5 86C174.5 89.866 171.366 93 167.5 93H189.5C193.366 93 196.5 96.134 196.5 100C196.5 103.866 193.366 107 189.5 107H179.326C174.452 107 170.5 110.134 170.5 114C170.5 116.577 172.5 118.911 176.5 121C180.366 121 183.5 124.134 183.5 128C183.5 131.866 180.366 135 176.5 135H93.5C89.634 135 86.5 131.866 86.5 128C86.5 124.134 89.634 121 93.5 121H54.5C50.634 121 47.5 117.866 47.5 114C47.5 110.134 50.634 107 54.5 107H94.5C98.366 107 101.5 103.866 101.5 100C101.5 96.134 98.366 93 94.5 93H69.5C65.634 93 62.5 89.866 62.5 86C62.5 82.134 65.634 79 69.5 79H109.5C105.634 79 102.5 75.866 102.5 72C102.5 68.134 105.634 65 109.5 65H207.5ZM207.5 93C211.366 93 214.5 96.134 214.5 100C214.5 103.866 211.366 107 207.5 107C203.634 107 200.5 103.866 200.5 100C200.5 96.134 203.634 93 207.5 93Z" fill="#E5E5EA"/>
    <path d="M155.41 63.8304C155.316 63.1464 154.685 62.668 154.002 62.7618C153.318 62.8556 152.839 63.486 152.933 64.17L155.41 63.8304ZM163.473 131.843L164.714 131.691C164.713 131.685 164.712 131.679 164.712 131.673L163.473 131.843ZM164.309 138.649L165.55 138.497L164.309 138.649ZM160.826 143.107L160.979 144.348L160.826 143.107ZM102.266 150.297L102.418 151.538L102.266 150.297ZM97.8083 146.814L99.049 146.662L97.8083 146.814ZM88.7926 73.3869L87.5519 73.5393L88.7926 73.3869ZM90.5547 71.1557L90.6941 72.3979L90.5547 71.1557ZM95.5524 71.8529C96.2385 71.7759 96.7322 71.1574 96.6553 70.4713C96.5783 69.7853 95.9598 69.2915 95.2737 69.3685L95.5524 71.8529ZM99.2023 68.9278C98.5162 69.0048 98.0224 69.6233 98.0994 70.3094C98.1764 70.9954 98.7949 71.4892 99.481 71.4122L99.2023 68.9278ZM104.068 70.8977C104.754 70.8207 105.248 70.2022 105.171 69.5161C105.094 68.8301 104.475 68.3363 103.789 68.4133L104.068 70.8977ZM152.933 64.17L162.235 132.013L164.712 131.673L155.41 63.8304L152.933 64.17ZM162.233 131.995L163.068 138.802L165.55 138.497L164.714 131.691L162.233 131.995ZM163.068 138.802C163.253 140.309 162.181 141.681 160.674 141.866L160.979 144.348C163.856 143.994 165.903 141.375 165.55 138.497L163.068 138.802ZM160.674 141.866L102.114 149.057L102.418 151.538L160.979 144.348L160.674 141.866ZM102.114 149.057C100.606 149.242 99.2341 148.17 99.049 146.662L96.5677 146.967C96.921 149.845 99.5404 151.891 102.418 151.538L102.114 149.057ZM99.049 146.662L90.0332 73.2346L87.5519 73.5393L96.5677 146.967L99.049 146.662ZM90.0332 73.2346C89.9828 72.8235 90.2751 72.4493 90.6863 72.3988L90.3816 69.9174C88.6 70.1362 87.3331 71.7577 87.5519 73.5393L90.0332 73.2346ZM90.6863 72.3988C90.6889 72.3985 90.6915 72.3982 90.6941 72.3979L90.4154 69.9135C90.4041 69.9147 90.3928 69.9161 90.3816 69.9174L90.6863 72.3988ZM90.6941 72.3979L95.5524 71.8529L95.2737 69.3685L90.4154 69.9135L90.6941 72.3979ZM99.481 71.4122L104.068 70.8977L103.789 68.4133L99.2023 68.9278L99.481 71.4122Z" fill="#1A62F5"/>
    <path fill-rule="evenodd" clip-rule="evenodd" d="M151.641 68.2691L160.06 129.753L160.818 135.921C161.062 137.908 159.668 139.714 157.704 139.956L105.262 146.395C103.298 146.636 101.509 145.22 101.265 143.233L93.1148 76.8567C92.9802 75.7603 93.7598 74.7625 94.8562 74.6278L101.344 73.8313" fill="#E5E5EA"/>
    <path d="M108.422 54C108.422 52.4812 109.653 51.25 111.172 51.25H156.729C157.458 51.25 158.157 51.5395 158.673 52.0549L172.116 65.4898C172.632 66.0056 172.922 66.7053 172.922 67.4349V130C172.922 131.519 171.691 132.75 170.172 132.75H111.172C109.653 132.75 108.422 131.519 108.422 130V54Z" fill="white" stroke="#1A62F5" stroke-width="2.5"/>
    <path d="M157.172 52.4028V64C157.172 65.6569 158.515 67 160.172 67H168.105" stroke="#1A62F5" stroke-width="2.5" stroke-linecap="round" stroke-linejoin="round"/>
    <path d="M118.5 118H144.5M118.5 67H144.5H118.5ZM118.5 79H161.5H118.5ZM118.5 92H161.5H118.5ZM118.5 105H161.5H118.5Z" stroke="#8EC7FF" stroke-width="2.5" stroke-linecap="round" stroke-linejoin="round"/>
</svg>
