<svg width="40" height="40" viewBox="0 0 40 40" fill="none" xmlns="http://www.w3.org/2000/svg">
    <g clip-path="url(#clip0_9499_13485)">
        <path d="M39.2027 10.3092C38.9766 9.4582 38.5309 8.68155 37.9103 8.05694C37.2896 7.43233 36.5158 6.98168 35.6663 6.75009C32.5391 5.90918 20.0391 5.90918 20.0391 5.90918C20.0391 5.90918 7.53906 5.90918 4.41179 6.75009C3.56228 6.98168 2.78849 7.43233 2.16788 8.05694C1.54726 8.68155 1.10157 9.4582 0.875426 10.3092C0.0390626 13.4501 0.0390625 20.0001 0.0390625 20.0001C0.0390625 20.0001 0.0390626 26.5501 0.875426 29.691C1.10157 30.542 1.54726 31.3186 2.16788 31.9432C2.78849 32.5678 3.56228 33.0185 4.41179 33.2501C7.53906 34.091 20.0391 34.091 20.0391 34.091C20.0391 34.091 32.5391 34.091 35.6663 33.2501C36.5158 33.0185 37.2896 32.5678 37.9103 31.9432C38.5309 31.3186 38.9766 30.542 39.2027 29.691C40.0391 26.5501 40.0391 20.0001 40.0391 20.0001C40.0391 20.0001 40.0391 13.4501 39.2027 10.3092Z" fill="#FF3B30"/>
        <path d="M15.9492 25.9477V14.0522L26.4038 20L15.9492 25.9477Z" fill="#FEFEFE"/>
    </g>
    <defs>
        <clipPath id="clip0_9499_13485">
            <rect width="40" height="40" fill="white"/>
        </clipPath>
    </defs>
</svg>
